M48
;Layer_Color=9474304
;FILE_FORMAT=4:4
METRIC
;TYPE=PLATED
T08F00S00C1.0000
;TYPE=NON_PLATED
%
G90
G05
T08
G00X00080000Y00357000
M15
G01X00070000
M16
G00X00090000Y00383000
M15
G01Y00393000
M16
G00X00057000Y00383000
M15
G01Y00393000
M16
G00X00943000Y00603000
M15
G01X00933000
M16
G00X00953000Y00640000
M15
G01Y00630000
M16
G00X00920000Y00640000
M15
G01Y00630000
M16
G00X00920000Y00786000
M15
G01Y00776000
M16
G00X00953000Y00786000
M15
G01Y00776000
M16
G00X00398000Y00724000
M15
G01Y00714000
M16
G00X00398000Y00578000
M15
G01Y00568000
M16
G00X00365000Y00578000
M15
G01Y00568000
M16
G00X00388000Y00541000
M15
G01X00378000
M16
G00X00268000Y00540000
M15
G01X00258000
M16
G00X00278000Y00577000
M15
G01Y00567000
M16
G00X00245000Y00577000
M15
G01Y00567000
M16
G00X00245000Y00723000
M15
G01Y00713000
M16
G00X00278000Y00723000
M15
G01Y00713000
M16
G00X00268000Y00749000
M15
G01X00258000
M16
G00X00388000Y00750000
M15
G01X00378000
M16
G00X00365000Y00724000
M15
G01Y00714000
M16
G00X00080000Y00566000
M15
G01X00070000
M16
G00X00090000Y00529000
M15
G01Y00539000
M16
G00X00057000Y00529000
M15
G01Y00539000
M16
G00X00069000Y00832000
M15
G01X00059000
M16
G00X00079000Y00869000
M15
G01Y00859000
M16
G00X00046000Y00869000
M15
G01Y00859000
M16
G00X00046000Y01015000
M15
G01Y01005000
M16
G00X00079000Y01015000
M15
G01Y01005000
M16
G00X00069000Y01041000
M15
G01X00059000
M16
G00X00444000Y01030000
M15
G01X00434000
M16
G00X00454000Y01004000
M15
G01Y00994000
M16
G00X00421000Y01004000
M15
G01Y00994000
M16
G00X00542000Y01004000
M15
G01Y00994000
M16
G00X00575000Y01004000
M15
G01Y00994000
M16
G00X00565000Y01030000
M15
G01X00555000
M16
G00X00575000Y00858000
M15
G01Y00848000
M16
G00X00542000Y00858000
M15
G01Y00848000
M16
G00X00565000Y00821000
M15
G01X00555000
M16
G00X00444000Y00821000
M15
G01X00434000
M16
G00X00454000Y00858000
M15
G01Y00848000
M16
G00X00421000Y00858000
M15
G01Y00848000
M16
G00X00943000Y00812000
M15
G01X00933000
M16
M30
