G04*
G04 #@! TF.GenerationSoftware,Altium Limited,Altium Designer,24.5.2 (23)*
G04*
G04 Layer_Color=128*
%FSAX44Y44*%
%MOMM*%
G71*
G04*
G04 #@! TF.SameCoordinates,681B41E9-879C-4D89-8942-872FBDD672BC*
G04*
G04*
G04 #@! TF.FilePolarity,Positive*
G04*
G01*
G75*
%ADD120C,0.1270*%
D120*
X00318500Y00698383D02*
X00325500D01*
X00322000Y00694883D02*
Y00701883D01*
X00318500Y00749000D02*
X00325500D01*
X00322000Y00745500D02*
Y00752500D01*
X00646500Y00649383D02*
X00653500D01*
X00650000Y00645883D02*
Y00652883D01*
X00646500Y00700000D02*
X00653500D01*
X00650000Y00696500D02*
Y00703500D01*
X00378000Y00541000D02*
X00388000D01*
X00383000Y00536000D02*
Y00546000D01*
X00360000Y00573000D02*
X00370000D01*
X00365000Y00568000D02*
Y00578000D01*
X00360000Y00719000D02*
X00370000D01*
X00365000Y00714000D02*
Y00724000D01*
X00393000Y00719000D02*
X00403000D01*
X00398000Y00714000D02*
Y00724000D01*
X00393000Y00573000D02*
X00403000D01*
X00398000Y00568000D02*
Y00578000D01*
X00378000Y00750000D02*
X00388000D01*
X00383000Y00745000D02*
Y00755000D01*
X00530500Y00471000D02*
X00537500D01*
X00534000Y00467500D02*
Y00474500D01*
X00530500Y00420383D02*
X00537500D01*
X00534000Y00416883D02*
Y00423883D01*
X00318450Y00662400D02*
X00325550D01*
X00322000Y00658850D02*
Y00665950D01*
X00318450Y00637000D02*
X00325550D01*
X00322000Y00633450D02*
Y00640550D01*
X00318450Y00611600D02*
X00325550D01*
X00322000Y00608050D02*
Y00615150D01*
X00358900Y00831200D02*
X00369100D01*
X00364000Y00826100D02*
Y00836300D01*
X00358900Y00856600D02*
X00369100D01*
X00364000Y00851500D02*
Y00861700D01*
X00358900Y00882000D02*
X00369100D01*
X00364000Y00876900D02*
Y00887100D01*
X00140900Y00815000D02*
X00150600D01*
X00145750Y00810150D02*
Y00819850D01*
X00140900Y00840400D02*
X00150600D01*
X00145750Y00835550D02*
Y00845250D01*
X00140900Y00865800D02*
X00150600D01*
X00145750Y00860950D02*
Y00870650D01*
X00217100Y00865800D02*
X00226800D01*
X00221950Y00860950D02*
Y00870650D01*
X00217100Y00840400D02*
X00226800D01*
X00221950Y00835550D02*
Y00845250D01*
X00217100Y00815000D02*
X00226800D01*
X00221950Y00810150D02*
Y00819850D01*
X00295000Y00825000D02*
X00305000D01*
X00300000Y00820000D02*
Y00830000D01*
X00295000Y00850000D02*
X00305000D01*
X00300000Y00845000D02*
Y00855000D01*
X00675690Y00964250D02*
X00683310D01*
X00679500Y00960440D02*
Y00968060D01*
X00846690Y00964500D02*
X00854310D01*
X00850500Y00960690D02*
Y00968310D01*
X00846940Y00563500D02*
X00854560D01*
X00850750Y00559690D02*
Y00567310D01*
X00676690Y00563750D02*
X00684310D01*
X00680500Y00559940D02*
Y00567560D01*
X00013000Y00762500D02*
X00031000D01*
X00022000Y00753500D02*
Y00771500D01*
X00013000Y00627500D02*
X00031000D01*
X00022000Y00618500D02*
Y00636500D01*
X00068500Y00731000D02*
X00095500D01*
X00082000Y00717500D02*
Y00744500D01*
X00068500Y00659000D02*
X00095500D01*
X00082000Y00645500D02*
Y00672500D01*
X00292000Y01240000D02*
X00306000D01*
X00299000Y01233000D02*
Y01247000D01*
X00342000Y01240000D02*
X00356000D01*
X00349000Y01233000D02*
Y01247000D01*
X00933000Y00867000D02*
X00947000D01*
X00940000Y00860000D02*
Y00874000D01*
X00933000Y00917000D02*
X00947000D01*
X00940000Y00910000D02*
Y00924000D01*
X00453000Y01240000D02*
X00467000D01*
X00460000Y01233000D02*
Y01247000D01*
X00403000Y01240000D02*
X00417000D01*
X00410000Y01233000D02*
Y01247000D01*
X00231000Y01240000D02*
X00245000D01*
X00238000Y01233000D02*
Y01247000D01*
X00181000Y01240000D02*
X00195000D01*
X00188000Y01233000D02*
Y01247000D01*
X00054000Y00172000D02*
X00068000D01*
X00061000Y00165000D02*
Y00179000D01*
X00054000Y00122000D02*
X00068000D01*
X00061000Y00115000D02*
Y00129000D01*
X00933000Y01074000D02*
X00947000D01*
X00940000Y01067000D02*
Y01081000D01*
X00933000Y01124000D02*
X00947000D01*
X00940000Y01117000D02*
Y01131000D01*
X00477000Y00465000D02*
X00491000D01*
X00484000Y00458000D02*
Y00472000D01*
X00477000Y00415000D02*
X00491000D01*
X00484000Y00408000D02*
Y00422000D01*
X00093000Y01144000D02*
X00109000D01*
X00101000Y01136000D02*
Y01152000D01*
X00048000Y01144000D02*
X00064000D01*
X00056000Y01136000D02*
Y01152000D01*
X00632500Y00963000D02*
X00639500D01*
X00636000Y00959500D02*
Y00966500D01*
X00632500Y00912383D02*
X00639500D01*
X00636000Y00908883D02*
Y00915883D01*
X00405000Y01148000D02*
X00415000D01*
X00410000Y01143000D02*
Y01153000D01*
X00430000Y01148000D02*
X00440000D01*
X00435000Y01143000D02*
Y01153000D01*
X00025000Y01260000D02*
X00055000D01*
X00040000Y01245000D02*
Y01275000D01*
X00514500Y00765000D02*
X00527500D01*
X00521000Y00758500D02*
Y00771500D01*
X00589500Y00765000D02*
X00602500D01*
X00596000Y00758500D02*
Y00771500D01*
X00589500Y00511600D02*
X00602500D01*
X00596000Y00505100D02*
Y00518100D01*
X00589500Y00562000D02*
X00602500D01*
X00596000Y00555500D02*
Y00568500D01*
X00589500Y00612400D02*
X00602500D01*
X00596000Y00605900D02*
Y00618900D01*
X00514500Y00511600D02*
X00527500D01*
X00521000Y00505100D02*
Y00518100D01*
X00514500Y00562000D02*
X00527500D01*
X00521000Y00555500D02*
Y00568500D01*
X00514500Y00612400D02*
X00527500D01*
X00521000Y00605900D02*
Y00618900D01*
X00135000Y00657000D02*
X00179000D01*
X00157000Y00635000D02*
Y00679000D01*
X00135000Y00730000D02*
X00179000D01*
X00157000Y00708000D02*
Y00752000D01*
X00116900Y01226200D02*
X00127100D01*
X00122000Y01221100D02*
Y01231300D01*
X00116900Y01277000D02*
X00127100D01*
X00122000Y01271900D02*
Y01282100D01*
X00116900Y01251600D02*
X00127100D01*
X00122000Y01246500D02*
Y01256700D01*
X00434000Y01030000D02*
X00444000D01*
X00439000Y01025000D02*
Y01035000D01*
X00449000Y00853000D02*
X00459000D01*
X00454000Y00848000D02*
Y00858000D01*
X00449000Y00999000D02*
X00459000D01*
X00454000Y00994000D02*
Y01004000D01*
X00416000Y00999000D02*
X00426000D01*
X00421000Y00994000D02*
Y01004000D01*
X00416000Y00853000D02*
X00426000D01*
X00421000Y00848000D02*
Y00858000D01*
X00434000Y00821000D02*
X00444000D01*
X00439000Y00816000D02*
Y00826000D01*
X00794500Y01006000D02*
X00801500D01*
X00798000Y01002500D02*
Y01009500D01*
X00743883Y01006000D02*
X00750883D01*
X00747383Y01002500D02*
Y01009500D01*
X00694000Y01198000D02*
X00704000D01*
X00699000Y01193000D02*
Y01203000D01*
X00669000Y01198000D02*
X00679000D01*
X00674000Y01193000D02*
Y01203000D01*
X00694000Y01267000D02*
X00704000D01*
X00699000Y01262000D02*
Y01272000D01*
X00669000Y01267000D02*
X00679000D01*
X00674000Y01262000D02*
Y01272000D01*
X00881000Y01198000D02*
X00891000D01*
X00886000Y01193000D02*
Y01203000D01*
X00856000Y01198000D02*
X00866000D01*
X00861000Y01193000D02*
Y01203000D01*
X00025000Y00040000D02*
X00055000D01*
X00040000Y00025000D02*
Y00055000D01*
X00570000Y00999000D02*
X00580000D01*
X00575000Y00994000D02*
Y01004000D01*
X00537000Y00999000D02*
X00547000D01*
X00542000Y00994000D02*
Y01004000D01*
X00570000Y00853000D02*
X00580000D01*
X00575000Y00848000D02*
Y00858000D01*
X00537000Y00853000D02*
X00547000D01*
X00542000Y00848000D02*
Y00858000D01*
X00555000Y00821000D02*
X00565000D01*
X00560000Y00816000D02*
Y00826000D01*
X00555000Y01030000D02*
X00565000D01*
X00560000Y01025000D02*
Y01035000D01*
X00947206Y00545945D02*
X00961206D01*
X00954206Y00538945D02*
Y00552945D01*
X00947206Y00495945D02*
X00961206D01*
X00954206Y00488945D02*
Y00502945D01*
X00213000Y00416000D02*
X00227000D01*
X00220000Y00409000D02*
Y00423000D01*
X00213000Y00466000D02*
X00227000D01*
X00220000Y00459000D02*
Y00473000D01*
X00762000Y00448000D02*
X00776000D01*
X00769000Y00441000D02*
Y00455000D01*
X00712000Y00448000D02*
X00726000D01*
X00719000Y00441000D02*
Y00455000D01*
X00496000Y01092000D02*
X00506000D01*
X00501000Y01087000D02*
Y01097000D01*
X00521000Y01092000D02*
X00531000D01*
X00526000Y01087000D02*
Y01097000D01*
X00579000Y01092000D02*
X00589000D01*
X00584000Y01087000D02*
Y01097000D01*
X00604000Y01092000D02*
X00614000D01*
X00609000Y01087000D02*
Y01097000D01*
X00190500Y00906000D02*
X00197500D01*
X00194000Y00902500D02*
Y00909500D01*
X00139883Y00906000D02*
X00146883D01*
X00143383Y00902500D02*
Y00909500D01*
X00945000Y00040000D02*
X00975000D01*
X00960000Y00025000D02*
Y00055000D01*
X00430000Y01092000D02*
X00440000D01*
X00435000Y01087000D02*
Y01097000D01*
X00405000Y01092000D02*
X00415000D01*
X00410000Y01087000D02*
Y01097000D01*
X00962000Y01003000D02*
X00972000D01*
X00967000Y00998000D02*
Y01008000D01*
X00962000Y00978000D02*
X00972000D01*
X00967000Y00973000D02*
Y00983000D01*
X00136000Y00031000D02*
X00146000D01*
X00141000Y00026000D02*
Y00036000D01*
X00111000Y00031000D02*
X00121000D01*
X00116000Y00026000D02*
Y00036000D01*
X00659900Y01056600D02*
X00670100D01*
X00665000Y01051500D02*
Y01061700D01*
X00659900Y01107400D02*
X00670100D01*
X00665000Y01102300D02*
Y01112500D01*
X00659900Y01082000D02*
X00670100D01*
X00665000Y01076900D02*
Y01087100D01*
X00258000Y00749000D02*
X00268000D01*
X00263000Y00744000D02*
Y00754000D01*
X00273000Y00572000D02*
X00283000D01*
X00278000Y00567000D02*
Y00577000D01*
X00273000Y00718000D02*
X00283000D01*
X00278000Y00713000D02*
Y00723000D01*
X00240000Y00718000D02*
X00250000D01*
X00245000Y00713000D02*
Y00723000D01*
X00240000Y00572000D02*
X00250000D01*
X00245000Y00567000D02*
Y00577000D01*
X00258000Y00540000D02*
X00268000D01*
X00263000Y00535000D02*
Y00545000D01*
X00945000Y01260000D02*
X00975000D01*
X00960000Y01245000D02*
Y01275000D01*
X00903023Y00388945D02*
X00933023D01*
X00918023Y00373945D02*
Y00403945D01*
X00861000Y00199000D02*
X00891000D01*
X00876000Y00184000D02*
Y00214000D01*
X00613000Y00448000D02*
X00627000D01*
X00620000Y00441000D02*
Y00455000D01*
X00563000Y00448000D02*
X00577000D01*
X00570000Y00441000D02*
Y00455000D01*
X00496000Y01158000D02*
X00506000D01*
X00501000Y01153000D02*
Y01163000D01*
X00521000Y01158000D02*
X00531000D01*
X00526000Y01153000D02*
Y01163000D01*
X00149500Y00424000D02*
X00156500D01*
X00153000Y00420500D02*
Y00427500D01*
X00149500Y00474617D02*
X00156500D01*
X00153000Y00471117D02*
Y00478117D01*
X00715000Y00284000D02*
X00745000D01*
X00730000Y00269000D02*
Y00299000D01*
X00582931Y00062000D02*
X00612931D01*
X00597931Y00047000D02*
Y00077000D01*
X00070000Y00566000D02*
X00080000D01*
X00075000Y00561000D02*
Y00571000D01*
X00052000Y00388000D02*
X00062000D01*
X00057000Y00383000D02*
Y00393000D01*
X00052000Y00534000D02*
X00062000D01*
X00057000Y00529000D02*
Y00539000D01*
X00085000Y00534000D02*
X00095000D01*
X00090000Y00529000D02*
Y00539000D01*
X00085000Y00388000D02*
X00095000D01*
X00090000Y00383000D02*
Y00393000D01*
X00070000Y00357000D02*
X00080000D01*
X00075000Y00352000D02*
Y00362000D01*
X00933000Y00812000D02*
X00943000D01*
X00938000Y00807000D02*
Y00817000D01*
X00948000Y00635000D02*
X00958000D01*
X00953000Y00630000D02*
Y00640000D01*
X00948000Y00781000D02*
X00958000D01*
X00953000Y00776000D02*
Y00786000D01*
X00915000Y00781000D02*
X00925000D01*
X00920000Y00776000D02*
Y00786000D01*
X00915000Y00635000D02*
X00925000D01*
X00920000Y00630000D02*
Y00640000D01*
X00933000Y00603000D02*
X00943000D01*
X00938000Y00598000D02*
Y00608000D01*
X00938000Y01191000D02*
X00948000D01*
X00943000Y01186000D02*
Y01196000D01*
X00963000Y01191000D02*
X00973000D01*
X00968000Y01186000D02*
Y01196000D01*
X00787000Y01198000D02*
X00797000D01*
X00792000Y01193000D02*
Y01203000D01*
X00762000Y01198000D02*
X00772000D01*
X00767000Y01193000D02*
Y01203000D01*
X00787000Y01267000D02*
X00797000D01*
X00792000Y01262000D02*
Y01272000D01*
X00762000Y01267000D02*
X00772000D01*
X00767000Y01262000D02*
Y01272000D01*
X00893900Y00968000D02*
X00904100D01*
X00899000Y00962900D02*
Y00973100D01*
X00893900Y01018800D02*
X00904100D01*
X00899000Y01013700D02*
Y01023900D01*
X00893900Y00993400D02*
X00904100D01*
X00899000Y00988300D02*
Y00998500D01*
X00830000Y00919000D02*
X00860000D01*
X00845000Y00904000D02*
Y00934000D01*
X00715000Y00915000D02*
X00745000D01*
X00730000Y00900000D02*
Y00930000D01*
X00785000Y00614000D02*
X00815000D01*
X00800000Y00599000D02*
Y00629000D01*
X00670000Y00609000D02*
X00700000D01*
X00685000Y00594000D02*
Y00624000D01*
X00041000Y00238000D02*
X00055000D01*
X00048000Y00231000D02*
Y00245000D01*
X00041000Y00288000D02*
X00055000D01*
X00048000Y00281000D02*
Y00295000D01*
X00579000Y01158000D02*
X00589000D01*
X00584000Y01153000D02*
Y01163000D01*
X00604000Y01158000D02*
X00614000D01*
X00609000Y01153000D02*
Y01163000D01*
X00384500Y00785000D02*
X00391500D01*
X00388000Y00781500D02*
Y00788500D01*
X00435117Y00785000D02*
X00442117D01*
X00438617Y00781500D02*
Y00788500D01*
X00713150Y01138450D02*
X00722850D01*
X00718000Y01133600D02*
Y01143300D01*
X00738550Y01138450D02*
X00748250D01*
X00743400Y01133600D02*
Y01143300D01*
X00763950Y01138450D02*
X00773650D01*
X00768800Y01133600D02*
Y01143300D01*
X00789350Y01138450D02*
X00799050D01*
X00794200Y01133600D02*
Y01143300D01*
X00814750Y01138450D02*
X00824450D01*
X00819600Y01133600D02*
Y01143300D01*
X00840150Y01138450D02*
X00849850D01*
X00845000Y01133600D02*
Y01143300D01*
X00840150Y01062250D02*
X00849850D01*
X00845000Y01057400D02*
Y01067100D01*
X00814750Y01062250D02*
X00824450D01*
X00819600Y01057400D02*
Y01067100D01*
X00789350Y01062250D02*
X00799050D01*
X00794200Y01057400D02*
Y01067100D01*
X00763950Y01062250D02*
X00773650D01*
X00768800Y01057400D02*
Y01067100D01*
X00738550Y01062250D02*
X00748250D01*
X00743400Y01057400D02*
Y01067100D01*
X00713150Y01062250D02*
X00722850D01*
X00718000Y01057400D02*
Y01067100D01*
X00493250Y00340750D02*
X00523250D01*
X00508250Y00325750D02*
Y00355750D01*
X00431250Y00296750D02*
X00461250D01*
X00446250Y00281750D02*
Y00311750D01*
X00493750Y00033500D02*
X00523750D01*
X00508750Y00018500D02*
Y00048500D01*
X00250250Y00077750D02*
X00280250D01*
X00265250Y00062750D02*
Y00092750D01*
X00186250Y00341750D02*
X00216250D01*
X00201250Y00326750D02*
Y00356750D01*
X00186750Y00034000D02*
X00216750D01*
X00201750Y00019000D02*
Y00049000D01*
X00333000Y01145000D02*
X00343000D01*
X00338000Y01140000D02*
Y01150000D01*
X00308000Y01145000D02*
X00318000D01*
X00313000Y01140000D02*
Y01150000D01*
X00220000Y01145000D02*
X00230000D01*
X00225000Y01140000D02*
Y01150000D01*
X00195000Y01145000D02*
X00205000D01*
X00200000Y01140000D02*
Y01150000D01*
X00881000Y01268000D02*
X00891000D01*
X00886000Y01263000D02*
Y01273000D01*
X00856000Y01268000D02*
X00866000D01*
X00861000Y01263000D02*
Y01273000D01*
X00059000Y01041000D02*
X00069000D01*
X00064000Y01036000D02*
Y01046000D01*
X00074000Y00864000D02*
X00084000D01*
X00079000Y00859000D02*
Y00869000D01*
X00074000Y01010000D02*
X00084000D01*
X00079000Y01005000D02*
Y01015000D01*
X00041000Y01010000D02*
X00051000D01*
X00046000Y01005000D02*
Y01015000D01*
X00041000Y00864000D02*
X00051000D01*
X00046000Y00859000D02*
Y00869000D01*
X00059000Y00832000D02*
X00069000D01*
X00064000Y00827000D02*
Y00837000D01*
X00826000Y00045000D02*
X00840000D01*
X00833000Y00038000D02*
Y00052000D01*
X00876000Y00045000D02*
X00890000D01*
X00883000Y00038000D02*
Y00052000D01*
X00319950Y00950600D02*
X00344050D01*
X00332000Y00938550D02*
Y00962650D01*
X00319950Y01082000D02*
X00344050D01*
X00332000Y01069950D02*
Y01094050D01*
X00299900Y01051300D02*
X00309900D01*
X00304900Y01046300D02*
Y01056300D01*
X00299900Y01026300D02*
X00309900D01*
X00304900Y01021300D02*
Y01031300D01*
X00299900Y01006300D02*
X00309900D01*
X00304900Y01001300D02*
Y01011300D01*
X00299900Y00981300D02*
X00309900D01*
X00304900Y00976300D02*
Y00986300D01*
X00514000Y01240000D02*
X00528000D01*
X00521000Y01233000D02*
Y01247000D01*
X00564000Y01240000D02*
X00578000D01*
X00571000Y01233000D02*
Y01247000D01*
X00420500Y00600000D02*
X00425500D01*
X00423000Y00597500D02*
Y00602500D01*
X00419500Y00658000D02*
X00424500D01*
X00422000Y00655500D02*
Y00660500D01*
X00296500Y00764000D02*
X00301500D01*
X00299000Y00761500D02*
Y00766500D01*
X00280500Y00795000D02*
X00285500D01*
X00283000Y00792500D02*
Y00797500D01*
X00462500Y00614862D02*
X00467500D01*
X00465000Y00612362D02*
Y00617362D01*
X00420500Y00762000D02*
X00425500D01*
X00423000Y00759500D02*
Y00764500D01*
X00419500Y00708000D02*
X00424500D01*
X00422000Y00705500D02*
Y00710500D01*
X00600500Y00830000D02*
X00605500D01*
X00603000Y00827500D02*
Y00832500D01*
X00600860Y00782182D02*
X00604860D01*
X00602860Y00780182D02*
Y00784182D01*
X00823669Y00552000D02*
X00827669D01*
X00825669Y00550000D02*
Y00554000D01*
X00813669Y00552000D02*
X00817669D01*
X00815669Y00550000D02*
Y00554000D01*
X00833000Y00552000D02*
X00837000D01*
X00835000Y00550000D02*
Y00554000D01*
X00813669Y00514525D02*
X00817669D01*
X00815669Y00512525D02*
Y00516525D01*
X00824082Y00523816D02*
X00828082D01*
X00826082Y00521816D02*
Y00525816D01*
X00814082Y00523816D02*
X00818082D01*
X00816082Y00521816D02*
Y00525816D01*
X00804082Y00523816D02*
X00808082D01*
X00806082Y00521816D02*
Y00525816D01*
X00804082Y00514817D02*
X00808082D01*
X00806082Y00512817D02*
Y00516816D01*
X00823669Y00514525D02*
X00827669D01*
X00825669Y00512525D02*
Y00516525D01*
X00813669Y00533525D02*
X00817669D01*
X00815669Y00531525D02*
Y00535525D01*
X00824082Y00542817D02*
X00828082D01*
X00826082Y00540816D02*
Y00544817D01*
X00814082Y00542817D02*
X00818082D01*
X00816082Y00540816D02*
Y00544817D01*
X00804082Y00542817D02*
X00808082D01*
X00806082Y00540816D02*
Y00544817D01*
X00804082Y00533816D02*
X00808082D01*
X00806082Y00531816D02*
Y00535816D01*
X00823669Y00533525D02*
X00827669D01*
X00825669Y00531525D02*
Y00535525D01*
X00824082Y00561000D02*
X00828082D01*
X00826082Y00559000D02*
Y00563000D01*
X00814082Y00561000D02*
X00818082D01*
X00816082Y00559000D02*
Y00563000D01*
X00804082Y00561000D02*
X00808082D01*
X00806082Y00559000D02*
Y00563000D01*
X00804082Y00552000D02*
X00808082D01*
X00806082Y00550000D02*
Y00554000D01*
X00650750Y01268500D02*
X00655750D01*
X00653250Y01266000D02*
Y01271000D01*
X00653500Y01135000D02*
X00658500D01*
X00656000Y01132500D02*
Y01137500D01*
X00608250Y01259250D02*
X00613250D01*
X00610750Y01256750D02*
Y01261750D01*
X00409000Y00431000D02*
X00413000D01*
X00411000Y00429000D02*
Y00433000D01*
X00437576Y00394544D02*
X00441576D01*
X00439576Y00392544D02*
Y00396544D01*
X00828000Y01022000D02*
X00832000D01*
X00830000Y01020000D02*
Y01024000D01*
X00180002Y00273583D02*
X00184002D01*
X00182002Y00271583D02*
Y00275583D01*
X00230342Y00272202D02*
X00234342D01*
X00232342Y00270202D02*
Y00274202D01*
X00467576Y00384544D02*
X00471576D01*
X00469576Y00382544D02*
Y00386544D01*
X00958213Y00187506D02*
X00962213D01*
X00960213Y00185506D02*
Y00189506D01*
X00863000Y00570000D02*
X00867000D01*
X00865000Y00568000D02*
Y00572000D01*
X00697237Y00989232D02*
X00702237D01*
X00699737Y00986732D02*
Y00991732D01*
X00220342Y00236202D02*
X00224342D01*
X00222342Y00234202D02*
Y00238202D01*
X00457315Y00402948D02*
X00461315D01*
X00459315Y00400948D02*
Y00404948D01*
X00631213Y00289506D02*
X00635213D01*
X00633213Y00287506D02*
Y00291506D01*
X00136000Y01104000D02*
X00140000D01*
X00138000Y01102000D02*
Y01106000D01*
X00152783Y00585193D02*
X00156784D01*
X00154783Y00583193D02*
Y00587193D01*
X00240129Y00236696D02*
X00244129D01*
X00242129Y00234696D02*
Y00238696D01*
X00069000Y01196000D02*
X00073000D01*
X00071000Y01194000D02*
Y01198000D01*
X00121000Y01039000D02*
X00125000D01*
X00123000Y01037000D02*
Y01041000D01*
X00179872Y00200887D02*
X00183872D01*
X00181872Y00198887D02*
Y00202887D01*
X00250129Y00272696D02*
X00254129D01*
X00252129Y00270696D02*
Y00274696D01*
X00601000Y00299000D02*
X00605000D01*
X00603000Y00297000D02*
Y00301000D01*
X00917952Y00123402D02*
X00921952D01*
X00919952Y00121402D02*
Y00125402D01*
X00978000Y00152000D02*
X00982000D01*
X00980000Y00150000D02*
Y00154000D01*
X00121000Y01076000D02*
X00125000D01*
X00123000Y01074000D02*
Y01078000D01*
X00059000Y01084000D02*
X00063000D01*
X00061000Y01082000D02*
Y01086000D01*
X00250000Y00209000D02*
X00254000D01*
X00252000Y00207000D02*
Y00211000D01*
X00651000Y00317000D02*
X00655000D01*
X00653000Y00315000D02*
Y00319000D01*
X00988000Y00188000D02*
X00992000D01*
X00990000Y00186000D02*
Y00190000D01*
X00121000Y01057000D02*
X00125000D01*
X00123000Y01055000D02*
Y01059000D01*
X00230213Y00199506D02*
X00234213D01*
X00232213Y00197506D02*
Y00201506D01*
X00477211Y00438610D02*
X00481211D01*
X00479211Y00436610D02*
Y00440610D01*
X00948213Y00196506D02*
X00952213D01*
X00950213Y00194506D02*
Y00198506D01*
X00987000Y00462000D02*
X00991000D01*
X00989000Y00460000D02*
Y00464000D01*
X00170000Y00500000D02*
X00175000D01*
X00172500Y00497500D02*
Y00502500D01*
X00437576Y00403544D02*
X00441576D01*
X00439576Y00401544D02*
Y00405544D01*
X00938213Y00160506D02*
X00942213D01*
X00940213Y00158506D02*
Y00162506D01*
X00818000Y00957000D02*
X00822000D01*
X00820000Y00955000D02*
Y00959000D01*
X00109077Y00273480D02*
X00113077D01*
X00111077Y00271480D02*
Y00275480D01*
X00976000Y00456000D02*
X00980000D01*
X00978000Y00454000D02*
Y00458000D01*
X00230213Y00208506D02*
X00234213D01*
X00232213Y00206506D02*
Y00210506D01*
X00467576Y00393544D02*
X00471576D01*
X00469576Y00391544D02*
Y00395544D01*
X00968213Y00187506D02*
X00972213D01*
X00970213Y00185506D02*
Y00189506D01*
X00853000Y00579000D02*
X00857000D01*
X00855000Y00577000D02*
Y00581000D01*
X00697306Y00978076D02*
X00702306D01*
X00699806Y00975576D02*
Y00980576D01*
X00180002Y00237583D02*
X00184002D01*
X00182002Y00235583D02*
Y00239583D01*
X00956000Y00456000D02*
X00960000D01*
X00958000Y00454000D02*
Y00458000D01*
X00230342Y00236202D02*
X00234342D01*
X00232342Y00234202D02*
Y00238202D01*
X00447315Y00402948D02*
X00451315D01*
X00449315Y00400948D02*
Y00404948D01*
X00621213Y00289506D02*
X00625213D01*
X00623213Y00287506D02*
Y00291506D01*
X00250129Y00227696D02*
X00254129D01*
X00252129Y00225696D02*
Y00229696D01*
X00457315Y00438948D02*
X00461315D01*
X00459315Y00436948D02*
Y00440948D01*
X00631213Y00325506D02*
X00635213D01*
X00633213Y00323506D02*
Y00327506D01*
X00162784Y00585193D02*
X00166784D01*
X00164783Y00583193D02*
Y00587193D01*
X00240129Y00272696D02*
X00244129D01*
X00242129Y00270696D02*
Y00274696D01*
X00611000Y00299000D02*
X00615000D01*
X00613000Y00297000D02*
Y00301000D01*
X00908000Y00096000D02*
X00912000D01*
X00910000Y00094000D02*
Y00098000D01*
X00988000Y00143000D02*
X00992000D01*
X00990000Y00141000D02*
Y00145000D01*
X00855500Y01119000D02*
X00860500D01*
X00858000Y01116500D02*
Y01121500D01*
X00200000Y00191000D02*
X00204000D01*
X00202000Y00189000D02*
Y00193000D01*
X00049000Y01084000D02*
X00053000D01*
X00051000Y01082000D02*
Y01086000D01*
X00978000Y00188000D02*
X00982000D01*
X00980000Y00186000D02*
Y00190000D01*
X00867000Y00966000D02*
X00871000D01*
X00869000Y00964000D02*
Y00968000D01*
X00841500Y01082000D02*
X00846500D01*
X00844000Y01079500D02*
Y01084500D01*
X00220213Y00199506D02*
X00224213D01*
X00222213Y00197506D02*
Y00201506D01*
X00988000Y00097000D02*
X00992000D01*
X00990000Y00095000D02*
Y00099000D01*
X00948205Y00514556D02*
X00952205D01*
X00950205Y00512556D02*
Y00516556D01*
X00316129Y00343696D02*
X00320129D01*
X00318129Y00341696D02*
Y00345696D01*
X00948213Y00160506D02*
X00952213D01*
X00950213Y00158506D02*
Y00162506D01*
X00828000Y00957000D02*
X00832000D01*
X00830000Y00955000D02*
Y00959000D01*
X00111000Y01048000D02*
X00115000D01*
X00113000Y01046000D02*
Y01050000D01*
X00220213Y00208506D02*
X00224213D01*
X00222213Y00206506D02*
Y00210506D01*
X00108948Y00191784D02*
X00112948D01*
X00110948Y00189784D02*
Y00193784D01*
X00467576Y00402544D02*
X00471576D01*
X00469576Y00400544D02*
Y00404544D01*
X00958213Y00196506D02*
X00962213D01*
X00960213Y00194506D02*
Y00198506D01*
X00863000Y00579000D02*
X00867000D01*
X00865000Y00577000D02*
Y00581000D01*
X00818000Y00995000D02*
X00822000D01*
X00820000Y00993000D02*
Y00997000D01*
X00710306Y01012076D02*
X00715306D01*
X00712806Y01009576D02*
Y01014576D01*
X00968000Y00505000D02*
X00972000D01*
X00970000Y00503000D02*
Y00507000D01*
X00220342Y00245202D02*
X00224342D01*
X00222342Y00243202D02*
Y00247202D01*
X00457315Y00393948D02*
X00461315D01*
X00459315Y00391948D02*
Y00395948D01*
X00631213Y00280506D02*
X00635213D01*
X00633213Y00278506D02*
Y00282506D01*
X00978000Y00515000D02*
X00982000D01*
X00980000Y00513000D02*
Y00517000D01*
X00190215Y00237089D02*
X00194215D01*
X00192215Y00235089D02*
Y00239089D01*
X00240129Y00227696D02*
X00244129D01*
X00242129Y00225696D02*
Y00229696D01*
X00447315Y00438948D02*
X00451315D01*
X00449315Y00436948D02*
Y00440948D01*
X00621213Y00325506D02*
X00625213D01*
X00623213Y00323506D02*
Y00327506D01*
X00958213Y00160506D02*
X00962213D01*
X00960213Y00158506D02*
Y00162506D01*
X00111000Y01039000D02*
X00115000D01*
X00113000Y01037000D02*
Y01041000D01*
X00179872Y00191887D02*
X00183872D01*
X00181872Y00189887D02*
Y00193887D01*
X00250129Y00263696D02*
X00254129D01*
X00252129Y00261696D02*
Y00265696D01*
X00601000Y00308000D02*
X00605000D01*
X00603000Y00306000D02*
Y00310000D01*
X00908000Y00105000D02*
X00912000D01*
X00910000Y00103000D02*
Y00107000D01*
X00978000Y00143000D02*
X00982000D01*
X00980000Y00141000D02*
Y00145000D01*
X00059000Y01072000D02*
X00063000D01*
X00061000Y01070000D02*
Y01074000D01*
X00210000Y00191000D02*
X00214000D01*
X00212000Y00189000D02*
Y00193000D01*
X00988000Y00179000D02*
X00992000D01*
X00990000Y00177000D02*
Y00181000D01*
X00230213Y00190506D02*
X00234213D01*
X00232213Y00188506D02*
Y00192506D01*
X00488905Y00429329D02*
X00492905D01*
X00490905Y00427329D02*
Y00431329D01*
X00427576Y00430544D02*
X00431576D01*
X00429576Y00428544D02*
Y00432544D01*
X00988000Y00106000D02*
X00992000D01*
X00990000Y00104000D02*
Y00108000D01*
X00197000Y01103000D02*
X00201000D01*
X00199000Y01101000D02*
Y01105000D01*
X00326129Y00343696D02*
X00330129D01*
X00328129Y00341696D02*
Y00345696D01*
X00478315Y00392948D02*
X00482315D01*
X00480315Y00390948D02*
Y00394948D01*
X00938213Y00169506D02*
X00942213D01*
X00940213Y00167506D02*
Y00171506D01*
X00427576Y00439544D02*
X00431576D01*
X00429576Y00437544D02*
Y00441544D01*
X00862587Y00560708D02*
X00866587D01*
X00864587Y00558708D02*
Y00562708D01*
X00968213Y00196506D02*
X00972213D01*
X00970213Y00194506D02*
Y00198506D01*
X00828000Y00995000D02*
X00832000D01*
X00830000Y00993000D02*
Y00997000D01*
X00230342Y00245202D02*
X00234342D01*
X00232342Y00243202D02*
Y00247202D01*
X00447315Y00393948D02*
X00451315D01*
X00449315Y00391948D02*
Y00395948D01*
X00621213Y00280506D02*
X00625213D01*
X00623213Y00278506D02*
Y00282506D01*
X00190215Y00228089D02*
X00194215D01*
X00192215Y00226089D02*
Y00230089D01*
X00172784Y00585193D02*
X00176784D01*
X00174783Y00583193D02*
Y00587193D01*
X00250129Y00218696D02*
X00254129D01*
X00252129Y00216696D02*
Y00220696D01*
X00457315Y00429948D02*
X00461315D01*
X00459315Y00427948D02*
Y00431948D01*
X00631213Y00316506D02*
X00635213D01*
X00633213Y00314506D02*
Y00318506D01*
X00968213Y00160506D02*
X00972213D01*
X00970213Y00158506D02*
Y00162506D01*
X00679500Y00879000D02*
X00684500D01*
X00682000Y00876500D02*
Y00881500D01*
X00968000Y00515000D02*
X00972000D01*
X00970000Y00513000D02*
Y00517000D01*
X00169872Y00191887D02*
X00173872D01*
X00171872Y00189887D02*
Y00193887D01*
X00182194Y00565984D02*
X00186194D01*
X00184194Y00563983D02*
Y00567984D01*
X00240129Y00263696D02*
X00244129D01*
X00242129Y00261696D02*
Y00265696D01*
X00611000Y00308000D02*
X00615000D01*
X00613000Y00306000D02*
Y00310000D01*
X00908000Y00114000D02*
X00912000D01*
X00910000Y00112000D02*
Y00116000D01*
X00988000Y00134000D02*
X00992000D01*
X00990000Y00132000D02*
Y00136000D01*
X00049000Y01072000D02*
X00053000D01*
X00051000Y01070000D02*
Y01074000D01*
X00978000Y00505000D02*
X00982000D01*
X00980000Y00503000D02*
Y00507000D01*
X00210129Y00236696D02*
X00214129D01*
X00212129Y00234696D02*
Y00238696D01*
X00200000Y00200000D02*
X00204000D01*
X00202000Y00198000D02*
Y00202000D01*
X00918000Y00096000D02*
X00922000D01*
X00920000Y00094000D02*
Y00098000D01*
X00978000Y00179000D02*
X00982000D01*
X00980000Y00177000D02*
Y00181000D01*
X00867000Y00975000D02*
X00871000D01*
X00869000Y00973000D02*
Y00977000D01*
X00079000Y01205000D02*
X00083000D01*
X00081000Y01203000D02*
Y01207000D01*
X00220213Y00190506D02*
X00224213D01*
X00222213Y00188506D02*
Y00192506D01*
X00488905Y00438329D02*
X00492905D01*
X00490905Y00436329D02*
Y00440329D01*
X00651000Y00290000D02*
X00655000D01*
X00653000Y00288000D02*
Y00292000D01*
X00988000Y00115000D02*
X00992000D01*
X00990000Y00113000D02*
Y00117000D01*
X00316129Y00352696D02*
X00320129D01*
X00318129Y00350696D02*
Y00354696D01*
X00478315Y00383948D02*
X00482315D01*
X00480315Y00381948D02*
Y00385948D01*
X00437576Y00430544D02*
X00441576D01*
X00439576Y00428544D02*
Y00432544D01*
X00948213Y00169506D02*
X00952213D01*
X00950213Y00167506D02*
Y00171506D01*
X00418000Y00440000D02*
X00422000D01*
X00420000Y00438000D02*
Y00442000D01*
X00966000Y00456000D02*
X00970000D01*
X00968000Y00454000D02*
Y00458000D01*
X00938213Y00133506D02*
X00942213D01*
X00940213Y00131506D02*
Y00135506D01*
X00833464Y00543217D02*
X00837464D01*
X00835464Y00541217D02*
Y00545217D01*
X00818000Y01004000D02*
X00822000D01*
X00820000Y01002000D02*
Y01006000D01*
X00220342Y00254202D02*
X00224342D01*
X00222342Y00252202D02*
Y00256202D01*
X00457315Y00384948D02*
X00461315D01*
X00459315Y00382948D02*
Y00386948D01*
X00641000Y00281000D02*
X00645000D01*
X00643000Y00279000D02*
Y00283000D01*
X00833000Y00561000D02*
X00837000D01*
X00835000Y00559000D02*
Y00563000D01*
X00711237Y00990058D02*
X00716237D01*
X00713737Y00987558D02*
Y00992558D01*
X00190215Y00219089D02*
X00194215D01*
X00192215Y00217089D02*
Y00221089D01*
X00240129Y00218696D02*
X00244129D01*
X00242129Y00216696D02*
Y00220696D01*
X00447315Y00429948D02*
X00451315D01*
X00449315Y00427948D02*
Y00431948D01*
X00621213Y00316506D02*
X00625213D01*
X00623213Y00314506D02*
Y00318506D01*
X00958213Y00169506D02*
X00962213D01*
X00960213Y00167506D02*
Y00171506D01*
X00190085Y00191392D02*
X00194085D01*
X00192085Y00189392D02*
Y00193392D01*
X00958205Y00514556D02*
X00962205D01*
X00960205Y00512556D02*
Y00516556D01*
X00178500Y00508000D02*
X00183500D01*
X00181000Y00505500D02*
Y00510500D01*
X00250129Y00254696D02*
X00254129D01*
X00252129Y00252696D02*
Y00256696D01*
X00601000Y00317000D02*
X00605000D01*
X00603000Y00315000D02*
Y00319000D01*
X00907952Y00150402D02*
X00911952D01*
X00909952Y00148402D02*
Y00152402D01*
X00978000Y00134000D02*
X00982000D01*
X00980000Y00132000D02*
Y00136000D01*
X00059000Y01063000D02*
X00063000D01*
X00061000Y01061000D02*
Y01065000D01*
X00829000Y00877000D02*
X00833000D01*
X00831000Y00875000D02*
Y00879000D01*
X00200129Y00236696D02*
X00204129D01*
X00202129Y00234696D02*
Y00238696D01*
X00210000Y00200000D02*
X00214000D01*
X00212000Y00198000D02*
Y00202000D01*
X00918000Y00105000D02*
X00922000D01*
X00920000Y00103000D02*
Y00107000D01*
X00988000Y00170000D02*
X00992000D01*
X00990000Y00168000D02*
Y00172000D01*
X00857000Y00984000D02*
X00861000D01*
X00859000Y00982000D02*
Y00986000D01*
X00841500Y01107000D02*
X00846500D01*
X00844000Y01104500D02*
Y01109500D01*
X00210129Y00272696D02*
X00214129D01*
X00212129Y00270696D02*
Y00274696D01*
X00182410Y00575790D02*
X00186410D01*
X00184410Y00573790D02*
Y00577790D01*
X00240000Y00191000D02*
X00244000D01*
X00242000Y00189000D02*
Y00193000D01*
X00641000Y00299000D02*
X00645000D01*
X00643000Y00297000D02*
Y00301000D01*
X00988000Y00124000D02*
X00992000D01*
X00990000Y00122000D02*
Y00126000D01*
X00326129Y00352696D02*
X00330129D01*
X00328129Y00350696D02*
Y00354696D01*
X00478000Y00375000D02*
X00482000D01*
X00480000Y00373000D02*
Y00377000D01*
X00437576Y00439544D02*
X00441576D01*
X00439576Y00437544D02*
Y00441544D01*
X00938213Y00178506D02*
X00942213D01*
X00940213Y00176506D02*
Y00180506D01*
X00326000Y00316000D02*
X00330000D01*
X00328000Y00314000D02*
Y00318000D01*
X00418000Y00431000D02*
X00422000D01*
X00420000Y00429000D02*
Y00433000D01*
X00467576Y00429544D02*
X00471576D01*
X00469576Y00427544D02*
Y00431544D01*
X00828000Y01004000D02*
X00832000D01*
X00830000Y01002000D02*
Y01006000D01*
X00230342Y00254202D02*
X00234342D01*
X00232342Y00252202D02*
Y00256202D01*
X00447315Y00384948D02*
X00451315D01*
X00449315Y00382948D02*
Y00386948D01*
X00651000Y00281000D02*
X00655000D01*
X00653000Y00279000D02*
Y00283000D01*
X00833000Y00570000D02*
X00837000D01*
X00835000Y00568000D02*
Y00572000D01*
X00711231Y00979019D02*
X00716231D01*
X00713731Y00976519D02*
Y00981519D01*
X00111430Y01029459D02*
X00115430D01*
X00113430Y01027459D02*
Y01031459D01*
X00937523Y00505910D02*
X00941523D01*
X00939523Y00503910D02*
Y00507910D01*
X00220342Y00218202D02*
X00224342D01*
X00222342Y00216202D02*
Y00220202D01*
X00153000Y00595000D02*
X00157000D01*
X00155000Y00593000D02*
Y00597000D01*
X00457315Y00420948D02*
X00461315D01*
X00459315Y00418948D02*
Y00422948D01*
X00631213Y00307506D02*
X00635213D01*
X00633213Y00305506D02*
Y00309506D01*
X00968213Y00169506D02*
X00972213D01*
X00970213Y00167506D02*
Y00171506D01*
X00190085Y00200392D02*
X00194085D01*
X00192085Y00198392D02*
Y00202392D01*
X00240129Y00254696D02*
X00244129D01*
X00242129Y00252696D02*
Y00256696D01*
X00611000Y00317000D02*
X00615000D01*
X00613000Y00315000D02*
Y00319000D01*
X00907952Y00141402D02*
X00911952D01*
X00909952Y00139402D02*
Y00143402D01*
X00049000Y01063000D02*
X00053000D01*
X00051000Y01061000D02*
Y01065000D01*
X00724575Y01012057D02*
X00729575D01*
X00727075Y01009557D02*
Y01014557D01*
X00111000Y01057000D02*
X00115000D01*
X00113000Y01055000D02*
Y01059000D01*
X00210129Y00227696D02*
X00214129D01*
X00212129Y00225696D02*
Y00229696D01*
X00182784Y00585193D02*
X00186784D01*
X00184783Y00583193D02*
Y00587193D01*
X00601000Y00281000D02*
X00605000D01*
X00603000Y00279000D02*
Y00283000D01*
X00918000Y00114000D02*
X00922000D01*
X00920000Y00112000D02*
Y00116000D01*
X00978000Y00170000D02*
X00982000D01*
X00980000Y00168000D02*
Y00172000D01*
X00867000Y00984000D02*
X00871000D01*
X00869000Y00982000D02*
Y00986000D01*
X00099000Y01196000D02*
X00103000D01*
X00101000Y01194000D02*
Y01198000D01*
X00200129Y00272696D02*
X00204129D01*
X00202129Y00270696D02*
Y00274696D01*
X00855500Y01082000D02*
X00860500D01*
X00858000Y01079500D02*
Y01084500D01*
X00651000Y00299000D02*
X00655000D01*
X00653000Y00297000D02*
Y00301000D01*
X00928000Y00124000D02*
X00932000D01*
X00930000Y00122000D02*
Y00126000D01*
X00838000Y00984000D02*
X00842000D01*
X00840000Y00982000D02*
Y00986000D01*
X00099000Y01205000D02*
X00103000D01*
X00101000Y01203000D02*
Y01207000D01*
X00316129Y00361696D02*
X00320129D01*
X00318129Y00359696D02*
Y00363696D01*
X00862587Y00551708D02*
X00866587D01*
X00864587Y00549708D02*
Y00553708D01*
X00488315Y00392948D02*
X00492315D01*
X00490315Y00390948D02*
Y00394948D01*
X00948213Y00178506D02*
X00952213D01*
X00950213Y00176506D02*
Y00180506D01*
X00316000Y00316000D02*
X00320000D01*
X00318000Y00314000D02*
Y00318000D01*
X00121430Y01020459D02*
X00125430D01*
X00123430Y01018459D02*
Y01022459D01*
X00467576Y00438544D02*
X00471576D01*
X00469576Y00436544D02*
Y00440544D01*
X00938213Y00142506D02*
X00942213D01*
X00940213Y00140506D02*
Y00144506D01*
X00818000Y01013000D02*
X00822000D01*
X00820000Y01011000D02*
Y01015000D01*
X00220342Y00263202D02*
X00224342D01*
X00222342Y00261202D02*
Y00265202D01*
X00173000Y00595000D02*
X00177000D01*
X00175000Y00593000D02*
Y00597000D01*
X00447000Y00376000D02*
X00451000D01*
X00449000Y00374000D02*
Y00378000D01*
X00641000Y00290000D02*
X00645000D01*
X00643000Y00288000D02*
Y00292000D01*
X00711231Y01001019D02*
X00716231D01*
X00713731Y00998519D02*
Y01003519D01*
X00180002Y00219583D02*
X00184002D01*
X00182002Y00217583D02*
Y00221583D01*
X00230342Y00218202D02*
X00234342D01*
X00232342Y00216202D02*
Y00220202D01*
X00447315Y00420948D02*
X00451315D01*
X00449315Y00418948D02*
Y00422948D01*
X00621213Y00307506D02*
X00625213D01*
X00623213Y00305506D02*
Y00309506D01*
X00842587Y00551708D02*
X00846587D01*
X00844587Y00549708D02*
Y00553708D01*
X00250129Y00245696D02*
X00254129D01*
X00252129Y00243696D02*
Y00247696D01*
X00907952Y00132402D02*
X00911952D01*
X00909952Y00130402D02*
Y00134402D01*
X00987000Y00489000D02*
X00991000D01*
X00989000Y00487000D02*
Y00491000D01*
X00200129Y00227696D02*
X00204129D01*
X00202129Y00225696D02*
Y00229696D01*
X00725500Y01001000D02*
X00730500D01*
X00728000Y00998500D02*
Y01003500D01*
X00186500Y00517000D02*
X00191500D01*
X00189000Y00514500D02*
Y00519500D01*
X00611000Y00281000D02*
X00615000D01*
X00613000Y00279000D02*
Y00283000D01*
X00917952Y00150402D02*
X00921952D01*
X00919952Y00148402D02*
Y00152402D01*
X00988000Y00161000D02*
X00992000D01*
X00990000Y00159000D02*
Y00163000D01*
X00111000Y01067000D02*
X00115000D01*
X00113000Y01065000D02*
Y01069000D01*
X00079000Y01196000D02*
X00083000D01*
X00081000Y01194000D02*
Y01198000D01*
X00121430Y01029459D02*
X00125430D01*
X00123430Y01027459D02*
Y01031459D01*
X00210129Y00263696D02*
X00214129D01*
X00212129Y00261696D02*
Y00265696D01*
X00240000Y00200000D02*
X00244000D01*
X00242000Y00198000D02*
Y00202000D01*
X00641000Y00308000D02*
X00645000D01*
X00643000Y00306000D02*
Y00310000D01*
X00928000Y00133000D02*
X00932000D01*
X00930000Y00131000D02*
Y00135000D01*
X00848000Y00984000D02*
X00852000D01*
X00850000Y00982000D02*
Y00986000D01*
X00326129Y00361696D02*
X00330129D01*
X00328129Y00359696D02*
Y00363696D01*
X00488315Y00383948D02*
X00492315D01*
X00490315Y00381948D02*
Y00385948D01*
X00938213Y00187506D02*
X00942213D01*
X00940213Y00185506D02*
Y00189506D01*
X00818000Y00984000D02*
X00822000D01*
X00820000Y00982000D02*
Y00986000D01*
X00437261Y00376596D02*
X00441261D01*
X00439261Y00374596D02*
Y00378596D01*
X00828000Y01013000D02*
X00832000D01*
X00830000Y01011000D02*
Y01015000D01*
X00180002Y00264583D02*
X00184002D01*
X00182002Y00262583D02*
Y00266583D01*
X00462500Y00705862D02*
X00467500D01*
X00465000Y00703362D02*
Y00708362D01*
X00230342Y00263202D02*
X00234342D01*
X00232342Y00261202D02*
Y00265202D01*
X00457000Y00376000D02*
X00461000D01*
X00459000Y00374000D02*
Y00378000D01*
X00958213Y00178506D02*
X00962213D01*
X00960213Y00176506D02*
Y00180506D01*
X00843000Y00579000D02*
X00847000D01*
X00845000Y00577000D02*
Y00581000D01*
X00111000Y01085000D02*
X00115000D01*
X00113000Y01083000D02*
Y01087000D01*
X00697231Y01000193D02*
X00702231D01*
X00699731Y00997693D02*
Y01002693D01*
X00220342Y00227202D02*
X00224342D01*
X00222342Y00225202D02*
Y00229202D01*
X00183000Y00595000D02*
X00187000D01*
X00185000Y00593000D02*
Y00597000D01*
X00457315Y00411948D02*
X00461315D01*
X00459315Y00409948D02*
Y00413948D01*
X00631213Y00298506D02*
X00635213D01*
X00633213Y00296506D02*
Y00300506D01*
X00682699Y00978065D02*
X00687699D01*
X00685199Y00975565D02*
Y00980565D01*
X00121000Y01048000D02*
X00125000D01*
X00123000Y01046000D02*
Y01050000D01*
X00190215Y00273089D02*
X00194215D01*
X00192215Y00271089D02*
Y00275089D01*
X00240129Y00245696D02*
X00244129D01*
X00242129Y00243696D02*
Y00247696D01*
X00907952Y00123402D02*
X00911952D01*
X00909952Y00121402D02*
Y00125402D01*
X00725500Y00979000D02*
X00730500D01*
X00728000Y00976500D02*
Y00981500D01*
X00089000Y01196000D02*
X00093000D01*
X00091000Y01194000D02*
Y01198000D01*
X00841500Y01119000D02*
X00846500D01*
X00844000Y01116500D02*
Y01121500D01*
X00210129Y00218696D02*
X00214129D01*
X00212129Y00216696D02*
Y00220696D01*
X00601000Y00290000D02*
X00605000D01*
X00603000Y00288000D02*
Y00292000D01*
X00917952Y00141402D02*
X00921952D01*
X00919952Y00139402D02*
Y00143402D01*
X00978000Y00161000D02*
X00982000D01*
X00980000Y00159000D02*
Y00163000D01*
X00121000Y01067000D02*
X00125000D01*
X00123000Y01065000D02*
Y01069000D01*
X00200129Y00263696D02*
X00204129D01*
X00202129Y00261696D02*
Y00265696D01*
X00651000Y00308000D02*
X00655000D01*
X00653000Y00306000D02*
Y00310000D01*
X00928000Y00142000D02*
X00932000D01*
X00930000Y00140000D02*
Y00144000D01*
X00988000Y00197000D02*
X00992000D01*
X00990000Y00195000D02*
Y00199000D01*
X00488000Y00375000D02*
X00492000D01*
X00490000Y00373000D02*
Y00377000D01*
X00948213Y00187506D02*
X00952213D01*
X00950213Y00185506D02*
Y00189506D01*
X00987000Y00480000D02*
X00991000D01*
X00989000Y00478000D02*
Y00482000D01*
X00828000Y00984000D02*
X00832000D01*
X00830000Y00982000D02*
Y00986000D01*
X00855500Y01094213D02*
X00860500D01*
X00858000Y01091713D02*
Y01096713D01*
X00409000Y00440000D02*
X00413000D01*
X00411000Y00438000D02*
Y00442000D01*
X00936000Y00456000D02*
X00940000D01*
X00938000Y00454000D02*
Y00458000D01*
X00437576Y00385544D02*
X00441576D01*
X00439576Y00383544D02*
Y00387544D01*
X00938213Y00151506D02*
X00942213D01*
X00940213Y00149506D02*
Y00153506D01*
X00818000Y01022000D02*
X00822000D01*
X00820000Y01020000D02*
Y01024000D01*
X00669500Y00978000D02*
X00674500D01*
X00672000Y00975500D02*
Y00980500D01*
X00220342Y00272202D02*
X00224342D01*
X00222342Y00270202D02*
Y00274202D01*
X00170002Y00273583D02*
X00174002D01*
X00172002Y00271583D02*
Y00275583D01*
X00946000Y00456000D02*
X00950000D01*
X00948000Y00454000D02*
Y00458000D01*
X00467261Y00375596D02*
X00471261D01*
X00469261Y00373596D02*
Y00377596D01*
X00968213Y00178506D02*
X00972213D01*
X00970213Y00176506D02*
Y00180506D01*
X00121000Y01085000D02*
X00125000D01*
X00123000Y01083000D02*
Y01087000D01*
X00697231Y01011193D02*
X00702231D01*
X00699731Y01008693D02*
Y01013693D01*
X00180002Y00228583D02*
X00184002D01*
X00182002Y00226583D02*
Y00230583D01*
X00230342Y00227202D02*
X00234342D01*
X00232342Y00225202D02*
Y00229202D01*
X00447315Y00411948D02*
X00451315D01*
X00449315Y00409948D02*
Y00413948D01*
X00621213Y00298506D02*
X00625213D01*
X00623213Y00296506D02*
Y00300506D01*
X00190215Y00264089D02*
X00194215D01*
X00192215Y00262089D02*
Y00266089D01*
X00250129Y00236696D02*
X00254129D01*
X00252129Y00234696D02*
Y00238696D01*
X00987000Y00498000D02*
X00991000D01*
X00989000Y00496000D02*
Y00500000D01*
X00725506Y00990039D02*
X00730506D01*
X00728006Y00987539D02*
Y00992539D01*
X00069000Y01205000D02*
X00073000D01*
X00071000Y01203000D02*
Y01207000D01*
X00111430Y01020459D02*
X00115430D01*
X00113430Y01018459D02*
Y01022459D01*
X00841506Y01094213D02*
X00846506D01*
X00844006Y01091713D02*
Y01096713D01*
X00200129Y00218696D02*
X00204129D01*
X00202129Y00216696D02*
Y00220696D01*
X00163000Y00595000D02*
X00167000D01*
X00165000Y00593000D02*
Y00597000D01*
X00855500Y01107000D02*
X00860500D01*
X00858000Y01104500D02*
Y01109500D01*
X00611000Y00290000D02*
X00615000D01*
X00613000Y00288000D02*
Y00292000D01*
X00917952Y00132402D02*
X00921952D01*
X00919952Y00130402D02*
Y00134402D01*
X00988000Y00152000D02*
X00992000D01*
X00990000Y00150000D02*
Y00154000D01*
X00111000Y01076000D02*
X00115000D01*
X00113000Y01074000D02*
Y01078000D01*
X00988000Y00515000D02*
X00992000D01*
X00990000Y00513000D02*
Y00517000D01*
X00938205Y00514556D02*
X00942205D01*
X00940205Y00512556D02*
Y00516556D01*
X00240000Y00209000D02*
X00244000D01*
X00242000Y00207000D02*
Y00211000D01*
X00641000Y00317000D02*
X00645000D01*
X00643000Y00315000D02*
Y00319000D01*
X00928000Y00151000D02*
X00932000D01*
X00930000Y00149000D02*
Y00153000D01*
X00978000Y00197000D02*
X00982000D01*
X00980000Y00195000D02*
Y00199000D01*
X00867000Y00957000D02*
X00871000D01*
X00869000Y00955000D02*
Y00959000D01*
X00089000Y01205000D02*
X00093000D01*
X00091000Y01203000D02*
Y01207000D01*
X00492000Y00402000D02*
X00496000D01*
X00494000Y00400000D02*
Y00404000D01*
X00938213Y00196506D02*
X00942213D01*
X00940213Y00194506D02*
Y00198506D01*
X00987000Y00471000D02*
X00991000D01*
X00989000Y00469000D02*
Y00473000D01*
M02*
