M48
;Layer_Color=9474304
;FILE_FORMAT=4:4
METRIC
;TYPE=PLATED
T01F00S00C0.4000
T02F00S00C0.5000
T03F00S00C0.7000
T04F00S00C0.7100
T05F00S00C0.7620
T06F00S00C0.9700
T07F00S00C1.0000
T09F00S00C1.0200
T10F00S00C1.3000
T11F00S00C1.4000
T12F00S00C1.8000
T13F00S00C2.4100
T14F00S00C2.7000
T15F00S00C3.0000
T16F00S00C4.4000
;TYPE=NON_PLATED
T17F00S00C1.6000
T18F00S00C3.0000
%
T01
X00110948Y00191784
X00171872Y00191887
X00181872
Y00200887
X00192085Y00200392
Y00191392
X00202000Y00191000
Y00200000
X00212000
Y00191000
X00222213Y00190506
Y00199506
Y00208506
X00222342Y00218202
Y00227202
Y00236202
Y00245202
Y00254202
Y00263202
Y00272202
X00232342
Y00263202
Y00254202
Y00245202
Y00236202
Y00227202
Y00218202
X00232213Y00208506
Y00199506
Y00190506
X00242000Y00191000
Y00200000
Y00209000
X00242129Y00218696
Y00227696
Y00236696
Y00245696
Y00254696
Y00263696
Y00272696
X00252129
Y00263696
Y00254696
Y00245696
Y00236696
Y00227696
Y00218696
X00252000Y00209000
X00212129Y00218696
Y00227696
Y00236696
X00202129
Y00227696
Y00218696
X00192215Y00219089
Y00228089
Y00237089
X00182002Y00237583
Y00228583
Y00219583
Y00264583
Y00273583
X00172002
X00192215Y00273089
Y00264089
X00202129Y00263696
Y00272696
X00212129
Y00263696
X00111077Y00273480
X00318000Y00316000
X00328000
X00328129Y00343696
Y00352696
Y00361696
X00318129
Y00352696
Y00343696
X00439261Y00376596
X00439576Y00385544
Y00394544
X00449315Y00393948
Y00384948
X00449000Y00376000
X00459000
X00459315Y00384948
Y00393948
X00469576Y00393544
Y00384544
X00469261Y00375596
X00480000Y00375000
X00480315Y00383948
Y00392948
X00490315
Y00383948
X00490000Y00375000
X00603000Y00317000
Y00308000
Y00299000
Y00290000
Y00281000
X00613000
Y00290000
Y00299000
Y00308000
Y00317000
X00623213Y00316506
Y00325506
X00633213
Y00316506
Y00307506
Y00298506
Y00289506
Y00280506
X00623213
Y00289506
Y00298506
Y00307506
X00643000Y00308000
Y00299000
Y00290000
Y00281000
X00653000
Y00290000
Y00299000
Y00308000
Y00317000
X00643000
X00940213Y00196506
Y00187506
Y00178506
Y00169506
Y00160506
Y00151506
Y00142506
Y00133506
X00930000Y00133000
Y00124000
X00919952Y00123402
Y00132402
Y00141402
Y00150402
X00909952
Y00141402
Y00132402
Y00123402
X00910000Y00114000
Y00105000
Y00096000
X00920000
Y00105000
Y00114000
X00930000Y00142000
Y00151000
X00950213Y00160506
Y00169506
Y00178506
Y00187506
Y00196506
X00960213
Y00187506
Y00178506
Y00169506
Y00160506
X00970213
Y00169506
Y00178506
Y00187506
Y00196506
X00980000Y00197000
Y00188000
Y00179000
Y00170000
Y00161000
Y00152000
Y00143000
Y00134000
X00990000
Y00143000
Y00152000
Y00161000
Y00170000
Y00179000
Y00188000
Y00197000
Y00124000
Y00115000
Y00106000
Y00097000
X00989000Y00462000
Y00471000
Y00480000
Y00489000
Y00498000
X00980000Y00505000
X00970000
X00970000Y00515000
X00980000
X00990000
X00960205Y00514556
X00950205
X00940205
X00939523Y00505910
X00938000Y00456000
X00948000
X00958000
X00968000
X00978000
X00864587Y00551708
Y00560708
X00865000Y00570000
Y00579000
X00855000
X00845000
X00835000Y00570000
Y00561000
X00826082
X00825669Y00552000
X00835000
X00835464Y00543217
X00826082Y00542817
X00825669Y00533525
X00815669
X00816082Y00542817
X00815669Y00552000
X00816082Y00561000
X00806082
Y00552000
Y00542817
Y00533816
Y00523816
Y00514817
X00815669Y00514525
X00816082Y00523816
X00826082
X00825669Y00514525
X00844587Y00551708
X00490905Y00438329
Y00429329
X00479211Y00438610
X00469576Y00438544
Y00429544
X00459315Y00429948
Y00438948
X00449315
Y00429948
Y00420948
Y00411948
Y00402948
X00459315
Y00411948
Y00420948
X00469576Y00402544
X00494000Y00402000
X00439576Y00403544
Y00430544
Y00439544
X00429576
Y00430544
X00420000Y00431000
Y00440000
X00411000
Y00431000
X00602860Y00782182
X00185000Y00595000
X00175000
X00165000
X00155000
X00154783Y00585193
X00164783
X00174783
X00184783
X00184410Y00575790
X00184194Y00565984
X00123430Y01020459
Y01029459
X00123000Y01039000
Y01048000
Y01057000
Y01067000
Y01076000
Y01085000
X00113000
Y01076000
Y01067000
Y01057000
Y01048000
Y01039000
X00113430Y01029459
Y01020459
X00061000Y01063000
Y01072000
X00051000
Y01063000
Y01084000
X00061000
X00138000Y01104000
X00199000Y01103000
X00820000Y01022000
Y01013000
Y01004000
Y00995000
X00830000
Y01004000
Y01013000
Y01022000
Y00984000
X00840000
X00850000
X00859000
X00869000
Y00975000
Y00966000
Y00957000
X00830000
X00820000
Y00984000
X00831000Y00877000
X00101000Y01196000
Y01205000
X00091000
Y01196000
X00081000
Y01205000
X00071000
Y01196000
T02
X00423000Y00600000
X00465000Y00614862
X00422000Y00658000
Y00708000
X00465000Y00705862
X00423000Y00762000
X00299000Y00764000
X00189000Y00517000
X00181000Y00508000
X00172500Y00500000
X00283000Y00795000
X00603000Y00830000
X00682000Y00879000
X00685199Y00978065
X00672000Y00978000
X00699806Y00978076
X00699737Y00989232
X00699731Y01000193
Y01011193
X00712806Y01012076
X00713731Y01001019
X00713737Y00990058
X00713731Y00979019
X00728000Y00979000
X00728006Y00990039
X00728000Y01001000
X00727075Y01012057
X00656000Y01135000
X00844000Y01119000
Y01107000
X00844006Y01094213
X00844000Y01082000
X00858000
Y01094213
Y01107000
Y01119000
X00653250Y01268500
X00610750Y01259250
T03
X00534000Y00420383
Y00471000
X00650000Y00649383
Y00700000
X00438617Y00785000
X00388000
X00322000Y00749000
Y00698383
X00153000Y00474617
Y00424000
X00143383Y00906000
X00194000
X00636000Y00912383
Y00963000
X00747383Y01006000
X00798000
T04
X00322000Y00611600
Y00637000
Y00662400
T05
X00850750Y00563500
X00680500Y00563750
X00679500Y00964250
X00850500Y00964500
T06
X00145750Y00815000
Y00840400
Y00865800
X00221950
Y00840400
Y00815000
X00718000Y01062250
X00743400
X00768800
Y01138450
X00743400
X00718000
X00794200
X00819600
X00845000
Y01062250
X00819600
X00794200
T07
X00116000Y00031000
X00141000
X00300000Y00825000
Y00850000
X00304900Y00981300
Y01006300
Y01026300
Y01051300
X00313000Y01145000
X00338000
X00225000
X00200000
X00410000Y01148000
X00435000
Y01092000
X00410000
X00501000
X00526000
X00584000
X00609000
Y01158000
X00584000
X00526000
X00501000
X00967000Y01003000
Y00978000
X00968000Y01191000
X00943000
X00886000Y01198000
X00861000
Y01268000
X00886000
X00792000Y01267000
X00767000
X00699000Y01267000
X00674000
Y01198000
X00699000
X00767000Y01198000
X00792000
T09
X00364000Y00831200
Y00856600
Y00882000
X00665000Y01056600
Y01082000
Y01107400
X00899000Y01018800
Y00993400
Y00968000
X00122000Y01226200
Y01251600
Y01277000
T10
X00521000Y00511600
Y00562000
Y00612400
X00596000
Y00562000
Y00511600
Y00765000
X00521000
T11
X00061000Y00122000
Y00172000
X00048000Y00238000
Y00288000
X00833000Y00045000
X00883000
X00954206Y00495945
Y00545945
X00769000Y00448000
X00719000
X00620000
X00570000
X00484000Y00465000
Y00415000
X00220000Y00416000
Y00466000
X00940000Y00867000
Y00917000
Y01074000
Y01124000
X00571000Y01240000
X00521000
X00460000
X00410000
X00349000
X00299000
X00238000
X00188000
T12
X00022000Y00627500
Y00762500
T13
X00332000Y00950600
Y01082000
T14
X00082000Y00659000
Y00731000
T15
X00040000Y00040000
X00201750Y00034000
X00201250Y00341750
X00508250Y00340750
X00508750Y00033500
X00960000Y00040000
X00685000Y00609000
X00845000Y00919000
X00960000Y01260000
X00040000
T16
X00157000Y00657000
Y00730000
T17
X00056000Y01144000
X00101000
T18
X00265250Y00077750
X00597931Y00062000
X00730000Y00284000
X00446250Y00296750
X00876000Y00199000
X00918023Y00388945
X00800000Y00614000
X00730000Y00915000
M30
