G04*
G04 #@! TF.GenerationSoftware,Altium Limited,Altium Designer,24.5.2 (23)*
G04*
G04 Layer_Color=128*
%FSAX44Y44*%
%MOMM*%
G71*
G04*
G04 #@! TF.SameCoordinates,681B41E9-879C-4D89-8942-872FBDD672BC*
G04*
G04*
G04 #@! TF.FilePolarity,Positive*
G04*
G01*
G75*
%ADD17R,2.1500X2.2000*%
%ADD18R,2.4000X6.4000*%
%ADD19R,1.2000X1.2000*%
%ADD20R,1.4000X0.9500*%
%ADD21C,1.2000*%
%ADD22C,1.2170*%
%ADD23R,1.5500X1.5500*%
%ADD24C,1.5500*%
%ADD25C,1.5090*%
%ADD26R,1.5090X1.5090*%
%ADD27C,1.5240*%
%ADD28C,2.7000*%
%ADD29C,4.0500*%
%ADD30R,4.0500X4.0500*%
%ADD31R,2.1000X2.1000*%
%ADD32C,2.1000*%
%ADD33R,2.1000X2.1000*%
%ADD34C,0.8000*%
%ADD35C,5.0000*%
%ADD36C,6.5000*%
%ADD37R,1.2000X1.2000*%
%ADD40R,6.4000X2.4000*%
%ADD42C,4.0000*%
%ADD43R,1.5090X1.5090*%
%ADD46C,3.6150*%
%ADD47C,1.5000*%
%ADD48R,1.5000X1.5000*%
%ADD96R,1.2500X0.6000*%
%ADD97R,1.2500X0.5000*%
%ADD98R,0.9500X1.7500*%
%ADD99R,3.2000X1.7500*%
%ADD100R,1.5280X0.6500*%
%ADD101R,0.9500X1.4000*%
%ADD102R,3.0000X1.6000*%
%ADD103R,6.7000X6.7000*%
%ADD104R,3.8100X4.2400*%
%ADD105R,1.0750X0.5000*%
D17*
X00152000Y01121000D02*
D03*
Y01165000D02*
D03*
D18*
X00683000Y00839000D02*
D03*
Y00739000D02*
D03*
X00831000Y00839000D02*
D03*
Y00739000D02*
D03*
X00200000Y01059000D02*
D03*
Y00959000D02*
D03*
D19*
X00512000Y00789000D02*
D03*
Y00810000D02*
D03*
X00490000Y00789000D02*
D03*
Y00810000D02*
D03*
X00322000Y00749000D02*
D03*
X00650000Y00649383D02*
D03*
X00534000Y00420383D02*
D03*
X00636000Y00912383D02*
D03*
X00153000Y00474617D02*
D03*
D20*
X00490000Y00605000D02*
D03*
Y00624000D02*
D03*
X00336000Y00531000D02*
D03*
Y00550000D02*
D03*
X00450000Y00494000D02*
D03*
Y00475000D02*
D03*
X00475000Y00659000D02*
D03*
Y00640000D02*
D03*
D21*
X00322000Y00698383D02*
D03*
X00650000Y00700000D02*
D03*
X00534000Y00471000D02*
D03*
X00636000Y00963000D02*
D03*
X00798000Y01006000D02*
D03*
X00143383Y00906000D02*
D03*
X00153000Y00424000D02*
D03*
X00388000Y00785000D02*
D03*
D22*
X00322000Y00662400D02*
D03*
Y00637000D02*
D03*
Y00611600D02*
D03*
D23*
X00364000Y00831200D02*
D03*
X00122000Y01226200D02*
D03*
X00665000Y01056600D02*
D03*
X00899000Y00968000D02*
D03*
D24*
X00364000Y00856600D02*
D03*
Y00882000D02*
D03*
X00122000Y01277000D02*
D03*
Y01251600D02*
D03*
X00665000Y01107400D02*
D03*
Y01082000D02*
D03*
X00899000Y01018800D02*
D03*
Y00993400D02*
D03*
D25*
X00145750Y00815000D02*
D03*
Y00840400D02*
D03*
Y00865800D02*
D03*
X00221950D02*
D03*
Y00840400D02*
D03*
X00718000Y01138450D02*
D03*
X00743400D02*
D03*
X00768800D02*
D03*
X00794200D02*
D03*
X00819600D02*
D03*
X00845000D02*
D03*
Y01062250D02*
D03*
X00819600D02*
D03*
X00794200D02*
D03*
X00768800D02*
D03*
X00743400D02*
D03*
D26*
X00221950Y00815000D02*
D03*
D27*
X00679500Y00964250D02*
D03*
X00850500Y00964500D02*
D03*
X00850750Y00563500D02*
D03*
X00680500Y00563750D02*
D03*
D28*
X00022000Y00762500D02*
D03*
Y00627500D02*
D03*
D29*
X00082000Y00731000D02*
D03*
D30*
Y00659000D02*
D03*
D31*
X00299000Y01240000D02*
D03*
X00410000D02*
D03*
X00188000D02*
D03*
X00719000Y00448000D02*
D03*
X00570000D02*
D03*
X00833000Y00045000D02*
D03*
X00521000Y01240000D02*
D03*
D32*
X00349000D02*
D03*
X00940000Y00867000D02*
D03*
X00460000Y01240000D02*
D03*
X00238000D02*
D03*
X00061000Y00122000D02*
D03*
X00940000Y01074000D02*
D03*
X00484000Y00415000D02*
D03*
X00954206Y00495945D02*
D03*
X00220000Y00416000D02*
D03*
X00769000Y00448000D02*
D03*
X00620000D02*
D03*
X00048000Y00288000D02*
D03*
X00883000Y00045000D02*
D03*
X00571000Y01240000D02*
D03*
D33*
X00940000Y00917000D02*
D03*
X00061000Y00172000D02*
D03*
X00940000Y01124000D02*
D03*
X00484000Y00465000D02*
D03*
X00954206Y00545945D02*
D03*
X00220000Y00466000D02*
D03*
X00048000Y00238000D02*
D03*
D34*
X00101000Y01144000D02*
D03*
X00056000D02*
D03*
D35*
X00040000Y01260000D02*
D03*
Y00040000D02*
D03*
X00960000D02*
D03*
Y01260000D02*
D03*
D36*
X00157000Y00657000D02*
D03*
Y00730000D02*
D03*
D37*
X00747383Y01006000D02*
D03*
X00194000Y00906000D02*
D03*
X00438617Y00785000D02*
D03*
D40*
X00299000Y00445000D02*
D03*
X00399000D02*
D03*
D42*
X00845000Y00919000D02*
D03*
X00685000Y00609000D02*
D03*
X00508250Y00340750D02*
D03*
X00508750Y00033500D02*
D03*
X00201250Y00341750D02*
D03*
X00201750Y00034000D02*
D03*
D43*
X00718000Y01062250D02*
D03*
D46*
X00332000Y00950600D02*
D03*
Y01082000D02*
D03*
D47*
X00304900Y01051300D02*
D03*
Y01026300D02*
D03*
Y01006300D02*
D03*
D48*
Y00981300D02*
D03*
D96*
X00440750Y00749000D02*
D03*
X00465750Y00730000D02*
D03*
Y00749000D02*
D03*
X00440750Y00730000D02*
D03*
D97*
Y00739500D02*
D03*
D98*
X00438000Y00581000D02*
D03*
X00461000D02*
D03*
X00484000D02*
D03*
D99*
X00461000Y00518000D02*
D03*
D100*
X00449000Y00670400D02*
D03*
Y00657700D02*
D03*
Y00645000D02*
D03*
Y00632300D02*
D03*
X00394780D02*
D03*
Y00645000D02*
D03*
Y00657700D02*
D03*
Y00670400D02*
D03*
D101*
X00483000Y00769000D02*
D03*
X00464000D02*
D03*
D102*
X00523000Y00701720D02*
D03*
Y00656000D02*
D03*
D103*
X00589500Y00678860D02*
D03*
D104*
X00807800Y01100000D02*
D03*
X00744000D02*
D03*
D105*
X00572240Y00765000D02*
D03*
X00549000D02*
D03*
M02*
