G04*
G04 #@! TF.GenerationSoftware,Altium Limited,Altium Designer,24.5.2 (23)*
G04*
G04 Layer_Physical_Order=2*
G04 Layer_Color=16711680*
%FSAX44Y44*%
%MOMM*%
G71*
G04*
G04 #@! TF.SameCoordinates,681B41E9-879C-4D89-8942-872FBDD672BC*
G04*
G04*
G04 #@! TF.FilePolarity,Positive*
G04*
G01*
G75*
%ADD17R,2.1500X2.2000*%
%ADD18R,2.4000X6.4000*%
%ADD19R,1.2000X1.2000*%
%ADD20R,1.4000X0.9500*%
%ADD21C,1.2000*%
%ADD22C,1.2170*%
%ADD23R,1.5500X1.5500*%
%ADD24C,1.5500*%
%ADD25C,1.5090*%
%ADD26R,1.5090X1.5090*%
%ADD27C,1.5240*%
%ADD28C,2.7000*%
%ADD29C,4.0500*%
%ADD30R,4.0500X4.0500*%
%ADD31R,2.1000X2.1000*%
%ADD32C,2.1000*%
%ADD33R,2.1000X2.1000*%
%ADD34C,0.8000*%
%ADD35C,5.0000*%
%ADD36C,6.5000*%
%ADD37R,1.2000X1.2000*%
%ADD40R,6.4000X2.4000*%
%ADD42C,4.0000*%
%ADD43R,1.5090X1.5090*%
%ADD46C,3.6150*%
%ADD47C,1.5000*%
%ADD48R,1.5000X1.5000*%
%ADD56R,3.0000X2.0000*%
%ADD57R,2.0000X3.0000*%
%ADD70C,1.0000*%
%ADD71R,1.5500X1.5500*%
%ADD73R,2.0000X2.0000*%
%ADD74C,2.0000*%
%ADD92C,0.5000*%
%ADD93C,1.0000*%
%ADD94C,0.7500*%
%ADD95C,0.7000*%
%ADD96R,1.2500X0.6000*%
%ADD97R,1.2500X0.5000*%
%ADD98R,0.9500X1.7500*%
%ADD99R,3.2000X1.7500*%
%ADD100R,1.5280X0.6500*%
%ADD101R,0.9500X1.4000*%
%ADD102R,3.0000X1.6000*%
%ADD103R,6.7000X6.7000*%
%ADD104R,3.8100X4.2400*%
%ADD105R,1.0750X0.5000*%
%ADD106C,0.7000*%
G36*
X00162000Y01154750D02*
X00161689Y01154000D01*
X00141250D01*
Y01188750D01*
X00139219Y01190781D01*
X00064198D01*
X00064015Y01208578D01*
X00065422Y01210000D01*
X00162000D01*
Y01154750D01*
D02*
G37*
G36*
X00965394Y01294055D02*
X00970655Y01292792D01*
X00975653Y01290721D01*
X00980266Y01287894D01*
X00984381Y01284381D01*
X00987895Y01280267D01*
X00990721Y01275653D01*
X00992792Y01270655D01*
X00994055Y01265394D01*
X00994455Y01260314D01*
X00994392Y01260000D01*
X00994392Y00090000D01*
X00910000D01*
Y00005608D01*
X00530005D01*
X00527516Y00009573D01*
X00526213Y00015608D01*
X00528169Y00017564D01*
X00530905Y00021658D01*
X00532789Y00026208D01*
X00533750Y00031038D01*
Y00035962D01*
X00532789Y00040792D01*
X00530905Y00045342D01*
X00528169Y00049437D01*
X00524687Y00052919D01*
X00520592Y00055655D01*
X00516042Y00057539D01*
X00511212Y00058500D01*
X00506288D01*
X00501458Y00057539D01*
X00496908Y00055655D01*
X00492813Y00052919D01*
X00489331Y00049437D01*
X00486595Y00045342D01*
X00484711Y00040792D01*
X00483750Y00035962D01*
Y00031038D01*
X00484711Y00026208D01*
X00486595Y00021658D01*
X00489331Y00017564D01*
X00491287Y00015608D01*
X00489984Y00009573D01*
X00487495Y00005608D01*
X00222256D01*
X00219331Y00011353D01*
X00218713Y00015608D01*
X00221169Y00018063D01*
X00223905Y00022158D01*
X00225789Y00026708D01*
X00226750Y00031538D01*
Y00036462D01*
X00226605Y00037189D01*
X00235751Y00042469D01*
X00237202Y00041197D01*
X00242213Y00037848D01*
X00247618Y00035183D01*
X00253325Y00033246D01*
X00259236Y00032070D01*
X00265106Y00031685D01*
X00265250Y00031656D01*
X00265394Y00031685D01*
X00271264Y00032070D01*
X00277175Y00033246D01*
X00282882Y00035183D01*
X00288287Y00037848D01*
X00293298Y00041197D01*
X00297829Y00045170D01*
X00301803Y00049702D01*
X00305152Y00054713D01*
X00307817Y00060118D01*
X00309754Y00065825D01*
X00310930Y00071736D01*
X00311315Y00077606D01*
X00311343Y00077750D01*
X00311315Y00077894D01*
X00310930Y00083764D01*
X00309754Y00089675D01*
X00307817Y00095382D01*
X00305152Y00100787D01*
X00301803Y00105798D01*
X00297829Y00110330D01*
X00293298Y00114303D01*
X00288287Y00117652D01*
X00282882Y00120317D01*
X00277175Y00122254D01*
X00271264Y00123430D01*
X00265394Y00123815D01*
X00265250Y00123843D01*
X00265106Y00123815D01*
X00259236Y00123430D01*
X00253325Y00122254D01*
X00247618Y00120317D01*
X00242213Y00117652D01*
X00237202Y00114303D01*
X00232671Y00110330D01*
X00228697Y00105798D01*
X00225348Y00100787D01*
X00222683Y00095382D01*
X00220746Y00089675D01*
X00219570Y00083764D01*
X00219185Y00077894D01*
X00219156Y00077750D01*
X00219185Y00077606D01*
X00219570Y00071736D01*
X00220746Y00065825D01*
X00221810Y00062691D01*
X00215610Y00056951D01*
X00213688Y00056090D01*
X00213592Y00056155D01*
X00209042Y00058039D01*
X00204212Y00059000D01*
X00199288D01*
X00194458Y00058039D01*
X00189908Y00056155D01*
X00185814Y00053419D01*
X00182331Y00049937D01*
X00179595Y00045842D01*
X00177711Y00041292D01*
X00176750Y00036462D01*
Y00031538D01*
X00177711Y00026708D01*
X00179595Y00022158D01*
X00182331Y00018063D01*
X00184787Y00015608D01*
X00184169Y00011353D01*
X00181244Y00005608D01*
X00040000D01*
X00039716Y00005551D01*
X00034699Y00005946D01*
X00029421Y00007213D01*
X00024407Y00009290D01*
X00019779Y00012126D01*
X00015652Y00015652D01*
X00012126Y00019779D01*
X00009290Y00024407D01*
X00007213Y00029421D01*
X00005946Y00034699D01*
X00005551Y00039716D01*
X00005608Y00040000D01*
Y00604176D01*
X00008833Y00607106D01*
X00015608Y00610123D01*
X00016604Y00609711D01*
X00020178Y00609000D01*
X00023822D01*
X00027396Y00609711D01*
X00030763Y00611105D01*
X00033793Y00613130D01*
X00036370Y00615707D01*
X00038394Y00618737D01*
X00039789Y00622104D01*
X00040500Y00625678D01*
Y00629322D01*
X00039789Y00632896D01*
X00038394Y00636263D01*
X00036370Y00639293D01*
X00033793Y00641870D01*
X00030763Y00643895D01*
X00027396Y00645289D01*
X00023822Y00646000D01*
X00020178D01*
X00016604Y00645289D01*
X00015608Y00644876D01*
X00008833Y00647894D01*
X00005608Y00650824D01*
Y00739176D01*
X00008833Y00742106D01*
X00015608Y00745124D01*
X00016604Y00744711D01*
X00020178Y00744000D01*
X00023822D01*
X00027396Y00744711D01*
X00030763Y00746105D01*
X00033793Y00748130D01*
X00036370Y00750707D01*
X00038394Y00753737D01*
X00039789Y00757104D01*
X00040500Y00760678D01*
Y00764322D01*
X00039789Y00767896D01*
X00038394Y00771263D01*
X00036370Y00774293D01*
X00033793Y00776870D01*
X00030763Y00778895D01*
X00027396Y00780289D01*
X00023822Y00781000D01*
X00020178D01*
X00016604Y00780289D01*
X00015608Y00779876D01*
X00008833Y00782894D01*
X00005608Y00785824D01*
Y01210000D01*
X00049168D01*
X00058917Y01208526D01*
X00059101Y01190728D01*
X00059299Y01189780D01*
X00059488Y01188830D01*
X00059503Y01188808D01*
X00059509Y01188782D01*
X00060055Y01187981D01*
X00060594Y01187176D01*
X00060616Y01187161D01*
X00060631Y01187139D01*
X00061442Y01186609D01*
X00062247Y01186071D01*
X00062274Y01186066D01*
X00062296Y01186051D01*
X00063248Y01185872D01*
X00064198Y01185683D01*
X00136152D01*
Y01154000D01*
X00136250Y01153507D01*
Y01149000D01*
X00140758D01*
X00141250Y01148902D01*
X00157790Y01148902D01*
X00161689Y01148902D01*
X00161689Y01148902D01*
X00167750Y01149000D01*
X00167750Y01156392D01*
Y01181000D01*
X00167098D01*
Y01210000D01*
X00166710Y01211951D01*
X00165605Y01213605D01*
X00163951Y01214710D01*
X00162000Y01215098D01*
X00134750D01*
Y01238950D01*
X00134750D01*
X00134490Y01248950D01*
X00134750Y01249921D01*
Y01253279D01*
X00133881Y01256521D01*
X00132203Y01259429D01*
X00130633Y01264300D01*
X00132203Y01269171D01*
X00133881Y01272079D01*
X00134750Y01275322D01*
Y01278679D01*
X00133881Y01281921D01*
X00132455Y01284392D01*
X00132973Y01286499D01*
X00136613Y01294392D01*
X00960000D01*
X00960314Y01294455D01*
X00965394Y01294055D01*
D02*
G37*
%LPC*%
G36*
X00654566Y01278500D02*
X00651934D01*
X00649390Y01277819D01*
X00647110Y01276502D01*
X00645248Y01274640D01*
X00643932Y01272360D01*
X00643924Y01272332D01*
X00639668Y01268075D01*
X00615464D01*
X00614610Y01268568D01*
X00612066Y01269250D01*
X00609434D01*
X00606890Y01268568D01*
X00604610Y01267252D01*
X00602748Y01265390D01*
X00601432Y01263110D01*
X00600750Y01260566D01*
Y01257934D01*
X00601432Y01255390D01*
X00602748Y01253110D01*
X00604610Y01251248D01*
X00606890Y01249931D01*
X00609434Y01249250D01*
X00612066D01*
X00614610Y01249931D01*
X00615464Y01250424D01*
X00643324D01*
X00645608Y01250725D01*
X00647736Y01251607D01*
X00649564Y01253009D01*
X00655233Y01258679D01*
X00657110Y01259182D01*
X00659390Y01260498D01*
X00661252Y01262360D01*
X00662569Y01264640D01*
X00663250Y01267184D01*
Y01269817D01*
X00662569Y01272360D01*
X00661252Y01274640D01*
X00659390Y01276502D01*
X00657110Y01277819D01*
X00654566Y01278500D01*
D02*
G37*
G36*
X00887679Y01280750D02*
X00884321D01*
X00881079Y01279881D01*
X00878171Y01278203D01*
X00875798Y01275829D01*
X00874119Y01272921D01*
X00873250Y01269679D01*
Y01266321D01*
X00874119Y01263079D01*
X00875798Y01260171D01*
X00878171Y01257797D01*
X00881079Y01256119D01*
X00884321Y01255250D01*
X00887679D01*
X00890921Y01256119D01*
X00893829Y01257797D01*
X00896202Y01260171D01*
X00897881Y01263079D01*
X00898750Y01266321D01*
Y01269679D01*
X00897881Y01272921D01*
X00896202Y01275829D01*
X00893829Y01278203D01*
X00890921Y01279881D01*
X00887679Y01280750D01*
D02*
G37*
G36*
X00700678Y01279750D02*
X00697321D01*
X00694079Y01278881D01*
X00691171Y01277203D01*
X00688798Y01274829D01*
X00687119Y01271921D01*
X00686250Y01268679D01*
Y01265322D01*
X00687119Y01262079D01*
X00688798Y01259171D01*
X00691171Y01256797D01*
X00694079Y01255119D01*
X00697321Y01254250D01*
X00700678D01*
X00703921Y01255119D01*
X00706829Y01256797D01*
X00709202Y01259171D01*
X00710881Y01262079D01*
X00711750Y01265322D01*
Y01268679D01*
X00710881Y01271921D01*
X00709202Y01274829D01*
X00706829Y01277203D01*
X00703921Y01278881D01*
X00700678Y01279750D01*
D02*
G37*
G36*
X00793679Y01279750D02*
X00790322D01*
X00787079Y01278881D01*
X00784171Y01277203D01*
X00781797Y01274829D01*
X00780119Y01271921D01*
X00779250Y01268679D01*
Y01265321D01*
X00780119Y01262079D01*
X00781797Y01259171D01*
X00784171Y01256797D01*
X00787079Y01255119D01*
X00790322Y01254250D01*
X00793679D01*
X00796921Y01255119D01*
X00799829Y01256797D01*
X00802203Y01259171D01*
X00803881Y01262079D01*
X00804750Y01265321D01*
Y01268679D01*
X00803881Y01271921D01*
X00802203Y01274829D01*
X00799829Y01277203D01*
X00796921Y01278881D01*
X00793679Y01279750D01*
D02*
G37*
G36*
X00572527Y01255500D02*
X00569473D01*
X00566479Y01254904D01*
X00563658Y01253736D01*
X00561119Y01252040D01*
X00558960Y01249881D01*
X00557264Y01247342D01*
X00556096Y01244521D01*
X00555500Y01241527D01*
Y01238473D01*
X00556096Y01235479D01*
X00557264Y01232658D01*
X00558960Y01230119D01*
X00561119Y01227960D01*
X00563658Y01226264D01*
X00566479Y01225096D01*
X00569473Y01224500D01*
X00572527D01*
X00575521Y01225096D01*
X00578342Y01226264D01*
X00580881Y01227960D01*
X00583040Y01230119D01*
X00584736Y01232658D01*
X00585904Y01235479D01*
X00586500Y01238473D01*
Y01241527D01*
X00585904Y01244521D01*
X00584736Y01247342D01*
X00583040Y01249881D01*
X00580881Y01252040D01*
X00578342Y01253736D01*
X00575521Y01254904D01*
X00572527Y01255500D01*
D02*
G37*
G36*
X00461527D02*
X00458473D01*
X00455479Y01254904D01*
X00452658Y01253736D01*
X00450119Y01252040D01*
X00447960Y01249881D01*
X00446264Y01247342D01*
X00445096Y01244521D01*
X00444500Y01241527D01*
Y01238473D01*
X00445096Y01235479D01*
X00446264Y01232658D01*
X00447960Y01230119D01*
X00450119Y01227960D01*
X00452658Y01226264D01*
X00455479Y01225096D01*
X00458473Y01224500D01*
X00461527D01*
X00464521Y01225096D01*
X00467342Y01226264D01*
X00469881Y01227960D01*
X00472040Y01230119D01*
X00473736Y01232658D01*
X00474904Y01235479D01*
X00475500Y01238473D01*
Y01241527D01*
X00474904Y01244521D01*
X00473736Y01247342D01*
X00472040Y01249881D01*
X00469881Y01252040D01*
X00467342Y01253736D01*
X00464521Y01254904D01*
X00461527Y01255500D01*
D02*
G37*
G36*
X00350527D02*
X00347473D01*
X00344479Y01254904D01*
X00341658Y01253736D01*
X00339119Y01252040D01*
X00336960Y01249881D01*
X00335264Y01247342D01*
X00334096Y01244521D01*
X00333500Y01241527D01*
Y01238473D01*
X00334096Y01235479D01*
X00335264Y01232658D01*
X00336960Y01230119D01*
X00339119Y01227960D01*
X00341658Y01226264D01*
X00344479Y01225096D01*
X00347473Y01224500D01*
X00350527D01*
X00353521Y01225096D01*
X00356342Y01226264D01*
X00358881Y01227960D01*
X00361040Y01230119D01*
X00362736Y01232658D01*
X00363904Y01235479D01*
X00364500Y01238473D01*
Y01241527D01*
X00363904Y01244521D01*
X00362736Y01247342D01*
X00361040Y01249881D01*
X00358881Y01252040D01*
X00356342Y01253736D01*
X00353521Y01254904D01*
X00350527Y01255500D01*
D02*
G37*
G36*
X00239527D02*
X00236473D01*
X00233479Y01254904D01*
X00230658Y01253736D01*
X00228119Y01252040D01*
X00225960Y01249881D01*
X00224264Y01247342D01*
X00223096Y01244521D01*
X00222500Y01241527D01*
Y01238473D01*
X00223096Y01235479D01*
X00224264Y01232658D01*
X00225960Y01230119D01*
X00228119Y01227960D01*
X00230658Y01226264D01*
X00233479Y01225096D01*
X00236473Y01224500D01*
X00239527D01*
X00242521Y01225096D01*
X00245342Y01226264D01*
X00247881Y01227960D01*
X00250040Y01230119D01*
X00251736Y01232658D01*
X00252904Y01235479D01*
X00253500Y01238473D01*
Y01241527D01*
X00252904Y01244521D01*
X00251736Y01247342D01*
X00250040Y01249881D01*
X00247881Y01252040D01*
X00245342Y01253736D01*
X00242521Y01254904D01*
X00239527Y01255500D01*
D02*
G37*
G36*
X00887679Y01210750D02*
X00884321D01*
X00881079Y01209881D01*
X00878171Y01208203D01*
X00875798Y01205829D01*
X00874119Y01202921D01*
X00873250Y01199679D01*
Y01196321D01*
X00874119Y01193079D01*
X00875798Y01190171D01*
X00878171Y01187797D01*
X00881079Y01186119D01*
X00884321Y01185250D01*
X00887679D01*
X00890921Y01186119D01*
X00893829Y01187797D01*
X00896202Y01190171D01*
X00897881Y01193079D01*
X00898750Y01196321D01*
Y01199679D01*
X00897881Y01202921D01*
X00896202Y01205829D01*
X00893829Y01208203D01*
X00890921Y01209881D01*
X00887679Y01210750D01*
D02*
G37*
G36*
X00700678Y01210750D02*
X00697321D01*
X00694079Y01209881D01*
X00691171Y01208203D01*
X00688798Y01205829D01*
X00687119Y01202921D01*
X00686250Y01199679D01*
Y01196321D01*
X00687119Y01193079D01*
X00688798Y01190171D01*
X00691171Y01187797D01*
X00694079Y01186119D01*
X00697321Y01185250D01*
X00700678D01*
X00703921Y01186119D01*
X00706829Y01187797D01*
X00709202Y01190171D01*
X00710881Y01193079D01*
X00711750Y01196321D01*
Y01199679D01*
X00710881Y01202921D01*
X00709202Y01205829D01*
X00706829Y01208203D01*
X00703921Y01209881D01*
X00700678Y01210750D01*
D02*
G37*
G36*
X00793679Y01210750D02*
X00790321D01*
X00787079Y01209881D01*
X00784171Y01208203D01*
X00781797Y01205829D01*
X00780119Y01202921D01*
X00779250Y01199679D01*
Y01196321D01*
X00780119Y01193079D01*
X00781797Y01190171D01*
X00784171Y01187797D01*
X00787079Y01186119D01*
X00790321Y01185250D01*
X00793679D01*
X00796921Y01186119D01*
X00799829Y01187797D01*
X00802203Y01190171D01*
X00803881Y01193079D01*
X00804750Y01196321D01*
Y01199679D01*
X00803881Y01202921D01*
X00802203Y01205829D01*
X00799829Y01208203D01*
X00796921Y01209881D01*
X00793679Y01210750D01*
D02*
G37*
G36*
X00969679Y01203750D02*
X00966321D01*
X00963079Y01202881D01*
X00960171Y01201202D01*
X00957797Y01198829D01*
X00956119Y01195921D01*
X00955250Y01192679D01*
Y01189321D01*
X00956119Y01186079D01*
X00957797Y01183171D01*
X00960171Y01180798D01*
X00963079Y01179119D01*
X00966321Y01178250D01*
X00969679D01*
X00972921Y01179119D01*
X00975829Y01180798D01*
X00978203Y01183171D01*
X00979881Y01186079D01*
X00980750Y01189321D01*
Y01192679D01*
X00979881Y01195921D01*
X00978203Y01198829D01*
X00975829Y01201202D01*
X00972921Y01202881D01*
X00969679Y01203750D01*
D02*
G37*
G36*
X00527678Y01170750D02*
X00524321D01*
X00521079Y01169881D01*
X00518171Y01168203D01*
X00515798Y01165829D01*
X00514119Y01162921D01*
X00513250Y01159679D01*
Y01156321D01*
X00514119Y01153079D01*
X00515798Y01150171D01*
X00518171Y01147797D01*
X00521079Y01146119D01*
X00524321Y01145250D01*
X00527678D01*
X00530921Y01146119D01*
X00533829Y01147797D01*
X00536203Y01150171D01*
X00537881Y01153079D01*
X00538750Y01156321D01*
Y01159679D01*
X00537881Y01162921D01*
X00536203Y01165829D01*
X00533829Y01168203D01*
X00530921Y01169881D01*
X00527678Y01170750D01*
D02*
G37*
G36*
X00436679Y01160750D02*
X00433321D01*
X00430079Y01159881D01*
X00427171Y01158203D01*
X00424798Y01155829D01*
X00423119Y01152921D01*
X00422250Y01149678D01*
Y01146321D01*
X00423119Y01143079D01*
X00424798Y01140171D01*
X00427171Y01137797D01*
X00430079Y01136119D01*
X00433321Y01135250D01*
X00436679D01*
X00439921Y01136119D01*
X00442829Y01137797D01*
X00445202Y01140171D01*
X00446881Y01143079D01*
X00447750Y01146321D01*
Y01149678D01*
X00446881Y01152921D01*
X00445202Y01155829D01*
X00442829Y01158203D01*
X00439921Y01159881D01*
X00436679Y01160750D01*
D02*
G37*
G36*
X00339679Y01157750D02*
X00336321D01*
X00333079Y01156881D01*
X00330171Y01155202D01*
X00327798Y01152829D01*
X00326119Y01149921D01*
X00325250Y01146679D01*
Y01143321D01*
X00326119Y01140079D01*
X00327798Y01137171D01*
X00330171Y01134798D01*
X00333079Y01133119D01*
X00336321Y01132250D01*
X00339679D01*
X00342921Y01133119D01*
X00345829Y01134798D01*
X00348203Y01137171D01*
X00349881Y01140079D01*
X00350750Y01143321D01*
Y01146679D01*
X00349881Y01149921D01*
X00348203Y01152829D01*
X00345829Y01155202D01*
X00342921Y01156881D01*
X00339679Y01157750D01*
D02*
G37*
G36*
X00226679D02*
X00223321D01*
X00220079Y01156881D01*
X00217171Y01155202D01*
X00214797Y01152829D01*
X00213119Y01149921D01*
X00212250Y01146679D01*
Y01143321D01*
X00213119Y01140079D01*
X00214797Y01137171D01*
X00217171Y01134798D01*
X00220079Y01133119D01*
X00223321Y01132250D01*
X00226679D01*
X00229921Y01133119D01*
X00232829Y01134798D01*
X00235203Y01137171D01*
X00236881Y01140079D01*
X00237750Y01143321D01*
Y01146679D01*
X00236881Y01149921D01*
X00235203Y01152829D01*
X00232829Y01155202D01*
X00229921Y01156881D01*
X00226679Y01157750D01*
D02*
G37*
G36*
X00102711Y01157000D02*
X00099289D01*
X00095982Y01156114D01*
X00093018Y01154403D01*
X00090597Y01151982D01*
X00088886Y01149018D01*
X00088000Y01145712D01*
Y01142289D01*
X00088886Y01138982D01*
X00090597Y01136018D01*
X00093018Y01133597D01*
X00095982Y01131886D01*
X00099289Y01131000D01*
X00102711D01*
X00106018Y01131886D01*
X00108982Y01133597D01*
X00111403Y01136018D01*
X00113114Y01138982D01*
X00114000Y01142289D01*
Y01145712D01*
X00113114Y01149018D01*
X00111403Y01151982D01*
X00108982Y01154403D01*
X00106018Y01156114D01*
X00102711Y01157000D01*
D02*
G37*
G36*
X00057712D02*
X00054289D01*
X00050982Y01156114D01*
X00048018Y01154403D01*
X00045597Y01151982D01*
X00043886Y01149018D01*
X00043000Y01145712D01*
Y01142289D01*
X00043886Y01138982D01*
X00045597Y01136018D01*
X00048018Y01133597D01*
X00050982Y01131886D01*
X00054289Y01131000D01*
X00057712D01*
X00061018Y01131886D01*
X00063982Y01133597D01*
X00066403Y01136018D01*
X00068114Y01138982D01*
X00069000Y01142289D01*
Y01145712D01*
X00068114Y01149018D01*
X00066403Y01151982D01*
X00063982Y01154403D01*
X00061018Y01156114D01*
X00057712Y01157000D01*
D02*
G37*
G36*
X00610679Y01104750D02*
X00607321D01*
X00604079Y01103881D01*
X00601171Y01102203D01*
X00598797Y01099829D01*
X00597119Y01096921D01*
X00596250Y01093679D01*
Y01090321D01*
X00597119Y01087079D01*
X00598797Y01084171D01*
X00601171Y01081797D01*
X00604079Y01080119D01*
X00607321Y01079250D01*
X00610679D01*
X00613921Y01080119D01*
X00616829Y01081797D01*
X00619202Y01084171D01*
X00620881Y01087079D01*
X00621750Y01090321D01*
Y01093679D01*
X00620881Y01096921D01*
X00619202Y01099829D01*
X00616829Y01102203D01*
X00613921Y01103881D01*
X00610679Y01104750D01*
D02*
G37*
G36*
X00527678D02*
X00524321D01*
X00521079Y01103881D01*
X00518171Y01102203D01*
X00515798Y01099829D01*
X00514119Y01096921D01*
X00513250Y01093679D01*
Y01090321D01*
X00514119Y01087079D01*
X00515798Y01084171D01*
X00518171Y01081797D01*
X00521079Y01080119D01*
X00524321Y01079250D01*
X00527678D01*
X00530921Y01080119D01*
X00533829Y01081797D01*
X00536203Y01084171D01*
X00537881Y01087079D01*
X00538750Y01090321D01*
Y01093679D01*
X00537881Y01096921D01*
X00536203Y01099829D01*
X00533829Y01102203D01*
X00530921Y01103881D01*
X00527678Y01104750D01*
D02*
G37*
G36*
X00436679D02*
X00433321D01*
X00430079Y01103881D01*
X00427171Y01102203D01*
X00424798Y01099829D01*
X00423119Y01096921D01*
X00422250Y01093679D01*
Y01090321D01*
X00423119Y01087079D01*
X00424798Y01084171D01*
X00427171Y01081797D01*
X00430079Y01080119D01*
X00433321Y01079250D01*
X00436679D01*
X00439921Y01080119D01*
X00442829Y01081797D01*
X00445202Y01084171D01*
X00446881Y01087079D01*
X00447750Y01090321D01*
Y01093679D01*
X00446881Y01096921D01*
X00445202Y01099829D01*
X00442829Y01102203D01*
X00439921Y01103881D01*
X00436679Y01104750D01*
D02*
G37*
G36*
X00941527Y01089500D02*
X00938473D01*
X00935479Y01088904D01*
X00932658Y01087736D01*
X00930119Y01086040D01*
X00927960Y01083881D01*
X00926264Y01081342D01*
X00925096Y01078521D01*
X00924500Y01075527D01*
Y01072473D01*
X00925096Y01069479D01*
X00926264Y01066658D01*
X00927960Y01064119D01*
X00930119Y01061960D01*
X00932658Y01060264D01*
X00935479Y01059096D01*
X00938473Y01058500D01*
X00941527D01*
X00944521Y01059096D01*
X00947342Y01060264D01*
X00949881Y01061960D01*
X00952040Y01064119D01*
X00953736Y01066658D01*
X00954904Y01069479D01*
X00955500Y01072473D01*
Y01075527D01*
X00954904Y01078521D01*
X00953736Y01081342D01*
X00952040Y01083881D01*
X00949881Y01086040D01*
X00947342Y01087736D01*
X00944521Y01088904D01*
X00941527Y01089500D01*
D02*
G37*
G36*
X00610679Y01170750D02*
X00607321D01*
X00604079Y01169881D01*
X00601171Y01168203D01*
X00598797Y01165829D01*
X00597119Y01162921D01*
X00596250Y01159679D01*
Y01156321D01*
X00597119Y01153079D01*
X00598797Y01150171D01*
X00601171Y01147797D01*
X00604079Y01146119D01*
X00607321Y01145250D01*
X00608450D01*
X00608803Y01145160D01*
X00608910Y01145154D01*
X00608951Y01145137D01*
X00609110Y01145057D01*
X00609342Y01144916D01*
X00609583Y01144747D01*
X00610433Y01144036D01*
X00610901Y01143587D01*
X00610985Y01143534D01*
X00625759Y01128759D01*
X00627587Y01127357D01*
X00629716Y01126475D01*
X00632000Y01126174D01*
X00651286D01*
X00652140Y01125682D01*
X00652564Y01125001D01*
X00654769Y01117656D01*
X00654798Y01115229D01*
X00653119Y01112321D01*
X00652250Y01109079D01*
Y01105721D01*
X00653119Y01102479D01*
X00654798Y01099571D01*
X00656367Y01094700D01*
X00654798Y01089829D01*
X00653119Y01086921D01*
X00652250Y01083679D01*
Y01080321D01*
X00652510Y01079350D01*
X00652250Y01069350D01*
X00652250Y01069350D01*
Y01043850D01*
X00655228D01*
Y00975648D01*
X00655225Y00974411D01*
X00645457Y00969446D01*
X00644802Y00969754D01*
X00642754Y00971802D01*
X00642754Y00971802D01*
X00642009Y00972232D01*
X00640246Y00973250D01*
X00637448Y00974000D01*
X00634552D01*
X00631754Y00973250D01*
X00629246Y00971802D01*
X00627198Y00969754D01*
X00625750Y00967246D01*
X00625000Y00964448D01*
Y00961552D01*
X00625750Y00958754D01*
X00627198Y00956246D01*
X00629246Y00954198D01*
X00631754Y00952750D01*
X00634552Y00952000D01*
X00637448D01*
X00640246Y00952750D01*
X00642754Y00954198D01*
X00644802Y00956246D01*
X00645819Y00958006D01*
X00646250Y00958754D01*
X00646250Y00958755D01*
X00646896Y00961165D01*
X00655625Y00966061D01*
X00657733Y00965489D01*
X00658375Y00965290D01*
X00660325Y00964902D01*
X00660325Y00964902D01*
X00660326D01*
X00666880Y00962589D01*
X00667740Y00959379D01*
X00669401Y00956501D01*
X00671751Y00954152D01*
X00674629Y00952490D01*
X00677839Y00951630D01*
X00681161D01*
X00684371Y00952490D01*
X00687249Y00954152D01*
X00689598Y00956501D01*
X00691260Y00959379D01*
X00692095Y00962497D01*
X00692533Y00962610D01*
X00702120Y00963116D01*
X00706140Y00956030D01*
X00705997Y00954902D01*
X00701624Y00951980D01*
X00697040Y00947960D01*
X00693020Y00943376D01*
X00689632Y00938306D01*
X00686936Y00932838D01*
X00684976Y00927064D01*
X00683786Y00921084D01*
X00683396Y00915135D01*
X00683369Y00915000D01*
X00683396Y00914865D01*
X00683786Y00908916D01*
X00684976Y00902936D01*
X00686480Y00898505D01*
X00685339Y00895078D01*
X00681055Y00889484D01*
X00679913Y00888793D01*
X00678140Y00888318D01*
X00675860Y00887002D01*
X00673998Y00885140D01*
X00672682Y00882860D01*
X00672000Y00880316D01*
Y00877683D01*
X00670708Y00876000D01*
X00666000D01*
Y00802000D01*
X00700000D01*
Y00867078D01*
X00701797Y00869106D01*
X00710000Y00873002D01*
X00712162Y00871936D01*
X00717936Y00869976D01*
X00723916Y00868786D01*
X00729865Y00868396D01*
X00730000Y00868369D01*
X00730135Y00868396D01*
X00736084Y00868786D01*
X00742064Y00869976D01*
X00747838Y00871936D01*
X00753306Y00874632D01*
X00758376Y00878020D01*
X00762960Y00882040D01*
X00766980Y00886624D01*
X00770368Y00891694D01*
X00773064Y00897162D01*
X00775024Y00902936D01*
X00776214Y00908916D01*
X00776604Y00914865D01*
X00776631Y00915000D01*
X00776604Y00915135D01*
X00776214Y00921084D01*
X00775024Y00927064D01*
X00773064Y00932838D01*
X00770368Y00938306D01*
X00766980Y00943376D01*
X00762960Y00947960D01*
X00758376Y00951980D01*
X00753306Y00955368D01*
X00747838Y00958064D01*
X00746421Y00960321D01*
X00743710Y00968049D01*
X00744098Y00970000D01*
Y00995000D01*
X00743710Y00996951D01*
X00742605Y00998605D01*
X00741481Y00999356D01*
Y01012644D01*
X00742605Y01013395D01*
X00743710Y01015049D01*
X00744098Y01017000D01*
Y01018902D01*
X00768000D01*
X00769951Y01019290D01*
X00771605Y01020395D01*
X00772710Y01022049D01*
X00773098Y01024000D01*
Y01049705D01*
X00773340Y01050000D01*
X00791448D01*
X00792548Y01049705D01*
X00795852D01*
X00796953Y01050000D01*
X00816848D01*
X00817948Y01049705D01*
X00821252D01*
X00822353Y01050000D01*
X00842247D01*
X00843348Y01049705D01*
X00846652D01*
X00847753Y01050000D01*
X00865000D01*
X00865826Y01069820D01*
X00867156Y01070085D01*
X00867951Y01070414D01*
X00869605Y01071519D01*
X00869605Y01071519D01*
X00870710Y01073173D01*
X00871098Y01075124D01*
Y01126000D01*
X00870710Y01127951D01*
X00869605Y01129605D01*
X00867951Y01130710D01*
X00866000Y01131098D01*
Y01150000D01*
X00865000Y01151000D01*
X00704000D01*
Y01130098D01*
X00678000D01*
X00676049Y01129710D01*
X00675122Y01129090D01*
X00671208Y01130276D01*
X00667052Y01132995D01*
X00666000Y01134024D01*
Y01136317D01*
X00665319Y01138860D01*
X00664002Y01141140D01*
X00662140Y01143002D01*
X00659860Y01144318D01*
X00657317Y01145000D01*
X00654684D01*
X00652140Y01144318D01*
X00651286Y01143826D01*
X00635656D01*
X00623528Y01155953D01*
X00623488Y01156018D01*
X00622533Y01157057D01*
X00622292Y01157362D01*
X00622084Y01157658D01*
X00621943Y01157890D01*
X00621862Y01158049D01*
X00621846Y01158090D01*
X00621840Y01158197D01*
X00621750Y01158550D01*
Y01159679D01*
X00620881Y01162921D01*
X00619202Y01165829D01*
X00616829Y01168203D01*
X00613921Y01169881D01*
X00610679Y01170750D01*
D02*
G37*
G36*
X00799448Y01017000D02*
X00796552D01*
X00793754Y01016250D01*
X00791246Y01014802D01*
X00789198Y01012754D01*
X00787750Y01010246D01*
X00787000Y01007448D01*
Y01004552D01*
X00787750Y01001754D01*
X00789198Y00999246D01*
X00791246Y00997198D01*
X00793754Y00995750D01*
X00796552Y00995000D01*
X00799448D01*
X00802246Y00995750D01*
X00804754Y00997198D01*
X00806802Y00999246D01*
X00808250Y01001754D01*
X00809000Y01004552D01*
Y01007448D01*
X00808250Y01010246D01*
X00806802Y01012754D01*
X00804754Y01014802D01*
X00802246Y01016250D01*
X00799448Y01017000D01*
D02*
G37*
G36*
X00084000Y01056000D02*
X00044000D01*
Y01030000D01*
X00031000D01*
Y00990000D01*
X00061000D01*
Y00990000D01*
X00064000D01*
Y00990000D01*
X00094000D01*
Y01030000D01*
X00084000D01*
Y01056000D01*
D02*
G37*
G36*
X00580000Y01045000D02*
X00540000D01*
Y01019000D01*
X00527000D01*
Y00979000D01*
X00557000D01*
Y00979000D01*
X00560000D01*
Y00979000D01*
X00590000D01*
Y01019000D01*
X00580000D01*
Y01045000D01*
D02*
G37*
G36*
X00459000Y01045000D02*
X00419000D01*
Y01019000D01*
X00406000D01*
Y00979000D01*
X00436000D01*
Y00979000D01*
X00439000D01*
Y00979000D01*
X00469000D01*
Y01019000D01*
X00459000D01*
Y01045000D01*
D02*
G37*
G36*
X00306546Y01038800D02*
X00303254D01*
X00300075Y01037948D01*
X00297225Y01036302D01*
X00294897Y01033975D01*
X00293252Y01031125D01*
X00292400Y01027946D01*
Y01024654D01*
X00293252Y01021475D01*
X00294897Y01018625D01*
X00297222Y01016300D01*
X00294897Y01013975D01*
X00293252Y01011125D01*
X00292400Y01007946D01*
Y01004654D01*
X00292629Y01003800D01*
X00292400Y00993800D01*
X00292400Y00987536D01*
Y00968800D01*
X00317400D01*
Y00987536D01*
X00317400Y00993800D01*
X00317171Y01003800D01*
X00317400Y01004654D01*
Y01007946D01*
X00316548Y01011125D01*
X00314902Y01013975D01*
X00312578Y01016300D01*
X00314902Y01018625D01*
X00316548Y01021475D01*
X00317400Y01024654D01*
Y01027946D01*
X00316548Y01031125D01*
X00314902Y01033975D01*
X00312575Y01036302D01*
X00309725Y01037948D01*
X00306546Y01038800D01*
D02*
G37*
G36*
X00968679Y00990750D02*
X00965321D01*
X00962079Y00989881D01*
X00959171Y00988203D01*
X00956797Y00985829D01*
X00955119Y00982921D01*
X00954250Y00979679D01*
Y00976321D01*
X00955119Y00973079D01*
X00956797Y00970171D01*
X00959171Y00967797D01*
X00962079Y00966119D01*
X00965321Y00965250D01*
X00968679D01*
X00971921Y00966119D01*
X00974829Y00967797D01*
X00977203Y00970171D01*
X00978881Y00973079D01*
X00979750Y00976321D01*
Y00979679D01*
X00978881Y00982921D01*
X00977203Y00985829D01*
X00974829Y00988203D01*
X00971921Y00989881D01*
X00968679Y00990750D01*
D02*
G37*
G36*
X00900679Y01031550D02*
X00897321D01*
X00894079Y01030681D01*
X00891171Y01029003D01*
X00888798Y01026629D01*
X00887119Y01023721D01*
X00886250Y01020479D01*
Y01017121D01*
X00887119Y01013879D01*
X00888798Y01010971D01*
X00890367Y01006100D01*
X00888798Y01001229D01*
X00887119Y00998321D01*
X00886250Y00995079D01*
Y00991721D01*
X00886510Y00990750D01*
X00886250Y00980750D01*
X00886250Y00980750D01*
Y00955250D01*
X00911750D01*
Y00980750D01*
X00911750D01*
X00911490Y00990750D01*
X00911750Y00991721D01*
Y00995079D01*
X00910881Y00998321D01*
X00909202Y01001229D01*
X00907633Y01006100D01*
X00909202Y01010971D01*
X00910881Y01013879D01*
X00911750Y01017121D01*
Y01020479D01*
X00910881Y01023721D01*
X00909202Y01026629D01*
X00906829Y01029003D01*
X00903921Y01030681D01*
X00900679Y01031550D01*
D02*
G37*
G36*
X00144831Y00917000D02*
X00141935D01*
X00139137Y00916250D01*
X00136629Y00914802D01*
X00134581Y00912754D01*
X00133132Y00910246D01*
X00132383Y00907448D01*
Y00904552D01*
X00133132Y00901754D01*
X00134581Y00899246D01*
X00136629Y00897198D01*
X00139137Y00895750D01*
X00141935Y00895000D01*
X00144831D01*
X00147629Y00895750D01*
X00150137Y00897198D01*
X00152185Y00899246D01*
X00153633Y00901754D01*
X00154383Y00904552D01*
Y00907448D01*
X00153633Y00910246D01*
X00152185Y00912754D01*
X00150137Y00914802D01*
X00147629Y00916250D01*
X00144831Y00917000D01*
D02*
G37*
G36*
X00847462Y00944000D02*
X00842538D01*
X00837708Y00943039D01*
X00833158Y00941155D01*
X00829063Y00938419D01*
X00825581Y00934937D01*
X00822845Y00930842D01*
X00820961Y00926292D01*
X00820000Y00921462D01*
Y00916538D01*
X00820961Y00911708D01*
X00822845Y00907158D01*
X00825581Y00903063D01*
X00829063Y00899581D01*
X00833158Y00896845D01*
X00837708Y00894961D01*
X00842538Y00894000D01*
X00847462D01*
X00852292Y00894961D01*
X00856842Y00896845D01*
X00860937Y00899581D01*
X00864419Y00903063D01*
X00867155Y00907158D01*
X00869039Y00911708D01*
X00870000Y00916538D01*
Y00921462D01*
X00869039Y00926292D01*
X00867155Y00930842D01*
X00864419Y00934937D01*
X00860937Y00938419D01*
X00856842Y00941155D01*
X00852292Y00943039D01*
X00847462Y00944000D01*
D02*
G37*
G36*
X00941527Y00882500D02*
X00938473D01*
X00935479Y00881904D01*
X00932658Y00880736D01*
X00930119Y00879040D01*
X00927960Y00876881D01*
X00926264Y00874342D01*
X00925096Y00871521D01*
X00924500Y00868527D01*
Y00865473D01*
X00925096Y00862479D01*
X00926264Y00859658D01*
X00927960Y00857119D01*
X00930119Y00854960D01*
X00932658Y00853264D01*
X00935479Y00852096D01*
X00938473Y00851500D01*
X00941527D01*
X00944521Y00852096D01*
X00947342Y00853264D01*
X00949881Y00854960D01*
X00952040Y00857119D01*
X00953736Y00859658D01*
X00954904Y00862479D01*
X00955500Y00865473D01*
Y00868527D01*
X00954904Y00871521D01*
X00953736Y00874342D01*
X00952040Y00876881D01*
X00949881Y00879040D01*
X00947342Y00880736D01*
X00944521Y00881904D01*
X00941527Y00882500D01*
D02*
G37*
G36*
X00198000Y01112825D02*
X00138000D01*
X00135716Y01112525D01*
X00133587Y01111643D01*
X00131759Y01110241D01*
X00130357Y01108413D01*
X00129475Y01106284D01*
X00129174Y01104000D01*
X00129475Y01101716D01*
X00130357Y01099587D01*
X00131759Y01097759D01*
X00133587Y01096357D01*
X00135716Y01095475D01*
X00138000Y01095174D01*
X00183000D01*
Y01022000D01*
X00190972D01*
X00191039Y01021600D01*
X00191120Y01020671D01*
X00191154Y01019397D01*
X00191175Y01019305D01*
Y01011132D01*
X00191475Y01008848D01*
X00192357Y01006719D01*
X00193759Y01004891D01*
X00226420Y00972231D01*
Y00880507D01*
X00223602Y00878345D01*
X00220298D01*
X00217108Y00877490D01*
X00214247Y00875838D01*
X00211912Y00873503D01*
X00210260Y00870642D01*
X00209405Y00867452D01*
Y00864148D01*
X00210260Y00860958D01*
X00211912Y00858097D01*
X00213435Y00853100D01*
X00211912Y00848103D01*
X00210260Y00845242D01*
X00209405Y00842052D01*
Y00838748D01*
X00209727Y00837545D01*
X00209405Y00827545D01*
X00209405Y00827545D01*
Y00814049D01*
X00205299Y00810484D01*
X00199569Y00808240D01*
X00197285Y00808540D01*
X00164941D01*
X00160064Y00813417D01*
X00160022Y00813486D01*
X00159071Y00814512D01*
X00158818Y00814824D01*
X00158603Y00815120D01*
X00158456Y00815351D01*
X00158377Y00815498D01*
X00158376Y00815513D01*
X00158321Y00815706D01*
X00158320Y00815709D01*
X00158319Y00815710D01*
X00158295Y00815796D01*
Y00816652D01*
X00157440Y00819842D01*
X00155788Y00822703D01*
Y00832697D01*
X00157440Y00835558D01*
X00158295Y00838748D01*
Y00842052D01*
X00157440Y00845242D01*
X00156429Y00846994D01*
X00155701Y00849137D01*
X00155366Y00853100D01*
X00155701Y00857063D01*
X00156429Y00859206D01*
X00157440Y00860958D01*
X00158295Y00864148D01*
Y00867452D01*
X00157440Y00870642D01*
X00155788Y00873503D01*
X00153453Y00875838D01*
X00150592Y00877490D01*
X00147402Y00878345D01*
X00144098D01*
X00140908Y00877490D01*
X00138047Y00875838D01*
X00135711Y00873503D01*
X00134060Y00870642D01*
X00133205Y00867452D01*
Y00864148D01*
X00134060Y00860958D01*
X00135071Y00859206D01*
X00135799Y00857063D01*
X00136133Y00853100D01*
X00135799Y00849137D01*
X00135071Y00846994D01*
X00134060Y00845242D01*
X00133205Y00842052D01*
Y00838748D01*
X00134060Y00835558D01*
X00135711Y00832697D01*
X00136735Y00831673D01*
X00136824Y00831532D01*
X00136827Y00831526D01*
X00136836Y00831514D01*
X00136911Y00831395D01*
X00136943Y00831296D01*
X00137000Y00831062D01*
X00137046Y00830795D01*
X00137140Y00829725D01*
X00137153Y00829088D01*
X00137163Y00829041D01*
X00137156Y00828994D01*
X00137175Y00828916D01*
Y00826495D01*
X00137156Y00826420D01*
X00137100Y00825040D01*
X00137058Y00824670D01*
X00137000Y00824337D01*
X00136943Y00824104D01*
X00136911Y00824005D01*
X00136836Y00823886D01*
X00136827Y00823874D01*
X00136824Y00823868D01*
X00136735Y00823727D01*
X00135711Y00822703D01*
X00134060Y00819842D01*
X00133205Y00816652D01*
Y00813348D01*
X00134060Y00810158D01*
X00135711Y00807297D01*
X00138047Y00804961D01*
X00140908Y00803310D01*
X00144098Y00802455D01*
X00145437D01*
X00145596Y00802417D01*
X00145601Y00802415D01*
X00145612Y00802414D01*
X00145765Y00802377D01*
X00145866Y00802326D01*
X00146075Y00802197D01*
X00146302Y00802037D01*
X00147129Y00801342D01*
X00147590Y00800899D01*
X00147606Y00800888D01*
X00147617Y00800873D01*
X00147696Y00800823D01*
X00155045Y00793474D01*
X00156873Y00792072D01*
X00159001Y00791190D01*
X00161285Y00790889D01*
X00193630D01*
X00198675Y00785844D01*
Y00681140D01*
X00189811Y00677093D01*
X00188675Y00677203D01*
X00185603Y00681430D01*
X00181430Y00685603D01*
X00176654Y00689073D01*
X00171395Y00691753D01*
X00165781Y00693577D01*
X00159951Y00694500D01*
X00154049D01*
X00148219Y00693577D01*
X00142605Y00691753D01*
X00137346Y00689073D01*
X00132570Y00685603D01*
X00128397Y00681430D01*
X00124927Y00676654D01*
X00122247Y00671395D01*
X00120423Y00665781D01*
X00119500Y00659951D01*
Y00654049D01*
X00120423Y00648219D01*
X00122247Y00642605D01*
X00124927Y00637346D01*
X00128397Y00632570D01*
X00132570Y00628397D01*
X00137346Y00624927D01*
X00142605Y00622247D01*
X00148219Y00620423D01*
X00154049Y00619500D01*
X00159951D01*
X00165781Y00620423D01*
X00171395Y00622247D01*
X00176654Y00624927D01*
X00181430Y00628397D01*
X00185603Y00632570D01*
X00188675Y00636797D01*
X00189811Y00636907D01*
X00198675Y00632860D01*
Y00538656D01*
X00186776Y00526757D01*
X00185140Y00526319D01*
X00182860Y00525002D01*
X00180998Y00523140D01*
X00179681Y00520860D01*
X00179243Y00519224D01*
X00177410Y00517391D01*
X00177140Y00517318D01*
X00174860Y00516002D01*
X00172998Y00514140D01*
X00171681Y00511860D01*
X00171518Y00511249D01*
X00169934Y00509665D01*
X00168640Y00509319D01*
X00166360Y00508002D01*
X00164498Y00506140D01*
X00163181Y00503860D01*
X00162500Y00501316D01*
Y00498684D01*
X00163181Y00496140D01*
X00164498Y00493860D01*
X00166360Y00491998D01*
X00168640Y00490681D01*
X00171183Y00490000D01*
X00173817D01*
X00176360Y00490681D01*
X00178640Y00491998D01*
X00180502Y00493860D01*
X00181819Y00496140D01*
X00181982Y00496751D01*
X00183566Y00498335D01*
X00184860Y00498681D01*
X00187140Y00499998D01*
X00189002Y00501860D01*
X00190319Y00504140D01*
X00190757Y00505775D01*
X00192591Y00507609D01*
X00192860Y00507682D01*
X00195140Y00508998D01*
X00197002Y00510860D01*
X00198319Y00513140D01*
X00207523Y00514821D01*
X00211840Y00512834D01*
X00212357Y00511587D01*
X00213759Y00509759D01*
X00232019Y00491500D01*
X00227877Y00481500D01*
X00204500D01*
Y00450500D01*
X00204500D01*
X00206957Y00444569D01*
X00195213Y00432826D01*
X00161491D01*
X00161395Y00432847D01*
X00159684Y00432884D01*
X00159601Y00432891D01*
X00157246Y00434250D01*
X00154448Y00435000D01*
X00151552D01*
X00148754Y00434250D01*
X00146246Y00432802D01*
X00144198Y00430754D01*
X00142750Y00428246D01*
X00142000Y00425448D01*
Y00422552D01*
X00142750Y00419754D01*
X00144198Y00417246D01*
X00146246Y00415198D01*
X00148754Y00413750D01*
X00151552Y00413000D01*
X00154448D01*
X00157246Y00413750D01*
X00159530Y00415069D01*
X00160783Y00415149D01*
X00161317Y00415152D01*
X00161426Y00415174D01*
X00198868D01*
X00201152Y00415475D01*
X00203281Y00416357D01*
X00205109Y00417759D01*
X00223524Y00436175D01*
X00259305D01*
X00259397Y00436154D01*
X00260671Y00436120D01*
X00261600Y00436039D01*
X00262000Y00435972D01*
Y00428000D01*
X00336000D01*
Y00462000D01*
X00290016D01*
X00289894Y00462030D01*
X00289094Y00462071D01*
X00288533Y00462156D01*
X00287942Y00462305D01*
X00287312Y00462527D01*
X00286637Y00462833D01*
X00285918Y00463230D01*
X00285154Y00463729D01*
X00284349Y00464334D01*
X00283508Y00465051D01*
X00282543Y00465968D01*
X00282463Y00466018D01*
X00228825Y00519656D01*
Y00542486D01*
X00239420Y00546690D01*
X00243000Y00543729D01*
Y00525000D01*
X00283000D01*
Y00552000D01*
X00293000D01*
Y00592000D01*
X00263000D01*
Y00592000D01*
X00260000D01*
Y00592000D01*
X00238825D01*
X00230000Y00592000D01*
X00228825Y00601513D01*
Y00688486D01*
X00230000Y00698000D01*
X00238825Y00698000D01*
X00260000D01*
Y00698000D01*
X00263000D01*
Y00698000D01*
X00293000D01*
Y00738000D01*
X00283000D01*
Y00752352D01*
X00284743Y00753552D01*
X00292860Y00755998D01*
X00295140Y00754681D01*
X00297684Y00754000D01*
X00300317D01*
X00302860Y00754681D01*
X00304151Y00755427D01*
X00333449D01*
X00340927Y00747949D01*
Y00707507D01*
X00330927Y00704921D01*
X00330802Y00705137D01*
X00328754Y00707185D01*
X00326246Y00708633D01*
X00323448Y00709383D01*
X00320552D01*
X00317754Y00708633D01*
X00315246Y00707185D01*
X00313198Y00705137D01*
X00311750Y00702629D01*
X00311000Y00699831D01*
Y00696935D01*
X00311750Y00694137D01*
X00313198Y00691629D01*
X00315246Y00689581D01*
X00317754Y00688132D01*
X00320552Y00687383D01*
X00321476D01*
X00321873Y00687289D01*
X00322107Y00687280D01*
X00322116Y00687278D01*
X00322148Y00687268D01*
X00322210Y00687241D01*
X00322306Y00687191D01*
X00322437Y00687108D01*
X00322604Y00686986D01*
X00322803Y00686820D01*
X00323132Y00686508D01*
X00323251Y00686434D01*
X00325034Y00684651D01*
X00325034Y00684651D01*
X00326600Y00683449D01*
X00328425Y00682693D01*
X00330383Y00682435D01*
X00330383Y00682435D01*
X00349867D01*
X00375075Y00657227D01*
Y00627186D01*
X00375333Y00625228D01*
X00376089Y00623404D01*
X00377291Y00621837D01*
X00379927Y00619201D01*
X00381494Y00617999D01*
X00383318Y00617243D01*
X00385276Y00616985D01*
X00385276Y00616985D01*
X00404284D01*
X00406242Y00617243D01*
X00408066Y00617999D01*
X00409633Y00619201D01*
X00412269Y00621837D01*
X00412269Y00621837D01*
X00413471Y00623404D01*
X00414227Y00625228D01*
X00414485Y00627186D01*
Y00634786D01*
X00417133Y00637435D01*
X00436158D01*
X00436309Y00637403D01*
X00436360Y00637402D01*
Y00636750D01*
X00441390Y00636682D01*
X00441730Y00636750D01*
X00446352D01*
X00447031Y00636469D01*
X00449250Y00636177D01*
X00456699D01*
X00457688Y00635188D01*
X00459463Y00633825D01*
X00461531Y00632969D01*
X00463000Y00632775D01*
Y00630250D01*
X00470123D01*
X00470938Y00629188D01*
X00472499Y00627626D01*
X00472569Y00627522D01*
X00474493Y00625591D01*
X00476842Y00623066D01*
X00477626Y00622090D01*
X00478000Y00621556D01*
Y00619699D01*
X00477970Y00619578D01*
X00478000Y00619370D01*
Y00618824D01*
X00477994Y00618757D01*
X00478000Y00618738D01*
Y00614250D01*
Y00601389D01*
X00473762Y00597508D01*
X00469730Y00594828D01*
X00468593Y00594770D01*
X00463352Y00594818D01*
X00463012Y00594750D01*
X00462263D01*
X00462253Y00594757D01*
X00460727Y00596049D01*
X00459822Y00596922D01*
X00459693Y00597005D01*
X00451349Y00605349D01*
X00449782Y00606551D01*
X00447958Y00607307D01*
X00446000Y00607565D01*
X00430649D01*
X00430526Y00607594D01*
X00429661Y00607627D01*
X00429506Y00607644D01*
X00429496Y00607646D01*
X00429140Y00608002D01*
X00426860Y00609319D01*
X00424316Y00610000D01*
X00421684D01*
X00419140Y00609319D01*
X00416860Y00608002D01*
X00414998Y00606140D01*
X00413681Y00603860D01*
X00411832Y00601075D01*
X00409364Y00600565D01*
X00343757D01*
X00343613Y00600597D01*
X00342873Y00600613D01*
X00342870Y00600613D01*
X00342551Y00601382D01*
X00341349Y00602949D01*
X00341349Y00602949D01*
X00334053Y00610245D01*
X00333979Y00610363D01*
X00333667Y00610694D01*
X00333501Y00610893D01*
X00333379Y00611061D01*
X00333295Y00611196D01*
X00333242Y00611298D01*
X00333212Y00611369D01*
X00333198Y00611415D01*
X00333191Y00611444D01*
X00333189Y00611465D01*
X00333179Y00611721D01*
X00333085Y00612120D01*
Y00613059D01*
X00332330Y00615879D01*
X00330870Y00618406D01*
X00328806Y00620470D01*
X00326279Y00621930D01*
X00323459Y00622685D01*
X00320541D01*
X00317721Y00621930D01*
X00315194Y00620470D01*
X00313130Y00618406D01*
X00311670Y00615879D01*
X00310915Y00613059D01*
Y00610141D01*
X00311670Y00607321D01*
X00313130Y00604794D01*
X00315194Y00602730D01*
X00317721Y00601270D01*
X00320541Y00600515D01*
X00321480D01*
X00321880Y00600421D01*
X00322136Y00600411D01*
X00322156Y00600409D01*
X00322163Y00600407D01*
X00328406Y00593212D01*
X00328435Y00593027D01*
Y00559992D01*
X00328404Y00559853D01*
X00328401Y00559750D01*
X00324000D01*
Y00540250D01*
X00348000D01*
Y00543829D01*
X00348122Y00544390D01*
X00359483Y00549551D01*
X00363000Y00547679D01*
Y00526000D01*
X00403000D01*
Y00553000D01*
X00413000D01*
X00417435Y00544837D01*
Y00516000D01*
X00417693Y00514042D01*
X00418449Y00512218D01*
X00419651Y00510651D01*
X00421218Y00509449D01*
X00421876Y00509176D01*
X00435692Y00495360D01*
X00435759Y00495251D01*
X00437470Y00493408D01*
X00437953Y00492804D01*
X00438000Y00492737D01*
Y00491988D01*
X00437933Y00491648D01*
X00438000Y00491309D01*
Y00490982D01*
X00437995Y00490854D01*
X00438000Y00490840D01*
Y00484250D01*
Y00465250D01*
X00454878D01*
X00462000Y00465250D01*
X00468500Y00457942D01*
Y00449500D01*
X00499500D01*
Y00480500D01*
X00478440D01*
X00469065Y00484250D01*
X00469065Y00489332D01*
Y00500614D01*
X00469065Y00500614D01*
X00472895Y00502089D01*
X00482000Y00504250D01*
X00491429Y00502873D01*
X00522051Y00472251D01*
X00522126Y00472132D01*
X00522437Y00471803D01*
X00522603Y00471604D01*
X00522725Y00471437D01*
X00522808Y00471306D01*
X00522859Y00471210D01*
X00522885Y00471148D01*
X00522895Y00471115D01*
X00522897Y00471107D01*
X00522906Y00470873D01*
X00523000Y00470476D01*
Y00469552D01*
X00523750Y00466754D01*
X00525198Y00464246D01*
X00527246Y00462198D01*
X00529754Y00460750D01*
X00532552Y00460000D01*
X00535448D01*
X00538246Y00460750D01*
X00540754Y00462198D01*
X00542802Y00464246D01*
X00544250Y00466754D01*
X00545000Y00469552D01*
Y00472448D01*
X00544250Y00475246D01*
X00542802Y00477754D01*
X00540754Y00479802D01*
X00538246Y00481250D01*
X00535448Y00482000D01*
X00535044D01*
X00527803Y00489216D01*
X00527885Y00491692D01*
X00530160Y00499680D01*
X00530562Y00499949D01*
X00532651Y00502038D01*
X00534293Y00504495D01*
X00535424Y00507225D01*
X00536000Y00510123D01*
Y00513077D01*
X00535424Y00515975D01*
X00534293Y00518705D01*
X00532651Y00521162D01*
X00530562Y00523251D01*
X00528105Y00524893D01*
X00525375Y00526023D01*
X00522477Y00526600D01*
X00519523D01*
X00516625Y00526023D01*
X00513895Y00524893D01*
X00511438Y00523251D01*
X00509349Y00521162D01*
X00509080Y00520760D01*
X00501092Y00518485D01*
X00497738Y00518374D01*
X00497170Y00518528D01*
X00492349Y00523349D01*
X00490782Y00524551D01*
X00488958Y00525307D01*
X00487000Y00525565D01*
X00482242D01*
X00482103Y00525596D01*
X00482000Y00525599D01*
Y00531750D01*
X00471723D01*
X00471640Y00531954D01*
X00471438Y00532704D01*
X00471261Y00533764D01*
X00471142Y00535111D01*
X00471096Y00536854D01*
X00471086Y00536898D01*
Y00558560D01*
X00474250Y00567250D01*
X00481086Y00567250D01*
X00493750D01*
X00493750Y00567250D01*
X00503526Y00566708D01*
X00506000Y00563477D01*
Y00560523D01*
X00506576Y00557625D01*
X00507707Y00554895D01*
X00509349Y00552438D01*
X00511438Y00550349D01*
X00513895Y00548707D01*
X00516625Y00547576D01*
X00519523Y00547000D01*
X00522477D01*
X00525375Y00547576D01*
X00528105Y00548707D01*
X00530562Y00550349D01*
X00532651Y00552438D01*
X00534293Y00554895D01*
X00535424Y00557625D01*
X00536000Y00560523D01*
Y00560677D01*
X00543928Y00568478D01*
X00544643Y00568393D01*
X00550174Y00564953D01*
Y00548600D01*
X00550475Y00546316D01*
X00551357Y00544187D01*
X00552759Y00542359D01*
X00578782Y00516337D01*
X00578827Y00516264D01*
X00579368Y00515685D01*
X00579728Y00515242D01*
X00580028Y00514811D01*
X00580273Y00514391D01*
X00580471Y00513977D01*
X00580628Y00513564D01*
X00580748Y00513144D01*
X00580833Y00512706D01*
X00580884Y00512244D01*
X00580905Y00511551D01*
X00581000Y00511136D01*
Y00510123D01*
X00581576Y00507225D01*
X00582707Y00504495D01*
X00584349Y00502038D01*
X00586438Y00499949D01*
X00588895Y00498307D01*
X00591625Y00497177D01*
X00594523Y00496600D01*
X00597477D01*
X00600375Y00497177D01*
X00603105Y00498307D01*
X00605562Y00499949D01*
X00607651Y00502038D01*
X00609293Y00504495D01*
X00610424Y00507225D01*
X00611000Y00510123D01*
Y00513077D01*
X00610424Y00515975D01*
X00609293Y00518705D01*
X00607651Y00521162D01*
X00605562Y00523251D01*
X00603105Y00524893D01*
X00600375Y00526023D01*
X00597477Y00526600D01*
X00596464D01*
X00596049Y00526695D01*
X00595356Y00526716D01*
X00594894Y00526767D01*
X00594456Y00526852D01*
X00594036Y00526972D01*
X00593623Y00527129D01*
X00593209Y00527327D01*
X00592789Y00527573D01*
X00592358Y00527872D01*
X00591915Y00528232D01*
X00591336Y00528773D01*
X00591263Y00528818D01*
X00567826Y00552256D01*
Y00589523D01*
X00567826Y00589524D01*
X00567826Y00589525D01*
Y00589749D01*
X00567845Y00589833D01*
X00567826Y00589953D01*
Y00635217D01*
X00567525Y00637501D01*
X00566643Y00639629D01*
X00565241Y00641457D01*
X00560847Y00645851D01*
X00559019Y00647253D01*
X00556891Y00648135D01*
X00554607Y00648436D01*
X00550046D01*
X00547052Y00651430D01*
X00547009Y00651499D01*
X00544379Y00654332D01*
X00543542Y00655377D01*
X00543000Y00656157D01*
Y00658298D01*
X00543068Y00658637D01*
X00543000Y00658976D01*
X00543000Y00659306D01*
X00543005Y00659432D01*
X00543000Y00669000D01*
X00542250Y00669000D01*
X00542250Y00669000D01*
X00503000D01*
Y00652664D01*
X00503000Y00648237D01*
X00502974Y00643763D01*
X00502813Y00642048D01*
X00502789Y00641920D01*
X00496476Y00637081D01*
X00495312Y00636814D01*
X00487000Y00644186D01*
Y00649250D01*
Y00668750D01*
X00475910D01*
X00475896Y00668755D01*
X00475768Y00668750D01*
X00475441D01*
X00475102Y00668818D01*
X00474762Y00668750D01*
X00474013D01*
X00474003Y00668757D01*
X00472477Y00670049D01*
X00471572Y00670922D01*
X00471443Y00671005D01*
X00467449Y00674999D01*
X00465882Y00676201D01*
X00464058Y00676957D01*
X00462100Y00677215D01*
X00461640Y00678650D01*
X00456609Y00678717D01*
X00456270Y00678650D01*
X00450690Y00678650D01*
X00450411Y00679322D01*
X00449209Y00680889D01*
X00430521Y00699577D01*
Y00701119D01*
X00430553Y00701259D01*
X00430577Y00702197D01*
X00430592Y00702408D01*
X00430656Y00702910D01*
X00430659Y00702928D01*
X00430695Y00703029D01*
X00430700Y00703069D01*
X00431319Y00704140D01*
X00432000Y00706684D01*
Y00709316D01*
X00431718Y00712578D01*
X00433353Y00715520D01*
X00434920Y00716722D01*
X00440198Y00722000D01*
X00452000Y00722000D01*
X00456549Y00713884D01*
Y00711225D01*
X00455681Y00709722D01*
X00455000Y00707179D01*
Y00704546D01*
X00455681Y00702002D01*
X00456998Y00699722D01*
X00458860Y00697860D01*
X00461140Y00696544D01*
X00463684Y00695862D01*
X00466317D01*
X00468860Y00696544D01*
X00471140Y00697860D01*
X00473002Y00699722D01*
X00474319Y00702002D01*
X00475000Y00704546D01*
Y00707179D01*
X00474319Y00709722D01*
X00474201Y00709926D01*
Y00719331D01*
X00474222Y00719429D01*
X00474248Y00720734D01*
X00474315Y00721740D01*
X00474348Y00722000D01*
X00477000D01*
Y00726513D01*
X00477059Y00726742D01*
X00477088Y00727246D01*
X00477131Y00727506D01*
X00477219Y00727824D01*
X00477365Y00728208D01*
X00477583Y00728658D01*
X00477881Y00729172D01*
X00477883Y00729174D01*
X00494000D01*
X00496284Y00729475D01*
X00498413Y00730357D01*
X00500241Y00731759D01*
X00514430Y00745948D01*
X00514499Y00745991D01*
X00517332Y00748621D01*
X00518377Y00749458D01*
X00519157Y00750000D01*
X00521298D01*
X00521637Y00749932D01*
X00521976Y00750000D01*
X00522304D01*
X00522432Y00749995D01*
X00522446Y00750000D01*
X00536000D01*
Y00755972D01*
X00536400Y00756039D01*
X00537329Y00756120D01*
X00538603Y00756154D01*
X00538695Y00756174D01*
X00549000D01*
X00551284Y00756475D01*
X00553413Y00757357D01*
X00553599Y00757500D01*
X00559375D01*
Y00772500D01*
X00553599D01*
X00553413Y00772643D01*
X00551284Y00773525D01*
X00549000Y00773826D01*
X00538695D01*
X00538603Y00773846D01*
X00537329Y00773880D01*
X00536400Y00773961D01*
X00536000Y00774028D01*
Y00780000D01*
X00523000D01*
Y00800000D01*
X00511000D01*
X00501000Y00800000D01*
Y00800000D01*
X00501000D01*
Y00800000D01*
X00479000D01*
Y00788698D01*
X00477651Y00787349D01*
X00476449Y00785782D01*
X00475693Y00783958D01*
X00475435Y00782000D01*
Y00781231D01*
X00475403Y00781089D01*
X00475401Y00781000D01*
X00455582D01*
X00455582Y00781000D01*
X00454250Y00781000D01*
X00454233Y00772870D01*
X00454029Y00771643D01*
X00448995Y00768321D01*
X00443170Y00767349D01*
X00441603Y00768551D01*
X00439779Y00769307D01*
X00437821Y00769565D01*
X00430649D01*
X00430526Y00769594D01*
X00429661Y00769628D01*
X00429506Y00769644D01*
X00429496Y00769646D01*
X00429140Y00770002D01*
X00426860Y00771319D01*
X00424316Y00772000D01*
X00421684D01*
X00415190Y00778026D01*
X00414065Y00779935D01*
Y00796688D01*
X00414065Y00797500D01*
X00414065Y00797500D01*
X00414065Y00797500D01*
X00413989Y00798076D01*
X00417049Y00801941D01*
X00418286Y00803317D01*
X00421399Y00806000D01*
X00427998Y00806000D01*
X00459000D01*
Y00833000D01*
X00469000D01*
Y00869914D01*
X00469000Y00873000D01*
X00476136Y00879914D01*
X00519864D01*
X00527000Y00873000D01*
X00527000Y00869914D01*
Y00833000D01*
X00540000D01*
Y00806000D01*
X00580000D01*
Y00824245D01*
X00581735Y00826246D01*
X00590000Y00829775D01*
X00590910Y00829119D01*
X00591545Y00828437D01*
X00594125Y00825097D01*
X00594351Y00824802D01*
X00594767Y00824261D01*
X00594998Y00823860D01*
X00595325Y00823532D01*
X00595728Y00823008D01*
X00595868Y00822868D01*
X00596393Y00822465D01*
X00596860Y00821998D01*
X00597432Y00821667D01*
X00597957Y00821265D01*
X00598568Y00821012D01*
X00599140Y00820682D01*
X00599779Y00820510D01*
X00600390Y00820257D01*
X00601045Y00820171D01*
X00601684Y00820000D01*
X00602345D01*
X00603000Y00819914D01*
X00603655Y00820000D01*
X00604316D01*
X00604955Y00820171D01*
X00605611Y00820257D01*
X00606221Y00820510D01*
X00606860Y00820682D01*
X00607432Y00821012D01*
X00608043Y00821265D01*
X00608568Y00821667D01*
X00609140Y00821998D01*
X00609608Y00822465D01*
X00610132Y00822868D01*
X00610535Y00823392D01*
X00611002Y00823860D01*
X00611333Y00824432D01*
X00611735Y00824957D01*
X00611988Y00825568D01*
X00612318Y00826140D01*
X00612490Y00826779D01*
X00612743Y00827390D01*
X00612829Y00828045D01*
X00613000Y00828683D01*
Y00829345D01*
X00613086Y00830000D01*
X00613000Y00830655D01*
Y00831317D01*
X00612946Y00831517D01*
Y00884142D01*
X00612603Y00886753D01*
X00611595Y00889185D01*
X00609992Y00891274D01*
X00604134Y00897132D01*
X00602045Y00898735D01*
X00599613Y00899743D01*
X00597002Y00900086D01*
X00395858D01*
X00393247Y00899743D01*
X00390815Y00898735D01*
X00388726Y00897132D01*
X00384166Y00892572D01*
X00379860Y00891386D01*
X00373657Y00891618D01*
X00371838Y00892200D01*
X00371717Y00892267D01*
X00368921Y00893881D01*
X00365679Y00894750D01*
X00362321D01*
X00359079Y00893881D01*
X00356171Y00892203D01*
X00353797Y00889829D01*
X00352119Y00886921D01*
X00351250Y00883679D01*
Y00880321D01*
X00352119Y00877079D01*
X00353797Y00874171D01*
X00355367Y00869300D01*
X00353797Y00864429D01*
X00352119Y00861521D01*
X00351735Y00860087D01*
X00351734Y00860086D01*
X00310653D01*
X00310596Y00860098D01*
X00309777Y00860102D01*
X00307873Y00860159D01*
X00307829Y00860202D01*
X00304921Y00861881D01*
X00301679Y00862750D01*
X00298321D01*
X00295079Y00861881D01*
X00292171Y00860202D01*
X00289797Y00857829D01*
X00288119Y00854921D01*
X00287411Y00852280D01*
X00285876Y00850560D01*
X00285348Y00850028D01*
X00285316Y00849979D01*
X00275868Y00840531D01*
X00274265Y00838443D01*
X00273257Y00836010D01*
X00272914Y00833400D01*
Y00795000D01*
X00267749Y00789565D01*
X00267699Y00789526D01*
X00264398Y00787825D01*
X00250826D01*
Y00820350D01*
X00250525Y00822634D01*
X00249643Y00824763D01*
X00248241Y00826591D01*
X00236217Y00838615D01*
X00236175Y00838682D01*
X00235231Y00839703D01*
X00234987Y00840007D01*
X00234781Y00840295D01*
X00234715Y00840400D01*
X00234781Y00840505D01*
X00234950Y00840742D01*
X00235657Y00841578D01*
X00236105Y00842043D01*
X00236159Y00842128D01*
X00241486Y00847454D01*
X00242888Y00849282D01*
X00243770Y00851411D01*
X00244070Y00853695D01*
Y00975887D01*
X00243770Y00978171D01*
X00242888Y00980300D01*
X00241486Y00982127D01*
X00211613Y01012000D01*
X00215555Y01022000D01*
X00217000D01*
Y01096000D01*
X00216395D01*
X00214189Y01097173D01*
X00207826Y01103000D01*
X00207525Y01105284D01*
X00206643Y01107413D01*
X00205241Y01109241D01*
X00204241Y01110241D01*
X00202413Y01111643D01*
X00200284Y01112525D01*
X00198000Y01112825D01*
D02*
G37*
G36*
X00061000Y00884000D02*
Y00884000D01*
X00054000Y00884000D01*
X00031000D01*
Y00844000D01*
X00044000D01*
Y00817000D01*
X00084000D01*
Y00844000D01*
X00094000D01*
Y00884000D01*
X00071000D01*
X00064000Y00884000D01*
Y00884000D01*
X00061000D01*
D02*
G37*
G36*
X00831000Y00885826D02*
X00828716Y00885525D01*
X00826587Y00884643D01*
X00824759Y00883241D01*
X00823357Y00881413D01*
X00822475Y00879284D01*
X00822240Y00877496D01*
X00822153Y00877101D01*
X00822132Y00876068D01*
X00822128Y00876000D01*
X00814000D01*
Y00802000D01*
X00848000D01*
Y00876000D01*
X00839879D01*
X00839866Y00876138D01*
X00839847Y00877101D01*
X00839760Y00877496D01*
X00839525Y00879284D01*
X00838643Y00881413D01*
X00837241Y00883241D01*
X00835413Y00884643D01*
X00833284Y00885525D01*
X00831000Y00885826D01*
D02*
G37*
G36*
X00958000Y00827000D02*
X00918000D01*
Y00801000D01*
X00905000D01*
Y00761000D01*
X00935000D01*
Y00761000D01*
X00938000D01*
Y00761000D01*
X00968000D01*
Y00801000D01*
X00958000D01*
Y00827000D01*
D02*
G37*
G36*
X00602860Y00792268D02*
X00600249Y00791924D01*
X00597817Y00790917D01*
X00595728Y00789314D01*
X00594125Y00787225D01*
X00593117Y00784792D01*
X00592774Y00782182D01*
X00593117Y00779571D01*
X00594125Y00777139D01*
X00595728Y00775050D01*
X00602914Y00767864D01*
Y00762136D01*
X00595728Y00754950D01*
X00594125Y00752861D01*
X00593117Y00750429D01*
X00592774Y00747818D01*
Y00739946D01*
X00558140D01*
X00555530Y00739603D01*
X00553097Y00738595D01*
X00551008Y00736992D01*
X00534530Y00720514D01*
X00534500Y00720496D01*
X00530672Y00716940D01*
X00529181Y00715745D01*
X00527877Y00714837D01*
X00527674Y00714720D01*
X00524013D01*
X00523827Y00714757D01*
X00523641Y00714720D01*
X00503000D01*
Y00688720D01*
X00535905Y00688720D01*
X00543000D01*
X00543037Y00695547D01*
X00543000Y00695733D01*
X00543000Y00699394D01*
X00543116Y00699597D01*
X00543985Y00700843D01*
X00546840Y00704214D01*
X00548708Y00706148D01*
X00548736Y00706191D01*
X00562318Y00719774D01*
X00602860D01*
X00605471Y00720117D01*
X00607903Y00721125D01*
X00609992Y00722728D01*
X00611595Y00724817D01*
X00612603Y00727250D01*
X00612946Y00729860D01*
Y00738647D01*
X00622946Y00742790D01*
X00639914Y00725822D01*
Y00704530D01*
X00639750Y00704246D01*
X00639000Y00701448D01*
Y00698552D01*
X00639750Y00695754D01*
X00641198Y00693246D01*
X00643246Y00691198D01*
X00645754Y00689750D01*
X00648552Y00689000D01*
X00651448D01*
X00654246Y00689750D01*
X00656754Y00691198D01*
X00658802Y00693246D01*
X00660250Y00695754D01*
X00661000Y00698552D01*
Y00701448D01*
X00660250Y00704246D01*
X00660086Y00704530D01*
Y00730000D01*
X00659743Y00732610D01*
X00658735Y00735043D01*
X00657132Y00737132D01*
X00623086Y00771178D01*
Y00772042D01*
X00622743Y00774652D01*
X00621735Y00777085D01*
X00620132Y00779174D01*
X00609992Y00789314D01*
X00607903Y00790917D01*
X00605471Y00791924D01*
X00602860Y00792268D01*
D02*
G37*
G36*
X00323459Y00673485D02*
X00320541D01*
X00317721Y00672730D01*
X00315194Y00671270D01*
X00313130Y00669206D01*
X00311670Y00666679D01*
X00310915Y00663859D01*
Y00660941D01*
X00311670Y00658121D01*
X00313130Y00655594D01*
X00315194Y00653530D01*
X00317721Y00652070D01*
X00320541Y00651315D01*
X00323459D01*
X00326279Y00652070D01*
X00328806Y00653530D01*
X00330870Y00655594D01*
X00332330Y00658121D01*
X00333085Y00660941D01*
Y00663859D01*
X00332330Y00666679D01*
X00330870Y00669206D01*
X00328806Y00671270D01*
X00326279Y00672730D01*
X00323459Y00673485D01*
D02*
G37*
G36*
X00107250Y00684250D02*
X00056750D01*
Y00633750D01*
X00107250D01*
Y00684250D01*
D02*
G37*
G36*
X00597477Y00627400D02*
X00594523D01*
X00591625Y00626824D01*
X00588895Y00625693D01*
X00586438Y00624051D01*
X00584349Y00621962D01*
X00582707Y00619505D01*
X00581576Y00616775D01*
X00581000Y00613877D01*
Y00610923D01*
X00581576Y00608025D01*
X00582707Y00605295D01*
X00584349Y00602838D01*
X00586438Y00600749D01*
X00588895Y00599107D01*
X00591625Y00597976D01*
X00594523Y00597400D01*
X00597477D01*
X00600375Y00597976D01*
X00603105Y00599107D01*
X00605562Y00600749D01*
X00607651Y00602838D01*
X00609293Y00605295D01*
X00610424Y00608025D01*
X00611000Y00610923D01*
Y00613877D01*
X00610424Y00616775D01*
X00609293Y00619505D01*
X00607651Y00621962D01*
X00605562Y00624051D01*
X00603105Y00625693D01*
X00600375Y00626824D01*
X00597477Y00627400D01*
D02*
G37*
G36*
X00935000Y00655000D02*
Y00655000D01*
X00928000Y00655000D01*
X00905000D01*
Y00615000D01*
X00918000D01*
Y00588000D01*
X00958000D01*
Y00615000D01*
X00968000D01*
Y00655000D01*
X00945000D01*
X00938000Y00655000D01*
Y00655000D01*
X00935000D01*
D02*
G37*
G36*
X00800000Y00660631D02*
X00799865Y00660604D01*
X00793916Y00660214D01*
X00787936Y00659024D01*
X00782162Y00657065D01*
X00776694Y00654368D01*
X00771624Y00650980D01*
X00767040Y00646960D01*
X00763020Y00642376D01*
X00759632Y00637306D01*
X00756936Y00631838D01*
X00754976Y00626064D01*
X00753786Y00620084D01*
X00753396Y00614135D01*
X00753369Y00614000D01*
X00753396Y00613865D01*
X00753786Y00607916D01*
X00754976Y00601936D01*
X00756936Y00596162D01*
X00759632Y00590694D01*
X00763020Y00585624D01*
X00767040Y00581040D01*
X00771624Y00577020D01*
X00776694Y00573632D01*
X00782162Y00570936D01*
X00787936Y00568976D01*
X00793916Y00567786D01*
X00799865Y00567396D01*
X00800000Y00567369D01*
X00800135Y00567396D01*
X00806084Y00567786D01*
X00812064Y00568976D01*
X00817838Y00570936D01*
X00823306Y00573632D01*
X00828376Y00577020D01*
X00832960Y00581040D01*
X00836980Y00585624D01*
X00840368Y00590694D01*
X00843064Y00596162D01*
X00845024Y00601936D01*
X00846214Y00607916D01*
X00846604Y00613865D01*
X00846631Y00614000D01*
X00846604Y00614135D01*
X00846214Y00620084D01*
X00845024Y00626064D01*
X00843064Y00631838D01*
X00840368Y00637306D01*
X00836980Y00642376D01*
X00832960Y00646960D01*
X00828376Y00650980D01*
X00823306Y00654368D01*
X00817838Y00657065D01*
X00812064Y00659024D01*
X00806084Y00660214D01*
X00800135Y00660604D01*
X00800000Y00660631D01*
D02*
G37*
G36*
X00687462Y00634000D02*
X00682538D01*
X00677708Y00633039D01*
X00673158Y00631155D01*
X00669063Y00628419D01*
X00665581Y00624936D01*
X00662845Y00620842D01*
X00660961Y00616292D01*
X00660000Y00611462D01*
Y00606538D01*
X00660961Y00601708D01*
X00662845Y00597158D01*
X00665581Y00593064D01*
X00669063Y00589581D01*
X00673158Y00586845D01*
X00675569Y00585847D01*
X00676179Y00578588D01*
X00675411Y00575384D01*
X00672751Y00573848D01*
X00670402Y00571499D01*
X00668740Y00568621D01*
X00667880Y00565411D01*
Y00562089D01*
X00668740Y00558879D01*
X00670402Y00556001D01*
X00672751Y00553652D01*
X00675629Y00551990D01*
X00678839Y00551130D01*
X00682161D01*
X00685371Y00551990D01*
X00688249Y00553652D01*
X00690599Y00556001D01*
X00692260Y00558879D01*
X00693120Y00562089D01*
Y00565411D01*
X00692260Y00568621D01*
X00690599Y00571499D01*
X00688249Y00573848D01*
X00687767Y00574126D01*
X00687637Y00578351D01*
X00689136Y00584333D01*
X00692292Y00584961D01*
X00696842Y00586845D01*
X00700937Y00589581D01*
X00704419Y00593064D01*
X00707155Y00597158D01*
X00709039Y00601708D01*
X00710000Y00606538D01*
Y00611462D01*
X00709039Y00616292D01*
X00707155Y00620842D01*
X00704419Y00624936D01*
X00700937Y00628419D01*
X00696842Y00631155D01*
X00692292Y00633039D01*
X00687462Y00634000D01*
D02*
G37*
G36*
X00597477Y00577000D02*
X00594523D01*
X00591625Y00576423D01*
X00588895Y00575293D01*
X00586438Y00573651D01*
X00584349Y00571562D01*
X00582707Y00569105D01*
X00581576Y00566375D01*
X00581000Y00563477D01*
Y00560523D01*
X00581576Y00557625D01*
X00582707Y00554895D01*
X00584349Y00552438D01*
X00586438Y00550349D01*
X00588895Y00548707D01*
X00591625Y00547576D01*
X00594523Y00547000D01*
X00597477D01*
X00600375Y00547576D01*
X00603105Y00548707D01*
X00605562Y00550349D01*
X00607651Y00552438D01*
X00609293Y00554895D01*
X00610424Y00557625D01*
X00611000Y00560523D01*
Y00563477D01*
X00610424Y00566375D01*
X00609293Y00569105D01*
X00607651Y00571562D01*
X00605562Y00573651D01*
X00603105Y00575293D01*
X00600375Y00576423D01*
X00597477Y00577000D01*
D02*
G37*
G36*
X00969706Y00561445D02*
X00938706D01*
Y00530445D01*
X00969706D01*
Y00561445D01*
D02*
G37*
G36*
X00095000Y00581000D02*
X00055000D01*
Y00554000D01*
X00042000D01*
Y00514000D01*
X00072000D01*
Y00514000D01*
X00075000D01*
Y00514000D01*
X00105000D01*
Y00554000D01*
X00095000D01*
Y00581000D01*
D02*
G37*
G36*
X00734500Y00463500D02*
X00703500D01*
Y00432500D01*
X00734500D01*
Y00463500D01*
D02*
G37*
G36*
X00585500D02*
X00554500D01*
Y00432500D01*
X00585500D01*
Y00463500D01*
D02*
G37*
G36*
X00072000Y00408000D02*
Y00408000D01*
X00065000Y00408000D01*
X00042000D01*
Y00368000D01*
X00055000D01*
Y00342000D01*
X00095000D01*
Y00368000D01*
X00105000D01*
Y00408000D01*
X00082000D01*
X00075000Y00408000D01*
Y00408000D01*
X00072000D01*
D02*
G37*
G36*
X00918023Y00434576D02*
X00917888Y00434549D01*
X00911939Y00434159D01*
X00905959Y00432969D01*
X00900185Y00431009D01*
X00894717Y00428313D01*
X00889647Y00424925D01*
X00885063Y00420905D01*
X00881043Y00416321D01*
X00877655Y00411251D01*
X00874959Y00405783D01*
X00872999Y00400009D01*
X00871809Y00394029D01*
X00871420Y00388080D01*
X00871393Y00387945D01*
X00871420Y00387809D01*
X00871809Y00381861D01*
X00872999Y00375881D01*
X00874959Y00370107D01*
X00877655Y00364639D01*
X00881043Y00359569D01*
X00885063Y00354985D01*
X00889647Y00350965D01*
X00894717Y00347577D01*
X00900185Y00344880D01*
X00905959Y00342920D01*
X00911939Y00341731D01*
X00917888Y00341341D01*
X00918023Y00341314D01*
X00918159Y00341341D01*
X00924107Y00341731D01*
X00930088Y00342920D01*
X00935861Y00344880D01*
X00941330Y00347577D01*
X00946399Y00350965D01*
X00950983Y00354985D01*
X00955004Y00359569D01*
X00958391Y00364639D01*
X00961088Y00370107D01*
X00963048Y00375881D01*
X00964237Y00381861D01*
X00964627Y00387809D01*
X00964654Y00387945D01*
X00964627Y00388080D01*
X00964237Y00394029D01*
X00963048Y00400009D01*
X00961088Y00405783D01*
X00958391Y00411251D01*
X00955004Y00416321D01*
X00950983Y00420905D01*
X00946399Y00424925D01*
X00941330Y00428313D01*
X00935861Y00431009D01*
X00930088Y00432969D01*
X00924107Y00434159D01*
X00918159Y00434549D01*
X00918023Y00434576D01*
D02*
G37*
G36*
X00510712Y00365750D02*
X00505788D01*
X00500958Y00364789D01*
X00496408Y00362905D01*
X00492313Y00360169D01*
X00488831Y00356687D01*
X00486095Y00352592D01*
X00484211Y00348042D01*
X00483250Y00343212D01*
Y00339289D01*
X00480058Y00336578D01*
X00476962Y00334919D01*
X00473896Y00334057D01*
X00469489Y00337001D01*
X00464036Y00339690D01*
X00458279Y00341644D01*
X00452317Y00342830D01*
X00446387Y00343219D01*
X00446250Y00343246D01*
X00446113Y00343219D01*
X00440183Y00342830D01*
X00434221Y00341644D01*
X00428464Y00339690D01*
X00423011Y00337001D01*
X00417956Y00333623D01*
X00413385Y00329615D01*
X00409377Y00325044D01*
X00405999Y00319989D01*
X00403310Y00314536D01*
X00401356Y00308779D01*
X00400170Y00302817D01*
X00399781Y00296887D01*
X00399754Y00296750D01*
X00399781Y00296612D01*
X00400170Y00290683D01*
X00401356Y00284721D01*
X00403310Y00278964D01*
X00405999Y00273511D01*
X00409377Y00268456D01*
X00413385Y00263885D01*
X00417956Y00259877D01*
X00423011Y00256499D01*
X00428464Y00253810D01*
X00434221Y00251856D01*
X00440183Y00250670D01*
X00446113Y00250281D01*
X00446250Y00250254D01*
X00446387Y00250281D01*
X00452317Y00250670D01*
X00458279Y00251856D01*
X00464036Y00253810D01*
X00469489Y00256499D01*
X00474544Y00259877D01*
X00479115Y00263885D01*
X00483123Y00268456D01*
X00486501Y00273511D01*
X00489190Y00278964D01*
X00491144Y00284721D01*
X00492330Y00290683D01*
X00492719Y00296612D01*
X00492746Y00296750D01*
X00492719Y00296887D01*
X00492330Y00302817D01*
X00491144Y00308779D01*
X00490571Y00310469D01*
X00492913Y00313729D01*
X00498694Y00317648D01*
X00500958Y00316711D01*
X00505788Y00315750D01*
X00510712D01*
X00515542Y00316711D01*
X00520092Y00318595D01*
X00524187Y00321331D01*
X00527669Y00324813D01*
X00530405Y00328908D01*
X00532289Y00333458D01*
X00533250Y00338288D01*
Y00343212D01*
X00532289Y00348042D01*
X00530405Y00352592D01*
X00527669Y00356687D01*
X00524187Y00360169D01*
X00520092Y00362905D01*
X00515542Y00364789D01*
X00510712Y00365750D01*
D02*
G37*
G36*
X00203712Y00366750D02*
X00198788D01*
X00193958Y00365789D01*
X00189408Y00363905D01*
X00185313Y00361169D01*
X00181831Y00357687D01*
X00179095Y00353592D01*
X00177211Y00349042D01*
X00176250Y00344212D01*
Y00339288D01*
X00177211Y00334458D01*
X00179095Y00329908D01*
X00181831Y00325813D01*
X00185313Y00322331D01*
X00189408Y00319595D01*
X00193958Y00317711D01*
X00198788Y00316750D01*
X00203712D01*
X00208542Y00317711D01*
X00213092Y00319595D01*
X00217187Y00322331D01*
X00220669Y00325813D01*
X00223405Y00329908D01*
X00225289Y00334458D01*
X00226250Y00339288D01*
Y00344212D01*
X00225289Y00349042D01*
X00223405Y00353592D01*
X00220669Y00357687D01*
X00217187Y00361169D01*
X00213092Y00363905D01*
X00208542Y00365789D01*
X00203712Y00366750D01*
D02*
G37*
G36*
X00730000Y00330631D02*
X00729865Y00330604D01*
X00723916Y00330214D01*
X00717936Y00329024D01*
X00712162Y00327065D01*
X00706694Y00324368D01*
X00701624Y00320980D01*
X00697040Y00316960D01*
X00693020Y00312376D01*
X00689632Y00307306D01*
X00686936Y00301838D01*
X00684976Y00296064D01*
X00683786Y00290084D01*
X00683396Y00284135D01*
X00683369Y00284000D01*
X00683396Y00283865D01*
X00683786Y00277916D01*
X00684976Y00271936D01*
X00686936Y00266162D01*
X00689632Y00260694D01*
X00693020Y00255624D01*
X00697040Y00251040D01*
X00701624Y00247020D01*
X00706694Y00243632D01*
X00712162Y00240935D01*
X00717936Y00238976D01*
X00723916Y00237786D01*
X00729865Y00237396D01*
X00730000Y00237369D01*
X00730135Y00237396D01*
X00736084Y00237786D01*
X00742064Y00238976D01*
X00747838Y00240935D01*
X00753306Y00243632D01*
X00758376Y00247020D01*
X00762960Y00251040D01*
X00766980Y00255624D01*
X00770368Y00260694D01*
X00773064Y00266162D01*
X00775024Y00271936D01*
X00776214Y00277916D01*
X00776604Y00283865D01*
X00776631Y00284000D01*
X00776604Y00284135D01*
X00776214Y00290084D01*
X00775024Y00296064D01*
X00773064Y00301838D01*
X00770368Y00307306D01*
X00766980Y00312376D01*
X00762960Y00316960D01*
X00758376Y00320980D01*
X00753306Y00324368D01*
X00747838Y00327065D01*
X00742064Y00329024D01*
X00736084Y00330214D01*
X00730135Y00330604D01*
X00730000Y00330631D01*
D02*
G37*
G36*
X00063500Y00253500D02*
X00032500D01*
Y00222500D01*
X00063500D01*
Y00253500D01*
D02*
G37*
G36*
X00076500Y00187500D02*
X00045500D01*
Y00156500D01*
X00076500D01*
Y00187500D01*
D02*
G37*
G36*
X00875977Y00244115D02*
X00875832Y00244086D01*
X00869967Y00243702D01*
X00864061Y00242527D01*
X00858358Y00240591D01*
X00852956Y00237927D01*
X00847949Y00234581D01*
X00843421Y00230611D01*
X00839450Y00226083D01*
X00836105Y00221075D01*
X00833441Y00215674D01*
X00831505Y00209971D01*
X00830330Y00204065D01*
X00829946Y00198200D01*
X00829917Y00198055D01*
X00829946Y00197910D01*
X00830330Y00192046D01*
X00831505Y00186139D01*
X00833441Y00180436D01*
X00836105Y00175035D01*
X00839450Y00170027D01*
X00843421Y00165500D01*
X00847949Y00161529D01*
X00852956Y00158183D01*
X00858358Y00155519D01*
X00864061Y00153583D01*
X00869967Y00152409D01*
X00875832Y00152024D01*
X00875977Y00151995D01*
X00876121Y00152024D01*
X00881986Y00152409D01*
X00887893Y00153583D01*
X00893596Y00155519D01*
X00898997Y00158183D01*
X00904004Y00161529D01*
X00908532Y00165500D01*
X00912503Y00170027D01*
X00915849Y00175035D01*
X00918512Y00180436D01*
X00920448Y00186139D01*
X00921623Y00192046D01*
X00922008Y00197910D01*
X00922036Y00198055D01*
X00922008Y00198200D01*
X00921623Y00204065D01*
X00920448Y00209971D01*
X00918512Y00215674D01*
X00915849Y00221075D01*
X00912503Y00226083D01*
X00908532Y00230611D01*
X00904004Y00234581D01*
X00898997Y00237927D01*
X00893596Y00240591D01*
X00887893Y00242527D01*
X00881986Y00243702D01*
X00876121Y00244086D01*
X00875977Y00244115D01*
D02*
G37*
G36*
X00848500Y00060500D02*
X00817500D01*
Y00029500D01*
X00848500D01*
Y00060500D01*
D02*
G37*
G36*
X00128750Y00043750D02*
X00103250D01*
Y00018250D01*
X00128750D01*
Y00043750D01*
D02*
G37*
G36*
X00597931Y00108253D02*
X00597790Y00108224D01*
X00591896Y00107838D01*
X00585965Y00106658D01*
X00580238Y00104714D01*
X00574814Y00102040D01*
X00569786Y00098680D01*
X00565239Y00094692D01*
X00561251Y00090145D01*
X00557891Y00085117D01*
X00555217Y00079693D01*
X00553273Y00073966D01*
X00552093Y00068035D01*
X00551707Y00062141D01*
X00551678Y00062000D01*
X00551707Y00061859D01*
X00552093Y00055965D01*
X00553273Y00050034D01*
X00555217Y00044307D01*
X00557891Y00038883D01*
X00561251Y00033855D01*
X00565239Y00029308D01*
X00569786Y00025320D01*
X00574814Y00021960D01*
X00580238Y00019286D01*
X00585965Y00017342D01*
X00591896Y00016162D01*
X00597790Y00015776D01*
X00597931Y00015747D01*
X00598073Y00015776D01*
X00603966Y00016162D01*
X00609897Y00017342D01*
X00615624Y00019286D01*
X00621048Y00021960D01*
X00626076Y00025320D01*
X00630623Y00029308D01*
X00634611Y00033855D01*
X00637971Y00038883D01*
X00640646Y00044307D01*
X00642589Y00050034D01*
X00643769Y00055965D01*
X00644156Y00061859D01*
X00644184Y00062000D01*
X00644156Y00062141D01*
X00643769Y00068035D01*
X00642589Y00073966D01*
X00640646Y00079693D01*
X00637971Y00085117D01*
X00634611Y00090145D01*
X00630623Y00094692D01*
X00626076Y00098680D01*
X00621048Y00102040D01*
X00615624Y00104714D01*
X00609897Y00106658D01*
X00603966Y00107838D01*
X00598073Y00108224D01*
X00597931Y00108253D01*
D02*
G37*
%LPD*%
G36*
X00616775Y01157447D02*
X00616861Y01156958D01*
X00617009Y01156456D01*
X00617216Y01155940D01*
X00617484Y01155411D01*
X00617813Y01154869D01*
X00618203Y01154314D01*
X00618653Y01153745D01*
X00619735Y01152568D01*
X00614432Y01147264D01*
X00613837Y01147836D01*
X00612686Y01148797D01*
X00612131Y01149187D01*
X00611589Y01149516D01*
X00611060Y01149784D01*
X00610545Y01149992D01*
X00610042Y01150138D01*
X00609553Y01150225D01*
X00609077Y01150250D01*
X00616750Y01157923D01*
X00616775Y01157447D01*
D02*
G37*
G36*
X00866000Y01075124D02*
X00865205Y01074795D01*
X00783000D01*
Y01126000D01*
X00792194D01*
X00792548Y01125905D01*
X00795852D01*
X00796206Y01126000D01*
X00817594D01*
X00817948Y01125905D01*
X00821252D01*
X00821606Y01126000D01*
X00842994D01*
X00843348Y01125905D01*
X00846652D01*
X00847006Y01126000D01*
X00866000D01*
Y01075124D01*
D02*
G37*
G36*
X00768000Y01074795D02*
X00705455D01*
Y01049705D01*
X00730545D01*
Y01050000D01*
X00740648D01*
X00741748Y01049705D01*
X00745052D01*
X00746152Y01050000D01*
X00766048D01*
X00767148Y01049705D01*
X00768000D01*
Y01024000D01*
X00739000D01*
Y01017000D01*
X00736383D01*
Y00995000D01*
X00739000D01*
Y00970000D01*
X00660325D01*
Y01043850D01*
X00677750D01*
Y01124750D01*
X00678000Y01125000D01*
X00768000D01*
Y01074795D01*
D02*
G37*
G36*
X00685788Y00877039D02*
X00685900Y00875759D01*
X00686087Y00874629D01*
X00686350Y00873650D01*
X00686687Y00872822D01*
X00687100Y00872144D01*
X00687588Y00871617D01*
X00688150Y00871240D01*
X00688788Y00871014D01*
X00689500Y00870939D01*
X00674500D01*
X00675212Y00871014D01*
X00675850Y00871240D01*
X00676413Y00871617D01*
X00676900Y00872144D01*
X00677312Y00872822D01*
X00677650Y00873650D01*
X00677913Y00874629D01*
X00678100Y00875759D01*
X00678213Y00877039D01*
X00678250Y00878469D01*
X00685750D01*
X00685788Y00877039D01*
D02*
G37*
G36*
X00206787Y01026986D02*
X00206150Y01026760D01*
X00205588Y01026383D01*
X00205100Y01025856D01*
X00204688Y01025178D01*
X00204350Y01024350D01*
X00204088Y01023371D01*
X00203900Y01022242D01*
X00203787Y01020961D01*
X00203750Y01019530D01*
X00196250D01*
X00196213Y01020961D01*
X00196100Y01022242D01*
X00195912Y01023371D01*
X00195650Y01024350D01*
X00195312Y01025178D01*
X00194900Y01025856D01*
X00194412Y01026383D01*
X00193850Y01026760D01*
X00193213Y01026986D01*
X00192500Y01027061D01*
X00207500D01*
X00206787Y01026986D01*
D02*
G37*
G36*
X00305660Y00855344D02*
X00305869Y00855272D01*
X00306163Y00855208D01*
X00306541Y00855153D01*
X00307548Y00855068D01*
X00309689Y00855004D01*
X00310571Y00855000D01*
Y00845000D01*
X00309689Y00844996D01*
X00306163Y00844792D01*
X00305869Y00844728D01*
X00305660Y00844656D01*
X00305535Y00844575D01*
Y00855425D01*
X00305660Y00855344D01*
D02*
G37*
G36*
X00232432Y00845579D02*
X00231870Y00844995D01*
X00230925Y00843877D01*
X00230542Y00843342D01*
X00230218Y00842823D01*
X00229954Y00842321D01*
X00229750Y00841835D01*
X00229605Y00841366D01*
X00229520Y00840912D01*
X00229495Y00840475D01*
X00222026Y00847945D01*
X00222463Y00847970D01*
X00222916Y00848055D01*
X00223385Y00848200D01*
X00223871Y00848404D01*
X00224373Y00848668D01*
X00224892Y00848992D01*
X00225427Y00849375D01*
X00225978Y00849818D01*
X00227129Y00850882D01*
X00232432Y00845579D01*
D02*
G37*
G36*
X00299640Y00842258D02*
X00299478Y00842232D01*
X00299265Y00842139D01*
X00299000Y00841981D01*
X00298684Y00841757D01*
X00297896Y00841111D01*
X00296901Y00840201D01*
X00295700Y00839028D01*
X00288967Y00846437D01*
X00289589Y00847064D01*
X00292117Y00849896D01*
X00292218Y00850078D01*
X00292253Y00850205D01*
X00299640Y00842258D01*
D02*
G37*
G36*
X00229520Y00839887D02*
X00229605Y00839434D01*
X00229750Y00838965D01*
X00229954Y00838479D01*
X00230218Y00837977D01*
X00230542Y00837458D01*
X00230925Y00836923D01*
X00231368Y00836372D01*
X00232432Y00835221D01*
X00227129Y00829918D01*
X00226545Y00830480D01*
X00225427Y00831425D01*
X00224892Y00831808D01*
X00224373Y00832132D01*
X00223871Y00832396D01*
X00223385Y00832600D01*
X00222916Y00832745D01*
X00222463Y00832830D01*
X00222026Y00832855D01*
X00229495Y00840324D01*
X00229520Y00839887D01*
D02*
G37*
G36*
X00150930Y00834858D02*
X00150683Y00834473D01*
X00150464Y00834035D01*
X00150275Y00833543D01*
X00150114Y00832998D01*
X00149983Y00832400D01*
X00149881Y00831749D01*
X00149765Y00830287D01*
X00149750Y00829476D01*
X00142250Y00829189D01*
X00142234Y00829998D01*
X00142106Y00831454D01*
X00141994Y00832101D01*
X00141850Y00832693D01*
X00141674Y00833231D01*
X00141466Y00833715D01*
X00141226Y00834144D01*
X00140954Y00834519D01*
X00140650Y00834840D01*
X00151207Y00835190D01*
X00150930Y00834858D01*
D02*
G37*
G36*
X00371819Y00838403D02*
X00372119Y00837941D01*
X00372620Y00837533D01*
X00373320Y00837179D01*
X00374220Y00836880D01*
X00375320Y00836635D01*
X00376619Y00836445D01*
X00378120Y00836309D01*
X00381720Y00836200D01*
Y00826200D01*
X00379819Y00826173D01*
X00376619Y00825955D01*
X00375320Y00825765D01*
X00374220Y00825520D01*
X00373320Y00825221D01*
X00372620Y00824867D01*
X00372119Y00824460D01*
X00371819Y00823997D01*
X00371720Y00823481D01*
Y00838920D01*
X00371819Y00838403D01*
D02*
G37*
G36*
X00149750Y00825924D02*
X00149765Y00825113D01*
X00149881Y00823651D01*
X00149983Y00823000D01*
X00150114Y00822402D01*
X00150275Y00821857D01*
X00150464Y00821366D01*
X00150683Y00820927D01*
X00150930Y00820542D01*
X00151207Y00820210D01*
X00140650Y00820560D01*
X00140954Y00820881D01*
X00141226Y00821256D01*
X00141466Y00821685D01*
X00141674Y00822169D01*
X00141850Y00822707D01*
X00141994Y00823299D01*
X00142106Y00823945D01*
X00142186Y00824646D01*
X00142250Y00826211D01*
X00149750Y00825924D01*
D02*
G37*
G36*
X00307437Y00823963D02*
X00307295Y00823503D01*
Y00822973D01*
X00307437Y00822372D01*
X00307719Y00821700D01*
X00308144Y00820957D01*
X00308710Y00820144D01*
X00309417Y00819260D01*
X00311255Y00817281D01*
X00307719Y00813745D01*
X00306694Y00814735D01*
X00304856Y00816291D01*
X00304043Y00816856D01*
X00303300Y00817281D01*
X00302628Y00817563D01*
X00302027Y00817705D01*
X00301497D01*
X00301037Y00817563D01*
X00300648Y00817281D01*
X00307719Y00824352D01*
X00307437Y00823963D01*
D02*
G37*
G36*
X00153329Y00814669D02*
X00153423Y00814219D01*
X00153575Y00813753D01*
X00153786Y00813270D01*
X00154056Y00812771D01*
X00154384Y00812254D01*
X00154771Y00811721D01*
X00155216Y00811171D01*
X00156283Y00810020D01*
X00151123Y00804573D01*
X00150540Y00805135D01*
X00149420Y00806076D01*
X00148884Y00806455D01*
X00148364Y00806774D01*
X00147860Y00807032D01*
X00147372Y00807230D01*
X00146899Y00807367D01*
X00146443Y00807443D01*
X00146002Y00807459D01*
X00153294Y00815101D01*
X00153329Y00814669D01*
D02*
G37*
G36*
X00226787Y00807411D02*
X00226150Y00807186D01*
X00225588Y00806811D01*
X00225100Y00806285D01*
X00224688Y00805611D01*
X00224350Y00804786D01*
X00224088Y00803811D01*
X00223900Y00802685D01*
X00223787Y00801411D01*
X00223750Y00799986D01*
X00216250D01*
X00216232Y00801411D01*
X00215960Y00804786D01*
X00215796Y00805611D01*
X00215597Y00806285D01*
X00215361Y00806811D01*
X00215089Y00807186D01*
X00214780Y00807411D01*
X00214436Y00807486D01*
X00227500D01*
X00226787Y00807411D01*
D02*
G37*
G36*
X00506031Y00784000D02*
X00505980Y00784475D01*
X00505830Y00784900D01*
X00505580Y00785275D01*
X00505230Y00785600D01*
X00504781Y00785875D01*
X00504230Y00786100D01*
X00503581Y00786275D01*
X00502831Y00786400D01*
X00501981Y00786475D01*
X00501031Y00786500D01*
Y00791500D01*
X00501981Y00791525D01*
X00502831Y00791600D01*
X00503581Y00791725D01*
X00504230Y00791900D01*
X00504781Y00792125D01*
X00505230Y00792400D01*
X00505580Y00792725D01*
X00505830Y00793100D01*
X00505980Y00793525D01*
X00506031Y00794000D01*
Y00784000D01*
D02*
G37*
G36*
X00495989Y00793525D02*
X00496140Y00793100D01*
X00496392Y00792725D01*
X00496744Y00792400D01*
X00497197Y00792125D01*
X00497750Y00791900D01*
X00498404Y00791725D01*
X00499159Y00791600D01*
X00500014Y00791525D01*
X00500970Y00791500D01*
Y00786500D01*
X00500014Y00786475D01*
X00499159Y00786400D01*
X00498404Y00786275D01*
X00497750Y00786100D01*
X00497197Y00785875D01*
X00496744Y00785600D01*
X00496392Y00785275D01*
X00496140Y00784900D01*
X00495989Y00784475D01*
X00495939Y00784000D01*
Y00794000D01*
X00495989Y00793525D01*
D02*
G37*
G36*
X00383715Y00780800D02*
X00383596Y00780885D01*
X00383414Y00780962D01*
X00383170Y00781030D01*
X00382864Y00781088D01*
X00382495Y00781137D01*
X00381570Y00781209D01*
X00379716Y00781250D01*
Y00788750D01*
X00380397Y00788755D01*
X00382864Y00788912D01*
X00383170Y00788970D01*
X00383414Y00789038D01*
X00383596Y00789115D01*
X00383715Y00789200D01*
Y00780800D01*
D02*
G37*
G36*
X00485522Y00780020D02*
X00485589Y00779169D01*
X00485700Y00778419D01*
X00485855Y00777769D01*
X00486055Y00777219D01*
X00486299Y00776769D01*
X00486588Y00776420D01*
X00486921Y00776170D01*
X00487298Y00776020D01*
X00487719Y00775969D01*
X00478280D01*
X00478702Y00776020D01*
X00479080Y00776170D01*
X00479412Y00776420D01*
X00479701Y00776769D01*
X00479945Y00777219D01*
X00480145Y00777769D01*
X00480300Y00778419D01*
X00480411Y00779169D01*
X00480478Y00780020D01*
X00480500Y00780969D01*
X00485500D01*
X00485522Y00780020D01*
D02*
G37*
G36*
X00464101Y00762061D02*
X00463816Y00762442D01*
X00463437Y00762658D01*
X00462964Y00762711D01*
X00462398Y00762600D01*
X00461738Y00762326D01*
X00460984Y00761887D01*
X00460136Y00761285D01*
X00459194Y00760519D01*
X00457030Y00758495D01*
X00453977Y00762513D01*
X00455205Y00763776D01*
X00457963Y00767059D01*
X00458574Y00767986D01*
X00459030Y00768827D01*
X00459332Y00769585D01*
X00459479Y00770258D01*
X00459472Y00770847D01*
X00459311Y00771351D01*
X00464101Y00762061D01*
D02*
G37*
G36*
X00426785Y00765310D02*
X00427035Y00765140D01*
X00427321Y00764990D01*
X00427643Y00764860D01*
X00428001Y00764750D01*
X00428395Y00764660D01*
X00428825Y00764590D01*
X00429290Y00764540D01*
X00430330Y00764500D01*
Y00759500D01*
X00429792Y00759490D01*
X00428825Y00759410D01*
X00428395Y00759340D01*
X00428001Y00759250D01*
X00427643Y00759140D01*
X00427321Y00759010D01*
X00427035Y00758860D01*
X00426785Y00758690D01*
X00426571Y00758500D01*
Y00765500D01*
X00426785Y00765310D01*
D02*
G37*
G36*
X00531014Y00771787D02*
X00531240Y00771150D01*
X00531617Y00770587D01*
X00532144Y00770100D01*
X00532822Y00769688D01*
X00533650Y00769350D01*
X00534629Y00769088D01*
X00535759Y00768900D01*
X00537039Y00768788D01*
X00538470Y00768750D01*
Y00761250D01*
X00537039Y00761212D01*
X00535759Y00761100D01*
X00534629Y00760912D01*
X00533650Y00760650D01*
X00532822Y00760312D01*
X00532144Y00759900D01*
X00531617Y00759413D01*
X00531240Y00758850D01*
X00531014Y00758213D01*
X00530939Y00757500D01*
Y00772500D01*
X00531014Y00771787D01*
D02*
G37*
G36*
X00521637Y00755031D02*
X00521054Y00755455D01*
X00520364Y00755667D01*
X00519569D01*
X00518667Y00755455D01*
X00517660Y00755031D01*
X00516546Y00754394D01*
X00515326Y00753546D01*
X00514000Y00752485D01*
X00511031Y00749727D01*
X00505727Y00755031D01*
X00507212Y00756568D01*
X00509546Y00759326D01*
X00510394Y00760546D01*
X00511031Y00761660D01*
X00511455Y00762667D01*
X00511667Y00763569D01*
Y00764364D01*
X00511455Y00765054D01*
X00511031Y00765637D01*
X00521637Y00755031D01*
D02*
G37*
G36*
X00443275Y00756014D02*
X00443350Y00755158D01*
X00443475Y00754404D01*
X00443650Y00753750D01*
X00443875Y00753197D01*
X00444150Y00752744D01*
X00444475Y00752392D01*
X00444850Y00752140D01*
X00445275Y00751989D01*
X00445750Y00751939D01*
X00435750D01*
X00436225Y00751989D01*
X00436650Y00752140D01*
X00437025Y00752392D01*
X00437350Y00752744D01*
X00437625Y00753197D01*
X00437850Y00753750D01*
X00438025Y00754404D01*
X00438150Y00755158D01*
X00438225Y00756014D01*
X00438250Y00756970D01*
X00443250D01*
X00443275Y00756014D01*
D02*
G37*
G36*
X00476402Y00735348D02*
X00475560Y00734467D01*
X00474141Y00732738D01*
X00473565Y00731890D01*
X00473078Y00731053D01*
X00472679Y00730227D01*
X00472368Y00729411D01*
X00472147Y00728607D01*
X00472014Y00727813D01*
X00471969Y00727030D01*
X00471429Y00726955D01*
X00470946Y00726730D01*
X00470519Y00726356D01*
X00470149Y00725831D01*
X00469836Y00725155D01*
X00469580Y00724331D01*
X00469381Y00723355D01*
X00469239Y00722231D01*
X00469154Y00720956D01*
X00469125Y00719530D01*
X00461625D01*
X00461604Y00720956D01*
X00461437Y00723355D01*
X00461290Y00724331D01*
X00461101Y00725155D01*
X00460871Y00725831D01*
X00460599Y00726356D01*
X00460285Y00726730D01*
X00459929Y00726955D01*
X00459530Y00727030D01*
X00471969D01*
X00459530Y00732970D01*
X00460322Y00733023D01*
X00461142Y00733182D01*
X00461990Y00733447D01*
X00462866Y00733818D01*
X00463771Y00734295D01*
X00464704Y00734879D01*
X00465665Y00735568D01*
X00466655Y00736364D01*
X00468719Y00738273D01*
X00476402Y00735348D01*
D02*
G37*
G36*
X00425993Y00704954D02*
X00425880Y00704706D01*
X00425781Y00704421D01*
X00425695Y00704099D01*
X00425622Y00703740D01*
X00425516Y00702910D01*
X00425483Y00702440D01*
X00425457Y00701387D01*
X00420457Y00700244D01*
X00420445Y00700781D01*
X00420348Y00701736D01*
X00420263Y00702154D01*
X00420154Y00702532D01*
X00420022Y00702870D01*
X00419864Y00703168D01*
X00419683Y00703427D01*
X00419478Y00703646D01*
X00419248Y00703826D01*
X00426119Y00705165D01*
X00425993Y00704954D01*
D02*
G37*
G36*
X00328017Y00697849D02*
X00328079Y00697378D01*
X00328185Y00696911D01*
X00328335Y00696448D01*
X00328530Y00695989D01*
X00328770Y00695533D01*
X00329053Y00695081D01*
X00329381Y00694633D01*
X00329753Y00694189D01*
X00330170Y00693748D01*
X00326635Y00690213D01*
X00326194Y00690629D01*
X00325750Y00691002D01*
X00325301Y00691330D01*
X00324849Y00691613D01*
X00324394Y00691852D01*
X00323935Y00692047D01*
X00323471Y00692198D01*
X00323005Y00692304D01*
X00322534Y00692366D01*
X00322060Y00692383D01*
X00328000Y00698323D01*
X00328017Y00697849D01*
D02*
G37*
G36*
X00388675Y00679324D02*
X00393274Y00675468D01*
X00394571Y00674617D01*
X00395749Y00673983D01*
X00396809Y00673566D01*
X00397751Y00673367D01*
X00398575Y00673384D01*
X00399280Y00673620D01*
X00387170Y00667180D01*
X00387121Y00667933D01*
X00386973Y00668710D01*
X00386725Y00669513D01*
X00386379Y00670340D01*
X00385933Y00671192D01*
X00385389Y00672070D01*
X00384745Y00672972D01*
X00384003Y00673900D01*
X00382221Y00675829D01*
X00386906Y00681044D01*
X00388675Y00679324D01*
D02*
G37*
G36*
X00456660Y00673340D02*
X00456810Y00673091D01*
X00457060Y00672870D01*
X00457410Y00672679D01*
X00457859Y00672517D01*
X00458410Y00672385D01*
X00459059Y00672282D01*
X00459809Y00672209D01*
X00461609Y00672150D01*
Y00667150D01*
X00456609Y00667180D01*
Y00673620D01*
X00456660Y00673340D01*
D02*
G37*
G36*
X00469056Y00666265D02*
X00470894Y00664709D01*
X00471707Y00664144D01*
X00472450Y00663719D01*
X00473122Y00663437D01*
X00473723Y00663295D01*
X00474253D01*
X00474713Y00663437D01*
X00475102Y00663719D01*
X00468031Y00656648D01*
X00468313Y00657037D01*
X00468455Y00657497D01*
Y00658027D01*
X00468313Y00658628D01*
X00468031Y00659300D01*
X00467606Y00660043D01*
X00467040Y00660856D01*
X00466333Y00661740D01*
X00464495Y00663719D01*
X00468031Y00667255D01*
X00469056Y00666265D01*
D02*
G37*
G36*
X00441390Y00654481D02*
X00441340Y00654646D01*
X00441190Y00654793D01*
X00440941Y00654924D01*
X00440591Y00655037D01*
X00440140Y00655133D01*
X00439590Y00655211D01*
X00438190Y00655315D01*
X00436390Y00655350D01*
Y00660350D01*
X00437341Y00660356D01*
X00440591Y00660555D01*
X00440941Y00660629D01*
X00441190Y00660714D01*
X00441340Y00660811D01*
X00441390Y00660919D01*
Y00654481D01*
D02*
G37*
G36*
X00425885Y00661193D02*
X00426131Y00661016D01*
X00426414Y00660860D01*
X00426734Y00660725D01*
X00427090Y00660610D01*
X00427482Y00660517D01*
X00427910Y00660444D01*
X00428375Y00660392D01*
X00429413Y00660350D01*
X00429240Y00655350D01*
X00428702Y00655340D01*
X00427732Y00655264D01*
X00427301Y00655197D01*
X00426905Y00655111D01*
X00426546Y00655006D01*
X00426222Y00654882D01*
X00425933Y00654738D01*
X00425681Y00654576D01*
X00425464Y00654394D01*
X00425674Y00661391D01*
X00425885Y00661193D01*
D02*
G37*
G36*
X00537545Y00658054D02*
X00537333Y00657364D01*
Y00656569D01*
X00537545Y00655667D01*
X00537970Y00654660D01*
X00538606Y00653546D01*
X00539454Y00652326D01*
X00540515Y00651000D01*
X00543273Y00648030D01*
X00537970Y00642727D01*
X00536432Y00644212D01*
X00533674Y00646546D01*
X00532454Y00647394D01*
X00531340Y00648030D01*
X00530333Y00648455D01*
X00529431Y00648667D01*
X00528636D01*
X00527946Y00648455D01*
X00527363Y00648030D01*
X00537970Y00658637D01*
X00537545Y00658054D01*
D02*
G37*
G36*
X00441390Y00641780D02*
X00441340Y00641917D01*
X00441190Y00642039D01*
X00440941Y00642147D01*
X00440591Y00642241D01*
X00440140Y00642320D01*
X00439590Y00642385D01*
X00438190Y00642471D01*
X00436390Y00642500D01*
Y00647500D01*
X00437341Y00647507D01*
X00440140Y00647680D01*
X00440591Y00647759D01*
X00440941Y00647853D01*
X00441190Y00647961D01*
X00441340Y00648083D01*
X00441390Y00648220D01*
Y00641780D01*
D02*
G37*
G36*
X00468031Y00644719D02*
X00468061Y00636969D01*
X00468017Y00637118D01*
X00467887Y00637251D01*
X00467672Y00637368D01*
X00467370Y00637469D01*
X00466982Y00637555D01*
X00466508Y00637625D01*
X00465301Y00637719D01*
X00463750Y00637750D01*
Y00644750D01*
X00468031Y00644719D01*
D02*
G37*
G36*
X00484191Y00633032D02*
X00484946Y00632303D01*
X00487494Y00630149D01*
X00488626Y00629361D01*
X00489663Y00628767D01*
X00490606Y00628365D01*
X00491454Y00628157D01*
X00492207Y00628141D01*
X00492866Y00628319D01*
X00493430Y00628689D01*
X00483061Y00619320D01*
X00483476Y00619839D01*
X00483689Y00620463D01*
X00483698Y00621192D01*
X00483505Y00622025D01*
X00483108Y00622962D01*
X00482509Y00624005D01*
X00481706Y00625151D01*
X00480701Y00626403D01*
X00478166Y00629128D01*
X00476179Y00631121D01*
X00481129Y00636071D01*
X00484191Y00633032D01*
D02*
G37*
G36*
X00328102Y00611049D02*
X00328164Y00610564D01*
X00328271Y00610084D01*
X00328423Y00609608D01*
X00328619Y00609138D01*
X00328860Y00608673D01*
X00329146Y00608213D01*
X00329477Y00607758D01*
X00329852Y00607308D01*
X00330272Y00606863D01*
X00326737Y00603328D01*
X00326292Y00603748D01*
X00325842Y00604123D01*
X00325387Y00604454D01*
X00324927Y00604740D01*
X00324462Y00604981D01*
X00323992Y00605177D01*
X00323516Y00605329D01*
X00323036Y00605436D01*
X00322551Y00605498D01*
X00322061Y00605515D01*
X00328085Y00611539D01*
X00328102Y00611049D01*
D02*
G37*
G36*
X00426785Y00603310D02*
X00427035Y00603140D01*
X00427321Y00602990D01*
X00427643Y00602860D01*
X00428001Y00602750D01*
X00428395Y00602660D01*
X00428825Y00602590D01*
X00429290Y00602540D01*
X00430330Y00602500D01*
Y00597500D01*
X00429792Y00597490D01*
X00428825Y00597410D01*
X00428395Y00597340D01*
X00428001Y00597250D01*
X00427643Y00597140D01*
X00427321Y00597010D01*
X00427035Y00596860D01*
X00426785Y00596690D01*
X00426571Y00596500D01*
Y00603500D01*
X00426785Y00603310D01*
D02*
G37*
G36*
X00496358Y00600205D02*
X00495811Y00599981D01*
X00495328Y00599605D01*
X00494909Y00599081D01*
X00494555Y00598405D01*
X00494265Y00597580D01*
X00494040Y00596605D01*
X00493879Y00595480D01*
X00493782Y00594206D01*
X00493750Y00592780D01*
X00486250D01*
X00486218Y00594206D01*
X00486121Y00595480D01*
X00485960Y00596605D01*
X00485735Y00597580D01*
X00485445Y00598405D01*
X00485091Y00599081D01*
X00484673Y00599605D01*
X00484189Y00599981D01*
X00483642Y00600205D01*
X00483031Y00600280D01*
X00496969D01*
X00496358Y00600205D01*
D02*
G37*
G36*
X00338550Y00597201D02*
X00338700Y00596844D01*
X00338950Y00596529D01*
X00339300Y00596256D01*
X00339750Y00596025D01*
X00340300Y00595836D01*
X00340950Y00595689D01*
X00342550Y00595521D01*
X00343500Y00595500D01*
Y00590500D01*
X00342550Y00590450D01*
X00341700Y00590300D01*
X00340950Y00590050D01*
X00340300Y00589700D01*
X00339750Y00589250D01*
X00339300Y00588700D01*
X00338950Y00588050D01*
X00338700Y00587300D01*
X00338550Y00586450D01*
X00338500Y00585500D01*
X00333500Y00593000D01*
X00338500Y00597600D01*
X00338550Y00597201D01*
D02*
G37*
G36*
X00457306Y00592265D02*
X00459144Y00590709D01*
X00459957Y00590144D01*
X00460700Y00589720D01*
X00461372Y00589437D01*
X00461973Y00589295D01*
X00462503D01*
X00462963Y00589437D01*
X00463352Y00589720D01*
X00456281Y00582649D01*
X00456563Y00583037D01*
X00456705Y00583497D01*
Y00584027D01*
X00456563Y00584628D01*
X00456281Y00585300D01*
X00455856Y00586043D01*
X00455290Y00586856D01*
X00454583Y00587740D01*
X00452745Y00589720D01*
X00456281Y00593255D01*
X00457306Y00592265D01*
D02*
G37*
G36*
X00433280Y00589720D02*
Y00582250D01*
X00433231Y00582725D01*
X00433080Y00583150D01*
X00432831Y00583525D01*
X00432481Y00583850D01*
X00432030Y00584125D01*
X00431480Y00584350D01*
X00430830Y00584525D01*
X00430080Y00584650D01*
X00429230Y00584725D01*
X00428280Y00584750D01*
Y00589750D01*
X00433280Y00589720D01*
D02*
G37*
G36*
X00488764Y00587788D02*
X00488990Y00587150D01*
X00489367Y00586587D01*
X00489894Y00586100D01*
X00490572Y00585687D01*
X00491400Y00585350D01*
X00492379Y00585088D01*
X00493509Y00584900D01*
X00494789Y00584787D01*
X00496219Y00584750D01*
Y00577250D01*
X00494789Y00577212D01*
X00493509Y00577100D01*
X00492379Y00576912D01*
X00491400Y00576650D01*
X00490572Y00576312D01*
X00489894Y00575900D01*
X00489367Y00575412D01*
X00488990Y00574850D01*
X00488764Y00574212D01*
X00488689Y00573500D01*
Y00588500D01*
X00488764Y00587788D01*
D02*
G37*
G36*
X00562750Y00590000D02*
X00555250Y00573447D01*
X00555224Y00574846D01*
X00555146Y00576043D01*
X00555016Y00577038D01*
X00554834Y00577831D01*
X00554600Y00578422D01*
X00554315Y00578811D01*
X00553977Y00578998D01*
X00553587Y00578984D01*
X00553145Y00578767D01*
X00552652Y00578348D01*
X00549947Y00586250D01*
X00550954Y00587333D01*
X00551856Y00588459D01*
X00552651Y00589630D01*
X00553341Y00590844D01*
X00553924Y00592103D01*
X00554402Y00593405D01*
X00554773Y00594751D01*
X00555038Y00596141D01*
X00555197Y00597575D01*
X00555250Y00599053D01*
X00562750Y00590000D01*
D02*
G37*
G36*
X00440351Y00572281D02*
X00439963Y00572563D01*
X00439503Y00572705D01*
X00438973D01*
X00438372Y00572563D01*
X00437700Y00572281D01*
X00436957Y00571856D01*
X00436144Y00571291D01*
X00435260Y00570583D01*
X00433280Y00568745D01*
X00429745Y00572281D01*
X00430735Y00573306D01*
X00432290Y00575144D01*
X00432856Y00575957D01*
X00433280Y00576700D01*
X00433563Y00577372D01*
X00433705Y00577973D01*
Y00578503D01*
X00433563Y00578963D01*
X00433280Y00579352D01*
X00440351Y00572281D01*
D02*
G37*
G36*
X00338525Y00558764D02*
X00338600Y00557909D01*
X00338725Y00557154D01*
X00338900Y00556500D01*
X00339125Y00555947D01*
X00339400Y00555494D01*
X00339725Y00555142D01*
X00340100Y00554890D01*
X00340525Y00554739D01*
X00341000Y00554689D01*
X00331000D01*
X00331475Y00554739D01*
X00331900Y00554890D01*
X00332275Y00555142D01*
X00332600Y00555494D01*
X00332875Y00555947D01*
X00333100Y00556500D01*
X00333275Y00557154D01*
X00333400Y00557909D01*
X00333475Y00558764D01*
X00333500Y00559720D01*
X00338500D01*
X00338525Y00558764D01*
D02*
G37*
G36*
X00466050Y00534820D02*
X00466200Y00533120D01*
X00466450Y00531619D01*
X00466800Y00530320D01*
X00467250Y00529220D01*
X00467800Y00528320D01*
X00468450Y00527620D01*
X00469200Y00527119D01*
X00470050Y00526819D01*
X00471000Y00526720D01*
X00451000D01*
X00451950Y00526819D01*
X00452800Y00527119D01*
X00453550Y00527620D01*
X00454200Y00528320D01*
X00454750Y00529220D01*
X00455200Y00530320D01*
X00455550Y00531619D01*
X00455800Y00533120D01*
X00455950Y00534820D01*
X00456000Y00536720D01*
X00466000D01*
X00466050Y00534820D01*
D02*
G37*
G36*
X00476989Y00522525D02*
X00477140Y00522100D01*
X00477392Y00521725D01*
X00477744Y00521400D01*
X00478197Y00521125D01*
X00478750Y00520900D01*
X00479404Y00520725D01*
X00480159Y00520600D01*
X00481014Y00520525D01*
X00481969Y00520500D01*
Y00515500D01*
X00481014Y00515475D01*
X00480159Y00515400D01*
X00479404Y00515275D01*
X00478750Y00515100D01*
X00478197Y00514875D01*
X00477744Y00514600D01*
X00477392Y00514275D01*
X00477140Y00513900D01*
X00476989Y00513475D01*
X00476939Y00513000D01*
Y00523000D01*
X00476989Y00522525D01*
D02*
G37*
G36*
X00588564Y00524386D02*
X00589294Y00523793D01*
X00590046Y00523271D01*
X00590819Y00522820D01*
X00591613Y00522439D01*
X00592428Y00522130D01*
X00593265Y00521891D01*
X00594122Y00521723D01*
X00595000Y00521626D01*
X00595900Y00521600D01*
X00586001Y00511700D01*
X00585974Y00512600D01*
X00585877Y00513478D01*
X00585709Y00514335D01*
X00585470Y00515172D01*
X00585161Y00515987D01*
X00584780Y00516781D01*
X00584329Y00517554D01*
X00583807Y00518306D01*
X00583214Y00519036D01*
X00582551Y00519746D01*
X00587854Y00525049D01*
X00588564Y00524386D01*
D02*
G37*
G36*
X00464828Y00521341D02*
X00465298Y00521164D01*
X00465941Y00521008D01*
X00466759Y00520874D01*
X00468919Y00520666D01*
X00473466Y00520510D01*
X00475330Y00520500D01*
Y00515500D01*
X00473466Y00515490D01*
X00465941Y00514991D01*
X00465298Y00514836D01*
X00464828Y00514659D01*
X00464536Y00514464D01*
X00464341Y00514172D01*
X00464164Y00513702D01*
X00464008Y00513059D01*
X00463874Y00512240D01*
X00463666Y00510081D01*
X00463640Y00509311D01*
X00466000D01*
X00465525Y00509261D01*
X00465100Y00509110D01*
X00464725Y00508858D01*
X00464400Y00508506D01*
X00464125Y00508053D01*
X00463900Y00507500D01*
X00463725Y00506846D01*
X00463600Y00506091D01*
X00463525Y00505236D01*
X00463504Y00504446D01*
X00463500Y00503670D01*
X00458500D01*
X00458496Y00504446D01*
X00458475Y00505236D01*
X00458400Y00506091D01*
X00458275Y00506846D01*
X00458100Y00507500D01*
X00457875Y00508053D01*
X00457600Y00508506D01*
X00457275Y00508858D01*
X00456900Y00509110D01*
X00456475Y00509261D01*
X00456000Y00509311D01*
X00458240D01*
X00457991Y00513059D01*
X00457836Y00513702D01*
X00457659Y00514172D01*
X00457462Y00514467D01*
X00464533D01*
Y00521538D01*
X00464828Y00521341D01*
D02*
G37*
G36*
X00444056Y00501265D02*
X00445894Y00499710D01*
X00446707Y00499144D01*
X00447450Y00498719D01*
X00448122Y00498437D01*
X00448723Y00498295D01*
X00449253D01*
X00449713Y00498437D01*
X00450102Y00498719D01*
X00443031Y00491648D01*
X00443313Y00492037D01*
X00443455Y00492497D01*
Y00493027D01*
X00443313Y00493628D01*
X00443031Y00494300D01*
X00442606Y00495043D01*
X00442040Y00495856D01*
X00441333Y00496740D01*
X00439495Y00498719D01*
X00443031Y00502255D01*
X00444056Y00501265D01*
D02*
G37*
G36*
X00460505Y00479720D02*
X00459515Y00478694D01*
X00457959Y00476856D01*
X00457394Y00476043D01*
X00456969Y00475300D01*
X00456687Y00474628D01*
X00456545Y00474027D01*
Y00473497D01*
X00456687Y00473037D01*
X00456969Y00472649D01*
X00449898Y00479720D01*
X00450287Y00479437D01*
X00450747Y00479295D01*
X00451277D01*
X00451878Y00479437D01*
X00452550Y00479720D01*
X00453293Y00480144D01*
X00454106Y00480709D01*
X00454990Y00481417D01*
X00456969Y00483255D01*
X00460505Y00479720D01*
D02*
G37*
G36*
X00529806Y00478754D02*
X00530251Y00478381D01*
X00530699Y00478053D01*
X00531151Y00477770D01*
X00531606Y00477530D01*
X00532066Y00477336D01*
X00532528Y00477185D01*
X00532995Y00477079D01*
X00533466Y00477017D01*
X00533940Y00477000D01*
X00528000Y00471060D01*
X00527983Y00471534D01*
X00527921Y00472005D01*
X00527815Y00472472D01*
X00527664Y00472934D01*
X00527470Y00473394D01*
X00527230Y00473849D01*
X00526947Y00474301D01*
X00526619Y00474749D01*
X00526246Y00475194D01*
X00525830Y00475635D01*
X00529365Y00479170D01*
X00529806Y00478754D01*
D02*
G37*
G36*
X00280097Y00461259D02*
X00281161Y00460353D01*
X00282225Y00459553D01*
X00283288Y00458859D01*
X00284349Y00458273D01*
X00285409Y00457793D01*
X00286468Y00457419D01*
X00287526Y00457152D01*
X00288582Y00456992D01*
X00289637Y00456939D01*
X00268424D01*
X00269384Y00456992D01*
X00270131Y00457152D01*
X00270664Y00457419D01*
X00270984Y00457793D01*
X00271091Y00458273D01*
X00270984Y00458859D01*
X00270664Y00459553D01*
X00270131Y00460353D01*
X00269384Y00461259D01*
X00268424Y00462273D01*
X00279030D01*
X00280097Y00461259D01*
D02*
G37*
G36*
X00267061Y00437500D02*
X00266986Y00438213D01*
X00266760Y00438850D01*
X00266383Y00439412D01*
X00265856Y00439900D01*
X00265178Y00440312D01*
X00264350Y00440650D01*
X00263371Y00440913D01*
X00262241Y00441100D01*
X00260961Y00441213D01*
X00259531Y00441250D01*
Y00448750D01*
X00260961Y00448787D01*
X00262241Y00448900D01*
X00263371Y00449087D01*
X00264350Y00449350D01*
X00265178Y00449688D01*
X00265856Y00450100D01*
X00266383Y00450588D01*
X00266760Y00451150D01*
X00266986Y00451787D01*
X00267061Y00452500D01*
Y00437500D01*
D02*
G37*
G36*
X00157404Y00428115D02*
X00157586Y00428038D01*
X00157830Y00427971D01*
X00158136Y00427912D01*
X00158505Y00427863D01*
X00159430Y00427790D01*
X00161284Y00427750D01*
Y00420250D01*
X00160603Y00420246D01*
X00158136Y00420088D01*
X00157830Y00420029D01*
X00157586Y00419962D01*
X00157404Y00419885D01*
X00157285Y00419800D01*
Y00428200D01*
X00157404Y00428115D01*
D02*
G37*
G36*
X00834773Y00875848D02*
X00834955Y00873909D01*
X00835115Y00873121D01*
X00835320Y00872454D01*
X00835571Y00871909D01*
X00835867Y00871485D01*
X00836209Y00871181D01*
X00836597Y00871000D01*
X00837030Y00870939D01*
X00824969D01*
X00825403Y00871000D01*
X00825790Y00871181D01*
X00826133Y00871485D01*
X00826429Y00871909D01*
X00826680Y00872454D01*
X00826885Y00873121D01*
X00827045Y00873909D01*
X00827159Y00874818D01*
X00827227Y00875848D01*
X00827250Y00877000D01*
X00834750D01*
X00834773Y00875848D01*
D02*
G37*
G36*
X00545041Y00709689D02*
X00543058Y00707636D01*
X00539940Y00703956D01*
X00538806Y00702328D01*
X00537954Y00700843D01*
X00537385Y00699500D01*
X00537100Y00698299D01*
X00537097Y00697240D01*
X00537376Y00696322D01*
X00537939Y00695547D01*
X00523827Y00709659D01*
X00524602Y00709096D01*
X00525519Y00708817D01*
X00526579Y00708820D01*
X00527780Y00709106D01*
X00529123Y00709674D01*
X00530608Y00710526D01*
X00532235Y00711660D01*
X00534005Y00713077D01*
X00537970Y00716761D01*
X00545041Y00709689D01*
D02*
G37*
D17*
X00152000Y01121000D02*
D03*
Y01165000D02*
D03*
D18*
X00683000Y00839000D02*
D03*
Y00739000D02*
D03*
X00831000Y00839000D02*
D03*
Y00739000D02*
D03*
X00200000Y01059000D02*
D03*
Y00959000D02*
D03*
D19*
X00512000Y00789000D02*
D03*
Y00810000D02*
D03*
X00490000Y00789000D02*
D03*
Y00810000D02*
D03*
X00322000Y00749000D02*
D03*
X00650000Y00649383D02*
D03*
X00534000Y00420383D02*
D03*
X00636000Y00912383D02*
D03*
X00153000Y00474617D02*
D03*
D20*
X00490000Y00605000D02*
D03*
Y00624000D02*
D03*
X00336000Y00531000D02*
D03*
Y00550000D02*
D03*
X00450000Y00494000D02*
D03*
Y00475000D02*
D03*
X00475000Y00659000D02*
D03*
Y00640000D02*
D03*
D21*
X00322000Y00698383D02*
D03*
X00650000Y00700000D02*
D03*
X00534000Y00471000D02*
D03*
X00636000Y00963000D02*
D03*
X00798000Y01006000D02*
D03*
X00143383Y00906000D02*
D03*
X00153000Y00424000D02*
D03*
X00388000Y00785000D02*
D03*
D22*
X00322000Y00662400D02*
D03*
Y00637000D02*
D03*
Y00611600D02*
D03*
D23*
X00364000Y00831200D02*
D03*
X00300000Y00825000D02*
D03*
X00122000Y01226200D02*
D03*
X00967000Y01003000D02*
D03*
X00665000Y01056600D02*
D03*
X00899000Y00968000D02*
D03*
D24*
X00364000Y00856600D02*
D03*
Y00882000D02*
D03*
X00300000Y00850000D02*
D03*
X00435000Y01148000D02*
D03*
X00122000Y01277000D02*
D03*
Y01251600D02*
D03*
X00699000Y01198000D02*
D03*
Y01267000D02*
D03*
X00886000Y01198000D02*
D03*
X00526000Y01092000D02*
D03*
X00609000D02*
D03*
X00435000D02*
D03*
X00967000Y00978000D02*
D03*
X00141000Y00031000D02*
D03*
X00665000Y01107400D02*
D03*
Y01082000D02*
D03*
X00526000Y01158000D02*
D03*
X00968000Y01191000D02*
D03*
X00792000Y01198000D02*
D03*
X00792000Y01267000D02*
D03*
X00899000Y01018800D02*
D03*
Y00993400D02*
D03*
X00609000Y01158000D02*
D03*
X00338000Y01145000D02*
D03*
X00225000D02*
D03*
X00886000Y01268000D02*
D03*
D25*
X00145750Y00815000D02*
D03*
Y00840400D02*
D03*
Y00865800D02*
D03*
X00221950D02*
D03*
Y00840400D02*
D03*
X00718000Y01138450D02*
D03*
X00743400D02*
D03*
X00768800D02*
D03*
X00794200D02*
D03*
X00819600D02*
D03*
X00845000D02*
D03*
Y01062250D02*
D03*
X00819600D02*
D03*
X00794200D02*
D03*
X00768800D02*
D03*
X00743400D02*
D03*
D26*
X00221950Y00815000D02*
D03*
D27*
X00679500Y00964250D02*
D03*
X00850500Y00964500D02*
D03*
X00850750Y00563500D02*
D03*
X00680500Y00563750D02*
D03*
D28*
X00022000Y00762500D02*
D03*
Y00627500D02*
D03*
D29*
X00082000Y00731000D02*
D03*
D30*
Y00659000D02*
D03*
D31*
X00299000Y01240000D02*
D03*
X00410000D02*
D03*
X00188000D02*
D03*
X00719000Y00448000D02*
D03*
X00570000D02*
D03*
X00833000Y00045000D02*
D03*
X00521000Y01240000D02*
D03*
D32*
X00349000D02*
D03*
X00940000Y00867000D02*
D03*
X00460000Y01240000D02*
D03*
X00238000D02*
D03*
X00061000Y00122000D02*
D03*
X00940000Y01074000D02*
D03*
X00484000Y00415000D02*
D03*
X00954206Y00495945D02*
D03*
X00220000Y00416000D02*
D03*
X00769000Y00448000D02*
D03*
X00620000D02*
D03*
X00048000Y00288000D02*
D03*
X00883000Y00045000D02*
D03*
X00571000Y01240000D02*
D03*
D33*
X00940000Y00917000D02*
D03*
X00061000Y00172000D02*
D03*
X00940000Y01124000D02*
D03*
X00484000Y00465000D02*
D03*
X00954206Y00545945D02*
D03*
X00220000Y00466000D02*
D03*
X00048000Y00238000D02*
D03*
D34*
X00101000Y01144000D02*
D03*
X00056000D02*
D03*
D35*
X00040000Y01260000D02*
D03*
Y00040000D02*
D03*
X00960000D02*
D03*
Y01260000D02*
D03*
D36*
X00157000Y00657000D02*
D03*
Y00730000D02*
D03*
D37*
X00747383Y01006000D02*
D03*
X00194000Y00906000D02*
D03*
X00438617Y00785000D02*
D03*
D40*
X00299000Y00445000D02*
D03*
X00399000D02*
D03*
D42*
X00845000Y00919000D02*
D03*
X00685000Y00609000D02*
D03*
X00508250Y00340750D02*
D03*
X00508750Y00033500D02*
D03*
X00201250Y00341750D02*
D03*
X00201750Y00034000D02*
D03*
D43*
X00718000Y01062250D02*
D03*
D46*
X00332000Y00950600D02*
D03*
Y01082000D02*
D03*
D47*
X00304900Y01051300D02*
D03*
Y01026300D02*
D03*
Y01006300D02*
D03*
D48*
Y00981300D02*
D03*
D56*
X00383000Y00541000D02*
D03*
Y00750000D02*
D03*
X00439000Y01030000D02*
D03*
Y00821000D02*
D03*
X00560000Y00821000D02*
D03*
Y01030000D02*
D03*
X00263000Y00749000D02*
D03*
Y00540000D02*
D03*
X00075000Y00566000D02*
D03*
Y00357000D02*
D03*
X00938000Y00812000D02*
D03*
Y00603000D02*
D03*
X00064000Y01041000D02*
D03*
Y00832000D02*
D03*
D57*
X00365000Y00573000D02*
D03*
Y00719000D02*
D03*
X00398000D02*
D03*
Y00573000D02*
D03*
X00454000Y00853000D02*
D03*
Y00999000D02*
D03*
X00421000D02*
D03*
Y00853000D02*
D03*
X00575000Y00999000D02*
D03*
X00542000D02*
D03*
X00575000Y00853000D02*
D03*
X00542000D02*
D03*
X00278000Y00572000D02*
D03*
Y00718000D02*
D03*
X00245000D02*
D03*
Y00572000D02*
D03*
X00057000Y00388000D02*
D03*
Y00534000D02*
D03*
X00090000D02*
D03*
Y00388000D02*
D03*
X00953000Y00635000D02*
D03*
Y00781000D02*
D03*
X00920000D02*
D03*
Y00635000D02*
D03*
X00079000Y00864000D02*
D03*
Y01010000D02*
D03*
X00046000D02*
D03*
Y00864000D02*
D03*
D70*
X00423000Y00600000D02*
D03*
X00422000Y00658000D02*
D03*
X00299000Y00764000D02*
D03*
X00283000Y00795000D02*
D03*
X00465000Y00614862D02*
D03*
X00423000Y00762000D02*
D03*
X00422000Y00708000D02*
D03*
X00603000Y00830000D02*
D03*
X00653250Y01268500D02*
D03*
X00656000Y01135000D02*
D03*
X00610750Y01259250D02*
D03*
X00699737Y00989232D02*
D03*
X00172500Y00500000D02*
D03*
X00699806Y00978076D02*
D03*
X00858000Y01119000D02*
D03*
X00844000Y01082000D02*
D03*
X00712806Y01012076D02*
D03*
X00682000Y00879000D02*
D03*
X00713737Y00990058D02*
D03*
X00181000Y00508000D02*
D03*
X00844000Y01107000D02*
D03*
X00713731Y00979019D02*
D03*
X00727075Y01012057D02*
D03*
X00858000Y01082000D02*
D03*
X00713731Y01001019D02*
D03*
X00728000Y01001000D02*
D03*
X00189000Y00517000D02*
D03*
X00465000Y00705862D02*
D03*
X00699731Y01000193D02*
D03*
X00685199Y00978065D02*
D03*
X00728000Y00979000D02*
D03*
X00844000Y01119000D02*
D03*
X00858000Y01094213D02*
D03*
X00672000Y00978000D02*
D03*
X00699731Y01011193D02*
D03*
X00728006Y00990039D02*
D03*
X00844006Y01094213D02*
D03*
X00858000Y01107000D02*
D03*
D71*
X00410000Y01148000D02*
D03*
X00674000Y01198000D02*
D03*
Y01267000D02*
D03*
X00861000Y01198000D02*
D03*
X00501000Y01092000D02*
D03*
X00584000D02*
D03*
X00410000D02*
D03*
X00116000Y00031000D02*
D03*
X00501000Y01158000D02*
D03*
X00943000Y01191000D02*
D03*
X00767000Y01198000D02*
D03*
X00767000Y01267000D02*
D03*
X00584000Y01158000D02*
D03*
X00313000Y01145000D02*
D03*
X00200000D02*
D03*
X00861000Y01268000D02*
D03*
D73*
X00521000Y00765000D02*
D03*
D74*
X00596000D02*
D03*
Y00511600D02*
D03*
Y00562000D02*
D03*
Y00612400D02*
D03*
X00521000Y00511600D02*
D03*
Y00562000D02*
D03*
Y00612400D02*
D03*
D92*
X00429571Y00722071D02*
X00437500Y00730000D01*
X00440750D01*
X00330383Y00690000D02*
X00353000D01*
X00382640Y00627186D02*
Y00660360D01*
X00353000Y00690000D02*
X00382640Y00660360D01*
X00322000Y00698383D02*
X00330383Y00690000D01*
X00406920Y00637920D02*
X00414000Y00645000D01*
X00385276Y00624550D02*
X00404284D01*
X00406920Y00627186D02*
Y00637920D01*
X00382640Y00627186D02*
X00385276Y00624550D01*
X00404284D02*
X00406920Y00627186D01*
X00414000Y00645000D02*
X00449000D01*
X00336000Y00593000D02*
Y00597600D01*
X00322000Y00611600D02*
X00336000Y00597600D01*
X00428500Y00739500D02*
X00440750D01*
X00490000Y00789000D02*
X00512000D01*
X00483000Y00782000D02*
X00490000Y00789000D01*
X00483000Y00769000D02*
Y00782000D01*
X00461750Y00764500D02*
X00464000Y00766750D01*
X00454071Y00759071D02*
X00459500Y00764500D01*
X00464000Y00766750D02*
Y00769000D01*
X00459500Y00764500D02*
X00461750D01*
X00440750Y00759071D02*
X00454071D01*
X00336000Y00550000D02*
Y00593000D01*
X00409364D02*
X00415114Y00587250D01*
X00336000Y00593000D02*
X00409364D01*
X00435750Y00587250D02*
X00438000Y00585000D01*
X00415114Y00587250D02*
X00435750D01*
X00438000Y00581000D02*
Y00585000D01*
X00461000Y00518000D02*
X00487000D01*
X00534000Y00471000D01*
X00452250Y00475000D02*
X00461500Y00484250D01*
X00461000Y00501114D02*
X00461500Y00500614D01*
X00450000Y00475000D02*
X00452250D01*
X00461500Y00484250D02*
Y00500614D01*
X00461000Y00501114D02*
Y00518000D01*
X00425750Y00516000D02*
X00447750Y00494000D01*
X00450000D01*
X00425000Y00516000D02*
X00425750D01*
X00438000Y00577000D02*
Y00581000D01*
X00425000Y00564000D02*
X00438000Y00577000D01*
X00425000Y00516000D02*
Y00564000D01*
X00446000Y00600000D02*
X00461000Y00585000D01*
Y00581000D02*
Y00585000D01*
X00423000Y00600000D02*
X00446000D01*
X00422000Y00658000D02*
X00422150Y00657850D01*
X00448850D02*
X00449000Y00657700D01*
X00422150Y00657850D02*
X00448850D01*
X00462100Y00669650D02*
X00472750Y00659000D01*
X00475000D01*
X00449750Y00669650D02*
X00462100D01*
X00449000Y00670400D02*
X00449750Y00669650D01*
X00413500Y00754500D02*
X00428500Y00739500D01*
X00423000Y00762000D02*
X00437821D01*
X00413500Y00765935D02*
X00423565Y00776000D01*
X00437821Y00762000D02*
X00440750Y00759071D01*
X00423565Y00776000D02*
X00425000D01*
X00406500Y00741864D02*
X00415000Y00733364D01*
X00413500Y00754500D02*
Y00765935D01*
X00406500Y00741864D02*
Y00797500D01*
X00397625Y00806375D02*
X00406500Y00797500D01*
X00440750Y00749000D02*
Y00759071D01*
X00422000Y00708000D02*
X00422957Y00707043D01*
Y00696443D02*
X00443860Y00675540D01*
X00422957Y00696443D02*
Y00707043D01*
X00415000Y00725000D02*
X00417929Y00722071D01*
X00429571D01*
X00415000Y00725000D02*
Y00733364D01*
X00443860Y00671150D02*
X00444610Y00670400D01*
X00449000D01*
X00443860Y00671150D02*
Y00675540D01*
X00318625Y00806375D02*
X00397625D01*
X00300000Y00825000D02*
X00318625Y00806375D01*
D93*
X00488250Y00624000D02*
X00490000D01*
X00613000Y00767000D02*
X00650000Y00730000D01*
Y00700000D02*
Y00730000D01*
X00530000Y00701720D02*
X00558140Y00729860D01*
X00523000Y00701720D02*
X00530000D01*
X00558140Y00729860D02*
X00602860D01*
X00461000Y00518000D02*
Y00581000D01*
X00299601Y00850000D02*
X00300000D01*
X00283000Y00833400D02*
X00299601Y00850000D01*
X00283000Y00795000D02*
Y00833400D01*
X00300000Y00850000D02*
X00355912D01*
X00362512Y00856600D02*
X00364000D01*
X00355912Y00850000D02*
X00362512Y00856600D01*
X00364000Y00831200D02*
X00383342D01*
X00390000Y00837858D02*
Y00884142D01*
X00395858Y00890000D01*
X00597002D01*
X00613000Y00767000D02*
Y00772042D01*
Y00757958D02*
Y00767000D01*
X00602860Y00830140D02*
Y00884142D01*
X00597002Y00890000D02*
X00602860Y00884142D01*
Y00830140D02*
X00603000Y00830000D01*
X00602860Y00729860D02*
Y00747818D01*
X00613000Y00757958D01*
X00602860Y00782182D02*
X00613000Y00772042D01*
X00383342Y00831200D02*
X00390000Y00837858D01*
D94*
X00485607Y00586000D02*
X00490000Y00590393D01*
X00484000Y00585000D02*
X00485000Y00586000D01*
X00490000Y00590393D02*
Y00605000D01*
X00485000Y00586000D02*
X00485607D01*
X00484000Y00581000D02*
Y00585000D01*
X00559000Y00590000D02*
Y00635217D01*
Y00548600D02*
Y00590000D01*
X00484000Y00581000D02*
X00550000D01*
X00559000Y00590000D01*
X00523000Y00656000D02*
X00530000D01*
X00546390Y00639610D01*
X00554607D01*
X00516000Y00656000D02*
X00523000D01*
X00246393Y00779000D02*
X00345391D01*
X00242000Y00783393D02*
X00246393Y00779000D01*
X00242000Y00783393D02*
Y00820350D01*
X00221950Y00840400D02*
X00242000Y00820350D01*
X00351391Y00785000D02*
X00388000D01*
X00345391Y00779000D02*
X00351391Y00785000D01*
X00221950Y00840400D02*
X00235245Y00853695D01*
X00465375Y00729625D02*
X00473750Y00738000D01*
X00494000D01*
X00521000Y00765000D01*
X00465375Y00706237D02*
Y00729625D01*
X00465000Y00705862D02*
X00465375Y00706237D01*
X00554607Y00639610D02*
X00559000Y00635217D01*
Y00548600D02*
X00596000Y00511600D01*
X00643324Y01259250D02*
X00652573Y01268500D01*
X00653250D01*
X00610750Y01259250D02*
X00643324D01*
X00632000Y01135000D02*
X00656000D01*
X00207500Y00535000D02*
Y00789500D01*
X00220000Y00813050D02*
X00221950Y00815000D01*
X00831000Y00838000D02*
Y00839000D01*
X00180750Y00508000D02*
X00181000D01*
X00189500Y00517000D02*
X00207500Y00535000D01*
X00172750Y00500000D02*
X00180750Y00508000D01*
X00682000Y00840000D02*
X00683000Y00839000D01*
X00172500Y00500000D02*
X00172750D01*
X00220000Y00516000D02*
X00282750Y00453250D01*
X00138000Y01104000D02*
X00198000D01*
X00283250Y00445000D02*
X00299000D01*
X00198868Y00424000D02*
X00219868Y00445000D01*
X00464600Y00706262D02*
X00465000Y00705862D01*
X00200000Y01011132D02*
X00235245Y00975887D01*
X00181000Y00508500D02*
X00189000Y00516500D01*
X00521000Y00765000D02*
X00549000D01*
X00153000Y00424000D02*
X00198868D01*
X00235245Y00853695D02*
Y00975887D01*
X00198000Y01104000D02*
X00199000Y01103000D01*
X00682000Y00840000D02*
Y00879000D01*
X00146000Y00815000D02*
Y00840400D01*
X00609000Y01158000D02*
X00632000Y01135000D01*
X00146000Y00815000D02*
X00161285Y00799715D01*
X00189000Y00517000D02*
X00189500D01*
X00197285Y00799715D02*
X00207500Y00789500D01*
X00219868Y00445000D02*
X00283250D01*
X00181000Y00508000D02*
Y00508500D01*
X00200000Y01011132D02*
Y01059000D01*
X00161285Y00799715D02*
X00197285D01*
X00220000Y00516000D02*
Y00813050D01*
X00831000Y00839000D02*
Y00877000D01*
X00282750Y00453250D02*
X00299000Y00445000D01*
X00189000Y00516500D02*
Y00517000D01*
D95*
X00602860Y00782182D02*
D03*
X00825669Y00552000D02*
D03*
X00815669D02*
D03*
X00835000D02*
D03*
X00815669Y00514525D02*
D03*
X00826082Y00523816D02*
D03*
X00816082D02*
D03*
X00806082D02*
D03*
Y00514817D02*
D03*
X00825669Y00514525D02*
D03*
X00815669Y00533525D02*
D03*
X00826082Y00542817D02*
D03*
X00816082D02*
D03*
X00806082D02*
D03*
Y00533816D02*
D03*
X00825669Y00533525D02*
D03*
X00826082Y00561000D02*
D03*
X00816082D02*
D03*
X00806082D02*
D03*
Y00552000D02*
D03*
X00411000Y00431000D02*
D03*
X00439576Y00394544D02*
D03*
X00830000Y01022000D02*
D03*
X00182002Y00273583D02*
D03*
X00232342Y00272202D02*
D03*
X00469576Y00384544D02*
D03*
X00960213Y00187506D02*
D03*
X00865000Y00570000D02*
D03*
X00222342Y00236202D02*
D03*
X00459315Y00402948D02*
D03*
X00633213Y00289506D02*
D03*
X00138000Y01104000D02*
D03*
X00154783Y00585193D02*
D03*
X00242129Y00236696D02*
D03*
X00071000Y01196000D02*
D03*
X00123000Y01039000D02*
D03*
X00181872Y00200887D02*
D03*
X00252129Y00272696D02*
D03*
X00603000Y00299000D02*
D03*
X00919952Y00123402D02*
D03*
X00980000Y00152000D02*
D03*
X00123000Y01076000D02*
D03*
X00061000Y01084000D02*
D03*
X00252000Y00209000D02*
D03*
X00653000Y00317000D02*
D03*
X00990000Y00188000D02*
D03*
X00123000Y01057000D02*
D03*
X00232213Y00199506D02*
D03*
X00479211Y00438610D02*
D03*
X00950213Y00196506D02*
D03*
X00989000Y00462000D02*
D03*
X00439576Y00403544D02*
D03*
X00940213Y00160506D02*
D03*
X00820000Y00957000D02*
D03*
X00111077Y00273480D02*
D03*
X00978000Y00456000D02*
D03*
X00232213Y00208506D02*
D03*
X00469576Y00393544D02*
D03*
X00970213Y00187506D02*
D03*
X00855000Y00579000D02*
D03*
X00182002Y00237583D02*
D03*
X00958000Y00456000D02*
D03*
X00232342Y00236202D02*
D03*
X00449315Y00402948D02*
D03*
X00623213Y00289506D02*
D03*
X00252129Y00227696D02*
D03*
X00459315Y00438948D02*
D03*
X00633213Y00325506D02*
D03*
X00164783Y00585193D02*
D03*
X00242129Y00272696D02*
D03*
X00613000Y00299000D02*
D03*
X00910000Y00096000D02*
D03*
X00990000Y00143000D02*
D03*
X00202000Y00191000D02*
D03*
X00051000Y01084000D02*
D03*
X00980000Y00188000D02*
D03*
X00869000Y00966000D02*
D03*
X00222213Y00199506D02*
D03*
X00990000Y00097000D02*
D03*
X00950205Y00514556D02*
D03*
X00318129Y00343696D02*
D03*
X00950213Y00160506D02*
D03*
X00830000Y00957000D02*
D03*
X00113000Y01048000D02*
D03*
X00222213Y00208506D02*
D03*
X00110948Y00191784D02*
D03*
X00469576Y00402544D02*
D03*
X00960213Y00196506D02*
D03*
X00865000Y00579000D02*
D03*
X00820000Y00995000D02*
D03*
X00970000Y00505000D02*
D03*
X00222342Y00245202D02*
D03*
X00459315Y00393948D02*
D03*
X00633213Y00280506D02*
D03*
X00980000Y00515000D02*
D03*
X00192215Y00237089D02*
D03*
X00242129Y00227696D02*
D03*
X00449315Y00438948D02*
D03*
X00623213Y00325506D02*
D03*
X00960213Y00160506D02*
D03*
X00113000Y01039000D02*
D03*
X00181872Y00191887D02*
D03*
X00252129Y00263696D02*
D03*
X00603000Y00308000D02*
D03*
X00910000Y00105000D02*
D03*
X00980000Y00143000D02*
D03*
X00061000Y01072000D02*
D03*
X00212000Y00191000D02*
D03*
X00990000Y00179000D02*
D03*
X00232213Y00190506D02*
D03*
X00490905Y00429329D02*
D03*
X00429576Y00430544D02*
D03*
X00990000Y00106000D02*
D03*
X00199000Y01103000D02*
D03*
X00328129Y00343696D02*
D03*
X00480315Y00392948D02*
D03*
X00940213Y00169506D02*
D03*
X00429576Y00439544D02*
D03*
X00864587Y00560708D02*
D03*
X00970213Y00196506D02*
D03*
X00830000Y00995000D02*
D03*
X00232342Y00245202D02*
D03*
X00449315Y00393948D02*
D03*
X00623213Y00280506D02*
D03*
X00192215Y00228089D02*
D03*
X00174783Y00585193D02*
D03*
X00252129Y00218696D02*
D03*
X00459315Y00429948D02*
D03*
X00633213Y00316506D02*
D03*
X00970213Y00160506D02*
D03*
X00970000Y00515000D02*
D03*
X00171872Y00191887D02*
D03*
X00184194Y00565984D02*
D03*
X00242129Y00263696D02*
D03*
X00613000Y00308000D02*
D03*
X00910000Y00114000D02*
D03*
X00990000Y00134000D02*
D03*
X00051000Y01072000D02*
D03*
X00980000Y00505000D02*
D03*
X00212129Y00236696D02*
D03*
X00202000Y00200000D02*
D03*
X00920000Y00096000D02*
D03*
X00980000Y00179000D02*
D03*
X00869000Y00975000D02*
D03*
X00081000Y01205000D02*
D03*
X00222213Y00190506D02*
D03*
X00490905Y00438329D02*
D03*
X00653000Y00290000D02*
D03*
X00990000Y00115000D02*
D03*
X00318129Y00352696D02*
D03*
X00480315Y00383948D02*
D03*
X00439576Y00430544D02*
D03*
X00950213Y00169506D02*
D03*
X00420000Y00440000D02*
D03*
X00968000Y00456000D02*
D03*
X00940213Y00133506D02*
D03*
X00835464Y00543217D02*
D03*
X00820000Y01004000D02*
D03*
X00222342Y00254202D02*
D03*
X00459315Y00384948D02*
D03*
X00643000Y00281000D02*
D03*
X00835000Y00561000D02*
D03*
X00192215Y00219089D02*
D03*
X00242129Y00218696D02*
D03*
X00449315Y00429948D02*
D03*
X00623213Y00316506D02*
D03*
X00960213Y00169506D02*
D03*
X00192085Y00191392D02*
D03*
X00960205Y00514556D02*
D03*
X00252129Y00254696D02*
D03*
X00603000Y00317000D02*
D03*
X00909952Y00150402D02*
D03*
X00980000Y00134000D02*
D03*
X00061000Y01063000D02*
D03*
X00831000Y00877000D02*
D03*
X00202129Y00236696D02*
D03*
X00212000Y00200000D02*
D03*
X00920000Y00105000D02*
D03*
X00990000Y00170000D02*
D03*
X00859000Y00984000D02*
D03*
X00212129Y00272696D02*
D03*
X00184410Y00575790D02*
D03*
X00242000Y00191000D02*
D03*
X00643000Y00299000D02*
D03*
X00990000Y00124000D02*
D03*
X00328129Y00352696D02*
D03*
X00480000Y00375000D02*
D03*
X00439576Y00439544D02*
D03*
X00940213Y00178506D02*
D03*
X00328000Y00316000D02*
D03*
X00420000Y00431000D02*
D03*
X00469576Y00429544D02*
D03*
X00830000Y01004000D02*
D03*
X00232342Y00254202D02*
D03*
X00449315Y00384948D02*
D03*
X00653000Y00281000D02*
D03*
X00835000Y00570000D02*
D03*
X00113430Y01029459D02*
D03*
X00939523Y00505910D02*
D03*
X00222342Y00218202D02*
D03*
X00155000Y00595000D02*
D03*
X00459315Y00420948D02*
D03*
X00633213Y00307506D02*
D03*
X00970213Y00169506D02*
D03*
X00192085Y00200392D02*
D03*
X00242129Y00254696D02*
D03*
X00613000Y00317000D02*
D03*
X00909952Y00141402D02*
D03*
X00051000Y01063000D02*
D03*
X00113000Y01057000D02*
D03*
X00212129Y00227696D02*
D03*
X00184783Y00585193D02*
D03*
X00603000Y00281000D02*
D03*
X00920000Y00114000D02*
D03*
X00980000Y00170000D02*
D03*
X00869000Y00984000D02*
D03*
X00101000Y01196000D02*
D03*
X00202129Y00272696D02*
D03*
X00653000Y00299000D02*
D03*
X00930000Y00124000D02*
D03*
X00840000Y00984000D02*
D03*
X00101000Y01205000D02*
D03*
X00318129Y00361696D02*
D03*
X00864587Y00551708D02*
D03*
X00490315Y00392948D02*
D03*
X00950213Y00178506D02*
D03*
X00318000Y00316000D02*
D03*
X00123430Y01020459D02*
D03*
X00469576Y00438544D02*
D03*
X00940213Y00142506D02*
D03*
X00820000Y01013000D02*
D03*
X00222342Y00263202D02*
D03*
X00175000Y00595000D02*
D03*
X00449000Y00376000D02*
D03*
X00643000Y00290000D02*
D03*
X00182002Y00219583D02*
D03*
X00232342Y00218202D02*
D03*
X00449315Y00420948D02*
D03*
X00623213Y00307506D02*
D03*
X00844587Y00551708D02*
D03*
X00252129Y00245696D02*
D03*
X00909952Y00132402D02*
D03*
X00989000Y00489000D02*
D03*
X00202129Y00227696D02*
D03*
X00613000Y00281000D02*
D03*
X00919952Y00150402D02*
D03*
X00990000Y00161000D02*
D03*
X00113000Y01067000D02*
D03*
X00081000Y01196000D02*
D03*
X00123430Y01029459D02*
D03*
X00212129Y00263696D02*
D03*
X00242000Y00200000D02*
D03*
X00643000Y00308000D02*
D03*
X00930000Y00133000D02*
D03*
X00850000Y00984000D02*
D03*
X00328129Y00361696D02*
D03*
X00490315Y00383948D02*
D03*
X00940213Y00187506D02*
D03*
X00820000Y00984000D02*
D03*
X00439261Y00376596D02*
D03*
X00830000Y01013000D02*
D03*
X00182002Y00264583D02*
D03*
X00232342Y00263202D02*
D03*
X00459000Y00376000D02*
D03*
X00960213Y00178506D02*
D03*
X00845000Y00579000D02*
D03*
X00113000Y01085000D02*
D03*
X00222342Y00227202D02*
D03*
X00185000Y00595000D02*
D03*
X00459315Y00411948D02*
D03*
X00633213Y00298506D02*
D03*
X00123000Y01048000D02*
D03*
X00192215Y00273089D02*
D03*
X00242129Y00245696D02*
D03*
X00909952Y00123402D02*
D03*
X00091000Y01196000D02*
D03*
X00212129Y00218696D02*
D03*
X00603000Y00290000D02*
D03*
X00919952Y00141402D02*
D03*
X00980000Y00161000D02*
D03*
X00123000Y01067000D02*
D03*
X00202129Y00263696D02*
D03*
X00653000Y00308000D02*
D03*
X00930000Y00142000D02*
D03*
X00990000Y00197000D02*
D03*
X00490000Y00375000D02*
D03*
X00950213Y00187506D02*
D03*
X00989000Y00480000D02*
D03*
X00830000Y00984000D02*
D03*
X00411000Y00440000D02*
D03*
X00938000Y00456000D02*
D03*
X00439576Y00385544D02*
D03*
X00940213Y00151506D02*
D03*
X00820000Y01022000D02*
D03*
X00222342Y00272202D02*
D03*
X00172002Y00273583D02*
D03*
X00948000Y00456000D02*
D03*
X00469261Y00375596D02*
D03*
X00970213Y00178506D02*
D03*
X00123000Y01085000D02*
D03*
X00182002Y00228583D02*
D03*
X00232342Y00227202D02*
D03*
X00449315Y00411948D02*
D03*
X00623213Y00298506D02*
D03*
X00192215Y00264089D02*
D03*
X00252129Y00236696D02*
D03*
X00989000Y00498000D02*
D03*
X00071000Y01205000D02*
D03*
X00113430Y01020459D02*
D03*
X00202129Y00218696D02*
D03*
X00165000Y00595000D02*
D03*
X00613000Y00290000D02*
D03*
X00919952Y00132402D02*
D03*
X00990000Y00152000D02*
D03*
X00113000Y01076000D02*
D03*
X00990000Y00515000D02*
D03*
X00940205Y00514556D02*
D03*
X00242000Y00209000D02*
D03*
X00643000Y00317000D02*
D03*
X00930000Y00151000D02*
D03*
X00980000Y00197000D02*
D03*
X00869000Y00957000D02*
D03*
X00091000Y01205000D02*
D03*
X00494000Y00402000D02*
D03*
X00940213Y00196506D02*
D03*
X00989000Y00471000D02*
D03*
D96*
X00440750Y00749000D02*
D03*
X00465750Y00730000D02*
D03*
Y00749000D02*
D03*
X00440750Y00730000D02*
D03*
D97*
Y00739500D02*
D03*
D98*
X00438000Y00581000D02*
D03*
X00461000D02*
D03*
X00484000D02*
D03*
D99*
X00461000Y00518000D02*
D03*
D100*
X00449000Y00670400D02*
D03*
Y00657700D02*
D03*
Y00645000D02*
D03*
Y00632300D02*
D03*
X00394780D02*
D03*
Y00645000D02*
D03*
Y00657700D02*
D03*
Y00670400D02*
D03*
D101*
X00483000Y00769000D02*
D03*
X00464000D02*
D03*
D102*
X00523000Y00701720D02*
D03*
Y00656000D02*
D03*
D103*
X00589500Y00678860D02*
D03*
D104*
X00807800Y01100000D02*
D03*
X00744000D02*
D03*
D105*
X00572240Y00765000D02*
D03*
X00549000D02*
D03*
D106*
X00299000Y00764000D02*
X00337000D01*
X00349500Y00701722D02*
Y00751500D01*
X00337000Y00764000D02*
X00349500Y00751500D01*
X00390640Y00670650D02*
X00394530D01*
X00364500Y00698500D02*
X00390640Y00672360D01*
X00349500Y00701722D02*
X00352722Y00698500D01*
X00364500D01*
X00390640Y00670650D02*
Y00672360D01*
X00394530Y00670650D02*
X00394780Y00670400D01*
X00460250Y00644750D02*
X00463750Y00641250D01*
X00473750D01*
X00475000Y00640000D01*
X00449250Y00644750D02*
X00460250D01*
X00449000Y00645000D02*
X00449250Y00644750D01*
X00477000Y00635250D02*
X00488250Y00624000D01*
M02*
