%TF.GenerationSoftware,Altium Limited,Altium Designer,24.5.2 (23)*%
G04 Layer_Color=128*
%FSLAX45Y45*%
%MOMM*%
%TF.SameCoordinates,5A5307CA-094C-43D5-B752-2CBB6B1D3501*%
%TF.FilePolarity,Positive*%
%TF.FileFunction,Paste,Bot*%
%TF.Part,Single*%
G01*
G75*
%TA.AperFunction,SMDPad,CuDef*%
%ADD12R,0.95000X1.40000*%
%ADD13R,0.60000X0.96000*%
%ADD14R,1.25000X0.60000*%
%ADD15R,1.40000X0.95000*%
%ADD49R,1.05000X0.60000*%
%ADD50R,0.60000X1.05000*%
%ADD51R,1.47000X0.97000*%
%ADD52R,1.60000X3.00000*%
%ADD53R,5.80000X6.20000*%
%ADD54R,0.97000X1.47000*%
%ADD55R,3.00000X1.60000*%
%ADD56R,6.20000X5.80000*%
%ADD57R,0.96000X0.60000*%
%ADD58R,2.15000X2.20000*%
%ADD59R,1.07500X0.50000*%
%ADD60R,2.20000X2.15000*%
D12*
X10760000Y10140000D02*
D03*
X10570000D02*
D03*
X10770000Y9490000D02*
D03*
X10580000D02*
D03*
X6220000Y2750000D02*
D03*
X6410000D02*
D03*
Y3000000D02*
D03*
X6220000D02*
D03*
X12914999Y8480000D02*
D03*
X13105000D02*
D03*
X12914999Y8230000D02*
D03*
X13105000D02*
D03*
X5665000Y5108689D02*
D03*
X5475000D02*
D03*
Y4890000D02*
D03*
X5665000D02*
D03*
X10580000Y10790000D02*
D03*
X10770000D02*
D03*
X10580000Y11430000D02*
D03*
X10770000D02*
D03*
X5250000Y11800000D02*
D03*
X5440000D02*
D03*
X5675000D02*
D03*
X5865000D02*
D03*
D13*
X13325000Y3080000D02*
D03*
X13230000D02*
D03*
X13135001D02*
D03*
Y3302344D02*
D03*
X13325000D02*
D03*
X13230000D02*
D03*
X11805000Y9957655D02*
D03*
X11710000D02*
D03*
X11615000D02*
D03*
Y10180000D02*
D03*
X11805000D02*
D03*
X11710000D02*
D03*
X8635000Y10172344D02*
D03*
X8730000D02*
D03*
X8825000D02*
D03*
Y9950000D02*
D03*
X8635000D02*
D03*
X8730000D02*
D03*
D14*
X5217500Y5040000D02*
D03*
Y4945000D02*
D03*
Y4850000D02*
D03*
X4967500D02*
D03*
Y5040000D02*
D03*
D15*
X13270000Y7430000D02*
D03*
Y7620000D02*
D03*
X13060001Y7620000D02*
D03*
Y7430000D02*
D03*
X8950000Y2550000D02*
D03*
Y2740000D02*
D03*
X9450000D02*
D03*
Y2550000D02*
D03*
X8600000Y4220000D02*
D03*
Y4410000D02*
D03*
X8330000Y4220000D02*
D03*
Y4410000D02*
D03*
D49*
X12650000Y7465000D02*
D03*
X12870000Y7370000D02*
D03*
Y7560000D02*
D03*
D50*
X9155000Y4205000D02*
D03*
X9250000Y4425000D02*
D03*
X9060000D02*
D03*
X13475000Y8260000D02*
D03*
X13570000Y8480000D02*
D03*
X13380000D02*
D03*
X6895000Y2130000D02*
D03*
X6990000Y2350000D02*
D03*
X6800000D02*
D03*
X5710000Y11575000D02*
D03*
X5900000D02*
D03*
X5805000Y11355000D02*
D03*
X9050000Y2375000D02*
D03*
X9240000D02*
D03*
X9145000Y2155000D02*
D03*
D51*
X10130000Y2540000D02*
D03*
Y2374000D02*
D03*
X10120000Y3046000D02*
D03*
Y2880000D02*
D03*
X3970000Y3130000D02*
D03*
Y2964000D02*
D03*
X3730000Y3480000D02*
D03*
Y3646000D02*
D03*
X3980000D02*
D03*
Y3480000D02*
D03*
X13475000Y6500000D02*
D03*
Y6666000D02*
D03*
X11050000Y11364000D02*
D03*
Y11530000D02*
D03*
Y10474000D02*
D03*
Y10640000D02*
D03*
Y9574000D02*
D03*
Y9740000D02*
D03*
X3230000Y3315310D02*
D03*
Y3149310D02*
D03*
D52*
X5143000Y2225000D02*
D03*
X5600000D02*
D03*
X7750000D02*
D03*
X7293000D02*
D03*
D53*
X5371500Y2938900D02*
D03*
X7521500D02*
D03*
D54*
X14241000Y8150000D02*
D03*
X14075000D02*
D03*
X11241000Y2425000D02*
D03*
X11075000D02*
D03*
X12903999Y2410000D02*
D03*
X13070000D02*
D03*
X12036000Y5390000D02*
D03*
X11870000D02*
D03*
X13316000Y2750000D02*
D03*
X13150000D02*
D03*
X14174001Y9070000D02*
D03*
X14339999D02*
D03*
X11480000Y5770000D02*
D03*
X11646000D02*
D03*
X11034000Y3740000D02*
D03*
X11200000D02*
D03*
X12410000Y10030000D02*
D03*
X12244000D02*
D03*
X9266000Y11350000D02*
D03*
X9100000D02*
D03*
X9284000Y10075000D02*
D03*
X9450000D02*
D03*
X7975000Y10050000D02*
D03*
X7809000D02*
D03*
X4525000Y7125000D02*
D03*
X4691000D02*
D03*
X3775000D02*
D03*
X3941000D02*
D03*
D55*
X4966100Y10671500D02*
D03*
Y11128500D02*
D03*
D56*
X5680000Y10900000D02*
D03*
D57*
X12047344Y3075000D02*
D03*
Y2980000D02*
D03*
Y2885000D02*
D03*
X11825000D02*
D03*
Y3075000D02*
D03*
Y2980000D02*
D03*
X2570000Y3800000D02*
D03*
Y3895000D02*
D03*
Y3990000D02*
D03*
X2792344D02*
D03*
Y3800000D02*
D03*
Y3895000D02*
D03*
D58*
X2583700Y6230000D02*
D03*
Y6670000D02*
D03*
X2583700Y5175000D02*
D03*
Y5615000D02*
D03*
Y7235000D02*
D03*
Y7675000D02*
D03*
Y8310000D02*
D03*
Y8750000D02*
D03*
X2583700Y10375000D02*
D03*
Y10815000D02*
D03*
X2583700Y9315000D02*
D03*
Y9755000D02*
D03*
D59*
X3767600Y9175000D02*
D03*
X4000000D02*
D03*
X3767600Y5175000D02*
D03*
X4000000D02*
D03*
D60*
X3175000Y10475000D02*
D03*
X3615000D02*
D03*
%TF.MD5,04dd29d250a8329a3c3a3c7cd0f7e907*%
M02*
