%TF.GenerationSoftware,Altium Limited,Altium Designer,24.5.2 (23)*%
G04 Layer_Physical_Order=1*
G04 Layer_Color=255*
%FSLAX45Y45*%
%MOMM*%
%TF.SameCoordinates,5A5307CA-094C-43D5-B752-2CBB6B1D3501*%
%TF.FilePolarity,Positive*%
%TF.FileFunction,Copper,L1,Top,Signal*%
%TF.Part,Single*%
G01*
G75*
%TA.AperFunction,SMDPad,CuDef*%
%ADD10R,2.00000X2.00000*%
%ADD11R,1.20000X1.20000*%
%ADD12R,0.95000X1.40000*%
%ADD13R,0.60000X0.96000*%
%ADD14R,1.25000X0.60000*%
%ADD15R,1.40000X0.95000*%
%ADD16R,1.20000X1.20000*%
%TA.AperFunction,Conductor*%
%ADD17C,0.35000*%
%ADD18C,0.50000*%
%ADD19C,0.30000*%
%ADD20C,1.50000*%
%ADD21C,0.80000*%
%ADD22C,0.70000*%
%ADD23C,0.60000*%
%ADD24C,1.00000*%
%ADD25C,0.40000*%
%ADD26C,0.20000*%
%TA.AperFunction,ComponentPad*%
%ADD27R,1.40000X1.40000*%
%ADD28C,1.40000*%
%ADD29C,1.65000*%
%ADD30R,1.65000X1.65000*%
%ADD31C,0.80000*%
%ADD32R,1.40000X1.40000*%
%ADD33C,2.00000*%
%ADD34R,2.00000X2.00000*%
%ADD35R,2.10000X2.10000*%
%ADD36C,2.10000*%
%ADD37R,1.55000X1.55000*%
%ADD38C,1.55000*%
%ADD39C,1.20000*%
%ADD40R,1.20000X1.20000*%
%ADD41R,1.65000X1.65000*%
%ADD42R,1.55000X1.55000*%
%ADD43C,1.53000*%
%ADD44R,1.53000X1.53000*%
%ADD45R,2.10000X2.10000*%
%TA.AperFunction,ViaPad*%
%ADD46C,5.00000*%
%ADD47C,0.70000*%
G36*
X5295125Y11950000D02*
X11450000D01*
Y11420351D01*
X11448528Y11417938D01*
X11430000Y11405490D01*
X11332872D01*
X11330238Y11425490D01*
X11331493Y11425826D01*
X11356006Y11439979D01*
X11376021Y11459994D01*
X11390174Y11484507D01*
X11397500Y11511847D01*
Y11540153D01*
X11390174Y11567494D01*
X11376021Y11592007D01*
X11356006Y11612021D01*
X11331493Y11626174D01*
X11304153Y11633500D01*
X11275847D01*
X11248507Y11626174D01*
X11223994Y11612021D01*
X11203979Y11592007D01*
X11189826Y11567494D01*
X11182500Y11540153D01*
Y11511847D01*
X11189826Y11484507D01*
X11203979Y11459994D01*
X11223994Y11439979D01*
X11248507Y11425826D01*
X11249762Y11425490D01*
X11247128Y11405490D01*
X11150000D01*
X11140246Y11403549D01*
X11131976Y11398024D01*
X11126451Y11389754D01*
X11124510Y11380000D01*
Y11179774D01*
X11126451Y11170019D01*
X11131976Y11161750D01*
X11135248Y11158478D01*
X11127594Y11140000D01*
X10869115D01*
X10863599Y11143185D01*
X10838166Y11150000D01*
X10811835D01*
X10786402Y11143185D01*
X10780885Y11140000D01*
X10619115D01*
X10613599Y11143185D01*
X10588166Y11150000D01*
X10561835D01*
X10547368Y11146123D01*
X10469246Y11224246D01*
X10453534Y11234744D01*
X10435000Y11238430D01*
X9933493D01*
X9929911Y11242013D01*
X9915089Y11250570D01*
X9898558Y11255000D01*
X9881443D01*
X9864911Y11250570D01*
X9850089Y11242013D01*
X9837987Y11229911D01*
X9829430Y11215089D01*
X9825000Y11198557D01*
Y11181442D01*
X9828066Y11170000D01*
X9820672Y11155895D01*
X9814945Y11150000D01*
X9725000D01*
Y11140000D01*
X9351421D01*
X9336401Y11155020D01*
X9313598Y11168185D01*
X9288165Y11175000D01*
X9261835D01*
X9236402Y11168185D01*
X9213599Y11155020D01*
X9198579Y11140000D01*
X9101421D01*
X9086401Y11155020D01*
X9063598Y11168185D01*
X9038165Y11175000D01*
X9011835D01*
X8986402Y11168185D01*
X8963599Y11155020D01*
X8948579Y11140000D01*
X8851421D01*
X8836401Y11155020D01*
X8813598Y11168185D01*
X8788165Y11175000D01*
X8761835D01*
X8736402Y11168185D01*
X8713599Y11155020D01*
X8698579Y11140000D01*
X8601421D01*
X8586401Y11155020D01*
X8563598Y11168185D01*
X8538165Y11175000D01*
X8511835D01*
X8486402Y11168185D01*
X8463599Y11155020D01*
X8448579Y11140000D01*
X8375000D01*
Y11175000D01*
X8175000D01*
Y11140000D01*
X6775000D01*
Y11163165D01*
X6768185Y11188598D01*
X6755020Y11211401D01*
X6736402Y11230019D01*
X6713599Y11243185D01*
X6688166Y11250000D01*
X6661835D01*
X6636402Y11243185D01*
X6613599Y11230019D01*
X6594981Y11211401D01*
X6581815Y11188598D01*
X6575001Y11163165D01*
Y11140000D01*
X6525000D01*
Y11163165D01*
X6518185Y11188598D01*
X6505020Y11211401D01*
X6486402Y11230019D01*
X6463599Y11243185D01*
X6438166Y11250000D01*
X6411835D01*
X6386402Y11243185D01*
X6363599Y11230019D01*
X6344981Y11211401D01*
X6331815Y11188598D01*
X6325001Y11163165D01*
Y11140000D01*
X6275000D01*
Y11250000D01*
X6075001D01*
Y11140000D01*
X5883385D01*
X5878024Y11148024D01*
X5869754Y11153549D01*
X5860000Y11155490D01*
X5325490D01*
X5315735Y11153549D01*
X5307466Y11148024D01*
X5302104Y11140000D01*
X5300000D01*
Y10340000D01*
X5210000D01*
Y10160000D01*
X5300000D01*
Y9840000D01*
X5210000D01*
Y9660000D01*
X5300000D01*
Y4626365D01*
X5297892Y4625800D01*
X5267108Y4608027D01*
X5241973Y4582892D01*
X5224200Y4552108D01*
X5215000Y4517773D01*
Y4482227D01*
X5224200Y4447892D01*
X5241973Y4417108D01*
X5267108Y4391973D01*
X5297892Y4374200D01*
X5300000Y4373635D01*
Y4028491D01*
X5294939Y4023430D01*
X4143493D01*
X4139911Y4027013D01*
X4125089Y4035570D01*
X4108557Y4040000D01*
X4091442D01*
X4074911Y4035570D01*
X4060089Y4027013D01*
X4047987Y4014911D01*
X4039430Y4000089D01*
X4035000Y3983557D01*
Y3966442D01*
X4039430Y3949911D01*
X4047987Y3935089D01*
X4060089Y3922987D01*
X4074911Y3914430D01*
X4075000Y3914406D01*
X4075000Y2875891D01*
X4074510Y2875490D01*
X3484175D01*
X3375490Y2875868D01*
Y3263650D01*
X3374839Y3266921D01*
X3374621Y3270248D01*
X3372218Y3279215D01*
Y3289619D01*
X3374621Y3298586D01*
X3374839Y3301912D01*
X3375490Y3305183D01*
Y3569658D01*
X3395490Y3575017D01*
X3395974Y3574178D01*
X3420178Y3549974D01*
X3449822Y3532859D01*
X3482885Y3524000D01*
X3517115D01*
X3550178Y3532859D01*
X3579822Y3549974D01*
X3604026Y3574178D01*
X3621141Y3603822D01*
X3630000Y3636885D01*
Y3671115D01*
X3621141Y3704178D01*
X3604026Y3733822D01*
X3579822Y3758026D01*
X3550178Y3775141D01*
X3517115Y3784000D01*
X3482885D01*
X3449822Y3775141D01*
X3420178Y3758026D01*
X3395974Y3733822D01*
X3395490Y3732982D01*
X3375490Y3738342D01*
Y3995000D01*
X3374633Y3999308D01*
X3375089Y3999430D01*
X3389911Y4007987D01*
X3402013Y4020089D01*
X3410570Y4034911D01*
X3415000Y4051442D01*
Y4068558D01*
X3410570Y4085089D01*
X3402013Y4099911D01*
X3398430Y4103493D01*
Y4981570D01*
X4576507D01*
X4580089Y4977987D01*
X4594911Y4969430D01*
X4611442Y4965000D01*
X4628557D01*
X4645089Y4969430D01*
X4659911Y4977987D01*
X4672013Y4990089D01*
X4680570Y5004911D01*
X4685000Y5021443D01*
Y5038557D01*
X4693780Y5050000D01*
X4730000D01*
Y5400505D01*
X4734754Y5401451D01*
X4743024Y5406976D01*
X4748549Y5415246D01*
X4750490Y5425000D01*
Y6875000D01*
X4748549Y6884754D01*
X4743024Y6893024D01*
X4734754Y6898549D01*
X4730000Y6899495D01*
Y9574510D01*
X4960000D01*
X4969754Y9576451D01*
X4978024Y9581976D01*
X4983549Y9590246D01*
X4985490Y9600000D01*
Y9860000D01*
X4983549Y9869754D01*
X4978024Y9878024D01*
X4969754Y9883549D01*
X4960000Y9885490D01*
X4931662D01*
X4926303Y9905490D01*
X4941006Y9913979D01*
X4961021Y9933994D01*
X4975174Y9958507D01*
X4982500Y9985847D01*
Y10014153D01*
X4975174Y10041494D01*
X4961021Y10066007D01*
X4941006Y10086021D01*
X4916493Y10100174D01*
X4889153Y10107500D01*
X4860847D01*
X4833506Y10100174D01*
X4808993Y10086021D01*
X4788978Y10066007D01*
X4774826Y10041494D01*
X4767500Y10014153D01*
Y9985847D01*
X4774826Y9958507D01*
X4788978Y9933994D01*
X4808993Y9913979D01*
X4823696Y9905490D01*
X4818338Y9885490D01*
X4730000D01*
Y10793893D01*
X4731443Y10795000D01*
X4748557D01*
X4765089Y10799430D01*
X4779911Y10807987D01*
X4792013Y10820089D01*
X4800570Y10834911D01*
X4805000Y10851443D01*
Y10868558D01*
X4800570Y10885089D01*
X4792013Y10899911D01*
X4779911Y10912013D01*
X4765089Y10920570D01*
X4748557Y10925000D01*
X4731443D01*
X4730000Y10926107D01*
Y11959258D01*
X5285858Y11959267D01*
X5295125Y11950000D01*
D02*
G37*
G36*
X12917500Y11117500D02*
X13037982D01*
X13045634Y11099022D01*
X12932542Y10985930D01*
X12351573D01*
X12340026Y11005930D01*
X12343185Y11011402D01*
X12350000Y11036835D01*
Y11063165D01*
X12343185Y11088598D01*
X12330829Y11110000D01*
X12333608Y11120479D01*
X12337552Y11130000D01*
X12584000D01*
Y11117500D01*
X12799000D01*
Y11130000D01*
X12917500D01*
Y11117500D01*
D02*
G37*
G36*
X11430000Y11211934D02*
X11424911Y11210570D01*
X11410089Y11202013D01*
X11397987Y11189911D01*
X11389430Y11175089D01*
X11385000Y11158558D01*
Y11141443D01*
X11389430Y11124911D01*
X11397987Y11110089D01*
X11410089Y11097987D01*
X11416111Y11094510D01*
X11424911Y11089430D01*
X11441442Y11085000D01*
X11446405D01*
X11628150Y10903255D01*
X11628150Y10903254D01*
X11643862Y10892756D01*
X11662396Y10889069D01*
X12952605D01*
X12971138Y10892756D01*
X12986850Y10903254D01*
X13204297Y11120702D01*
X13210510Y11130000D01*
X13242500D01*
Y11117500D01*
X13457500D01*
Y11130000D01*
X13567500D01*
Y11117500D01*
X13782500D01*
Y11130000D01*
X14559218D01*
Y10200000D01*
X14549022D01*
Y8896692D01*
X14535001Y8882500D01*
X14529021Y8882500D01*
X14310001D01*
Y8657500D01*
X14523868D01*
X14533835Y8646948D01*
X14537646Y8638596D01*
X14534055Y8630000D01*
X13789999D01*
Y9244250D01*
X13793423Y9245167D01*
X13819077Y9259978D01*
X13840022Y9280924D01*
X13854832Y9306577D01*
X13862500Y9335189D01*
Y9364811D01*
X13854832Y9393423D01*
X13840022Y9419077D01*
X13819077Y9440023D01*
X13793423Y9454833D01*
X13789999Y9455750D01*
Y10200000D01*
X13795435D01*
X13792801Y10220000D01*
X13793423Y10220167D01*
X13819077Y10234977D01*
X13840022Y10255923D01*
X13854832Y10281577D01*
X13862500Y10310189D01*
Y10339811D01*
X13854832Y10368423D01*
X13840022Y10394076D01*
X13819077Y10415022D01*
X13793423Y10429833D01*
X13764812Y10437500D01*
X13735188D01*
X13706577Y10429833D01*
X13680923Y10415022D01*
X13659978Y10394076D01*
X13645168Y10368423D01*
X13637500Y10339811D01*
Y10310189D01*
X13645168Y10281577D01*
X13659978Y10255923D01*
X13680923Y10234977D01*
X13706577Y10220167D01*
X13707199Y10220000D01*
X13704565Y10200000D01*
X13545435D01*
X13542801Y10220000D01*
X13543423Y10220167D01*
X13569077Y10234977D01*
X13590022Y10255923D01*
X13604832Y10281577D01*
X13612500Y10310189D01*
Y10339811D01*
X13604832Y10368423D01*
X13590022Y10394076D01*
X13569077Y10415022D01*
X13543423Y10429833D01*
X13514812Y10437500D01*
X13485188D01*
X13456577Y10429833D01*
X13430923Y10415022D01*
X13409978Y10394076D01*
X13395168Y10368423D01*
X13387500Y10339811D01*
Y10310189D01*
X13395168Y10281577D01*
X13409978Y10255923D01*
X13430923Y10234977D01*
X13456577Y10220167D01*
X13457199Y10220000D01*
X13454565Y10200000D01*
X13295435D01*
X13292801Y10220000D01*
X13293423Y10220167D01*
X13319077Y10234977D01*
X13340022Y10255923D01*
X13354832Y10281577D01*
X13362500Y10310189D01*
Y10339811D01*
X13354832Y10368423D01*
X13340022Y10394076D01*
X13319077Y10415022D01*
X13293423Y10429833D01*
X13264812Y10437500D01*
X13235188D01*
X13206577Y10429833D01*
X13180923Y10415022D01*
X13159978Y10394076D01*
X13145168Y10368423D01*
X13137500Y10339811D01*
Y10310189D01*
X13143671Y10287161D01*
X13114050Y10257542D01*
X13098047Y10269822D01*
X13104832Y10281577D01*
X13112500Y10310189D01*
Y10339811D01*
X13104832Y10368423D01*
X13090022Y10394076D01*
X13069077Y10415022D01*
X13043423Y10429833D01*
X13014812Y10437500D01*
X12985188D01*
X12956577Y10429833D01*
X12930923Y10415022D01*
X12909978Y10394076D01*
X12895168Y10368423D01*
X12887500Y10339811D01*
Y10310189D01*
X12895168Y10281577D01*
X12909978Y10255923D01*
X12930923Y10234977D01*
X12956577Y10220167D01*
X12957199Y10220000D01*
X12954565Y10200000D01*
X10905690D01*
Y10339760D01*
X10918185Y10361402D01*
X10925000Y10386835D01*
Y10413165D01*
X10918185Y10438598D01*
X10905020Y10461401D01*
X10886401Y10480020D01*
X10863599Y10493185D01*
X10838166Y10500000D01*
X10811835D01*
X10786402Y10493185D01*
X10763599Y10480020D01*
X10744981Y10461401D01*
X10731815Y10438598D01*
X10725000Y10413165D01*
Y10386835D01*
X10731815Y10361402D01*
X10744310Y10339760D01*
Y10200000D01*
X10623431D01*
Y10312492D01*
X10636401Y10319980D01*
X10655020Y10338599D01*
X10668185Y10361402D01*
X10675000Y10386835D01*
Y10413165D01*
X10668185Y10438598D01*
X10655020Y10461401D01*
X10636401Y10480020D01*
X10613599Y10493185D01*
X10588166Y10500000D01*
X10561835D01*
X10536402Y10493185D01*
X10513599Y10480020D01*
X10494981Y10461401D01*
X10481815Y10438598D01*
X10475000Y10413165D01*
Y10386835D01*
X10481815Y10361402D01*
X10494981Y10338599D01*
X10513599Y10319980D01*
X10526570Y10312492D01*
Y10200000D01*
X10373431D01*
Y10312492D01*
X10386401Y10319980D01*
X10405020Y10338599D01*
X10418185Y10361402D01*
X10425000Y10386835D01*
Y10413165D01*
X10418185Y10438598D01*
X10405020Y10461401D01*
X10386401Y10480020D01*
X10363599Y10493185D01*
X10338166Y10500000D01*
X10311835D01*
X10286402Y10493185D01*
X10263599Y10480020D01*
X10244981Y10461401D01*
X10231815Y10438598D01*
X10225000Y10413165D01*
Y10386835D01*
X10231815Y10361402D01*
X10244981Y10338599D01*
X10263599Y10319980D01*
X10276570Y10312492D01*
Y10200000D01*
X10123431D01*
Y10312492D01*
X10136401Y10319980D01*
X10155020Y10338599D01*
X10168185Y10361402D01*
X10175000Y10386835D01*
Y10413165D01*
X10168185Y10438598D01*
X10155020Y10461401D01*
X10136401Y10480020D01*
X10113599Y10493185D01*
X10088165Y10500000D01*
X10061835D01*
X10036402Y10493185D01*
X10013599Y10480020D01*
X9994981Y10461401D01*
X9981815Y10438598D01*
X9975000Y10413165D01*
Y10386835D01*
X9981815Y10361402D01*
X9994981Y10338599D01*
X10013599Y10319980D01*
X10026570Y10312492D01*
Y10200000D01*
X9235055D01*
X9229328Y10205896D01*
X9221934Y10220000D01*
X9225000Y10231443D01*
Y10248558D01*
X9220570Y10265089D01*
X9212013Y10279911D01*
X9199911Y10292013D01*
X9185089Y10300570D01*
X9168557Y10305000D01*
X9151442D01*
X9134911Y10300570D01*
X9120089Y10292013D01*
X9107987Y10279911D01*
X9099430Y10265089D01*
X9095000Y10248558D01*
Y10231443D01*
X9098066Y10220000D01*
X9090672Y10205896D01*
X9084945Y10200000D01*
X6473431D01*
Y10362492D01*
X6486402Y10369980D01*
X6505020Y10388599D01*
X6518185Y10411402D01*
X6525000Y10436835D01*
Y10463165D01*
X6518185Y10488598D01*
X6505020Y10511401D01*
X6486402Y10530020D01*
X6463599Y10543185D01*
X6438166Y10550000D01*
X6411835D01*
X6386402Y10543185D01*
X6363599Y10530020D01*
X6344981Y10511401D01*
X6331815Y10488598D01*
X6325001Y10463165D01*
Y10436835D01*
X6331815Y10411402D01*
X6344981Y10388599D01*
X6363599Y10369980D01*
X6376570Y10362492D01*
Y10200000D01*
X5901618D01*
X5891308Y10220000D01*
X5896172Y10238151D01*
Y10261848D01*
X5890038Y10284738D01*
X5878189Y10305261D01*
X5861433Y10322017D01*
X5860000Y10322845D01*
Y10342845D01*
X5843693Y10333430D01*
X5840000Y10334110D01*
X5818020Y10340000D01*
X5794323D01*
X5771433Y10333866D01*
X5750911Y10322017D01*
X5734154Y10305261D01*
X5722305Y10284738D01*
X5716172Y10261848D01*
Y10238151D01*
X5722305Y10215261D01*
X5734154Y10194739D01*
X5750911Y10177982D01*
X5771433Y10166133D01*
X5794323Y10160000D01*
X5818020D01*
X5840000Y10165889D01*
X5843693Y10166569D01*
X5860000Y10157155D01*
Y9842845D01*
X5843693Y9833430D01*
X5840000Y9834110D01*
X5818020Y9840000D01*
X5794323D01*
X5771433Y9833866D01*
X5750911Y9822017D01*
X5734154Y9805261D01*
X5722305Y9784738D01*
X5716172Y9761848D01*
Y9738151D01*
X5722305Y9715261D01*
X5734154Y9694739D01*
X5750911Y9677982D01*
X5771433Y9666133D01*
X5794323Y9660000D01*
X5797637Y9655433D01*
X5802918Y9640000D01*
X5795256Y9628533D01*
X5791570Y9610000D01*
Y9193493D01*
X5787987Y9189911D01*
X5779430Y9175089D01*
X5775000Y9158558D01*
Y9141442D01*
X5779430Y9124911D01*
X5787987Y9110089D01*
X5800089Y9097987D01*
X5814911Y9089430D01*
X5831442Y9085000D01*
X5848557D01*
X5860000Y9076220D01*
Y5734113D01*
X5827444Y5701557D01*
X5814620Y5684845D01*
X5806559Y5665384D01*
X5803810Y5644500D01*
Y5443500D01*
X5806559Y5422616D01*
X5814620Y5403155D01*
X5827444Y5386444D01*
X5860000Y5353887D01*
Y5116076D01*
X5859430Y5115089D01*
X5858318Y5110938D01*
X5856673Y5106968D01*
X5856112Y5102708D01*
X5855000Y5098557D01*
Y5094260D01*
X5854439Y5090000D01*
Y4880000D01*
X5856673Y4863031D01*
X5860000Y4855000D01*
Y4701421D01*
X5844980Y4686401D01*
X5831815Y4663598D01*
X5825000Y4638165D01*
Y4611835D01*
X5831815Y4586402D01*
X5844980Y4563599D01*
X5860000Y4548579D01*
Y4050000D01*
X8992500D01*
Y3980000D01*
X9147500D01*
Y4050000D01*
X9182500D01*
Y3980000D01*
X9337500D01*
Y4050000D01*
X9511851D01*
X9523398Y4030000D01*
X9516815Y4018598D01*
X9510000Y3993165D01*
Y3966835D01*
X9516815Y3941402D01*
X9529980Y3918599D01*
X9548599Y3899980D01*
X9571401Y3886815D01*
X9596835Y3880000D01*
X9623165D01*
X9648598Y3886815D01*
X9671401Y3899980D01*
X9690019Y3918599D01*
X9703185Y3941402D01*
X9710000Y3966835D01*
Y3993165D01*
X9703185Y4018598D01*
X9696602Y4030000D01*
X9708149Y4050000D01*
X9761851D01*
X9773991Y4031028D01*
X9766815Y4018598D01*
X9760000Y3993165D01*
Y3966835D01*
X9766815Y3941402D01*
X9779980Y3918599D01*
X9798599Y3899980D01*
X9821401Y3886815D01*
X9846835Y3880000D01*
X9873165D01*
X9898598Y3886815D01*
X9921401Y3899980D01*
X9940019Y3918599D01*
X9953185Y3941402D01*
X9960000Y3966835D01*
Y3993165D01*
X9953185Y4018598D01*
X9946602Y4030000D01*
X9958149Y4050000D01*
X10010000D01*
Y3880000D01*
X10210000D01*
Y4050000D01*
X10601851D01*
X10613398Y4030000D01*
X10606815Y4018598D01*
X10600000Y3993165D01*
Y3966835D01*
X10606815Y3941402D01*
X10619980Y3918599D01*
X10638599Y3899980D01*
X10661402Y3886815D01*
X10686835Y3880000D01*
X10713165D01*
X10738598Y3886815D01*
X10761401Y3899980D01*
X10780020Y3918599D01*
X10793185Y3941402D01*
X10800000Y3966835D01*
Y3993165D01*
X10793185Y4018598D01*
X10789177Y4025541D01*
X10799042Y4043745D01*
X10816172Y4045337D01*
X10853877Y4007632D01*
X10850000Y3993165D01*
Y3966835D01*
X10856815Y3941402D01*
X10869980Y3918599D01*
X10888599Y3899980D01*
X10911402Y3886815D01*
X10936835Y3880000D01*
X10963165D01*
X10988598Y3886815D01*
X11011401Y3899980D01*
X11030020Y3918599D01*
X11043185Y3941402D01*
X11050000Y3966835D01*
Y3993165D01*
X11043185Y4018598D01*
X11036602Y4030000D01*
X11048149Y4050000D01*
X11100000D01*
Y3880000D01*
X11300000D01*
Y4050000D01*
X11731851D01*
X11743398Y4030000D01*
X11736815Y4018598D01*
X11730000Y3993165D01*
Y3966835D01*
X11736815Y3941402D01*
X11749980Y3918599D01*
X11768599Y3899980D01*
X11791402Y3886815D01*
X11816835Y3880000D01*
X11843165D01*
X11868598Y3886815D01*
X11891401Y3899980D01*
X11910020Y3918599D01*
X11923185Y3941402D01*
X11930000Y3966835D01*
Y3993165D01*
X11923185Y4018598D01*
X11916602Y4030000D01*
X11928149Y4050000D01*
X11981851D01*
X11993398Y4030000D01*
X11986815Y4018598D01*
X11980000Y3993165D01*
Y3966835D01*
X11986815Y3941402D01*
X11999980Y3918599D01*
X12018599Y3899980D01*
X12041402Y3886815D01*
X12066835Y3880000D01*
X12093165D01*
X12118598Y3886815D01*
X12141401Y3899980D01*
X12160020Y3918599D01*
X12173185Y3941402D01*
X12180000Y3966835D01*
Y3993165D01*
X12173185Y4018598D01*
X12166602Y4030000D01*
X12178149Y4050000D01*
X12231851D01*
X12243398Y4030000D01*
X12236815Y4018598D01*
X12230000Y3993165D01*
Y3966835D01*
X12236815Y3941402D01*
X12249980Y3918599D01*
X12268599Y3899980D01*
X12291402Y3886815D01*
X12316835Y3880000D01*
X12343165D01*
X12368598Y3886815D01*
X12391401Y3899980D01*
X12410020Y3918599D01*
X12423185Y3941402D01*
X12430000Y3966835D01*
Y3993165D01*
X12423185Y4018598D01*
X12416602Y4030000D01*
X12428149Y4050000D01*
X12481851D01*
X12493398Y4030000D01*
X12486815Y4018598D01*
X12480000Y3993165D01*
Y3966835D01*
X12486815Y3941402D01*
X12499980Y3918599D01*
X12518599Y3899980D01*
X12541402Y3886815D01*
X12566835Y3880000D01*
X12593165D01*
X12618598Y3886815D01*
X12641401Y3899980D01*
X12660020Y3918599D01*
X12673185Y3941402D01*
X12680000Y3966835D01*
Y3993165D01*
X12673185Y4018598D01*
X12666602Y4030000D01*
X12678149Y4050000D01*
X12730000D01*
Y3880000D01*
X12930000D01*
Y4050000D01*
X13070000D01*
Y4930000D01*
X13519688D01*
X13527972Y4910000D01*
X13513979Y4896006D01*
X13499826Y4871493D01*
X13492500Y4844153D01*
Y4815847D01*
X13495052Y4806328D01*
Y4689045D01*
X13495050Y4689043D01*
X13498659Y4661633D01*
X13509239Y4636091D01*
X13526070Y4614157D01*
X13739999Y4400227D01*
Y4379418D01*
X13736809Y4377286D01*
X13731284Y4369016D01*
X13729343Y4359262D01*
Y4356995D01*
X13709343Y4345642D01*
X13693423Y4354833D01*
X13664812Y4362500D01*
X13635188D01*
X13606577Y4354833D01*
X13580923Y4340023D01*
X13559978Y4319077D01*
X13545168Y4293423D01*
X13537500Y4264811D01*
Y4235189D01*
X13545168Y4206577D01*
X13559978Y4180924D01*
X13580923Y4159978D01*
X13606577Y4145167D01*
X13635188Y4137500D01*
X13664812D01*
X13693423Y4145167D01*
X13709343Y4154358D01*
X13729343Y4143005D01*
Y4106995D01*
X13709343Y4095642D01*
X13693423Y4104833D01*
X13664812Y4112500D01*
X13635188D01*
X13606577Y4104833D01*
X13580923Y4090023D01*
X13559978Y4069077D01*
X13545168Y4043423D01*
X13537500Y4014811D01*
Y3985189D01*
X13545168Y3956577D01*
X13559978Y3930924D01*
X13580923Y3909978D01*
X13606577Y3895167D01*
X13635188Y3887500D01*
X13664812D01*
X13693423Y3895167D01*
X13709343Y3904358D01*
X13729343Y3893005D01*
Y3856995D01*
X13709343Y3845642D01*
X13693423Y3854833D01*
X13664812Y3862500D01*
X13635188D01*
X13606577Y3854833D01*
X13580923Y3840023D01*
X13559978Y3819077D01*
X13545168Y3793423D01*
X13537500Y3764811D01*
Y3735189D01*
X13545168Y3706577D01*
X13559978Y3680924D01*
X13580923Y3659978D01*
X13606577Y3645167D01*
X13635188Y3637500D01*
X13664812D01*
X13693423Y3645167D01*
X13709343Y3654358D01*
X13729343Y3643005D01*
Y3606995D01*
X13709343Y3595642D01*
X13693423Y3604833D01*
X13664812Y3612500D01*
X13635188D01*
X13606577Y3604833D01*
X13580923Y3590023D01*
X13559978Y3569077D01*
X13545168Y3543423D01*
X13537500Y3514811D01*
Y3485189D01*
X13545168Y3456577D01*
X13547340Y3452810D01*
X13537341Y3435490D01*
X13115491D01*
X13105734Y3433549D01*
X13100423Y3430000D01*
X13089999D01*
Y2875490D01*
X9882500D01*
X9872746Y2873549D01*
X9864476Y2868024D01*
X9858951Y2859754D01*
X9857193Y2850920D01*
X9769758Y2851447D01*
X9692610Y2851912D01*
X9691049Y2859754D01*
X9685524Y2868024D01*
X9677254Y2873549D01*
X9667500Y2875490D01*
X7032500D01*
Y3078500D01*
X6817500D01*
Y3018430D01*
X6603493D01*
X6599911Y3022013D01*
X6585089Y3030570D01*
X6568558Y3035000D01*
X6551443D01*
X6534911Y3030570D01*
X6520089Y3022013D01*
X6507987Y3009911D01*
X6499430Y2995089D01*
X6495000Y2978557D01*
Y2961442D01*
X6499430Y2944911D01*
X6507987Y2930089D01*
X6520089Y2917987D01*
X6534911Y2909430D01*
X6551443Y2905000D01*
X6568558D01*
X6585089Y2909430D01*
X6599911Y2917987D01*
X6603493Y2921569D01*
X6817500D01*
Y2875490D01*
X5862461D01*
X5860000Y2877509D01*
Y2875000D01*
X4392461D01*
X4390000Y2875490D01*
X4120323D01*
X4100489Y2895490D01*
X4100490Y3635702D01*
X4120000Y3636885D01*
X4128859Y3603822D01*
X4145974Y3574178D01*
X4170178Y3549974D01*
X4199822Y3532859D01*
X4232885Y3524000D01*
X4267115D01*
X4300178Y3532859D01*
X4329822Y3549974D01*
X4354026Y3574178D01*
X4371141Y3603822D01*
X4380000Y3636885D01*
Y3671115D01*
X4371141Y3704178D01*
X4354026Y3733822D01*
X4329822Y3758026D01*
X4300178Y3775141D01*
X4267115Y3784000D01*
X4232885D01*
X4199822Y3775141D01*
X4170178Y3758026D01*
X4145974Y3733822D01*
X4128859Y3704178D01*
X4120000Y3671115D01*
X4100490Y3672297D01*
Y3910000D01*
X4108557D01*
X4125089Y3914430D01*
X4139911Y3922987D01*
X4143493Y3926569D01*
X5315000D01*
X5333533Y3930256D01*
X5349245Y3940754D01*
X5384246Y3975755D01*
X5394744Y3991466D01*
X5398430Y4010000D01*
Y4373215D01*
X5402108Y4374200D01*
X5432892Y4391973D01*
X5458027Y4417108D01*
X5475800Y4447892D01*
X5485000Y4482227D01*
Y4517773D01*
X5475800Y4552108D01*
X5458027Y4582892D01*
X5432892Y4608027D01*
X5402108Y4625800D01*
X5367773Y4635000D01*
X5332227D01*
X5325490Y4640170D01*
Y9660000D01*
X5390000D01*
Y9840000D01*
X5325490D01*
Y10160000D01*
X5390000D01*
Y10340000D01*
X5325490D01*
Y11130000D01*
X5860000D01*
Y11101862D01*
X5865156Y11107380D01*
X5868878Y11110300D01*
X5878413Y11115000D01*
X5880922D01*
X5883385Y11114510D01*
X6075001D01*
Y11050000D01*
X6275000D01*
Y11114510D01*
X6325001D01*
X6330680Y11115640D01*
X6331815Y11111401D01*
X6344981Y11088599D01*
X6363599Y11069980D01*
X6386402Y11056815D01*
X6411835Y11050000D01*
X6438166D01*
X6463599Y11056815D01*
X6486402Y11069980D01*
X6505020Y11088599D01*
X6518185Y11111401D01*
X6519321Y11115640D01*
X6525000Y11114510D01*
X6575001D01*
X6580680Y11115640D01*
X6581815Y11111401D01*
X6594981Y11088599D01*
X6613599Y11069980D01*
X6636402Y11056815D01*
X6661835Y11050000D01*
X6688166D01*
X6713599Y11056815D01*
X6736402Y11069980D01*
X6755020Y11088599D01*
X6768185Y11111401D01*
X6769321Y11115640D01*
X6775000Y11114510D01*
X8175000D01*
Y10975000D01*
X8375000D01*
Y11114510D01*
X8411354D01*
X8426700Y11094510D01*
X8425000Y11088165D01*
Y11061835D01*
X8431815Y11036402D01*
X8444980Y11013599D01*
X8463599Y10994980D01*
X8486402Y10981815D01*
X8511835Y10975000D01*
X8538165D01*
X8563598Y10981815D01*
X8586401Y10994980D01*
X8605020Y11013599D01*
X8618185Y11036402D01*
X8625000Y11061835D01*
Y11088165D01*
X8623299Y11094510D01*
X8638646Y11114510D01*
X8661354D01*
X8676700Y11094510D01*
X8675000Y11088165D01*
Y11061835D01*
X8681815Y11036402D01*
X8694980Y11013599D01*
X8713599Y10994980D01*
X8736402Y10981815D01*
X8761835Y10975000D01*
X8788165D01*
X8813598Y10981815D01*
X8836401Y10994980D01*
X8855020Y11013599D01*
X8868185Y11036402D01*
X8875000Y11061835D01*
Y11088165D01*
X8873299Y11094510D01*
X8888646Y11114510D01*
X8911354D01*
X8926700Y11094510D01*
X8925000Y11088165D01*
Y11061835D01*
X8931815Y11036402D01*
X8944980Y11013599D01*
X8963599Y10994980D01*
X8986402Y10981815D01*
X9011835Y10975000D01*
X9038165D01*
X9063598Y10981815D01*
X9086401Y10994980D01*
X9105020Y11013599D01*
X9118185Y11036402D01*
X9125000Y11061835D01*
Y11088165D01*
X9123300Y11094510D01*
X9138646Y11114510D01*
X9161354D01*
X9176700Y11094510D01*
X9175000Y11088165D01*
Y11061835D01*
X9181815Y11036402D01*
X9194980Y11013599D01*
X9213599Y10994980D01*
X9236402Y10981815D01*
X9261835Y10975000D01*
X9288165D01*
X9313598Y10981815D01*
X9336401Y10994980D01*
X9355020Y11013599D01*
X9368185Y11036402D01*
X9375000Y11061835D01*
Y11088165D01*
X9373300Y11094510D01*
X9388646Y11114510D01*
X9725000D01*
Y10950000D01*
X9925000D01*
Y11130000D01*
X9987448D01*
X9991392Y11120479D01*
X9994172Y11110000D01*
X9981815Y11088598D01*
X9975000Y11063165D01*
Y11036835D01*
X9981815Y11011402D01*
X9994981Y10988599D01*
X10013599Y10969980D01*
X10036402Y10956815D01*
X10061835Y10950000D01*
X10088165D01*
X10113599Y10956815D01*
X10136401Y10969980D01*
X10155020Y10988599D01*
X10168185Y11011402D01*
X10175000Y11036835D01*
Y11063165D01*
X10168185Y11088598D01*
X10155829Y11110000D01*
X10158608Y11120479D01*
X10162552Y11130000D01*
X10237448D01*
X10241392Y11120479D01*
X10244172Y11110000D01*
X10231815Y11088598D01*
X10225000Y11063165D01*
Y11036835D01*
X10231815Y11011402D01*
X10244981Y10988599D01*
X10263599Y10969980D01*
X10286402Y10956815D01*
X10311835Y10950000D01*
X10338166D01*
X10363599Y10956815D01*
X10386401Y10969980D01*
X10405020Y10988599D01*
X10418185Y11011402D01*
X10425000Y11036835D01*
Y11063165D01*
X10418185Y11088598D01*
X10409548Y11103557D01*
X10418171Y11123820D01*
X10431030Y11125479D01*
X10478877Y11077632D01*
X10475000Y11063165D01*
Y11036835D01*
X10481815Y11011402D01*
X10494981Y10988599D01*
X10513599Y10969980D01*
X10536402Y10956815D01*
X10561835Y10950000D01*
X10588166D01*
X10613599Y10956815D01*
X10636401Y10969980D01*
X10655020Y10988599D01*
X10668185Y11011402D01*
X10675000Y11036835D01*
Y11063165D01*
X10668185Y11088598D01*
X10664772Y11094510D01*
X10676319Y11114510D01*
X10723682D01*
X10735228Y11094510D01*
X10731815Y11088598D01*
X10725000Y11063165D01*
Y11036835D01*
X10731815Y11011402D01*
X10744981Y10988599D01*
X10763599Y10969980D01*
X10786402Y10956815D01*
X10811835Y10950000D01*
X10838166D01*
X10863599Y10956815D01*
X10886401Y10969980D01*
X10905020Y10988599D01*
X10918185Y11011402D01*
X10925000Y11036835D01*
Y11063165D01*
X10918185Y11088598D01*
X10935659Y11097434D01*
X10945113Y11085113D01*
X11200899Y10829328D01*
X11203979Y10823994D01*
X11223994Y10803979D01*
X11248507Y10789826D01*
X11275847Y10782500D01*
X11304153D01*
X11331493Y10789826D01*
X11356006Y10803979D01*
X11376021Y10823994D01*
X11390174Y10848507D01*
X11397500Y10875847D01*
Y10904153D01*
X11390174Y10931494D01*
X11376021Y10956007D01*
X11356006Y10976021D01*
X11350672Y10979101D01*
X11218251Y11111522D01*
D01*
X11150000Y11179774D01*
Y11380000D01*
X11430000D01*
Y11211934D01*
D02*
G37*
G36*
X2980000Y10700000D02*
X2720000D01*
X2720000Y11200000D01*
X2400000D01*
Y11950000D01*
X2980000D01*
Y10700000D01*
D02*
G37*
G36*
X4425000Y11945111D02*
X4425000Y11107500D01*
X4432500Y11100000D01*
X4650000D01*
Y10234896D01*
X4630000Y10229099D01*
X4619077Y10240022D01*
X4593423Y10254833D01*
X4564811Y10262500D01*
X4535189D01*
X4506577Y10254833D01*
X4480923Y10240022D01*
X4465901Y10225000D01*
X4431337D01*
X4430814Y10225191D01*
X4428851Y10225106D01*
X4426923Y10225490D01*
X3373078D01*
X3371149Y10225106D01*
X3369186Y10225191D01*
X3368663Y10225000D01*
X3334099D01*
X3319077Y10240022D01*
X3293423Y10254833D01*
X3264811Y10262500D01*
X3235189D01*
X3206577Y10254833D01*
X3180924Y10240022D01*
X3165901Y10225000D01*
X3131337D01*
X3130814Y10225191D01*
X3128851Y10225106D01*
X3126923Y10225490D01*
X2068954D01*
X2067773Y10245000D01*
X2102108Y10254200D01*
X2132891Y10271974D01*
X2158026Y10297108D01*
X2175799Y10327892D01*
X2184999Y10362227D01*
Y10397773D01*
X2175799Y10432108D01*
X2158026Y10462892D01*
X2132891Y10488027D01*
X2102108Y10505800D01*
X2067773Y10515000D01*
X2032226D01*
X1997891Y10505800D01*
X1967108Y10488027D01*
X1941973Y10462892D01*
X1924200Y10432108D01*
X1914999Y10397773D01*
Y10362227D01*
X1924200Y10327892D01*
X1941973Y10297108D01*
X1967108Y10271974D01*
X1997891Y10254200D01*
X2032226Y10245000D01*
X2031045Y10225490D01*
X1640782D01*
Y11200000D01*
X2374510D01*
X2376451Y11190246D01*
X2381976Y11181976D01*
X2390246Y11176451D01*
X2400000Y11174510D01*
X2694510D01*
X2694510Y10700000D01*
X2696451Y10690246D01*
X2701976Y10681976D01*
X2710246Y10676451D01*
X2720000Y10674510D01*
X2980000D01*
X2989754Y10676451D01*
X2998024Y10681976D01*
X3003549Y10690246D01*
X3005490Y10700000D01*
Y11612457D01*
X3006184Y11615048D01*
Y11632163D01*
X3005490Y11634753D01*
Y11712457D01*
X3006184Y11715048D01*
Y11732163D01*
X3005490Y11734754D01*
Y11802457D01*
X3006184Y11805048D01*
Y11822163D01*
X3005490Y11824754D01*
Y11892457D01*
X3006184Y11895048D01*
Y11912163D01*
X3005490Y11914753D01*
Y11950000D01*
X3013067Y11959233D01*
X4410858Y11959253D01*
X4425000Y11945111D01*
D02*
G37*
G36*
X4434287Y10193669D02*
X4440351Y10181665D01*
X4441570Y10180000D01*
X4441439Y10179510D01*
X4437500Y10164811D01*
Y10135189D01*
X4445167Y10106577D01*
X4459978Y10080923D01*
X4480923Y10059978D01*
X4506577Y10045167D01*
X4535189Y10037500D01*
X4564811D01*
X4593423Y10045167D01*
X4619077Y10059978D01*
X4640022Y10080923D01*
X4654833Y10106577D01*
X4662500Y10135189D01*
Y10164811D01*
X4658430Y10180000D01*
X4673078Y10200000D01*
X4700000D01*
Y9860000D01*
X4960000D01*
Y9600000D01*
X4700000D01*
Y6900490D01*
X3950000D01*
Y9525000D01*
X1640782D01*
Y10200000D01*
X3126923D01*
X3141570Y10180000D01*
X3137500Y10164811D01*
Y10135189D01*
X3145167Y10106577D01*
X3159978Y10080923D01*
X3180924Y10059978D01*
X3206577Y10045167D01*
X3235189Y10037500D01*
X3264811D01*
X3293423Y10045167D01*
X3319077Y10059978D01*
X3340023Y10080923D01*
X3354833Y10106577D01*
X3362500Y10135189D01*
Y10164811D01*
X3358430Y10180000D01*
X3373078Y10200000D01*
X4426923D01*
X4427227Y10200060D01*
X4434287Y10193669D01*
D02*
G37*
G36*
X2950000Y8672096D02*
X2936822Y8658918D01*
X2933539Y8654005D01*
X2930089Y8652013D01*
X2917987Y8639911D01*
X2909430Y8625089D01*
X2905000Y8608558D01*
Y8591443D01*
X2909430Y8574911D01*
X2917987Y8560089D01*
X2930089Y8547987D01*
X2944911Y8539430D01*
X2961442Y8535000D01*
X2978557D01*
X2995089Y8539430D01*
X3009911Y8547987D01*
X3022013Y8560089D01*
X3030570Y8574911D01*
X3035000Y8591443D01*
Y8608557D01*
X3036107Y8610000D01*
X3140000D01*
Y8070000D01*
X1640782D01*
Y9499510D01*
X2950000D01*
Y8672096D01*
D02*
G37*
G36*
X3924195Y6900805D02*
X3924064Y6900490D01*
X3175000D01*
Y9032219D01*
X3924195D01*
Y6900805D01*
D02*
G37*
G36*
X3149510Y6900490D02*
X1640782D01*
Y8025000D01*
X3149510D01*
Y6900490D01*
D02*
G37*
G36*
X3924510Y6075000D02*
X3765078D01*
X3762617Y6075490D01*
X3537383D01*
X3534922Y6075000D01*
X3365078D01*
X3362617Y6075490D01*
X3309979D01*
X3298432Y6095490D01*
X3304833Y6106577D01*
X3312500Y6135189D01*
Y6164811D01*
X3304833Y6193423D01*
X3290022Y6219077D01*
X3269077Y6240023D01*
X3243423Y6254833D01*
X3214811Y6262500D01*
X3185189D01*
X3156577Y6254833D01*
X3130923Y6240023D01*
X3109978Y6219077D01*
X3095167Y6193423D01*
X3087500Y6164811D01*
Y6135189D01*
X3095167Y6106577D01*
X3101568Y6095490D01*
X3090021Y6075490D01*
X2265681D01*
X2260322Y6095490D01*
X2262892Y6096974D01*
X2288027Y6122108D01*
X2305800Y6152892D01*
X2315000Y6187227D01*
Y6222773D01*
X2305800Y6257108D01*
X2288027Y6287892D01*
X2262892Y6313027D01*
X2232108Y6330800D01*
X2197773Y6340000D01*
X2162227D01*
X2127892Y6330800D01*
X2097108Y6313027D01*
X2071974Y6287892D01*
X2054200Y6257108D01*
X2045000Y6222773D01*
Y6187227D01*
X2054200Y6152892D01*
X2071974Y6122108D01*
X2097108Y6096974D01*
X2099678Y6095490D01*
X2094319Y6075490D01*
X1640782D01*
Y6875000D01*
X3924510D01*
Y6075000D01*
D02*
G37*
G36*
X4725000Y5425000D02*
X1640782D01*
Y6050000D01*
X3148205D01*
X3156577Y6045167D01*
X3185189Y6037500D01*
X3214811D01*
X3243423Y6045167D01*
X3251795Y6050000D01*
X3362617D01*
X3370901Y6030000D01*
X3359978Y6019077D01*
X3345167Y5993423D01*
X3337500Y5964811D01*
Y5935189D01*
X3345167Y5906577D01*
X3359978Y5880923D01*
X3380923Y5859978D01*
X3406577Y5845167D01*
X3435189Y5837500D01*
X3464811D01*
X3493423Y5845167D01*
X3519077Y5859978D01*
X3540022Y5880923D01*
X3554833Y5906577D01*
X3562500Y5935189D01*
Y5964811D01*
X3554833Y5993423D01*
X3540022Y6019077D01*
X3529099Y6030000D01*
X3537383Y6050000D01*
X3762617D01*
X3770901Y6030000D01*
X3759977Y6019077D01*
X3745167Y5993423D01*
X3737500Y5964811D01*
Y5935189D01*
X3745167Y5906577D01*
X3759977Y5880923D01*
X3780923Y5859978D01*
X3806577Y5845167D01*
X3835189Y5837500D01*
X3864811D01*
X3893423Y5845167D01*
X3919076Y5859978D01*
X3940022Y5880923D01*
X3954833Y5906577D01*
X3962500Y5935189D01*
Y5964811D01*
X3954833Y5993423D01*
X3940022Y6019077D01*
X3929099Y6030000D01*
X3937383Y6050000D01*
X3950000D01*
Y6875000D01*
X4725000D01*
Y5425000D01*
D02*
G37*
G36*
X14550000Y4930979D02*
X14549020Y4930000D01*
X14559218D01*
Y2800000D01*
X13800000D01*
Y2050000D01*
X6779850D01*
X6775089Y2069430D01*
X6789911Y2077987D01*
X6793493Y2081570D01*
X6830000D01*
X6842567Y2084069D01*
X6897500D01*
X6902178Y2085000D01*
X7030000D01*
Y2265000D01*
X6850000D01*
Y2187670D01*
X6832499Y2180931D01*
X6819932Y2178430D01*
X6793493D01*
X6789911Y2182013D01*
X6775089Y2190570D01*
X6758557Y2195000D01*
X6741442D01*
X6724911Y2190570D01*
X6710089Y2182013D01*
X6697987Y2169911D01*
X6689430Y2155089D01*
X6685000Y2138558D01*
Y2121443D01*
X6689430Y2104911D01*
X6697987Y2090089D01*
X6710089Y2077987D01*
X6724911Y2069430D01*
X6720150Y2050000D01*
X4420000D01*
X4413243Y2794743D01*
X4413549Y2795202D01*
X4413877Y2796850D01*
X4414621Y2798358D01*
X4414839Y2801685D01*
X4415490Y2804956D01*
Y2848520D01*
X4416481Y2849510D01*
X4819198D01*
X4827483Y2829510D01*
X4813979Y2816007D01*
X4799826Y2791494D01*
X4792500Y2764153D01*
Y2735847D01*
X4799826Y2708507D01*
X4813979Y2683994D01*
X4833994Y2663979D01*
X4858507Y2649826D01*
X4885847Y2642500D01*
X4914153D01*
X4941494Y2649826D01*
X4966007Y2663979D01*
X4986022Y2683994D01*
X5000174Y2708507D01*
X5007500Y2735847D01*
Y2764153D01*
X5000174Y2791494D01*
X4986022Y2816007D01*
X4972518Y2829510D01*
X4980802Y2849510D01*
X5860000D01*
X5862460Y2850000D01*
X9667500D01*
Y2775500D01*
X9882500D01*
Y2850000D01*
X13100000D01*
Y2852104D01*
X13108025Y2857466D01*
X13113548Y2865735D01*
X13115491Y2875490D01*
Y3410000D01*
X13580901D01*
X13580923Y3409978D01*
X13606577Y3395167D01*
X13635188Y3387500D01*
X13664812D01*
X13693423Y3395167D01*
X13719077Y3409978D01*
X13719099Y3410000D01*
X13754832D01*
Y3456577D01*
X13762500Y3485189D01*
Y3514811D01*
X13754832Y3543423D01*
Y3706577D01*
X13762500Y3735189D01*
Y3764811D01*
X13754832Y3793423D01*
Y3956577D01*
X13762500Y3985189D01*
Y4014811D01*
X13754832Y4043423D01*
Y4206577D01*
X13762500Y4235189D01*
Y4264811D01*
X13754832Y4293423D01*
Y4359262D01*
X13773311Y4366916D01*
X13884094Y4256132D01*
Y4125000D01*
X13887703Y4097590D01*
X13898283Y4072047D01*
X13915112Y4050113D01*
X13937047Y4033283D01*
X13962590Y4022703D01*
X13989999Y4019094D01*
X14017410Y4022703D01*
X14042953Y4033283D01*
X14064886Y4050113D01*
X14081717Y4072047D01*
X14092297Y4097590D01*
X14095906Y4125000D01*
Y4300000D01*
X14092297Y4327410D01*
X14081717Y4352953D01*
X14064886Y4374887D01*
X14064886Y4374888D01*
X13754832Y4684941D01*
Y4930000D01*
X14389999D01*
Y8500000D01*
X14550000D01*
Y4930979D01*
D02*
G37*
G36*
X2900000Y4725000D02*
X2960000D01*
Y4660000D01*
X2999020D01*
Y4630944D01*
X2997987Y4629911D01*
X2989430Y4615089D01*
X2985000Y4598557D01*
Y4581442D01*
X2989430Y4564911D01*
X2997987Y4550089D01*
X3010089Y4537987D01*
X3024911Y4529430D01*
X3041442Y4525000D01*
X3058558D01*
X3075089Y4529430D01*
X3089911Y4537987D01*
X3102013Y4550089D01*
X3110570Y4564911D01*
X3115000Y4581442D01*
Y4598557D01*
X3110570Y4615089D01*
X3102013Y4629911D01*
X3100980Y4630944D01*
Y4660000D01*
X3140000D01*
Y4725000D01*
X3301569D01*
Y4103493D01*
X3297987Y4099911D01*
X3289430Y4085089D01*
X3285000Y4068558D01*
Y4051442D01*
X3289430Y4034911D01*
X3297987Y4020089D01*
X3310089Y4007987D01*
X3324911Y3999430D01*
X3341442Y3995000D01*
X3350000D01*
Y3305183D01*
X3346728Y3292974D01*
Y3275859D01*
X3350000Y3263650D01*
Y2850000D01*
X4074510D01*
Y2480000D01*
X2900490D01*
Y3825000D01*
X2898549Y3834754D01*
X2893024Y3843024D01*
X2884754Y3848549D01*
X2875000Y3850490D01*
X1640782D01*
Y4700000D01*
Y5399510D01*
X2900000D01*
Y4725000D01*
D02*
G37*
G36*
X2875000Y2450000D02*
X4100000D01*
Y2850000D01*
X4390000D01*
Y2804956D01*
X4385436Y2802321D01*
X4373334Y2790219D01*
X4364777Y2775397D01*
X4360347Y2758866D01*
Y2741751D01*
X4364777Y2725219D01*
X4373334Y2710397D01*
X4378423Y2705308D01*
X4373334Y2700219D01*
X4364777Y2685397D01*
X4360347Y2668866D01*
Y2651751D01*
X4364777Y2635219D01*
X4373334Y2620397D01*
X4381369Y2612362D01*
X4376562Y2607555D01*
X4368005Y2592733D01*
X4363575Y2576201D01*
Y2559086D01*
X4368005Y2542555D01*
X4376562Y2527733D01*
X4381651Y2522644D01*
X4376562Y2517555D01*
X4368005Y2502733D01*
X4363575Y2486202D01*
Y2469087D01*
X4368005Y2452555D01*
X4376562Y2437733D01*
X4384282Y2430013D01*
X4374750Y2420482D01*
X4366193Y2405660D01*
X4361763Y2389129D01*
Y2372014D01*
X4366193Y2355482D01*
X4374750Y2340661D01*
X4379840Y2335571D01*
X4374750Y2330482D01*
X4366193Y2315661D01*
X4361763Y2299129D01*
Y2282014D01*
X4366193Y2265482D01*
X4374750Y2250661D01*
X4379840Y2245571D01*
X4374750Y2240482D01*
X4366193Y2225661D01*
X4361763Y2209129D01*
Y2192014D01*
X4366193Y2175482D01*
X4374750Y2160661D01*
X4384840Y2150571D01*
X4374750Y2140482D01*
X4366193Y2125660D01*
X4361763Y2109129D01*
Y2092014D01*
X4366193Y2075482D01*
X4374750Y2060661D01*
X4366344Y2040783D01*
X2400000D01*
X2400000Y2800000D01*
X1640782D01*
Y3825000D01*
X2875000D01*
Y2450000D01*
D02*
G37*
%LPC*%
G36*
X10838166Y11800000D02*
X10811835D01*
X10786402Y11793185D01*
X10763599Y11780020D01*
X10744981Y11761401D01*
X10731815Y11738598D01*
X10725000Y11713165D01*
Y11686835D01*
X10731815Y11661402D01*
X10744981Y11638599D01*
X10763599Y11619980D01*
X10786402Y11606815D01*
X10811835Y11600000D01*
X10838166D01*
X10863599Y11606815D01*
X10886401Y11619980D01*
X10905020Y11638599D01*
X10918185Y11661402D01*
X10925000Y11686835D01*
Y11713165D01*
X10918185Y11738598D01*
X10905020Y11761401D01*
X10886401Y11780020D01*
X10863599Y11793185D01*
X10838166Y11800000D01*
D02*
G37*
G36*
X10588166D02*
X10561835D01*
X10536402Y11793185D01*
X10513599Y11780020D01*
X10494981Y11761401D01*
X10481815Y11738598D01*
X10475000Y11713165D01*
Y11686835D01*
X10481815Y11661402D01*
X10494981Y11638599D01*
X10513599Y11619980D01*
X10536402Y11606815D01*
X10561835Y11600000D01*
X10588166D01*
X10613599Y11606815D01*
X10636401Y11619980D01*
X10655020Y11638599D01*
X10668185Y11661402D01*
X10675000Y11686835D01*
Y11713165D01*
X10668185Y11738598D01*
X10655020Y11761401D01*
X10636401Y11780020D01*
X10613599Y11793185D01*
X10588166Y11800000D01*
D02*
G37*
G36*
X10338166D02*
X10311835D01*
X10286402Y11793185D01*
X10263599Y11780020D01*
X10244981Y11761401D01*
X10231815Y11738598D01*
X10225000Y11713165D01*
Y11686835D01*
X10231815Y11661402D01*
X10244981Y11638599D01*
X10263599Y11619980D01*
X10286402Y11606815D01*
X10311835Y11600000D01*
X10338166D01*
X10363599Y11606815D01*
X10386401Y11619980D01*
X10405020Y11638599D01*
X10418185Y11661402D01*
X10425000Y11686835D01*
Y11713165D01*
X10418185Y11738598D01*
X10405020Y11761401D01*
X10386401Y11780020D01*
X10363599Y11793185D01*
X10338166Y11800000D01*
D02*
G37*
G36*
X10088165D02*
X10061835D01*
X10036402Y11793185D01*
X10013599Y11780020D01*
X9994981Y11761401D01*
X9981815Y11738598D01*
X9975000Y11713165D01*
Y11686835D01*
X9981815Y11661402D01*
X9994981Y11638599D01*
X10013599Y11619980D01*
X10036402Y11606815D01*
X10061835Y11600000D01*
X10088165D01*
X10113599Y11606815D01*
X10136401Y11619980D01*
X10155020Y11638599D01*
X10168185Y11661402D01*
X10175000Y11686835D01*
Y11713165D01*
X10168185Y11738598D01*
X10155020Y11761401D01*
X10136401Y11780020D01*
X10113599Y11793185D01*
X10088165Y11800000D01*
D02*
G37*
G36*
X9925000D02*
X9725000D01*
Y11600000D01*
X9925000D01*
Y11800000D01*
D02*
G37*
G36*
X9288165D02*
X9261835D01*
X9236402Y11793185D01*
X9213599Y11780020D01*
X9194980Y11761401D01*
X9181815Y11738598D01*
X9175000Y11713165D01*
Y11686835D01*
X9181815Y11661402D01*
X9194980Y11638599D01*
X9213599Y11619980D01*
X9236402Y11606815D01*
X9261835Y11600000D01*
X9288165D01*
X9313598Y11606815D01*
X9336401Y11619980D01*
X9355020Y11638599D01*
X9368185Y11661402D01*
X9375000Y11686835D01*
Y11713165D01*
X9368185Y11738598D01*
X9355020Y11761401D01*
X9336401Y11780020D01*
X9313598Y11793185D01*
X9288165Y11800000D01*
D02*
G37*
G36*
X9038165D02*
X9011835D01*
X8986402Y11793185D01*
X8963599Y11780020D01*
X8944980Y11761401D01*
X8931815Y11738598D01*
X8925000Y11713165D01*
Y11686835D01*
X8931815Y11661402D01*
X8944980Y11638599D01*
X8963599Y11619980D01*
X8986402Y11606815D01*
X9011835Y11600000D01*
X9038165D01*
X9063598Y11606815D01*
X9086401Y11619980D01*
X9105020Y11638599D01*
X9118185Y11661402D01*
X9125000Y11686835D01*
Y11713165D01*
X9118185Y11738598D01*
X9105020Y11761401D01*
X9086401Y11780020D01*
X9063598Y11793185D01*
X9038165Y11800000D01*
D02*
G37*
G36*
X8788165D02*
X8761835D01*
X8736402Y11793185D01*
X8713599Y11780020D01*
X8694980Y11761401D01*
X8681815Y11738598D01*
X8675000Y11713165D01*
Y11686835D01*
X8681815Y11661402D01*
X8694980Y11638599D01*
X8713599Y11619980D01*
X8736402Y11606815D01*
X8761835Y11600000D01*
X8788165D01*
X8813598Y11606815D01*
X8836401Y11619980D01*
X8855020Y11638599D01*
X8868185Y11661402D01*
X8875000Y11686835D01*
Y11713165D01*
X8868185Y11738598D01*
X8855020Y11761401D01*
X8836401Y11780020D01*
X8813598Y11793185D01*
X8788165Y11800000D01*
D02*
G37*
G36*
X8538165D02*
X8511835D01*
X8486402Y11793185D01*
X8463599Y11780020D01*
X8444980Y11761401D01*
X8431815Y11738598D01*
X8425000Y11713165D01*
Y11686835D01*
X8431815Y11661402D01*
X8444980Y11638599D01*
X8463599Y11619980D01*
X8486402Y11606815D01*
X8511835Y11600000D01*
X8538165D01*
X8563598Y11606815D01*
X8586401Y11619980D01*
X8605020Y11638599D01*
X8618185Y11661402D01*
X8625000Y11686835D01*
Y11713165D01*
X8618185Y11738598D01*
X8605020Y11761401D01*
X8586401Y11780020D01*
X8563598Y11793185D01*
X8538165Y11800000D01*
D02*
G37*
G36*
X8375000D02*
X8175000D01*
Y11600000D01*
X8375000D01*
Y11800000D01*
D02*
G37*
G36*
X5118557Y11725000D02*
X5101442D01*
X5084911Y11720570D01*
X5070089Y11712013D01*
X5057987Y11699911D01*
X5049430Y11685089D01*
X5045000Y11668558D01*
Y11651443D01*
X5049430Y11634911D01*
X5057987Y11620089D01*
X5070089Y11607987D01*
X5084911Y11599430D01*
X5101442Y11595000D01*
X5118557D01*
X5135089Y11599430D01*
X5149911Y11607987D01*
X5162013Y11620089D01*
X5170570Y11634911D01*
X5175000Y11651443D01*
Y11668558D01*
X5170570Y11685089D01*
X5170032Y11686021D01*
X5170000Y11686076D01*
D01*
X5162013Y11699911D01*
X5149911Y11712013D01*
X5135089Y11720570D01*
X5118557Y11725000D01*
D02*
G37*
G36*
X7464153Y11732500D02*
X7435847D01*
X7408507Y11725174D01*
X7383994Y11711022D01*
X7363979Y11691007D01*
X7349826Y11666494D01*
X7342500Y11639153D01*
Y11610847D01*
X7349826Y11583507D01*
X7363979Y11558994D01*
X7383994Y11538979D01*
X7408507Y11524826D01*
X7435847Y11517500D01*
X7464153D01*
X7491494Y11524826D01*
X7516007Y11538979D01*
X7536022Y11558994D01*
X7550174Y11583507D01*
X7557500Y11610847D01*
Y11639153D01*
X7550174Y11666494D01*
X7536022Y11691007D01*
X7516007Y11711022D01*
X7491494Y11725174D01*
X7464153Y11732500D01*
D02*
G37*
G36*
X7210153D02*
X7181847D01*
X7154507Y11725174D01*
X7129994Y11711022D01*
X7109979Y11691007D01*
X7095826Y11666494D01*
X7088500Y11639153D01*
Y11610847D01*
X7095826Y11583507D01*
X7109979Y11558994D01*
X7129994Y11538979D01*
X7154507Y11524826D01*
X7181847Y11517500D01*
X7210153D01*
X7237494Y11524826D01*
X7262007Y11538979D01*
X7282022Y11558994D01*
X7296174Y11583507D01*
X7303500Y11610847D01*
Y11639153D01*
X7296174Y11666494D01*
X7282022Y11691007D01*
X7262007Y11711022D01*
X7237494Y11725174D01*
X7210153Y11732500D01*
D02*
G37*
G36*
X6693153Y11707500D02*
X6664847D01*
X6637507Y11700174D01*
X6612994Y11686021D01*
X6592979Y11666006D01*
X6578826Y11641493D01*
X6571500Y11614153D01*
Y11585847D01*
X6578826Y11558506D01*
X6592979Y11533993D01*
X6612994Y11513978D01*
X6637507Y11499826D01*
X6664847Y11492500D01*
X6693153D01*
X6720494Y11499826D01*
X6745007Y11513978D01*
X6765022Y11533993D01*
X6779174Y11558506D01*
X6786500Y11585847D01*
Y11614153D01*
X6779174Y11641493D01*
X6765022Y11666006D01*
X6745007Y11686021D01*
X6720494Y11700174D01*
X6693153Y11707500D01*
D02*
G37*
G36*
X6439153D02*
X6410847D01*
X6383507Y11700174D01*
X6358994Y11686021D01*
X6338979Y11666006D01*
X6324826Y11641493D01*
X6317500Y11614153D01*
Y11585847D01*
X6324826Y11558506D01*
X6338979Y11533993D01*
X6358994Y11513978D01*
X6383507Y11499826D01*
X6410847Y11492500D01*
X6439153D01*
X6466494Y11499826D01*
X6491007Y11513978D01*
X6511022Y11533993D01*
X6525174Y11558506D01*
X6532500Y11585847D01*
Y11614153D01*
X6525174Y11641493D01*
X6511022Y11666006D01*
X6491007Y11686021D01*
X6466494Y11700174D01*
X6439153Y11707500D01*
D02*
G37*
G36*
X6278500D02*
X6063500D01*
Y11492500D01*
X6278500D01*
Y11707500D01*
D02*
G37*
G36*
X5585000Y11635000D02*
X5315000D01*
Y11365000D01*
X5585000D01*
Y11635000D01*
D02*
G37*
G36*
X4967773D02*
X4932227D01*
X4897892Y11625800D01*
X4867108Y11608027D01*
X4841973Y11582892D01*
X4824200Y11552108D01*
X4815000Y11517773D01*
Y11482227D01*
X4824200Y11447892D01*
X4841973Y11417108D01*
X4867108Y11391973D01*
X4897892Y11374200D01*
X4932227Y11365000D01*
X4967773D01*
X5002108Y11374200D01*
X5032892Y11391973D01*
X5058027Y11417108D01*
X5075800Y11447892D01*
X5085000Y11482227D01*
Y11517773D01*
X5075800Y11552108D01*
X5058027Y11582892D01*
X5032892Y11608027D01*
X5002108Y11625800D01*
X4967773Y11635000D01*
D02*
G37*
G36*
X5718558Y11425000D02*
X5701442D01*
X5684911Y11420570D01*
X5670089Y11412013D01*
X5657987Y11399911D01*
X5649430Y11385089D01*
X5645000Y11368557D01*
Y11351442D01*
X5649430Y11334911D01*
X5657987Y11320089D01*
X5670089Y11307987D01*
X5684911Y11299430D01*
X5701442Y11295000D01*
X5718558D01*
X5735089Y11299430D01*
X5749911Y11307987D01*
X5762013Y11320089D01*
X5770570Y11334911D01*
X5775000Y11351442D01*
Y11368557D01*
X5770570Y11385089D01*
X5762013Y11399911D01*
X5749911Y11412013D01*
X5735089Y11420570D01*
X5718558Y11425000D01*
D02*
G37*
G36*
X7464153Y11382500D02*
X7435847D01*
X7408507Y11375174D01*
X7383994Y11361021D01*
X7363979Y11341007D01*
X7349826Y11316493D01*
X7342500Y11289153D01*
Y11260847D01*
X7349826Y11233507D01*
X7363979Y11208994D01*
X7383994Y11188979D01*
X7408507Y11174826D01*
X7435847Y11167500D01*
X7464153D01*
X7491494Y11174826D01*
X7516007Y11188979D01*
X7536022Y11208994D01*
X7550174Y11233507D01*
X7557500Y11260847D01*
Y11289153D01*
X7550174Y11316493D01*
X7536022Y11341007D01*
X7516007Y11361021D01*
X7491494Y11375174D01*
X7464153Y11382500D01*
D02*
G37*
G36*
X7210153D02*
X7181847D01*
X7154507Y11375174D01*
X7129994Y11361021D01*
X7109979Y11341007D01*
X7095826Y11316493D01*
X7088500Y11289153D01*
Y11260847D01*
X7095826Y11233507D01*
X7109979Y11208994D01*
X7129994Y11188979D01*
X7154507Y11174826D01*
X7181847Y11167500D01*
X7210153D01*
X7237494Y11174826D01*
X7262007Y11188979D01*
X7282022Y11208994D01*
X7296174Y11233507D01*
X7303500Y11260847D01*
Y11289153D01*
X7296174Y11316493D01*
X7282022Y11341007D01*
X7262007Y11361021D01*
X7237494Y11375174D01*
X7210153Y11382500D01*
D02*
G37*
G36*
X4982500Y10361500D02*
X4767500D01*
Y10146500D01*
X4982500D01*
Y10361500D01*
D02*
G37*
G36*
X5070000Y9260000D02*
X4870000D01*
Y9060000D01*
X5070000D01*
Y9260000D01*
D02*
G37*
G36*
X4983165Y9010000D02*
X4956835D01*
X4931402Y9003185D01*
X4908599Y8990020D01*
X4889980Y8971401D01*
X4876815Y8948598D01*
X4870000Y8923165D01*
Y8896835D01*
X4876815Y8871402D01*
X4889980Y8848599D01*
X4908599Y8829980D01*
X4931402Y8816815D01*
X4956835Y8810000D01*
X4983165D01*
X5008598Y8816815D01*
X5031401Y8829980D01*
X5050020Y8848599D01*
X5063185Y8871402D01*
X5070000Y8896835D01*
Y8923165D01*
X5063185Y8948598D01*
X5050020Y8971401D01*
X5031401Y8990020D01*
X5008598Y9003185D01*
X4983165Y9010000D01*
D02*
G37*
G36*
Y8760000D02*
X4956835D01*
X4931402Y8753185D01*
X4908599Y8740020D01*
X4889980Y8721401D01*
X4876815Y8698598D01*
X4870000Y8673165D01*
Y8646835D01*
X4876815Y8621402D01*
X4889980Y8598599D01*
X4908599Y8579980D01*
X4931402Y8566815D01*
X4956835Y8560000D01*
X4983165D01*
X5008598Y8566815D01*
X5031401Y8579980D01*
X5050020Y8598599D01*
X5063185Y8621402D01*
X5070000Y8646835D01*
Y8673165D01*
X5063185Y8698598D01*
X5050020Y8721401D01*
X5031401Y8740020D01*
X5008598Y8753185D01*
X4983165Y8760000D01*
D02*
G37*
G36*
X5118557Y4715000D02*
X5101442D01*
X5084911Y4710570D01*
X5070089Y4702013D01*
X5057987Y4689911D01*
X5049430Y4675089D01*
X5045000Y4658558D01*
Y4641443D01*
X5049430Y4624911D01*
X5057987Y4610089D01*
X5070089Y4597987D01*
X5084911Y4589430D01*
X5101442Y4585000D01*
X5118557D01*
X5135089Y4589430D01*
X5149911Y4597987D01*
X5162013Y4610089D01*
X5170570Y4624911D01*
X5175000Y4641443D01*
Y4658558D01*
X5170570Y4675089D01*
X5162013Y4689911D01*
X5149911Y4702013D01*
X5135089Y4710570D01*
X5118557Y4715000D01*
D02*
G37*
G36*
X4985000Y4635000D02*
X4715000D01*
Y4365000D01*
X4985000D01*
Y4635000D01*
D02*
G37*
G36*
X7811500Y11032500D02*
X7596500D01*
Y10817500D01*
X7811500D01*
Y11032500D01*
D02*
G37*
G36*
X7464153D02*
X7435847D01*
X7408507Y11025174D01*
X7383994Y11011021D01*
X7363979Y10991006D01*
X7349826Y10966493D01*
X7342500Y10939153D01*
Y10910847D01*
X7349826Y10883507D01*
X7363979Y10858994D01*
X7383994Y10838979D01*
X7408507Y10824826D01*
X7435847Y10817500D01*
X7464153D01*
X7491494Y10824826D01*
X7516007Y10838979D01*
X7536022Y10858994D01*
X7550174Y10883507D01*
X7557500Y10910847D01*
Y10939153D01*
X7550174Y10966493D01*
X7536022Y10991006D01*
X7516007Y11011021D01*
X7491494Y11025174D01*
X7464153Y11032500D01*
D02*
G37*
G36*
X14532500Y10912500D02*
X14307500D01*
Y10687500D01*
X14532500D01*
Y10912500D01*
D02*
G37*
G36*
X14180811D02*
X14151189D01*
X14122577Y10904833D01*
X14096924Y10890022D01*
X14075978Y10869077D01*
X14061166Y10843423D01*
X14053500Y10814811D01*
Y10785189D01*
X14061166Y10756577D01*
X14075978Y10730923D01*
X14096924Y10709978D01*
X14122577Y10695167D01*
X14151189Y10687500D01*
X14180811D01*
X14209422Y10695167D01*
X14235077Y10709978D01*
X14256023Y10730923D01*
X14270833Y10756577D01*
X14278500Y10785189D01*
Y10814811D01*
X14270833Y10843423D01*
X14256023Y10869077D01*
X14235077Y10890022D01*
X14209422Y10904833D01*
X14180811Y10912500D01*
D02*
G37*
G36*
X13926811D02*
X13897189D01*
X13868578Y10904833D01*
X13842924Y10890022D01*
X13821979Y10869077D01*
X13807167Y10843423D01*
X13799500Y10814811D01*
Y10785189D01*
X13807167Y10756577D01*
X13821979Y10730923D01*
X13842924Y10709978D01*
X13868578Y10695167D01*
X13897189Y10687500D01*
X13926811D01*
X13955423Y10695167D01*
X13981078Y10709978D01*
X14002023Y10730923D01*
X14016833Y10756577D01*
X14024500Y10785189D01*
Y10814811D01*
X14016833Y10843423D01*
X14002023Y10869077D01*
X13981078Y10890022D01*
X13955423Y10904833D01*
X13926811Y10912500D01*
D02*
G37*
G36*
X13672810D02*
X13643188D01*
X13614577Y10904833D01*
X13588924Y10890022D01*
X13567978Y10869077D01*
X13553168Y10843423D01*
X13545500Y10814811D01*
Y10785189D01*
X13553168Y10756577D01*
X13567978Y10730923D01*
X13588924Y10709978D01*
X13614577Y10695167D01*
X13643188Y10687500D01*
X13672810D01*
X13701424Y10695167D01*
X13727077Y10709978D01*
X13748022Y10730923D01*
X13762833Y10756577D01*
X13770500Y10785189D01*
Y10814811D01*
X13762833Y10843423D01*
X13748022Y10869077D01*
X13727077Y10890022D01*
X13701424Y10904833D01*
X13672810Y10912500D01*
D02*
G37*
G36*
X13418811D02*
X13389189D01*
X13360577Y10904833D01*
X13334924Y10890022D01*
X13313979Y10869077D01*
X13299167Y10843423D01*
X13291499Y10814811D01*
Y10785189D01*
X13299167Y10756577D01*
X13313979Y10730923D01*
X13334924Y10709978D01*
X13360577Y10695167D01*
X13389189Y10687500D01*
X13418811D01*
X13447423Y10695167D01*
X13473077Y10709978D01*
X13494023Y10730923D01*
X13508833Y10756577D01*
X13516499Y10785189D01*
Y10814811D01*
X13508833Y10843423D01*
X13494023Y10869077D01*
X13473077Y10890022D01*
X13447423Y10904833D01*
X13418811Y10912500D01*
D02*
G37*
G36*
X13164812D02*
X13135188D01*
X13106577Y10904833D01*
X13080923Y10890022D01*
X13059978Y10869077D01*
X13045168Y10843423D01*
X13037500Y10814811D01*
Y10785189D01*
X13045168Y10756577D01*
X13059978Y10730923D01*
X13080923Y10709978D01*
X13106577Y10695167D01*
X13135188Y10687500D01*
X13164812D01*
X13193423Y10695167D01*
X13219077Y10709978D01*
X13240022Y10730923D01*
X13254832Y10756577D01*
X13262500Y10785189D01*
Y10814811D01*
X13254832Y10843423D01*
X13240022Y10869077D01*
X13219077Y10890022D01*
X13193423Y10904833D01*
X13164812Y10912500D01*
D02*
G37*
G36*
X8168557Y10855000D02*
X8151442D01*
X8134911Y10850570D01*
X8120089Y10842013D01*
X8107987Y10829911D01*
X8099430Y10815089D01*
X8095000Y10798558D01*
Y10781442D01*
X8099430Y10764911D01*
X8107987Y10750089D01*
X8120089Y10737987D01*
X8134911Y10729430D01*
X8151442Y10725000D01*
X8168557D01*
X8189430Y10714911D01*
X8191333Y10711615D01*
X8197987Y10700089D01*
X8210089Y10687987D01*
X8224911Y10679430D01*
X8241442Y10675000D01*
X8258558D01*
X8275089Y10679430D01*
X8289911Y10687987D01*
X8300000Y10698077D01*
X8310089Y10687987D01*
X8324911Y10679430D01*
X8341443Y10675000D01*
X8358558D01*
X8375089Y10679430D01*
X8389911Y10687987D01*
X8402013Y10700089D01*
X8410570Y10714911D01*
X8415000Y10731443D01*
Y10748558D01*
X8410570Y10765089D01*
X8402013Y10779911D01*
X8389911Y10792013D01*
X8375089Y10800570D01*
X8358558Y10805000D01*
X8341443D01*
X8324911Y10800570D01*
X8310089Y10792013D01*
X8300000Y10781924D01*
X8289911Y10792013D01*
X8275089Y10800570D01*
X8258558Y10805000D01*
X8241443D01*
X8220570Y10815089D01*
X8218667Y10818385D01*
X8212013Y10829911D01*
X8199911Y10842013D01*
X8185089Y10850570D01*
X8168557Y10855000D01*
D02*
G37*
G36*
X11304153Y10743500D02*
X11275847D01*
X11248507Y10736174D01*
X11223994Y10722021D01*
X11203979Y10702007D01*
X11189826Y10677494D01*
X11182500Y10650153D01*
Y10621847D01*
X11189826Y10594507D01*
X11203979Y10569994D01*
X11223994Y10549979D01*
X11248507Y10535826D01*
X11275847Y10528500D01*
X11304153D01*
X11331493Y10535826D01*
X11356006Y10549979D01*
X11376021Y10569994D01*
X11390174Y10594507D01*
X11397500Y10621847D01*
Y10650153D01*
X11390174Y10677494D01*
X11376021Y10702007D01*
X11356006Y10722021D01*
X11331493Y10736174D01*
X11304153Y10743500D01*
D02*
G37*
G36*
X9288165Y10550000D02*
X9261835D01*
X9236402Y10543185D01*
X9213599Y10530020D01*
X9194980Y10511401D01*
X9181815Y10488598D01*
X9175000Y10463165D01*
Y10436835D01*
X9181815Y10411402D01*
X9194980Y10388599D01*
X9213599Y10369980D01*
X9236402Y10356815D01*
X9261835Y10350000D01*
X9288165D01*
X9313598Y10356815D01*
X9336401Y10369980D01*
X9355020Y10388599D01*
X9368185Y10411402D01*
X9375000Y10436835D01*
Y10463165D01*
X9368185Y10488598D01*
X9355020Y10511401D01*
X9336401Y10530020D01*
X9313598Y10543185D01*
X9288165Y10550000D01*
D02*
G37*
G36*
X9038165D02*
X9011835D01*
X8986402Y10543185D01*
X8963599Y10530020D01*
X8944980Y10511401D01*
X8931815Y10488598D01*
X8925000Y10463165D01*
Y10436835D01*
X8931815Y10411402D01*
X8944980Y10388599D01*
X8963599Y10369980D01*
X8986402Y10356815D01*
X9011835Y10350000D01*
X9038165D01*
X9063598Y10356815D01*
X9086401Y10369980D01*
X9105020Y10388599D01*
X9118185Y10411402D01*
X9125000Y10436835D01*
Y10463165D01*
X9118185Y10488598D01*
X9105020Y10511401D01*
X9086401Y10530020D01*
X9063598Y10543185D01*
X9038165Y10550000D01*
D02*
G37*
G36*
X8788165D02*
X8761835D01*
X8736402Y10543185D01*
X8713599Y10530020D01*
X8694980Y10511401D01*
X8681815Y10488598D01*
X8675000Y10463165D01*
Y10436835D01*
X8681815Y10411402D01*
X8694980Y10388599D01*
X8713599Y10369980D01*
X8736402Y10356815D01*
X8761835Y10350000D01*
X8788165D01*
X8813598Y10356815D01*
X8836401Y10369980D01*
X8855020Y10388599D01*
X8868185Y10411402D01*
X8875000Y10436835D01*
Y10463165D01*
X8868185Y10488598D01*
X8855020Y10511401D01*
X8836401Y10530020D01*
X8813598Y10543185D01*
X8788165Y10550000D01*
D02*
G37*
G36*
X8625000D02*
X8425000D01*
Y10350000D01*
X8625000D01*
Y10550000D01*
D02*
G37*
G36*
X7988165D02*
X7961834D01*
X7936401Y10543185D01*
X7913599Y10530020D01*
X7894980Y10511401D01*
X7881815Y10488598D01*
X7875000Y10463165D01*
Y10436835D01*
X7881815Y10411402D01*
X7894980Y10388599D01*
X7913599Y10369980D01*
X7936401Y10356815D01*
X7961834Y10350000D01*
X7988165D01*
X8013598Y10356815D01*
X8036401Y10369980D01*
X8055019Y10388599D01*
X8068185Y10411402D01*
X8075000Y10436835D01*
Y10463165D01*
X8068185Y10488598D01*
X8055019Y10511401D01*
X8036401Y10530020D01*
X8013598Y10543185D01*
X7988165Y10550000D01*
D02*
G37*
G36*
X7738165D02*
X7711834D01*
X7686401Y10543185D01*
X7663599Y10530020D01*
X7644980Y10511401D01*
X7631815Y10488598D01*
X7625000Y10463165D01*
Y10436835D01*
X7631815Y10411402D01*
X7644980Y10388599D01*
X7663599Y10369980D01*
X7686401Y10356815D01*
X7711834Y10350000D01*
X7738165D01*
X7763598Y10356815D01*
X7786401Y10369980D01*
X7805019Y10388599D01*
X7818185Y10411402D01*
X7825000Y10436835D01*
Y10463165D01*
X7818185Y10488598D01*
X7805019Y10511401D01*
X7786401Y10530020D01*
X7763598Y10543185D01*
X7738165Y10550000D01*
D02*
G37*
G36*
X7488165D02*
X7461834D01*
X7436401Y10543185D01*
X7413599Y10530020D01*
X7394980Y10511401D01*
X7381815Y10488598D01*
X7375000Y10463165D01*
Y10436835D01*
X7381815Y10411402D01*
X7394980Y10388599D01*
X7413599Y10369980D01*
X7436401Y10356815D01*
X7461834Y10350000D01*
X7488165D01*
X7513598Y10356815D01*
X7536401Y10369980D01*
X7555019Y10388599D01*
X7568185Y10411402D01*
X7575000Y10436835D01*
Y10463165D01*
X7568185Y10488598D01*
X7555019Y10511401D01*
X7536401Y10530020D01*
X7513598Y10543185D01*
X7488165Y10550000D01*
D02*
G37*
G36*
X7325000D02*
X7125000D01*
Y10350000D01*
X7325000D01*
Y10550000D01*
D02*
G37*
G36*
X6688166D02*
X6661835D01*
X6636402Y10543185D01*
X6613599Y10530020D01*
X6594981Y10511401D01*
X6581815Y10488598D01*
X6575001Y10463165D01*
Y10436835D01*
X6581815Y10411402D01*
X6594981Y10388599D01*
X6613599Y10369980D01*
X6636402Y10356815D01*
X6661835Y10350000D01*
X6688166D01*
X6713599Y10356815D01*
X6736402Y10369980D01*
X6755020Y10388599D01*
X6768185Y10411402D01*
X6775000Y10436835D01*
Y10463165D01*
X6768185Y10488598D01*
X6755020Y10511401D01*
X6736402Y10530020D01*
X6713599Y10543185D01*
X6688166Y10550000D01*
D02*
G37*
G36*
X6275000D02*
X6075001D01*
Y10350000D01*
X6275000D01*
Y10550000D01*
D02*
G37*
G36*
X9925000Y10500000D02*
X9725000D01*
Y10300000D01*
X9925000D01*
Y10500000D01*
D02*
G37*
G36*
X12260636Y10498599D02*
X12234305D01*
X12208872Y10491784D01*
X12186069Y10478619D01*
X12167451Y10460000D01*
X12154285Y10437197D01*
X12147470Y10411764D01*
Y10385434D01*
X12154285Y10360001D01*
X12167451Y10337198D01*
X12186069Y10318579D01*
X12208872Y10305414D01*
X12234305Y10298599D01*
X12260636D01*
X12286069Y10305414D01*
X12308871Y10318579D01*
X12327490Y10337198D01*
X12340655Y10360001D01*
X12347470Y10385434D01*
Y10411764D01*
X12340655Y10437197D01*
X12327490Y10460000D01*
X12308871Y10478619D01*
X12286069Y10491784D01*
X12260636Y10498599D01*
D02*
G37*
G36*
X12010636D02*
X11984305D01*
X11958872Y10491784D01*
X11936069Y10478619D01*
X11917451Y10460000D01*
X11904285Y10437197D01*
X11897470Y10411764D01*
Y10385434D01*
X11904285Y10360001D01*
X11917451Y10337198D01*
X11936069Y10318579D01*
X11958872Y10305414D01*
X11984305Y10298599D01*
X12010636D01*
X12036069Y10305414D01*
X12058871Y10318579D01*
X12077490Y10337198D01*
X12090655Y10360001D01*
X12097470Y10385434D01*
Y10411764D01*
X12090655Y10437197D01*
X12077490Y10460000D01*
X12058871Y10478619D01*
X12036069Y10491784D01*
X12010636Y10498599D01*
D02*
G37*
G36*
X11847470D02*
X11647470D01*
Y10298599D01*
X11847470D01*
Y10498599D01*
D02*
G37*
G36*
X14014812Y10437500D02*
X13985188D01*
X13956577Y10429833D01*
X13930923Y10415022D01*
X13909978Y10394076D01*
X13895168Y10368423D01*
X13887500Y10339811D01*
Y10310189D01*
X13895168Y10281577D01*
X13909978Y10255923D01*
X13930923Y10234977D01*
X13956577Y10220167D01*
X13957199Y10220000D01*
X13954565Y10200000D01*
X14045435D01*
X14042801Y10220000D01*
X14043423Y10220167D01*
X14069077Y10234977D01*
X14090022Y10255923D01*
X14104832Y10281577D01*
X14112500Y10310189D01*
Y10339811D01*
X14104832Y10368423D01*
X14090022Y10394076D01*
X14069077Y10415022D01*
X14043423Y10429833D01*
X14014812Y10437500D01*
D02*
G37*
G36*
Y9462500D02*
X13985188D01*
X13956577Y9454833D01*
X13930923Y9440023D01*
X13909978Y9419077D01*
X13895168Y9393423D01*
X13887500Y9364811D01*
Y9335189D01*
X13895168Y9306577D01*
X13909978Y9280924D01*
X13930923Y9259978D01*
X13956577Y9245167D01*
X13985188Y9237500D01*
X14014812D01*
X14043423Y9245167D01*
X14069077Y9259978D01*
X14090022Y9280924D01*
X14104832Y9306577D01*
X14112500Y9335189D01*
Y9364811D01*
X14104832Y9393423D01*
X14090022Y9419077D01*
X14069077Y9440023D01*
X14043423Y9454833D01*
X14014812Y9462500D01*
D02*
G37*
G36*
X8775000Y4025000D02*
X8575000D01*
Y3825000D01*
X8775000D01*
Y4025000D01*
D02*
G37*
G36*
X8438165D02*
X8411835D01*
X8386402Y4018185D01*
X8363599Y4005020D01*
X8344980Y3986401D01*
X8331815Y3963598D01*
X8325000Y3938165D01*
Y3911835D01*
X8331815Y3886402D01*
X8344980Y3863599D01*
X8363599Y3844980D01*
X8386402Y3831815D01*
X8411835Y3825000D01*
X8438165D01*
X8463598Y3831815D01*
X8486401Y3844980D01*
X8505020Y3863599D01*
X8518185Y3886402D01*
X8525000Y3911835D01*
Y3938165D01*
X8518185Y3963598D01*
X8505020Y3986401D01*
X8486401Y4005020D01*
X8463598Y4018185D01*
X8438165Y4025000D01*
D02*
G37*
G36*
X8188165D02*
X8161835D01*
X8136402Y4018185D01*
X8113599Y4005020D01*
X8094980Y3986401D01*
X8081815Y3963598D01*
X8075000Y3938165D01*
Y3911835D01*
X8081815Y3886402D01*
X8094980Y3863599D01*
X8113599Y3844980D01*
X8136402Y3831815D01*
X8161835Y3825000D01*
X8188165D01*
X8213598Y3831815D01*
X8236401Y3844980D01*
X8255020Y3863599D01*
X8268185Y3886402D01*
X8275000Y3911835D01*
Y3938165D01*
X8268185Y3963598D01*
X8255020Y3986401D01*
X8236401Y4005020D01*
X8213598Y4018185D01*
X8188165Y4025000D01*
D02*
G37*
G36*
X6525000D02*
X6325000D01*
Y3825000D01*
X6525000D01*
Y4025000D01*
D02*
G37*
G36*
X6188165D02*
X6161835D01*
X6136402Y4018185D01*
X6113599Y4005020D01*
X6094980Y3986401D01*
X6081815Y3963598D01*
X6075000Y3938165D01*
Y3911835D01*
X6081815Y3886402D01*
X6094980Y3863599D01*
X6113599Y3844980D01*
X6136402Y3831815D01*
X6161835Y3825000D01*
X6188165D01*
X6213598Y3831815D01*
X6236401Y3844980D01*
X6255020Y3863599D01*
X6268185Y3886402D01*
X6275000Y3911835D01*
Y3938165D01*
X6268185Y3963598D01*
X6255020Y3986401D01*
X6236401Y4005020D01*
X6213598Y4018185D01*
X6188165Y4025000D01*
D02*
G37*
G36*
X5860000Y4026036D02*
Y4001421D01*
X5844980Y3986401D01*
X5831815Y3963598D01*
X5825000Y3938165D01*
Y3911835D01*
X5831815Y3886402D01*
X5844980Y3863599D01*
X5860000Y3848579D01*
Y3823964D01*
X5880000Y3835511D01*
X5886402Y3831815D01*
X5911835Y3825000D01*
X5938165D01*
X5963598Y3831815D01*
X5986401Y3844980D01*
X6005020Y3863599D01*
X6018185Y3886402D01*
X6025000Y3911835D01*
Y3938165D01*
X6018185Y3963598D01*
X6005020Y3986401D01*
X5986401Y4005020D01*
X5963598Y4018185D01*
X5938165Y4025000D01*
X5911835D01*
X5886402Y4018185D01*
X5880000Y4014489D01*
X5860000Y4026036D01*
D02*
G37*
G36*
X9189153Y3636500D02*
X9160848D01*
X9133507Y3629174D01*
X9108994Y3615021D01*
X9088979Y3595007D01*
X9074826Y3570493D01*
X9067500Y3543153D01*
Y3514847D01*
X9074826Y3487507D01*
X9088979Y3462994D01*
X9108994Y3442979D01*
X9133507Y3428826D01*
X9160848Y3421500D01*
X9189153D01*
X9216494Y3428826D01*
X9241007Y3442979D01*
X9261022Y3462994D01*
X9275174Y3487507D01*
X9282500Y3514847D01*
Y3543153D01*
X9275174Y3570493D01*
X9261022Y3595007D01*
X9241007Y3615021D01*
X9216494Y3629174D01*
X9189153Y3636500D01*
D02*
G37*
G36*
X6939153Y3586500D02*
X6910847D01*
X6883507Y3579174D01*
X6858994Y3565021D01*
X6838979Y3545006D01*
X6824826Y3520493D01*
X6817500Y3493153D01*
Y3464847D01*
X6824826Y3437506D01*
X6838979Y3412993D01*
X6858994Y3392978D01*
X6883507Y3378826D01*
X6910847Y3371500D01*
X6939153D01*
X6966494Y3378826D01*
X6991007Y3392978D01*
X7011022Y3412993D01*
X7025174Y3437506D01*
X7032500Y3464847D01*
Y3493153D01*
X7025174Y3520493D01*
X7011022Y3545006D01*
X6991007Y3565021D01*
X6966494Y3579174D01*
X6939153Y3586500D01*
D02*
G37*
G36*
X11214153Y3557500D02*
X11185847D01*
X11158507Y3550174D01*
X11133993Y3536021D01*
X11113979Y3516006D01*
X11099826Y3491493D01*
X11092500Y3464153D01*
Y3435847D01*
X11099826Y3408507D01*
X11113979Y3383993D01*
X11133993Y3363979D01*
X11158507Y3349826D01*
X11185847Y3342500D01*
X11214153D01*
X11241493Y3349826D01*
X11266006Y3363979D01*
X11286021Y3383993D01*
X11300174Y3408507D01*
X11307500Y3435847D01*
Y3464153D01*
X11300174Y3491493D01*
X11286021Y3516006D01*
X11266006Y3536021D01*
X11241493Y3550174D01*
X11214153Y3557500D01*
D02*
G37*
G36*
X10960153D02*
X10931847D01*
X10904507Y3550174D01*
X10879993Y3536021D01*
X10859979Y3516006D01*
X10845826Y3491493D01*
X10838500Y3464153D01*
Y3435847D01*
X10845826Y3408507D01*
X10859979Y3383993D01*
X10879993Y3363979D01*
X10904507Y3349826D01*
X10931847Y3342500D01*
X10960153D01*
X10987493Y3349826D01*
X11012006Y3363979D01*
X11032021Y3383993D01*
X11046174Y3408507D01*
X11053500Y3435847D01*
Y3464153D01*
X11046174Y3491493D01*
X11032021Y3516006D01*
X11012006Y3536021D01*
X10987493Y3550174D01*
X10960153Y3557500D01*
D02*
G37*
G36*
X10357500D02*
X10142500D01*
Y3342500D01*
X10357500D01*
Y3557500D01*
D02*
G37*
G36*
X10010153D02*
X9981847D01*
X9954507Y3550174D01*
X9929994Y3536021D01*
X9909979Y3516006D01*
X9895826Y3491493D01*
X9888500Y3464153D01*
Y3435847D01*
X9895826Y3408507D01*
X9909979Y3383993D01*
X9929994Y3363979D01*
X9954507Y3349826D01*
X9981847Y3342500D01*
X10010153D01*
X10037494Y3349826D01*
X10062007Y3363979D01*
X10082021Y3383993D01*
X10096174Y3408507D01*
X10103500Y3435847D01*
Y3464153D01*
X10096174Y3491493D01*
X10082021Y3516006D01*
X10062007Y3536021D01*
X10037494Y3550174D01*
X10010153Y3557500D01*
D02*
G37*
G36*
X12930000Y3420000D02*
X12730000D01*
Y3220000D01*
X12930000D01*
Y3420000D01*
D02*
G37*
G36*
X12593165D02*
X12566835D01*
X12541402Y3413185D01*
X12518599Y3400020D01*
X12499980Y3381401D01*
X12486815Y3358598D01*
X12480000Y3333165D01*
Y3306835D01*
X12486815Y3281402D01*
X12499980Y3258599D01*
X12518599Y3239980D01*
X12541402Y3226815D01*
X12566835Y3220000D01*
X12593165D01*
X12618598Y3226815D01*
X12641401Y3239980D01*
X12660020Y3258599D01*
X12673185Y3281402D01*
X12680000Y3306835D01*
Y3333165D01*
X12673185Y3358598D01*
X12660020Y3381401D01*
X12641401Y3400020D01*
X12618598Y3413185D01*
X12593165Y3420000D01*
D02*
G37*
G36*
X12343165D02*
X12316835D01*
X12291402Y3413185D01*
X12268599Y3400020D01*
X12249980Y3381401D01*
X12236815Y3358598D01*
X12230000Y3333165D01*
Y3306835D01*
X12236815Y3281402D01*
X12249980Y3258599D01*
X12268599Y3239980D01*
X12291402Y3226815D01*
X12316835Y3220000D01*
X12343165D01*
X12368598Y3226815D01*
X12391401Y3239980D01*
X12410020Y3258599D01*
X12423185Y3281402D01*
X12430000Y3306835D01*
Y3333165D01*
X12423185Y3358598D01*
X12410020Y3381401D01*
X12391401Y3400020D01*
X12368598Y3413185D01*
X12343165Y3420000D01*
D02*
G37*
G36*
X12093165D02*
X12066835D01*
X12041402Y3413185D01*
X12018599Y3400020D01*
X11999980Y3381401D01*
X11986815Y3358598D01*
X11980000Y3333165D01*
Y3306835D01*
X11986815Y3281402D01*
X11999980Y3258599D01*
X12018599Y3239980D01*
X12041402Y3226815D01*
X12066835Y3220000D01*
X12093165D01*
X12118598Y3226815D01*
X12141401Y3239980D01*
X12160020Y3258599D01*
X12173185Y3281402D01*
X12180000Y3306835D01*
Y3333165D01*
X12173185Y3358598D01*
X12160020Y3381401D01*
X12141401Y3400020D01*
X12118598Y3413185D01*
X12093165Y3420000D01*
D02*
G37*
G36*
X11843165D02*
X11816835D01*
X11791402Y3413185D01*
X11768599Y3400020D01*
X11749980Y3381401D01*
X11736815Y3358598D01*
X11730000Y3333165D01*
Y3306835D01*
X11736815Y3281402D01*
X11749980Y3258599D01*
X11768599Y3239980D01*
X11791402Y3226815D01*
X11816835Y3220000D01*
X11843165D01*
X11868598Y3226815D01*
X11891401Y3239980D01*
X11910020Y3258599D01*
X11923185Y3281402D01*
X11930000Y3306835D01*
Y3333165D01*
X11923185Y3358598D01*
X11910020Y3381401D01*
X11891401Y3400020D01*
X11868598Y3413185D01*
X11843165Y3420000D01*
D02*
G37*
G36*
X9189153Y3382500D02*
X9160848D01*
X9133507Y3375174D01*
X9108994Y3361021D01*
X9088979Y3341007D01*
X9074826Y3316493D01*
X9067500Y3289153D01*
Y3260847D01*
X9074826Y3233507D01*
X9088979Y3208994D01*
X9108994Y3188979D01*
X9133507Y3174826D01*
X9160848Y3167500D01*
X9189153D01*
X9216494Y3174826D01*
X9241007Y3188979D01*
X9261022Y3208994D01*
X9275174Y3233507D01*
X9282500Y3260847D01*
Y3289153D01*
X9275174Y3316493D01*
X9261022Y3341007D01*
X9241007Y3361021D01*
X9216494Y3375174D01*
X9189153Y3382500D01*
D02*
G37*
G36*
X8775000Y3325000D02*
X8575000D01*
Y3125000D01*
X8775000D01*
Y3325000D01*
D02*
G37*
G36*
X8438165D02*
X8411835D01*
X8386402Y3318185D01*
X8363599Y3305020D01*
X8344980Y3286401D01*
X8331815Y3263598D01*
X8325000Y3238165D01*
Y3211835D01*
X8331815Y3186402D01*
X8344980Y3163599D01*
X8363599Y3144980D01*
X8386402Y3131815D01*
X8411835Y3125000D01*
X8438165D01*
X8463598Y3131815D01*
X8486401Y3144980D01*
X8505020Y3163599D01*
X8518185Y3186402D01*
X8525000Y3211835D01*
Y3238165D01*
X8518185Y3263598D01*
X8505020Y3286401D01*
X8486401Y3305020D01*
X8463598Y3318185D01*
X8438165Y3325000D01*
D02*
G37*
G36*
X8188165D02*
X8161835D01*
X8136402Y3318185D01*
X8113599Y3305020D01*
X8094980Y3286401D01*
X8081815Y3263598D01*
X8075000Y3238165D01*
Y3211835D01*
X8081815Y3186402D01*
X8094980Y3163599D01*
X8113599Y3144980D01*
X8136402Y3131815D01*
X8161835Y3125000D01*
X8188165D01*
X8213598Y3131815D01*
X8236401Y3144980D01*
X8255020Y3163599D01*
X8268185Y3186402D01*
X8275000Y3211835D01*
Y3238165D01*
X8268185Y3263598D01*
X8255020Y3286401D01*
X8236401Y3305020D01*
X8213598Y3318185D01*
X8188165Y3325000D01*
D02*
G37*
G36*
X6525000D02*
X6325000D01*
Y3125000D01*
X6525000D01*
Y3325000D01*
D02*
G37*
G36*
X6188165D02*
X6161835D01*
X6136402Y3318185D01*
X6113599Y3305020D01*
X6094980Y3286401D01*
X6081815Y3263598D01*
X6075000Y3238165D01*
Y3211835D01*
X6081815Y3186402D01*
X6094980Y3163599D01*
X6113599Y3144980D01*
X6136402Y3131815D01*
X6161835Y3125000D01*
X6188165D01*
X6213598Y3131815D01*
X6236401Y3144980D01*
X6255020Y3163599D01*
X6268185Y3186402D01*
X6275000Y3211835D01*
Y3238165D01*
X6268185Y3263598D01*
X6255020Y3286401D01*
X6236401Y3305020D01*
X6213598Y3318185D01*
X6188165Y3325000D01*
D02*
G37*
G36*
X5860000Y3326036D02*
Y3301421D01*
X5844980Y3286401D01*
X5831815Y3263598D01*
X5825000Y3238165D01*
Y3211835D01*
X5831815Y3186402D01*
X5844980Y3163599D01*
X5860000Y3148579D01*
Y3123964D01*
X5880000Y3135511D01*
X5886402Y3131815D01*
X5911835Y3125000D01*
X5938165D01*
X5963598Y3131815D01*
X5986401Y3144980D01*
X6005020Y3163599D01*
X6018185Y3186402D01*
X6025000Y3211835D01*
Y3238165D01*
X6018185Y3263598D01*
X6005020Y3286401D01*
X5986401Y3305020D01*
X5963598Y3318185D01*
X5938165Y3325000D01*
X5911835D01*
X5886402Y3318185D01*
X5880000Y3314489D01*
X5860000Y3326036D01*
D02*
G37*
G36*
X6939153Y3332500D02*
X6910847D01*
X6883507Y3325174D01*
X6858994Y3311021D01*
X6838979Y3291006D01*
X6824826Y3266493D01*
X6817500Y3239153D01*
Y3210847D01*
X6824826Y3183506D01*
X6838979Y3158993D01*
X6858994Y3138978D01*
X6883507Y3124826D01*
X6910847Y3117500D01*
X6939153D01*
X6966494Y3124826D01*
X6991007Y3138978D01*
X7011022Y3158993D01*
X7025174Y3183506D01*
X7032500Y3210847D01*
Y3239153D01*
X7025174Y3266493D01*
X7011022Y3291006D01*
X6991007Y3311021D01*
X6966494Y3325174D01*
X6939153Y3332500D01*
D02*
G37*
G36*
X9282500Y3128500D02*
X9067500D01*
Y2913500D01*
X9282500D01*
Y3128500D01*
D02*
G37*
G36*
X3413823Y11545000D02*
X3386176D01*
X3359471Y11537844D01*
X3335529Y11524021D01*
X3315979Y11504471D01*
X3302156Y11480528D01*
X3295000Y11453823D01*
Y11426177D01*
X3302156Y11399471D01*
X3315979Y11375529D01*
X3335529Y11355979D01*
X3359471Y11342156D01*
X3386176Y11335000D01*
X3413823D01*
X3440528Y11342156D01*
X3464471Y11355979D01*
X3484020Y11375529D01*
X3497844Y11399471D01*
X3505000Y11426177D01*
Y11453823D01*
X3497844Y11480528D01*
X3484020Y11504471D01*
X3464471Y11524021D01*
X3440528Y11537844D01*
X3413823Y11545000D01*
D02*
G37*
G36*
Y11095000D02*
X3386176D01*
X3359471Y11087844D01*
X3335529Y11074021D01*
X3315979Y11054471D01*
X3302156Y11030528D01*
X3295000Y11003823D01*
Y10976176D01*
X3302156Y10949471D01*
X3315979Y10925529D01*
X3335529Y10905979D01*
X3359471Y10892156D01*
X3386176Y10885000D01*
X3413823D01*
X3440528Y10892156D01*
X3464471Y10905979D01*
X3484020Y10925529D01*
X3497844Y10949471D01*
X3505000Y10976176D01*
Y11003823D01*
X3497844Y11030528D01*
X3484020Y11054471D01*
X3464471Y11074021D01*
X3440528Y11087844D01*
X3413823Y11095000D01*
D02*
G37*
G36*
X4314811Y10062500D02*
X4285189D01*
X4256577Y10054833D01*
X4230923Y10040022D01*
X4209978Y10019076D01*
X4195167Y9993423D01*
X4187500Y9964811D01*
Y9935189D01*
X4195167Y9906577D01*
X4209978Y9880923D01*
X4230923Y9859977D01*
X4256577Y9845167D01*
X4285189Y9837500D01*
X4314811D01*
X4343423Y9845167D01*
X4369077Y9859977D01*
X4390022Y9880923D01*
X4404833Y9906577D01*
X4412500Y9935189D01*
Y9964811D01*
X4404833Y9993423D01*
X4390022Y10019076D01*
X4369077Y10040022D01*
X4343423Y10054833D01*
X4314811Y10062500D01*
D02*
G37*
G36*
X3914811D02*
X3885189D01*
X3856577Y10054833D01*
X3830924Y10040022D01*
X3809978Y10019076D01*
X3795167Y9993423D01*
X3787500Y9964811D01*
Y9935189D01*
X3795167Y9906577D01*
X3809978Y9880923D01*
X3830924Y9859977D01*
X3856577Y9845167D01*
X3885189Y9837500D01*
X3914811D01*
X3943423Y9845167D01*
X3969077Y9859977D01*
X3990022Y9880923D01*
X4004833Y9906577D01*
X4012500Y9935189D01*
Y9964811D01*
X4004833Y9993423D01*
X3990022Y10019076D01*
X3969077Y10040022D01*
X3943423Y10054833D01*
X3914811Y10062500D01*
D02*
G37*
G36*
X3514811D02*
X3485189D01*
X3456577Y10054833D01*
X3430924Y10040022D01*
X3409978Y10019076D01*
X3395167Y9993423D01*
X3387500Y9964811D01*
Y9935189D01*
X3395167Y9906577D01*
X3409978Y9880923D01*
X3430924Y9859977D01*
X3456577Y9845167D01*
X3485189Y9837500D01*
X3514811D01*
X3543423Y9845167D01*
X3569077Y9859977D01*
X3590023Y9880923D01*
X3604833Y9906577D01*
X3612500Y9935189D01*
Y9964811D01*
X3604833Y9993423D01*
X3590023Y10019076D01*
X3569077Y10040022D01*
X3543423Y10054833D01*
X3514811Y10062500D01*
D02*
G37*
G36*
X4564811Y9862500D02*
X4535189D01*
X4506577Y9854833D01*
X4480923Y9840022D01*
X4459978Y9819076D01*
X4445167Y9793423D01*
X4437500Y9764811D01*
Y9735189D01*
X4445167Y9706576D01*
X4459978Y9680923D01*
X4480923Y9659977D01*
X4506577Y9645167D01*
X4535189Y9637500D01*
X4564811D01*
X4593423Y9645167D01*
X4619077Y9659977D01*
X4640022Y9680923D01*
X4654833Y9706576D01*
X4662500Y9735189D01*
Y9764811D01*
X4654833Y9793423D01*
X4640022Y9819076D01*
X4630000Y9829099D01*
D01*
X4619077Y9840022D01*
X4593423Y9854833D01*
X4564811Y9862500D01*
D02*
G37*
G36*
X3264811D02*
X3235189D01*
X3206577Y9854833D01*
X3180924Y9840022D01*
X3159978Y9819076D01*
X3145167Y9793423D01*
X3137500Y9764811D01*
Y9735189D01*
X3145167Y9706576D01*
X3159978Y9680923D01*
X3180924Y9659977D01*
X3206577Y9645167D01*
X3235189Y9637500D01*
X3264811D01*
X3293423Y9645167D01*
X3319077Y9659977D01*
X3340023Y9680923D01*
X3354833Y9706576D01*
X3362500Y9735189D01*
Y9764811D01*
X3354833Y9793423D01*
X3340023Y9819076D01*
X3319077Y9840022D01*
X3293423Y9854833D01*
X3264811Y9862500D01*
D02*
G37*
G36*
X4267115Y9306000D02*
X4232885D01*
X4199822Y9297141D01*
X4170178Y9280026D01*
X4145974Y9255822D01*
X4128859Y9226178D01*
X4120000Y9193115D01*
Y9158885D01*
X4128859Y9125822D01*
X4145974Y9096178D01*
X4170178Y9071974D01*
X4199822Y9054859D01*
X4232885Y9046000D01*
X4267115D01*
X4300178Y9054859D01*
X4329822Y9071974D01*
X4354026Y9096178D01*
X4371141Y9125822D01*
X4380000Y9158885D01*
Y9193115D01*
X4371141Y9226178D01*
X4354026Y9255822D01*
X4329822Y9280026D01*
X4300178Y9297141D01*
X4267115Y9306000D01*
D02*
G37*
G36*
Y7780000D02*
X4232885D01*
X4199822Y7771141D01*
X4170178Y7754026D01*
X4145974Y7729822D01*
X4128859Y7700178D01*
X4120000Y7667115D01*
Y7632885D01*
X4128859Y7599822D01*
X4145974Y7570178D01*
X4170178Y7545974D01*
X4199822Y7528859D01*
X4232885Y7520000D01*
X4267115D01*
X4300178Y7528859D01*
X4329822Y7545974D01*
X4354026Y7570178D01*
X4371141Y7599822D01*
X4380000Y7632885D01*
Y7667115D01*
X4371141Y7700178D01*
X4354026Y7729822D01*
X4329822Y7754026D01*
X4300178Y7771141D01*
X4267115Y7780000D01*
D02*
G37*
G36*
X2067773Y9465000D02*
X2032227D01*
X1997892Y9455800D01*
X1967108Y9438027D01*
X1941973Y9412892D01*
X1924200Y9382108D01*
X1915000Y9347773D01*
Y9312227D01*
X1924200Y9277892D01*
X1941973Y9247108D01*
X1967108Y9221973D01*
X1997892Y9204200D01*
X2032227Y9195000D01*
X2067773D01*
X2102108Y9204200D01*
X2132892Y9221973D01*
X2158026Y9247108D01*
X2175800Y9277892D01*
X2185000Y9312227D01*
Y9347773D01*
X2175800Y9382108D01*
X2158026Y9412892D01*
X2132892Y9438027D01*
X2102108Y9455800D01*
X2067773Y9465000D01*
D02*
G37*
G36*
Y8425000D02*
X2032227D01*
X1997892Y8415800D01*
X1967108Y8398027D01*
X1941973Y8372892D01*
X1924200Y8342108D01*
X1915000Y8307773D01*
Y8272227D01*
X1924200Y8237892D01*
X1941973Y8207108D01*
X1967108Y8181973D01*
X1997892Y8164200D01*
X2032227Y8155000D01*
X2067773D01*
X2102108Y8164200D01*
X2132892Y8181973D01*
X2158026Y8207108D01*
X2175800Y8237892D01*
X2185000Y8272227D01*
Y8307773D01*
X2175800Y8342108D01*
X2158026Y8372892D01*
X2132892Y8398027D01*
X2102108Y8415800D01*
X2067773Y8425000D01*
D02*
G37*
G36*
X3517115Y7780000D02*
X3482885D01*
X3449822Y7771141D01*
X3420178Y7754026D01*
X3395974Y7729822D01*
X3378859Y7700178D01*
X3370000Y7667115D01*
Y7632885D01*
X3378859Y7599822D01*
X3395974Y7570178D01*
X3420178Y7545974D01*
X3449822Y7528859D01*
X3482885Y7520000D01*
X3517115D01*
X3550178Y7528859D01*
X3579822Y7545974D01*
X3604026Y7570178D01*
X3621141Y7599822D01*
X3630000Y7632885D01*
Y7667115D01*
X3621141Y7700178D01*
X3604026Y7729822D01*
X3579822Y7754026D01*
X3550178Y7771141D01*
X3517115Y7780000D01*
D02*
G37*
G36*
X2070273Y7375000D02*
X2034726D01*
X2000391Y7365800D01*
X1969608Y7348027D01*
X1944473Y7322892D01*
X1926700Y7292108D01*
X1917500Y7257773D01*
Y7222227D01*
X1926700Y7187892D01*
X1944473Y7157108D01*
X1969608Y7131973D01*
X2000391Y7114200D01*
X2034726Y7105000D01*
X2070273D01*
X2104608Y7114200D01*
X2135391Y7131973D01*
X2160526Y7157108D01*
X2178299Y7187892D01*
X2187500Y7222227D01*
Y7257773D01*
X2178299Y7292108D01*
X2160526Y7322892D01*
X2135391Y7348027D01*
X2104608Y7365800D01*
X2070273Y7375000D01*
D02*
G37*
G36*
X4514811Y6262500D02*
X4485189D01*
X4456577Y6254833D01*
X4430923Y6240023D01*
X4409977Y6219077D01*
X4395167Y6193423D01*
X4387500Y6164811D01*
Y6135189D01*
X4395167Y6106577D01*
X4409977Y6080924D01*
X4430923Y6059978D01*
X4456577Y6045167D01*
X4485189Y6037500D01*
X4514811D01*
X4543423Y6045167D01*
X4569076Y6059978D01*
X4590022Y6080924D01*
X4604833Y6106577D01*
X4612500Y6135189D01*
Y6164811D01*
X4604833Y6193423D01*
X4590022Y6219077D01*
X4569076Y6240023D01*
X4543423Y6254833D01*
X4514811Y6262500D01*
D02*
G37*
G36*
X4264811Y6062500D02*
X4235189D01*
X4206577Y6054833D01*
X4180923Y6040022D01*
X4159977Y6019077D01*
X4145167Y5993423D01*
X4137500Y5964811D01*
Y5935189D01*
X4145167Y5906577D01*
X4159977Y5880923D01*
X4180923Y5859978D01*
X4206577Y5845167D01*
X4235189Y5837500D01*
X4264811D01*
X4293423Y5845167D01*
X4319076Y5859978D01*
X4340022Y5880923D01*
X4354833Y5906577D01*
X4362500Y5935189D01*
Y5964811D01*
X4354833Y5993423D01*
X4340022Y6019077D01*
X4319076Y6040022D01*
X4293423Y6054833D01*
X4264811Y6062500D01*
D02*
G37*
G36*
X4514811Y5862500D02*
X4485189D01*
X4456577Y5854833D01*
X4430923Y5840022D01*
X4409977Y5819076D01*
X4395167Y5793423D01*
X4387500Y5764811D01*
Y5735189D01*
X4395167Y5706577D01*
X4409977Y5680923D01*
X4430923Y5659978D01*
X4456577Y5645167D01*
X4485189Y5637500D01*
X4514811D01*
X4543423Y5645167D01*
X4569076Y5659978D01*
X4590022Y5680923D01*
X4604833Y5706577D01*
X4612500Y5735189D01*
Y5764811D01*
X4604833Y5793423D01*
X4590022Y5819076D01*
X4569076Y5840022D01*
X4543423Y5854833D01*
X4514811Y5862500D01*
D02*
G37*
G36*
X3214811D02*
X3185189D01*
X3156577Y5854833D01*
X3130923Y5840022D01*
X3109978Y5819076D01*
X3095167Y5793423D01*
X3087500Y5764811D01*
Y5735189D01*
X3095167Y5706577D01*
X3109978Y5680923D01*
X3130923Y5659978D01*
X3156577Y5645167D01*
X3185189Y5637500D01*
X3214811D01*
X3243423Y5645167D01*
X3269077Y5659978D01*
X3290022Y5680923D01*
X3304833Y5706577D01*
X3312500Y5735189D01*
Y5764811D01*
X3304833Y5793423D01*
X3290022Y5819076D01*
X3269077Y5840022D01*
X3243423Y5854833D01*
X3214811Y5862500D01*
D02*
G37*
G36*
X14324811Y4362500D02*
X14295189D01*
X14266577Y4354833D01*
X14240924Y4340023D01*
X14219978Y4319077D01*
X14205167Y4293423D01*
X14197501Y4264811D01*
Y4235189D01*
X14205167Y4206577D01*
X14219978Y4180924D01*
X14240924Y4159978D01*
X14266577Y4145167D01*
X14295189Y4137500D01*
X14324811D01*
X14353423Y4145167D01*
X14379077Y4159978D01*
X14400023Y4180924D01*
X14414833Y4206577D01*
X14422501Y4235189D01*
Y4264811D01*
X14414833Y4293423D01*
X14400023Y4319077D01*
X14379077Y4340023D01*
X14353423Y4354833D01*
X14324811Y4362500D01*
D02*
G37*
G36*
Y4112500D02*
X14295189D01*
X14266577Y4104833D01*
X14240924Y4090023D01*
X14219978Y4069077D01*
X14205167Y4043423D01*
X14197501Y4014811D01*
Y3985189D01*
X14205167Y3956577D01*
X14219978Y3930924D01*
X14240924Y3909978D01*
X14266577Y3895167D01*
X14295189Y3887500D01*
X14324811D01*
X14353423Y3895167D01*
X14379077Y3909978D01*
X14400023Y3930924D01*
X14414833Y3956577D01*
X14422501Y3985189D01*
Y4014811D01*
X14414833Y4043423D01*
X14400023Y4069077D01*
X14379077Y4090023D01*
X14353423Y4104833D01*
X14324811Y4112500D01*
D02*
G37*
G36*
Y3862500D02*
X14295189D01*
X14266577Y3854833D01*
X14240924Y3840023D01*
X14219978Y3819077D01*
X14205167Y3793423D01*
X14197501Y3764811D01*
Y3735189D01*
X14205167Y3706577D01*
X14219978Y3680924D01*
X14240924Y3659978D01*
X14266577Y3645167D01*
X14295189Y3637500D01*
X14324811D01*
X14353423Y3645167D01*
X14379077Y3659978D01*
X14400023Y3680924D01*
X14414833Y3706577D01*
X14422501Y3735189D01*
Y3764811D01*
X14414833Y3793423D01*
X14400023Y3819077D01*
X14379077Y3840023D01*
X14353423Y3854833D01*
X14324811Y3862500D01*
D02*
G37*
G36*
Y3612500D02*
X14295189D01*
X14266577Y3604833D01*
X14240924Y3590023D01*
X14219978Y3569077D01*
X14205167Y3543423D01*
X14197501Y3514811D01*
Y3485189D01*
X14205167Y3456577D01*
X14219978Y3430924D01*
X14240924Y3409978D01*
X14266577Y3395167D01*
X14295189Y3387500D01*
X14324811D01*
X14353423Y3395167D01*
X14379077Y3409978D01*
X14400023Y3430924D01*
X14414833Y3456577D01*
X14422501Y3485189D01*
Y3514811D01*
X14414833Y3543423D01*
X14400023Y3569077D01*
X14379077Y3590023D01*
X14353423Y3604833D01*
X14324811Y3612500D01*
D02*
G37*
G36*
Y3362500D02*
X14295189D01*
X14266577Y3354833D01*
X14240924Y3340023D01*
X14219978Y3319077D01*
X14205167Y3293423D01*
X14197501Y3264811D01*
Y3235189D01*
X14205167Y3206577D01*
X14219978Y3180924D01*
X14240924Y3159978D01*
X14266577Y3145167D01*
X14295189Y3137500D01*
X14324811D01*
X14353423Y3145167D01*
X14379077Y3159978D01*
X14400023Y3180924D01*
X14414833Y3206577D01*
X14422501Y3235189D01*
Y3264811D01*
X14414833Y3293423D01*
X14400023Y3319077D01*
X14379077Y3340023D01*
X14353423Y3354833D01*
X14324811Y3362500D01*
D02*
G37*
G36*
X13664812D02*
X13635188D01*
X13606577Y3354833D01*
X13580923Y3340023D01*
X13559978Y3319077D01*
X13545168Y3293423D01*
X13537500Y3264811D01*
Y3235189D01*
X13545168Y3206577D01*
X13559978Y3180924D01*
X13580923Y3159978D01*
X13606577Y3145167D01*
X13635188Y3137500D01*
X13664812D01*
X13693423Y3145167D01*
X13719077Y3159978D01*
X13740022Y3180924D01*
X13754832Y3206577D01*
X13762500Y3235189D01*
Y3264811D01*
X13754832Y3293423D01*
X13740022Y3319077D01*
X13719077Y3340023D01*
X13693423Y3354833D01*
X13664812Y3362500D01*
D02*
G37*
G36*
X14422501Y3112500D02*
X14197501D01*
Y2887500D01*
X14422501D01*
Y3112500D01*
D02*
G37*
G36*
X13762500D02*
X13537500D01*
Y2887500D01*
X13762500D01*
Y3112500D01*
D02*
G37*
G36*
X12920000Y2750000D02*
X12720000D01*
Y2550000D01*
X12920000D01*
Y2750000D01*
D02*
G37*
G36*
X12583165D02*
X12556835D01*
X12531402Y2743185D01*
X12508599Y2730020D01*
X12489980Y2711401D01*
X12476815Y2688598D01*
X12470000Y2663165D01*
Y2636835D01*
X12476815Y2611402D01*
X12489980Y2588599D01*
X12508599Y2569980D01*
X12531402Y2556815D01*
X12556835Y2550000D01*
X12583165D01*
X12608598Y2556815D01*
X12631401Y2569980D01*
X12650020Y2588599D01*
X12663185Y2611402D01*
X12670000Y2636835D01*
Y2663165D01*
X12663185Y2688598D01*
X12650020Y2711401D01*
X12631401Y2730020D01*
X12608598Y2743185D01*
X12583165Y2750000D01*
D02*
G37*
G36*
X12333165D02*
X12306835D01*
X12281402Y2743185D01*
X12258599Y2730020D01*
X12239980Y2711401D01*
X12226815Y2688598D01*
X12220000Y2663165D01*
Y2636835D01*
X12226815Y2611402D01*
X12239980Y2588599D01*
X12258599Y2569980D01*
X12281402Y2556815D01*
X12306835Y2550000D01*
X12333165D01*
X12358598Y2556815D01*
X12381401Y2569980D01*
X12400020Y2588599D01*
X12413185Y2611402D01*
X12420000Y2636835D01*
Y2663165D01*
X12413185Y2688598D01*
X12400020Y2711401D01*
X12381401Y2730020D01*
X12358598Y2743185D01*
X12333165Y2750000D01*
D02*
G37*
G36*
X12083165D02*
X12056835D01*
X12031402Y2743185D01*
X12008599Y2730020D01*
X11989980Y2711401D01*
X11976815Y2688598D01*
X11970000Y2663165D01*
Y2636835D01*
X11976815Y2611402D01*
X11989980Y2588599D01*
X12008599Y2569980D01*
X12031402Y2556815D01*
X12056835Y2550000D01*
X12083165D01*
X12108598Y2556815D01*
X12131401Y2569980D01*
X12150020Y2588599D01*
X12163185Y2611402D01*
X12170000Y2636835D01*
Y2663165D01*
X12163185Y2688598D01*
X12150020Y2711401D01*
X12131401Y2730020D01*
X12108598Y2743185D01*
X12083165Y2750000D01*
D02*
G37*
G36*
X11833165D02*
X11806835D01*
X11781402Y2743185D01*
X11758599Y2730020D01*
X11739980Y2711401D01*
X11726815Y2688598D01*
X11720000Y2663165D01*
Y2636835D01*
X11726815Y2611402D01*
X11739980Y2588599D01*
X11758599Y2569980D01*
X11781402Y2556815D01*
X11806835Y2550000D01*
X11833165D01*
X11858598Y2556815D01*
X11881401Y2569980D01*
X11900020Y2588599D01*
X11913185Y2611402D01*
X11920000Y2636835D01*
Y2663165D01*
X11913185Y2688598D01*
X11900020Y2711401D01*
X11881401Y2730020D01*
X11858598Y2743185D01*
X11833165Y2750000D01*
D02*
G37*
G36*
X11340000D02*
X11140000D01*
Y2550000D01*
X11340000D01*
Y2750000D01*
D02*
G37*
G36*
X11003165D02*
X10976835D01*
X10951402Y2743185D01*
X10928599Y2730020D01*
X10909980Y2711401D01*
X10896815Y2688598D01*
X10890000Y2663165D01*
Y2636835D01*
X10896815Y2611402D01*
X10909980Y2588599D01*
X10928599Y2569980D01*
X10951402Y2556815D01*
X10976835Y2550000D01*
X11003165D01*
X11028598Y2556815D01*
X11051401Y2569980D01*
X11070020Y2588599D01*
X11083185Y2611402D01*
X11090000Y2636835D01*
Y2663165D01*
X11083185Y2688598D01*
X11070020Y2711401D01*
X11051401Y2730020D01*
X11028598Y2743185D01*
X11003165Y2750000D01*
D02*
G37*
G36*
X10753165D02*
X10726835D01*
X10701402Y2743185D01*
X10678599Y2730020D01*
X10659980Y2711401D01*
X10646815Y2688598D01*
X10640000Y2663165D01*
Y2636835D01*
X10646815Y2611402D01*
X10659980Y2588599D01*
X10678599Y2569980D01*
X10701402Y2556815D01*
X10726835Y2550000D01*
X10753165D01*
X10778598Y2556815D01*
X10801401Y2569980D01*
X10820020Y2588599D01*
X10833185Y2611402D01*
X10840000Y2636835D01*
Y2663165D01*
X10833185Y2688598D01*
X10820020Y2711401D01*
X10801401Y2730020D01*
X10778598Y2743185D01*
X10753165Y2750000D01*
D02*
G37*
G36*
X10503165D02*
X10476835D01*
X10451402Y2743185D01*
X10428599Y2730020D01*
X10409980Y2711401D01*
X10396815Y2688598D01*
X10390000Y2663165D01*
Y2636835D01*
X10396815Y2611402D01*
X10409980Y2588599D01*
X10428599Y2569980D01*
X10451402Y2556815D01*
X10476835Y2550000D01*
X10503165D01*
X10528598Y2556815D01*
X10551401Y2569980D01*
X10570020Y2588599D01*
X10583185Y2611402D01*
X10590000Y2636835D01*
Y2663165D01*
X10583185Y2688598D01*
X10570020Y2711401D01*
X10551401Y2730020D01*
X10528598Y2743185D01*
X10503165Y2750000D01*
D02*
G37*
G36*
X9789153Y2736500D02*
X9760847D01*
X9733507Y2729174D01*
X9708994Y2715021D01*
X9688979Y2695007D01*
X9674826Y2670494D01*
X9667500Y2643153D01*
Y2614847D01*
X9674826Y2587507D01*
X9688979Y2562994D01*
X9708994Y2542979D01*
X9733507Y2528826D01*
X9760847Y2521500D01*
X9789153D01*
X9816493Y2528826D01*
X9841006Y2542979D01*
X9861021Y2562994D01*
X9875174Y2587507D01*
X9882500Y2614847D01*
Y2643153D01*
X9875174Y2670494D01*
X9861021Y2695007D01*
X9841006Y2715021D01*
X9816493Y2729174D01*
X9789153Y2736500D01*
D02*
G37*
G36*
X8697773Y2610000D02*
X8662227D01*
X8627892Y2600800D01*
X8597108Y2583027D01*
X8571973Y2557892D01*
X8554200Y2527108D01*
X8545000Y2492773D01*
Y2457227D01*
X8554200Y2422892D01*
X8571973Y2392108D01*
X8597108Y2366973D01*
X8627892Y2349200D01*
X8662227Y2340000D01*
X8697773D01*
X8732108Y2349200D01*
X8762892Y2366973D01*
X8788027Y2392108D01*
X8805800Y2422892D01*
X8815000Y2457227D01*
Y2492773D01*
X8805800Y2527108D01*
X8788027Y2557892D01*
X8762892Y2583027D01*
X8732108Y2600800D01*
X8697773Y2610000D01*
D02*
G37*
G36*
X8315000D02*
X8045000D01*
Y2340000D01*
X8315000D01*
Y2610000D01*
D02*
G37*
G36*
X6447773D02*
X6412227D01*
X6377892Y2600800D01*
X6347108Y2583027D01*
X6321973Y2557892D01*
X6304200Y2527108D01*
X6295000Y2492773D01*
Y2457227D01*
X6304200Y2422892D01*
X6321973Y2392108D01*
X6347108Y2366973D01*
X6377892Y2349200D01*
X6412227Y2340000D01*
X6447773D01*
X6482108Y2349200D01*
X6512892Y2366973D01*
X6538027Y2392108D01*
X6555800Y2422892D01*
X6565000Y2457227D01*
Y2492773D01*
X6555800Y2527108D01*
X6538027Y2557892D01*
X6512892Y2583027D01*
X6482108Y2600800D01*
X6447773Y2610000D01*
D02*
G37*
G36*
X6065000D02*
X5795000D01*
Y2340000D01*
X6065000D01*
Y2610000D01*
D02*
G37*
G36*
X9190000Y2260000D02*
X9010000D01*
Y2234107D01*
X8990000Y2227735D01*
X8985089Y2230570D01*
X8968558Y2235000D01*
X8951443D01*
X8934911Y2230570D01*
X8920089Y2222013D01*
X8907987Y2209911D01*
X8899430Y2195089D01*
X8895000Y2178557D01*
Y2161442D01*
X8899430Y2144911D01*
X8907987Y2130089D01*
X8920089Y2117987D01*
X8934911Y2109430D01*
X8951443Y2105000D01*
X8968558D01*
X8985089Y2109430D01*
X8990000Y2112265D01*
X9010000Y2105893D01*
Y2080000D01*
X9190000D01*
Y2260000D01*
D02*
G37*
G36*
X12454153Y2307500D02*
X12425847D01*
X12398507Y2300174D01*
X12373994Y2286021D01*
X12353979Y2266006D01*
X12339826Y2241493D01*
X12332500Y2214153D01*
Y2185847D01*
X12339826Y2158506D01*
X12353979Y2133993D01*
X12373994Y2113978D01*
X12398507Y2099826D01*
X12425847Y2092500D01*
X12454153D01*
X12481493Y2099826D01*
X12506006Y2113978D01*
X12526021Y2133993D01*
X12540174Y2158506D01*
X12547500Y2185847D01*
Y2214153D01*
X12540174Y2241493D01*
X12526021Y2266006D01*
X12506006Y2286021D01*
X12481493Y2300174D01*
X12454153Y2307500D01*
D02*
G37*
G36*
X12200153D02*
X12171847D01*
X12144507Y2300174D01*
X12119994Y2286021D01*
X12099979Y2266006D01*
X12085826Y2241493D01*
X12078500Y2214153D01*
Y2185847D01*
X12085826Y2158506D01*
X12099979Y2133993D01*
X12119994Y2113978D01*
X12144507Y2099826D01*
X12171847Y2092500D01*
X12200153D01*
X12227493Y2099826D01*
X12252006Y2113978D01*
X12272021Y2133993D01*
X12286174Y2158506D01*
X12293500Y2185847D01*
Y2214153D01*
X12286174Y2241493D01*
X12272021Y2266006D01*
X12252006Y2286021D01*
X12227493Y2300174D01*
X12200153Y2307500D01*
D02*
G37*
G36*
X10889153D02*
X10860847D01*
X10833507Y2300174D01*
X10808994Y2286021D01*
X10788979Y2266006D01*
X10774826Y2241493D01*
X10767500Y2214153D01*
Y2185847D01*
X10774826Y2158506D01*
X10788979Y2133993D01*
X10808994Y2113978D01*
X10833507Y2099826D01*
X10860847Y2092500D01*
X10889153D01*
X10916494Y2099826D01*
X10941007Y2113978D01*
X10961022Y2133993D01*
X10975174Y2158506D01*
X10982500Y2185847D01*
Y2214153D01*
X10975174Y2241493D01*
X10961022Y2266006D01*
X10941007Y2286021D01*
X10916494Y2300174D01*
X10889153Y2307500D01*
D02*
G37*
G36*
X10635153D02*
X10606847D01*
X10579507Y2300174D01*
X10554994Y2286021D01*
X10534979Y2266006D01*
X10520826Y2241493D01*
X10513500Y2214153D01*
Y2185847D01*
X10520826Y2158506D01*
X10534979Y2133993D01*
X10554994Y2113978D01*
X10579507Y2099826D01*
X10606847Y2092500D01*
X10635153D01*
X10662494Y2099826D01*
X10687007Y2113978D01*
X10707022Y2133993D01*
X10721174Y2158506D01*
X10728500Y2185847D01*
Y2214153D01*
X10721174Y2241493D01*
X10707022Y2266006D01*
X10687007Y2286021D01*
X10662494Y2300174D01*
X10635153Y2307500D01*
D02*
G37*
G36*
X9400000Y2260000D02*
X9220000D01*
Y2080000D01*
X9400000D01*
Y2108923D01*
X9420000D01*
Y2082500D01*
X9620000D01*
Y2237500D01*
X9420000D01*
Y2221077D01*
X9400000D01*
Y2260000D01*
D02*
G37*
G36*
X7252501Y2270001D02*
X7239999Y2265000D01*
X7239999Y2265000D01*
X7060000D01*
Y2085000D01*
X7239999D01*
X7252500Y2070178D01*
Y2070000D01*
X7407500D01*
Y2270000D01*
X7257929D01*
X7252501Y2270000D01*
Y2270001D01*
D02*
G37*
G36*
X2197773Y5300000D02*
X2162227D01*
X2127892Y5290800D01*
X2097108Y5273027D01*
X2071973Y5247892D01*
X2054200Y5217108D01*
X2045000Y5182773D01*
Y5147227D01*
X2054200Y5112892D01*
X2071973Y5082108D01*
X2097108Y5056973D01*
X2127892Y5039200D01*
X2162227Y5030000D01*
X2197773D01*
X2232108Y5039200D01*
X2262892Y5056973D01*
X2288027Y5082108D01*
X2305800Y5112892D01*
X2315000Y5147227D01*
Y5182773D01*
X2305800Y5217108D01*
X2288027Y5247892D01*
X2262892Y5273027D01*
X2232108Y5290800D01*
X2197773Y5300000D01*
D02*
G37*
G36*
Y4245000D02*
X2162227D01*
X2127892Y4235800D01*
X2097108Y4218027D01*
X2071973Y4192892D01*
X2054200Y4162108D01*
X2045000Y4127773D01*
Y4092227D01*
X2054200Y4057892D01*
X2071973Y4027108D01*
X2097108Y4001973D01*
X2127892Y3984200D01*
X2162227Y3975000D01*
X2197773D01*
X2232108Y3984200D01*
X2262892Y4001973D01*
X2288027Y4027108D01*
X2305800Y4057892D01*
X2315000Y4092227D01*
Y4127773D01*
X2305800Y4162108D01*
X2288027Y4192892D01*
X2262892Y4218027D01*
X2232108Y4235800D01*
X2197773Y4245000D01*
D02*
G37*
G36*
Y3205000D02*
X2162227D01*
X2127892Y3195800D01*
X2097108Y3178027D01*
X2071973Y3152892D01*
X2054200Y3122108D01*
X2045000Y3087773D01*
Y3052227D01*
X2054200Y3017892D01*
X2071973Y2987108D01*
X2097108Y2961973D01*
X2127892Y2944200D01*
X2162227Y2935000D01*
X2197773D01*
X2232108Y2944200D01*
X2262892Y2961973D01*
X2288027Y2987108D01*
X2305800Y3017892D01*
X2315000Y3052227D01*
Y3087773D01*
X2305800Y3122108D01*
X2288027Y3152892D01*
X2262892Y3178027D01*
X2232108Y3195800D01*
X2197773Y3205000D01*
D02*
G37*
%LPD*%
D10*
X3950000Y11440000D02*
D03*
Y10820000D02*
D03*
X2850000D02*
D03*
Y11440000D02*
D03*
D11*
X13060001Y7700000D02*
D03*
X13270000D02*
D03*
X14020000Y8390000D02*
D03*
X13810001D02*
D03*
X9310000Y2170000D02*
D03*
X9100000D02*
D03*
X6940000Y2175000D02*
D03*
X7150000D02*
D03*
D12*
X13060001Y7500000D02*
D03*
X13250000D02*
D03*
X9070000Y4080000D02*
D03*
X9260000D02*
D03*
X14430000Y8390000D02*
D03*
X14239999D02*
D03*
X7520000Y2170000D02*
D03*
X7330000D02*
D03*
D13*
X13175000Y5527655D02*
D03*
X13270000D02*
D03*
X13080000D02*
D03*
Y5750000D02*
D03*
X13175000D02*
D03*
X13270000D02*
D03*
D14*
X13275000Y8195000D02*
D03*
Y8005000D02*
D03*
X13025000D02*
D03*
Y8100000D02*
D03*
Y8195000D02*
D03*
D15*
X9520000Y2350000D02*
D03*
Y2160000D02*
D03*
X3050000Y9110000D02*
D03*
Y9300000D02*
D03*
Y5150000D02*
D03*
Y5340000D02*
D03*
X4525000Y11375000D02*
D03*
Y11185000D02*
D03*
D16*
X3050000Y8700000D02*
D03*
Y8910000D02*
D03*
Y4750000D02*
D03*
Y4960000D02*
D03*
X9070000Y4490000D02*
D03*
Y4280000D02*
D03*
X4525000Y11810000D02*
D03*
Y11600000D02*
D03*
D17*
X11122500Y9093000D02*
Y9100629D01*
X10712500Y9510629D02*
X11122500Y9100629D01*
X10712500Y9510629D02*
Y9771599D01*
X10575000Y9909099D02*
X10712500Y9771599D01*
X10575000Y9909099D02*
Y10400000D01*
X11074151Y8940701D02*
Y8940701D01*
X11097626Y8863874D02*
X11122500Y8839000D01*
X11074151Y8940701D02*
X11097626Y8917227D01*
Y8863874D02*
Y8917227D01*
X10997500Y9017353D02*
X11074151Y8940701D01*
X10997500Y9017353D02*
Y9140776D01*
X10575000Y9563277D02*
X10997500Y9140776D01*
X10575000Y9563277D02*
Y9750000D01*
X10868500Y9061500D02*
X10993500Y8936500D01*
X10868500Y9061500D02*
Y9093000D01*
X10993500Y8661985D02*
Y8936500D01*
Y8661985D02*
X11010000Y8645486D01*
Y8330000D02*
Y8645486D01*
X10462500Y9522155D02*
X10485500Y9499155D01*
X10462500Y9522155D02*
Y9771599D01*
X10325000Y9909099D02*
X10462500Y9771599D01*
X8787500Y4516971D02*
Y4712604D01*
X8760000Y4480000D02*
Y4489471D01*
X8787500Y4516971D01*
X11550000Y6530000D02*
X12080000Y6000000D01*
Y4650000D02*
Y6000000D01*
X9600000Y6820000D02*
Y6970000D01*
X10470000Y7840000D01*
X9976697Y6813303D02*
Y6906297D01*
X10640400Y7570000D01*
X11470000D01*
X13250000Y9350000D01*
X12830000Y9280000D02*
Y9905000D01*
X13250000Y10325000D01*
X11280000Y7730000D02*
X12830000Y9280000D01*
X11340000Y7630000D02*
X12867574Y9157574D01*
X10470000Y7630000D02*
X11340000D01*
X11550000Y6530000D02*
Y6537500D01*
X12200000Y4864853D02*
Y6165414D01*
X11698622Y6666793D02*
X12200000Y6165414D01*
X8098874Y5201126D02*
X8553769Y4746232D01*
Y4523769D02*
Y4746232D01*
X11728303Y4536762D02*
X11735000Y4530065D01*
X11717500Y4570412D02*
Y4682500D01*
Y4570412D02*
X11728303Y4559609D01*
Y4536762D02*
Y4559609D01*
X11658303Y4477823D02*
X11683989Y4452137D01*
Y4442666D02*
Y4452137D01*
X11658303Y4477823D02*
Y4518937D01*
X11657500Y4519740D02*
Y4657648D01*
Y4519740D02*
X11658303Y4518937D01*
X11287574Y5027574D02*
X11657500Y4657648D01*
X11597500Y4494887D02*
Y4632795D01*
X11598303Y4396583D02*
Y4494084D01*
Y4396583D02*
X11605000Y4389887D01*
X11597500Y4494887D02*
X11598303Y4494084D01*
X11527500Y4334943D02*
Y4617942D01*
X11202721Y4942721D02*
X11527500Y4617942D01*
X11450000Y4280000D02*
Y4610589D01*
X11160295Y4900294D02*
X11450000Y4610589D01*
X12727500Y7667500D02*
X12820000Y7760000D01*
X12537500Y7667500D02*
X12727500D01*
X10500000Y7730000D02*
X11280000D01*
X12743303Y9323303D02*
Y9363303D01*
X12750000Y9370000D01*
X11260000Y7840000D02*
X12743303Y9323303D01*
X12634575Y9374973D02*
Y9381019D01*
X11345413Y8060001D02*
X11353848D01*
X12001651Y8707804D02*
Y8742050D01*
X11353848Y8060001D02*
X12001651Y8707804D01*
Y8742050D02*
X12634575Y9374973D01*
X11941651Y8791651D02*
X12540000Y9390000D01*
X11328995Y8120000D02*
X11941651Y8732657D01*
Y8791651D01*
X11340000Y8230000D02*
X11881651Y8771651D01*
Y8841651D01*
X12430000Y9390000D01*
X12460000Y11610000D02*
X12902000D01*
X11450000Y11149896D02*
Y11150000D01*
Y11149896D02*
X11662396Y10937500D01*
X9900000Y9347429D02*
Y9495184D01*
X9907438Y9502622D02*
Y9512093D01*
X9727500Y9174930D02*
X9900000Y9347429D01*
Y9495184D02*
X9907438Y9502622D01*
X10058003Y9251997D02*
X10102503Y9207497D01*
X10058003Y9251997D02*
Y9262604D01*
X10020000Y9591997D02*
Y9600000D01*
X9990000Y9330607D02*
Y9561997D01*
X10020000Y9591997D01*
X9990000Y9330607D02*
X10058003Y9262604D01*
X9598500Y9332695D02*
X9864754Y9598949D01*
X9598500Y9093000D02*
Y9332695D01*
X9864754Y9598949D02*
X9868952D01*
X8892724Y9580000D02*
X8900000D01*
X8453500Y9140776D02*
X8892724Y9580000D01*
X7460000Y8300000D02*
Y8301723D01*
X7945500Y8787223D01*
X7424175Y8096751D02*
X8060003Y8732579D01*
X6600000Y8096751D02*
X7424175D01*
X6440137Y8019251D02*
X7339602D01*
X6440000Y8019388D02*
X6440137Y8019251D01*
X6368112Y7941888D02*
X11227299D01*
X11345413Y8060001D01*
X6290000Y8020000D02*
X6368112Y7941888D01*
X6290000Y8020000D02*
Y8550000D01*
X10670000Y6550000D02*
Y7159497D01*
X10470000Y7840000D02*
X11260000D01*
X5840000Y9150000D02*
Y9610000D01*
X5910000Y9680000D01*
X10690503Y7180000D02*
X12050000D01*
X12537500Y7667500D01*
X10670000Y7159497D02*
X10690503Y7180000D01*
X12140000Y4840000D02*
Y6092000D01*
X11624000Y6608000D02*
X12140000Y6092000D01*
X9880503Y5880000D02*
X10660000D01*
X11030000D02*
X11230497D01*
X11251000Y5859497D01*
X9727000Y5726497D02*
X9880503Y5880000D01*
X11251000Y5234223D02*
Y5859497D01*
Y5234223D02*
X11294852Y5190371D01*
X11662396Y10937500D02*
X12952605D01*
X14439999Y8040000D02*
X14450000Y8030000D01*
X14000000Y8040000D02*
X14439999D01*
X13270000Y7310000D02*
X14000000Y8040000D01*
X13089999Y7310000D02*
X13270000D01*
X13060001Y7340000D02*
X13089999Y7310000D01*
X13060001Y7340000D02*
Y7500000D01*
X12568379Y4661621D02*
X12580000Y4650000D01*
X12488379Y4661621D02*
X12568379D01*
X12252426Y4812426D02*
X12337574D01*
X12488379Y4661621D01*
X14150000Y6455000D02*
Y7480000D01*
X14145000Y6460000D02*
X14278999Y6326000D01*
X13320000Y6460000D02*
X14145000D01*
X7945500Y8787223D02*
Y8964000D01*
X8074500Y9093000D01*
X7500137Y8020137D02*
X8203500Y8723500D01*
Y8968000D01*
X7340489Y8020137D02*
X7500137D01*
X8060003Y8732579D02*
Y8824503D01*
X8074500Y8839000D01*
X7003500Y8453500D02*
Y8530000D01*
X7000000Y8450000D02*
X7003500Y8453500D01*
Y8530000D02*
X7312500Y8839000D01*
X6240000Y5760000D02*
X8792777D01*
X8965000Y5488223D02*
Y5587777D01*
Y5488223D02*
X9025000Y5428224D01*
Y5386178D02*
Y5428224D01*
X8792777Y5760000D02*
X8965000Y5587777D01*
X9025000Y5386178D02*
X9090000Y5321178D01*
Y5286000D02*
Y5321178D01*
X8878459Y5461541D02*
Y5462363D01*
Y5461541D02*
X8965000Y5375000D01*
Y5135901D02*
Y5375000D01*
X8836000Y5504822D02*
Y5540000D01*
Y5504822D02*
X8878459Y5462363D01*
X12952605Y10937500D02*
X13170052Y11154948D01*
Y11175052D01*
X13220000Y11225000D01*
X13350000D01*
X11990000Y11420000D02*
X12056512Y11353488D01*
X12778116D02*
X12840802Y11290802D01*
Y11279198D02*
Y11290802D01*
Y11279198D02*
X12895000Y11225000D01*
X12056512Y11353488D02*
X12778116D01*
X12895000Y11225000D02*
X13025000D01*
X10325000Y9530412D02*
X10370000Y9485412D01*
Y9480000D02*
Y9485412D01*
X10325000Y9530412D02*
Y9750000D01*
X11860000Y11220000D02*
X12686500D01*
X12691500Y11225000D01*
X12200000Y4864853D02*
X12252426Y4812426D01*
X10868500Y8366912D02*
X10900000Y8335412D01*
X10868500Y8366912D02*
Y8839000D01*
X10900000Y8330000D02*
Y8335412D01*
X12140000Y4840000D02*
X12330000Y4650000D01*
X10614500Y8389405D02*
X10682221Y8321685D01*
X10614500Y8389405D02*
Y8839000D01*
X9522723Y8230000D02*
X11340000D01*
X8965500Y8787223D02*
X9522723Y8230000D01*
X8070000Y8120000D02*
X11328995D01*
X7890000Y8300000D02*
X8070000Y8120000D01*
X8965500Y8787223D02*
Y8964000D01*
X8836500Y9093000D02*
X8965500Y8964000D01*
X9727500Y8968000D02*
Y9174930D01*
X9598500Y8839000D02*
X9727500Y8968000D01*
X10485500Y8787223D02*
Y9499155D01*
X10412277Y8714000D02*
X10485500Y8787223D01*
X10325000Y9909099D02*
Y10400000D01*
X9852500Y9093000D02*
X9977500Y8968000D01*
Y8791223D02*
X10054724Y8714000D01*
X10412277D01*
X9977500Y8791223D02*
Y8968000D01*
X12902000Y11610000D02*
X13025000Y11733000D01*
X9473500Y8968000D02*
Y9373500D01*
X9660000Y9560000D01*
X9344500Y8839000D02*
X9473500Y8968000D01*
X9890000Y11190000D02*
X10435000D01*
X10575000Y11050000D01*
X9344500Y9394500D02*
X9510000Y9560000D01*
X9344500Y9093000D02*
Y9394500D01*
X9219500Y9439500D02*
X9350000Y9570000D01*
X9219500Y8968000D02*
Y9439500D01*
X10102503Y9096997D02*
X10106500Y9093000D01*
X10102503Y9096997D02*
Y9207497D01*
X10106500Y8839000D02*
X10231500Y8964000D01*
Y9628155D01*
X10212500Y9647155D02*
X10231500Y9628155D01*
X10212500Y9647155D02*
Y9771599D01*
X10075000Y9909099D02*
X10212500Y9771599D01*
X10075000Y9909099D02*
Y10400000D01*
X9090500Y8839000D02*
X9219500Y8968000D01*
X8453500Y8964000D02*
Y9140776D01*
X8328500Y8839000D02*
X8453500Y8964000D01*
X6550500Y8839000D02*
X6675500Y8964000D01*
X6852276D01*
X6933500Y9045224D01*
Y9208501D01*
X7475000Y9750000D01*
X6605500Y8640000D02*
X6804500Y8839000D01*
X6562500Y9335000D02*
X6804500Y9093000D01*
X6562500Y9335000D02*
Y9771598D01*
X6425000Y9909099D02*
X6562500Y9771598D01*
X6425000Y9909099D02*
Y10450000D01*
Y9221500D02*
Y9750000D01*
X6296500Y9093000D02*
X6425000Y9221500D01*
X7339602Y8019251D02*
X7340489Y8020137D01*
X8203500Y8968000D02*
X8328500Y9093000D01*
X11330000Y5070000D02*
X11700000Y4700000D01*
Y4700000D02*
Y4700000D01*
Y4700000D02*
X11717500Y4682500D01*
X10568929Y4900294D02*
X11160295D01*
X11294852Y5105148D02*
X11330000Y5070000D01*
X11330000D01*
X11294852Y5105148D02*
Y5190371D01*
X9727000Y5411000D02*
Y5726497D01*
Y5411000D02*
X9852000Y5286000D01*
X11270000Y5045147D02*
X11287574Y5027574D01*
X11270000Y5045147D02*
X11270000D01*
X11287574Y5027574D02*
X11287574D01*
X11252426Y5062721D02*
X11252426D01*
X11270000Y5045147D01*
X10316000Y5750000D02*
X10834777D01*
X10997000Y5587777D01*
X10106000Y5540000D02*
X10316000Y5750000D01*
X11150929Y5080294D02*
X11234853D01*
X11252426Y5062721D01*
X10997000Y5234223D02*
Y5587777D01*
Y5234223D02*
X11150929Y5080294D01*
X11245147Y4985147D02*
X11597500Y4632795D01*
X11245147Y4985147D02*
X11245147D01*
X11227573Y5002721D02*
X11227574D01*
X11245147Y4985147D01*
X10510000Y5690000D02*
X10640777D01*
X10741000Y5589777D01*
X10360000Y5540000D02*
X10510000Y5690000D01*
X10956929Y5020294D02*
X11210000D01*
X11227573Y5002721D01*
X10741000Y5236223D02*
Y5589777D01*
Y5236223D02*
X10956929Y5020294D01*
X11202721Y4942721D02*
X11202721D01*
X10360000Y5286000D02*
X10685706Y4960294D01*
X11185147D01*
X11202721Y4942721D01*
X10489000Y5415000D02*
X10614000Y5540000D01*
X10312223Y5415000D02*
X10489000D01*
X10235000Y5337777D02*
X10312223Y5415000D01*
X10235000Y5234223D02*
X10568929Y4900294D01*
X10235000Y5234223D02*
Y5337777D01*
X8787457Y4797500D02*
X8870000Y4714957D01*
Y4530000D02*
Y4714957D01*
X8457000Y5012705D02*
Y5411000D01*
X8672205Y4797500D02*
X8787457D01*
X8457000Y5012705D02*
X8672205Y4797500D01*
X8328000Y5540000D02*
X8457000Y5411000D01*
X8199000Y5185852D02*
X8647353Y4737500D01*
X8762604D02*
X8787500Y4712604D01*
X8647353Y4737500D02*
X8762604D01*
X8199000Y5185852D02*
Y5415000D01*
X8074000Y5540000D02*
X8199000Y5415000D01*
X8098874Y5201126D02*
Y5261126D01*
X8074000Y5286000D02*
X8098874Y5261126D01*
X8711000Y5179000D02*
X9839909Y4050091D01*
X8711000Y5179000D02*
Y5411000D01*
X9839909Y4000091D02*
X9860000Y3980000D01*
X9839909Y4000091D02*
Y4050091D01*
X9598000Y5286000D02*
X9624000D01*
X9780001Y5130000D02*
X9936266D01*
X9624000Y5286000D02*
X9780001Y5130000D01*
X9936266D02*
X10306173Y4760093D01*
Y4633827D02*
Y4760093D01*
Y4633827D02*
X10310000Y4630000D01*
X10430000Y4640000D02*
Y4721117D01*
X9981000Y5170117D02*
X10430000Y4721117D01*
X9981000Y5170117D02*
Y5411000D01*
X9852000Y5540000D02*
X9981000Y5411000D01*
X8965000Y5135901D02*
X9563401Y4537500D01*
X10837500D01*
X10950000Y4650000D01*
X9550000Y4450000D02*
X10480000D01*
X8875459Y5124541D02*
X9550000Y4450000D01*
X8875459Y5124541D02*
Y5211363D01*
X10480000Y4450000D02*
X10950000Y3980000D01*
X8836000Y5250822D02*
Y5286000D01*
Y5250822D02*
X8875459Y5211363D01*
X9219000Y5234223D02*
X9499066Y4954157D01*
X9219000Y5234223D02*
Y5411000D01*
X9090000Y5540000D02*
X9219000Y5411000D01*
X9555843Y4954157D02*
X9860000Y4650000D01*
X9499066Y4954157D02*
X9555843D01*
X8582000Y5540000D02*
X8711000Y5411000D01*
X7644892Y4953108D02*
X8096891D01*
X7312000Y5286000D02*
X7644892Y4953108D01*
X8096891D02*
X8425000Y4625000D01*
X7325000Y2175000D02*
X7330000Y2170000D01*
X7150000Y2175000D02*
X7325000D01*
X3370503Y5030000D02*
X4620000D01*
X3350000Y4060000D02*
Y5009497D01*
X3370503Y5030000D01*
X5315000Y3975000D02*
X5350000Y4010000D01*
X4100000Y3975000D02*
X5315000D01*
X5350000Y4010000D02*
Y4500000D01*
X6924000Y2970000D02*
X6925000Y2971000D01*
X6560000Y2970000D02*
X6924000D01*
X6832500Y2132500D02*
X6897500D01*
X6830000Y2130000D02*
X6832500Y2132500D01*
X6750000Y2130000D02*
X6830000D01*
X6897500Y2132500D02*
X6940000Y2175000D01*
X7137500Y2187500D02*
X7150000Y2175000D01*
D18*
X9260000Y4080000D02*
Y4280000D01*
X11700000Y5940000D02*
X11790000D01*
X11610000D02*
X11700000D01*
X10600000Y6390000D02*
X10690000D01*
X10500000D02*
X10600000D01*
X11220000Y6160000D02*
X11390000D01*
X11115000D02*
X11220000D01*
X11010000D02*
X11115000D01*
X10690000Y6390000D02*
X10780000D01*
X10134844Y6755156D02*
X10500000Y6390000D01*
X13030000Y8095000D02*
X13159589D01*
X13025000Y8100000D02*
X13030000Y8095000D01*
X10650000Y7470000D02*
X11770000D01*
X12780000Y8480000D01*
X8870000Y4220000D02*
Y4225412D01*
X8930000Y4285412D01*
Y4460711D01*
X12830000Y8049809D02*
Y8140000D01*
X12880000Y8190000D01*
X12830000Y8049809D02*
X12874809Y8005000D01*
X11390000Y6160000D02*
X11610000Y5940000D01*
X12750000Y6061980D02*
Y6800000D01*
X12844167Y6894166D01*
X13115166D01*
X12750000Y6061980D02*
X13064290Y5747690D01*
X12874809Y8005000D02*
X13025000D01*
X12880000Y8190000D02*
X13020000D01*
X13025000Y8195000D01*
X13170000Y5461353D02*
Y5522655D01*
X13120000Y5411353D02*
X13170000Y5461353D01*
Y5522655D02*
X13175000Y5527655D01*
X13120000Y5410000D02*
Y5411353D01*
X13250000Y7500000D02*
X13260001Y7510000D01*
Y7690000D01*
X13270000Y7700000D01*
X7799398Y8839000D02*
X7820500D01*
X7311355Y8350957D02*
X7799398Y8839000D01*
X7250957Y8350957D02*
X7311355D01*
X7250000Y8350000D02*
X7250957Y8350957D01*
X7010000Y8282500D02*
X7566500Y8839000D01*
X7010000Y8180000D02*
X7010000Y8180000D01*
Y8282500D01*
X13640956Y8260957D02*
X13680956D01*
X13639999Y8260000D02*
X13640956Y8260957D01*
X13680956D02*
X13810001Y8390000D01*
X14020000D02*
X14239999D01*
X4525000Y11810000D02*
X4650000D01*
X8959289Y4490000D02*
X9070000D01*
X8930000Y4460711D02*
X8959289Y4490000D01*
X9070000Y4080000D02*
Y4280000D01*
X6380957Y4914754D02*
Y4929043D01*
Y4914754D02*
X6580000Y4715710D01*
Y4620000D02*
X6920000Y4280000D01*
X6580000Y4620000D02*
Y4715710D01*
X6920000Y4280000D02*
X7820000D01*
X7960000Y4420000D01*
X6380000Y4930000D02*
X6380957Y4929043D01*
X8960000Y2170000D02*
X9100000D01*
X9315000Y2165000D02*
X9515000D01*
X9520000Y2160000D01*
X9310000Y2170000D02*
X9315000Y2165000D01*
X12950000Y6000000D02*
X13100000Y5850000D01*
X12950000Y6000000D02*
Y6129000D01*
X13125000Y6304000D01*
X13115166Y6894166D02*
X13125000Y6904000D01*
X13064290Y5747690D02*
X13077690D01*
X13080000Y5750000D01*
X13175000D02*
X13180000Y5755000D01*
X13175000Y5750000D02*
Y5820710D01*
X13145711Y5850000D02*
X13175000Y5820710D01*
X13100000Y5850000D02*
X13145711D01*
D19*
X12650000Y7590000D02*
X12950000D01*
X13060001Y7700000D01*
D20*
X13989999Y4125000D02*
Y4300000D01*
X13028578Y5285000D02*
X13263577Y5050000D01*
X12839999Y5285000D02*
X13028578D01*
X13634000Y5050000D02*
X13853999Y4830000D01*
X13263577Y5050000D02*
X13634000D01*
X13600957Y4689043D02*
X13989999Y4300000D01*
X13600000Y4830000D02*
X13600957Y4829043D01*
Y4689043D02*
Y4829043D01*
X11090000Y9630000D02*
Y10182000D01*
X11235500Y9484500D02*
X11287500D01*
X11290000Y9482000D01*
X11090000Y9630000D02*
X11235500Y9484500D01*
X11090000Y10182000D02*
X11290000Y10382000D01*
X11020000Y11160000D02*
Y11250000D01*
Y11160000D02*
X11290000Y10890000D01*
D21*
X12430000Y6650000D02*
X12540000D01*
X12330000D02*
X12430000D01*
X12330000Y5980822D02*
Y6650000D01*
Y5980822D02*
X12332000Y5978822D01*
Y5285000D02*
Y5978822D01*
X4525000Y11185000D02*
X4815000D01*
X4840000Y11210000D01*
X4525000Y11375000D02*
Y11600000D01*
X3376000Y9300000D02*
X3500000Y9176000D01*
X3050000Y9300000D02*
X3376000D01*
X3050000Y8910000D02*
Y9110000D01*
X3339999Y5340000D02*
X3500000Y5180000D01*
X3050000Y5340000D02*
X3339999D01*
X3050000Y4960000D02*
Y5150000D01*
D22*
X5920000Y4880000D02*
Y5090000D01*
X12958995Y4500000D02*
X13000000Y4541005D01*
X12624547Y5205453D02*
X13000000Y4830000D01*
Y4541005D02*
Y4830000D01*
X12624547Y5205453D02*
Y5223452D01*
X12586000Y5261999D02*
Y5285000D01*
Y5261999D02*
X12624547Y5223452D01*
X6862000Y5090000D02*
X7054000Y5282000D01*
X5920000Y5090000D02*
X6862000D01*
X7054000Y4504000D02*
Y5282000D01*
D23*
X12625000Y8054000D02*
X12809000Y7870000D01*
X13410712D01*
X12705000Y4435000D02*
X13089999Y4050000D01*
X12705000Y4435000D02*
Y4701777D01*
X12332000Y5074777D02*
X12705000Y4701777D01*
X12332000Y5074777D02*
Y5285000D01*
X13057500Y8195000D02*
X13402499Y8540000D01*
X13025000Y8195000D02*
X13057500D01*
X13402499Y8540000D02*
X14302499D01*
X14430000Y8412500D01*
Y8390000D02*
Y8412500D01*
X13410712Y7870000D02*
X13439999Y7899290D01*
X13307500Y8195000D02*
X13439999Y8062500D01*
Y7899290D02*
Y8062500D01*
X13275000Y8195000D02*
X13307500D01*
D24*
X6042500Y8067500D02*
Y8839000D01*
X7510000Y6600000D02*
X9979688D01*
X6042500Y8067500D02*
X7510000Y6600000D01*
X10134844Y6755156D02*
X10709688Y7330000D01*
X9979688Y6600000D02*
X10134844Y6755156D01*
X10709688Y7330000D02*
X11900000D01*
X12370000Y7800000D01*
X12625000D01*
X11690000Y7050000D02*
X13017000D01*
X10880000Y6240000D02*
X11690000Y7050000D01*
X13017000D02*
X13125000Y7158000D01*
X10494956Y6240000D02*
X10880000D01*
X6480000D02*
X10494956D01*
X11109563Y5625393D01*
Y5552437D02*
Y5625393D01*
Y5552437D02*
X11122000Y5540000D01*
X10825000Y9750000D02*
Y10400000D01*
X5884500Y5443500D02*
Y5644500D01*
X6480000Y6240000D01*
X5884500Y5443500D02*
X6042000Y5286000D01*
X7054000Y5282000D02*
X7058000Y5286000D01*
X7050000Y4500000D02*
X7550000D01*
X7050000D02*
X7054000Y4504000D01*
X14125000Y5250000D02*
X14268858Y5393859D01*
Y5553859D01*
X14278999Y5564000D01*
X13675000Y5406172D02*
X13831172Y5250000D01*
X14278999Y5564000D02*
Y5818000D01*
X13675000Y5406172D02*
Y5754000D01*
X13133867Y6912867D02*
X13237868D01*
X13775000Y7650000D02*
X13964859Y7839859D01*
X13237868Y6912867D02*
X13775000Y7450000D01*
Y7650000D01*
X13125000Y6304000D02*
X13675000Y5754000D01*
X13125000Y6904000D02*
X13133867Y6912867D01*
X13964859Y7839859D02*
X14014859D01*
X14025000Y7850000D01*
X14278999D01*
X13831172Y5250000D02*
X14125000D01*
D25*
X2970000Y8600000D02*
X2972870Y8602870D01*
Y8622870D02*
X3050000Y8700000D01*
X2972870Y8602870D02*
Y8622870D01*
X3050000Y4590000D02*
Y4750000D01*
D26*
X13741251Y9350000D02*
X13750000D01*
X13152499Y8770000D02*
X13161250D01*
X13741251Y9350000D01*
D27*
X9825000Y9750000D02*
D03*
X10110000Y3980000D02*
D03*
X12830000Y4650000D02*
D03*
X6425000Y3225000D02*
D03*
X11747470Y9748599D02*
D03*
Y10398599D02*
D03*
X11750000Y11050000D02*
D03*
X11747470Y11698599D02*
D03*
X7225000Y10450000D02*
D03*
Y9750000D02*
D03*
X8275000Y11700000D02*
D03*
Y11075000D02*
D03*
X8525000Y10450000D02*
D03*
Y9750000D02*
D03*
X8675000Y3925000D02*
D03*
Y4625000D02*
D03*
Y3225000D02*
D03*
X12830000Y3980000D02*
D03*
X12820000Y2650000D02*
D03*
X12830000Y3320000D02*
D03*
X11240000Y2650000D02*
D03*
X9825000Y10400000D02*
D03*
Y11050000D02*
D03*
Y11700000D02*
D03*
X6425000Y3925000D02*
D03*
Y4625000D02*
D03*
X6175000Y11150000D02*
D03*
Y10450000D02*
D03*
Y9750000D02*
D03*
X11200000Y3980000D02*
D03*
Y4650000D02*
D03*
X10110000D02*
D03*
D28*
X10075000Y9750000D02*
D03*
X10325000D02*
D03*
X10575000D02*
D03*
X10825000D02*
D03*
X9860000Y3980000D02*
D03*
X9610000D02*
D03*
X4970000Y8660000D02*
D03*
Y8910000D02*
D03*
X11830000Y4650000D02*
D03*
X12080000D02*
D03*
X12330000D02*
D03*
X12580000D02*
D03*
X5925000Y3225000D02*
D03*
X6175000D02*
D03*
X11997470Y9748599D02*
D03*
X12247470D02*
D03*
X11997470Y10398599D02*
D03*
X12247470D02*
D03*
X12000000Y11050000D02*
D03*
X12250000D02*
D03*
X11997470Y11698599D02*
D03*
X12247470D02*
D03*
X7475000Y10450000D02*
D03*
X7725000D02*
D03*
X7975000D02*
D03*
Y9750000D02*
D03*
X9275000Y11700000D02*
D03*
Y11075000D02*
D03*
Y10450000D02*
D03*
Y9750000D02*
D03*
X9025000Y11075000D02*
D03*
X8775000D02*
D03*
X8525000D02*
D03*
X8775000Y9750000D02*
D03*
X9025000D02*
D03*
X8175000Y3925000D02*
D03*
X8425000D02*
D03*
X8175000Y4625000D02*
D03*
X8425000D02*
D03*
X8175000Y3225000D02*
D03*
X8425000D02*
D03*
X12580000Y3980000D02*
D03*
X12330000D02*
D03*
X12080000D02*
D03*
X11830000D02*
D03*
X12570000Y2650000D02*
D03*
X12320000D02*
D03*
X12070000D02*
D03*
X11820000D02*
D03*
X12580000Y3320000D02*
D03*
X12330000D02*
D03*
X12080000D02*
D03*
X11830000D02*
D03*
X10490000Y2650000D02*
D03*
X10740000D02*
D03*
X10990000D02*
D03*
X10075000Y10400000D02*
D03*
X10325000D02*
D03*
X10575000D02*
D03*
X10825000D02*
D03*
X10075000Y11050000D02*
D03*
X10325000D02*
D03*
X10575000D02*
D03*
X10825000D02*
D03*
X10075000Y11700000D02*
D03*
X10325000D02*
D03*
X10575000D02*
D03*
X10825000D02*
D03*
X6175000Y3925000D02*
D03*
X5925000D02*
D03*
X6175000Y4625000D02*
D03*
X5925000D02*
D03*
X6425000Y11150000D02*
D03*
X6675000D02*
D03*
X6425000Y10450000D02*
D03*
X6675000D02*
D03*
X6425000Y9750000D02*
D03*
X6675000D02*
D03*
X7725000Y9750000D02*
D03*
X7475000D02*
D03*
X8525000Y11700000D02*
D03*
X8775000D02*
D03*
X9025000D02*
D03*
Y10450000D02*
D03*
X8775000D02*
D03*
X10950000Y3980000D02*
D03*
X10700000D02*
D03*
X10950000Y4650000D02*
D03*
X10700000D02*
D03*
X9860000D02*
D03*
X9610000D02*
D03*
D29*
X11376500Y8839000D02*
D03*
X10868500D02*
D03*
X9598500D02*
D03*
X9852500D02*
D03*
X9344500D02*
D03*
X9090500D02*
D03*
X8836500D02*
D03*
X8582500D02*
D03*
X8328500D02*
D03*
X8074500D02*
D03*
X10106500D02*
D03*
X11122500D02*
D03*
X10614500D02*
D03*
X10614000Y5286000D02*
D03*
X9852000D02*
D03*
Y5540000D02*
D03*
X10106000Y5286000D02*
D03*
Y5540000D02*
D03*
X10360000Y5286000D02*
D03*
Y5540000D02*
D03*
X10614000D02*
D03*
X7566000Y5286000D02*
D03*
Y5540000D02*
D03*
X8074000Y5286000D02*
D03*
X7820000D02*
D03*
Y5540000D02*
D03*
X8074000D02*
D03*
X8328000Y5286000D02*
D03*
Y5540000D02*
D03*
X8582000Y5286000D02*
D03*
Y5540000D02*
D03*
X8836000Y5286000D02*
D03*
Y5540000D02*
D03*
X9090000D02*
D03*
Y5286000D02*
D03*
X6296500Y8839000D02*
D03*
X10360500D02*
D03*
X7058500D02*
D03*
X6550500D02*
D03*
X6804500D02*
D03*
X7566500D02*
D03*
X7820500D02*
D03*
X7312500D02*
D03*
X7312000Y5540000D02*
D03*
X6042000D02*
D03*
X6296000Y5286000D02*
D03*
Y5540000D02*
D03*
X6550000Y5286000D02*
D03*
Y5540000D02*
D03*
X6804000Y5286000D02*
D03*
Y5540000D02*
D03*
X7058000Y5286000D02*
D03*
Y5540000D02*
D03*
X7312000Y5286000D02*
D03*
X11376000D02*
D03*
X11122000Y5540000D02*
D03*
X11376000D02*
D03*
X10868000Y5286000D02*
D03*
X11122000D02*
D03*
X10868000Y5540000D02*
D03*
X11376500Y9093000D02*
D03*
X9852500D02*
D03*
X9598500D02*
D03*
X9344500D02*
D03*
X9090500D02*
D03*
X8836500D02*
D03*
X11122500D02*
D03*
X10868500D02*
D03*
X10614500D02*
D03*
X10106500D02*
D03*
X10360500D02*
D03*
X6042500D02*
D03*
X8074500D02*
D03*
X8328500D02*
D03*
X8582500D02*
D03*
X7820500D02*
D03*
X6804500D02*
D03*
X6296500D02*
D03*
X7058500D02*
D03*
X7312500D02*
D03*
X6550500D02*
D03*
X7566500D02*
D03*
X9598000Y5286000D02*
D03*
X9344000Y5540000D02*
D03*
Y5286000D02*
D03*
X9598000Y5540000D02*
D03*
X13152499Y8770000D02*
D03*
X13406500D02*
D03*
X13660500D02*
D03*
X13914500D02*
D03*
X14168500D02*
D03*
X13150000Y10800000D02*
D03*
X13403999D02*
D03*
X13658000D02*
D03*
X13912000D02*
D03*
X14166000D02*
D03*
X13125000Y6050000D02*
D03*
X12625000Y7800000D02*
D03*
X3450000Y5950000D02*
D03*
X4500000Y6150000D02*
D03*
Y5750000D02*
D03*
X3200000Y6150000D02*
D03*
Y5750000D02*
D03*
X3850000Y5950000D02*
D03*
X4250000D02*
D03*
X3500000Y9950000D02*
D03*
X4550000Y10150000D02*
D03*
Y9750000D02*
D03*
X3250000Y10150000D02*
D03*
Y9750000D02*
D03*
X3900000Y9950000D02*
D03*
X4300000D02*
D03*
X14000000Y9350000D02*
D03*
X13750000D02*
D03*
X13500000D02*
D03*
X13250000D02*
D03*
X13000000D02*
D03*
X13650000Y4250000D02*
D03*
Y4000000D02*
D03*
Y3750000D02*
D03*
Y3500000D02*
D03*
Y3250000D02*
D03*
X14310001Y4250000D02*
D03*
Y4000000D02*
D03*
Y3750000D02*
D03*
Y3500000D02*
D03*
Y3250000D02*
D03*
X13000000Y10325000D02*
D03*
X13250000D02*
D03*
X13500000D02*
D03*
X13750000D02*
D03*
X14000000D02*
D03*
D30*
X6042500Y8839000D02*
D03*
X6042000Y5286000D02*
D03*
X14422501Y8770000D02*
D03*
X14420000Y10800000D02*
D03*
X14250000Y9350000D02*
D03*
Y10325000D02*
D03*
D31*
X3400000Y10990000D02*
D03*
Y11440000D02*
D03*
D32*
X4970000Y9160000D02*
D03*
D33*
X3500000Y3654000D02*
D03*
Y3150000D02*
D03*
Y2646000D02*
D03*
X4250000Y3654000D02*
D03*
Y3150000D02*
D03*
Y2646000D02*
D03*
Y5180000D02*
D03*
Y9176000D02*
D03*
Y6642000D02*
D03*
Y7146000D02*
D03*
Y7650000D02*
D03*
X3500000Y6642000D02*
D03*
Y7146000D02*
D03*
Y7650000D02*
D03*
D34*
Y5180000D02*
D03*
Y9176000D02*
D03*
D35*
X5930000Y2475000D02*
D03*
X4850000Y4500000D02*
D03*
X8180000Y2475000D02*
D03*
X5450000Y11500000D02*
D03*
X7050000Y4500000D02*
D03*
D36*
X6430000Y2475000D02*
D03*
X5350000Y4500000D02*
D03*
X8680000Y2475000D02*
D03*
X4950000Y11500000D02*
D03*
X2180000Y6205000D02*
D03*
X2180000Y4110000D02*
D03*
Y5165000D02*
D03*
Y3070000D02*
D03*
X7550000Y4500000D02*
D03*
X2049999Y10380000D02*
D03*
X2050000Y9330000D02*
D03*
Y8290000D02*
D03*
X2052500Y7240000D02*
D03*
D37*
X12839999Y5285000D02*
D03*
X10250000Y3450000D02*
D03*
X10692000D02*
D03*
X7704000Y10925000D02*
D03*
Y11625000D02*
D03*
X12694000Y2200000D02*
D03*
X11129000D02*
D03*
X13853999Y4830000D02*
D03*
X6171000Y11600000D02*
D03*
X7704000Y11275000D02*
D03*
D38*
X12586000Y5285000D02*
D03*
X12332000D02*
D03*
X13125000Y7158000D02*
D03*
Y6904000D02*
D03*
X9775000Y2375000D02*
D03*
Y2629000D02*
D03*
X9742000Y3450000D02*
D03*
X9996000D02*
D03*
X10946000D02*
D03*
X11200000D02*
D03*
X13675000Y11479000D02*
D03*
Y11733000D02*
D03*
X11290000Y11526000D02*
D03*
Y11780000D02*
D03*
Y9736000D02*
D03*
Y9990000D02*
D03*
Y10636000D02*
D03*
Y10890000D02*
D03*
X7450000Y10925000D02*
D03*
X7196000D02*
D03*
X7450000Y11625000D02*
D03*
X7196000D02*
D03*
X13350000Y11479000D02*
D03*
Y11733000D02*
D03*
X9175000Y3275000D02*
D03*
Y3529000D02*
D03*
X4900000Y2750000D02*
D03*
Y2496000D02*
D03*
X12186000Y2200000D02*
D03*
X12440000D02*
D03*
X10621000D02*
D03*
X10875000D02*
D03*
X13346001Y4830000D02*
D03*
X13600000D02*
D03*
X13025000Y11733000D02*
D03*
Y11479000D02*
D03*
X12691500Y11733000D02*
D03*
Y11479000D02*
D03*
X4875000Y9746000D02*
D03*
Y10000000D02*
D03*
X6925000Y3479000D02*
D03*
Y3225000D02*
D03*
X6679000Y11600000D02*
D03*
X6425000D02*
D03*
X7196000Y11275000D02*
D03*
X7450000D02*
D03*
D39*
X13831172Y5250000D02*
D03*
X5806172Y9750000D02*
D03*
Y10250000D02*
D03*
D40*
X13325000Y5250000D02*
D03*
X5300000Y9750000D02*
D03*
Y10250000D02*
D03*
D41*
X13125000Y6304000D02*
D03*
X12625000Y8054000D02*
D03*
X13650000Y3000000D02*
D03*
X14310001D02*
D03*
D42*
X13125000Y6650000D02*
D03*
X9775000Y2883000D02*
D03*
X13675000Y11225000D02*
D03*
X11290000Y11272000D02*
D03*
Y9482000D02*
D03*
Y10382000D02*
D03*
X13350000Y11225000D02*
D03*
X9175000Y3021000D02*
D03*
X4900000Y3004000D02*
D03*
X13025000Y11225000D02*
D03*
X12691500D02*
D03*
X4875000Y10254000D02*
D03*
X6925000Y2971000D02*
D03*
D43*
X14025000Y7342000D02*
D03*
X14278999D02*
D03*
X14025000Y7088000D02*
D03*
X14278999D02*
D03*
X14025000Y6834000D02*
D03*
X14278999D02*
D03*
X14025000Y5564000D02*
D03*
Y5818000D02*
D03*
Y6072000D02*
D03*
Y6326000D02*
D03*
X14278999Y6580000D02*
D03*
X14025000D02*
D03*
X14278999Y6326000D02*
D03*
X14025000Y7850000D02*
D03*
X14278999Y7596000D02*
D03*
X14025000D02*
D03*
X14278999Y6072000D02*
D03*
Y5818000D02*
D03*
Y5564000D02*
D03*
D44*
Y7850000D02*
D03*
D45*
X2180000Y6705000D02*
D03*
X2180000Y4610000D02*
D03*
Y5665000D02*
D03*
Y3570000D02*
D03*
X2049999Y10880000D02*
D03*
X2050000Y9830000D02*
D03*
Y8790000D02*
D03*
X2052500Y7740000D02*
D03*
D46*
X2000000Y11600000D02*
D03*
Y2400000D02*
D03*
X14200000D02*
D03*
Y11600000D02*
D03*
D47*
X8760000Y4480000D02*
D03*
X9350000Y4220000D02*
D03*
X9460000Y4217500D02*
D03*
X9260000Y4280000D02*
D03*
X12650000Y7590000D02*
D03*
X13989999Y4125000D02*
D03*
X12540000Y6650000D02*
D03*
X12430000D02*
D03*
X12330000D02*
D03*
X11790000Y5940000D02*
D03*
X11700000D02*
D03*
X11610000D02*
D03*
X10600000Y6390000D02*
D03*
X11115000Y6160000D02*
D03*
X11220000D02*
D03*
X11010000D02*
D03*
X10690000Y6390000D02*
D03*
X10780000D02*
D03*
X13159589Y8095000D02*
D03*
X5920000Y4990000D02*
D03*
Y4890000D02*
D03*
X8250000Y10740000D02*
D03*
X8160000Y10790000D02*
D03*
X9600000Y6820000D02*
D03*
X9976697Y6813303D02*
D03*
X10650000Y7470000D02*
D03*
X12870000Y9160000D02*
D03*
X11550000Y6537500D02*
D03*
X11698622Y6666793D02*
D03*
X9410094Y4340492D02*
D03*
X8870000Y4220000D02*
D03*
X8553769Y4523769D02*
D03*
X10880000Y4370000D02*
D03*
X10889509Y4264419D02*
D03*
X10900000Y4170000D02*
D03*
X11735000Y4530065D02*
D03*
X11683989Y4442666D02*
D03*
X11605000Y4389887D02*
D03*
X11527500Y4334943D02*
D03*
X11450000Y4280000D02*
D03*
X12820000Y7760000D02*
D03*
X10500000Y7730000D02*
D03*
X10470000Y7630000D02*
D03*
X11010000Y8330000D02*
D03*
X12750000Y9370000D02*
D03*
X12634575Y9381019D02*
D03*
X12540000Y9390000D02*
D03*
X12430000D02*
D03*
X12460000Y11610000D02*
D03*
X11450000Y11150000D02*
D03*
X9907438Y9512093D02*
D03*
X9868952Y9598949D02*
D03*
X8900000Y9580000D02*
D03*
X7460000Y8300000D02*
D03*
X6600000Y8096751D02*
D03*
X6440000Y8019388D02*
D03*
X10297747Y2797973D02*
D03*
Y2707973D02*
D03*
X3606763Y3280571D02*
D03*
X4000000Y3280000D02*
D03*
X3900000D02*
D03*
X3900000Y3190000D02*
D03*
X4000000D02*
D03*
X3411728Y3284417D02*
D03*
X3424512Y2929712D02*
D03*
X3616763Y2930571D02*
D03*
X3516763D02*
D03*
X3806763Y3000571D02*
D03*
X3706763D02*
D03*
X3806763Y3100571D02*
D03*
X3706763D02*
D03*
Y3190571D02*
D03*
X3806763D02*
D03*
X3706763Y3280571D02*
D03*
X3806763D02*
D03*
X4425347Y2750308D02*
D03*
Y2660308D02*
D03*
X4528575Y2567644D02*
D03*
X4428575Y2477644D02*
D03*
X4528575D02*
D03*
X4428575Y2567644D02*
D03*
X4426763Y2380571D02*
D03*
X4526763Y2290571D02*
D03*
X4426763D02*
D03*
X4526763Y2380571D02*
D03*
X4626763Y2200571D02*
D03*
X4726763D02*
D03*
X4426763D02*
D03*
X4526763D02*
D03*
X4626763Y2100571D02*
D03*
X4726763D02*
D03*
X4426763D02*
D03*
X4526763D02*
D03*
X5476763Y7700571D02*
D03*
X5576763Y7610571D02*
D03*
X5476763D02*
D03*
X5776763Y7700571D02*
D03*
X5676763D02*
D03*
X5776763Y7610571D02*
D03*
X5576763Y7700571D02*
D03*
X5676763Y7610571D02*
D03*
Y7520571D02*
D03*
X5776763D02*
D03*
X5476763D02*
D03*
X5576763D02*
D03*
X5676763Y7420571D02*
D03*
X5776763D02*
D03*
X5476763D02*
D03*
X5576763D02*
D03*
X4896763Y8190571D02*
D03*
X4796763D02*
D03*
X5096763D02*
D03*
X4996763D02*
D03*
X4896763Y8290571D02*
D03*
X4796763D02*
D03*
X5096763D02*
D03*
X4996763D02*
D03*
Y8380571D02*
D03*
X4896763Y8470571D02*
D03*
X5096763Y8380571D02*
D03*
X4996763Y8470571D02*
D03*
X5096763D02*
D03*
X4796763Y8380571D02*
D03*
X4896763D02*
D03*
X4796763Y8470571D02*
D03*
X2806763Y7380571D02*
D03*
X3006763D02*
D03*
X2906763D02*
D03*
X2806763Y7480571D02*
D03*
X3006763D02*
D03*
X2906763D02*
D03*
Y7570571D02*
D03*
X2806763Y7660571D02*
D03*
X3006763Y7570571D02*
D03*
X2906763Y7660571D02*
D03*
X3006763D02*
D03*
X2706763Y7570571D02*
D03*
X2806763D02*
D03*
X2706763Y7660571D02*
D03*
X2776763Y8460571D02*
D03*
X2876763Y8370571D02*
D03*
X2776763D02*
D03*
X3076763Y8460571D02*
D03*
X2976763D02*
D03*
X3076763Y8370571D02*
D03*
X2876763Y8460571D02*
D03*
X2976763Y8370571D02*
D03*
Y8280571D02*
D03*
X3076763D02*
D03*
X2776763D02*
D03*
X2876763D02*
D03*
X2976763Y8180571D02*
D03*
X3076763D02*
D03*
X2776763D02*
D03*
X2876763D02*
D03*
X3357129Y8692556D02*
D03*
X3257129D02*
D03*
X3655000Y8697500D02*
D03*
X3557129Y8692556D02*
D03*
X3457129D02*
D03*
X3751184Y8693605D02*
D03*
X3357129Y8792556D02*
D03*
X3257129D02*
D03*
X3655000Y8797500D02*
D03*
X3557129Y8792556D02*
D03*
X3457129D02*
D03*
X3751184Y8793605D02*
D03*
Y8973605D02*
D03*
Y8883606D02*
D03*
X3457129Y8882556D02*
D03*
X3357129Y8972556D02*
D03*
X3557129Y8882556D02*
D03*
X3655000Y8887500D02*
D03*
X3457129Y8972556D02*
D03*
X3557129D02*
D03*
X3257129Y8882556D02*
D03*
X3357129D02*
D03*
X3655000Y8977500D02*
D03*
X3257129Y8972556D02*
D03*
X3849516Y8882476D02*
D03*
Y8972475D02*
D03*
Y8792475D02*
D03*
Y8692475D02*
D03*
X4599516Y10332475D02*
D03*
Y10432475D02*
D03*
Y10612475D02*
D03*
Y10522476D02*
D03*
X4007129Y10612556D02*
D03*
X4405000Y10617500D02*
D03*
X4107129Y10522556D02*
D03*
X4007129D02*
D03*
X4307129Y10612556D02*
D03*
X4207129D02*
D03*
X4405000Y10527500D02*
D03*
X4307129Y10522556D02*
D03*
X4107129Y10612556D02*
D03*
X4207129Y10522556D02*
D03*
X4501184Y10523606D02*
D03*
Y10613605D02*
D03*
Y10433605D02*
D03*
X4207129Y10432556D02*
D03*
X4307129D02*
D03*
X4405000Y10437500D02*
D03*
X4007129Y10432556D02*
D03*
X4107129D02*
D03*
X4501184Y10333605D02*
D03*
X4207129Y10332556D02*
D03*
X4307129D02*
D03*
X4405000Y10337500D02*
D03*
X4007129Y10332556D02*
D03*
X4107129D02*
D03*
X2797129Y11022556D02*
D03*
X2897129D02*
D03*
X2797129Y11122556D02*
D03*
X2897129D02*
D03*
X2797129Y11222556D02*
D03*
X2897129D02*
D03*
X2647129Y11322556D02*
D03*
X2447129D02*
D03*
X2547129D02*
D03*
X2647129Y11422556D02*
D03*
X2447129D02*
D03*
X2547129D02*
D03*
X2647129Y11522556D02*
D03*
X2447129D02*
D03*
X2547129D02*
D03*
Y11622556D02*
D03*
X2447129D02*
D03*
X2845000Y11627500D02*
D03*
X2747129Y11622556D02*
D03*
X2647129D02*
D03*
X2941184Y11623605D02*
D03*
X2547129Y11722556D02*
D03*
X2447129D02*
D03*
X2845000Y11727500D02*
D03*
X2747129Y11722556D02*
D03*
X2647129D02*
D03*
X2941184Y11723605D02*
D03*
Y11903605D02*
D03*
Y11813606D02*
D03*
X2647129Y11812556D02*
D03*
X2547129Y11902556D02*
D03*
X2747129Y11812556D02*
D03*
X2845000Y11817500D02*
D03*
X2647129Y11902556D02*
D03*
X2747129D02*
D03*
X2447129Y11812556D02*
D03*
X2547129D02*
D03*
X2845000Y11907500D02*
D03*
X2447129Y11902556D02*
D03*
X10670000Y6550000D02*
D03*
X6600000Y8640000D02*
D03*
X5840000Y9150000D02*
D03*
X6290000Y8550000D02*
D03*
X11624000Y6608000D02*
D03*
X10660000Y5880000D02*
D03*
X11030000D02*
D03*
X12820000Y4500000D02*
D03*
X12958995D02*
D03*
X13120000Y5410000D02*
D03*
X13000000Y3300000D02*
D03*
X14150000Y7480000D02*
D03*
X13320000Y6460000D02*
D03*
X7250000Y8350000D02*
D03*
X12780000Y8480000D02*
D03*
X7000000Y8450000D02*
D03*
X7010000Y8180000D02*
D03*
X13639999Y8260000D02*
D03*
X6240000Y5760000D02*
D03*
X11850000Y11890000D02*
D03*
X11990000Y11420000D02*
D03*
X10370000Y9480000D02*
D03*
X11860000Y11220000D02*
D03*
X10900000Y8330000D02*
D03*
X10682221Y8321685D02*
D03*
X7890000Y8300000D02*
D03*
X9980503Y9230503D02*
D03*
X2970000Y8600000D02*
D03*
X9660000Y9560000D02*
D03*
X9890000Y11190000D02*
D03*
X9510000Y9560000D02*
D03*
X9350000Y9570000D02*
D03*
X10020000Y9600000D02*
D03*
X9160000Y10240000D02*
D03*
X8350000Y10740000D02*
D03*
X5910000Y9680000D02*
D03*
X5110000Y11660000D02*
D03*
X4740000Y10860000D02*
D03*
X4650000Y11810000D02*
D03*
X5710000Y11360000D02*
D03*
X8870000Y4530000D02*
D03*
X10310000Y4630000D02*
D03*
X10430000Y4640000D02*
D03*
X5110000Y4650000D02*
D03*
X3050000Y4590000D02*
D03*
X6380000Y4930000D02*
D03*
X7960000Y4420000D02*
D03*
X5920000Y5090000D02*
D03*
X8960000Y2170000D02*
D03*
X3350000Y4060000D02*
D03*
X4620000Y5030000D02*
D03*
X4100000Y3975000D02*
D03*
X6560000Y2970000D02*
D03*
X6750000Y2130000D02*
D03*
%TF.MD5,a52eef9a0c0397b2e387d26fe387d466*%
M02*
