%TF.GenerationSoftware,Altium Limited,Altium Designer,24.5.2 (23)*%
G04 Layer_Physical_Order=3*
G04 Layer_Color=16776960*
%FSLAX45Y45*%
%MOMM*%
%TF.SameCoordinates,5A5307CA-094C-43D5-B752-2CBB6B1D3501*%
%TF.FilePolarity,Positive*%
%TF.FileFunction,Copper,L3,Inr,Signal*%
%TF.Part,Single*%
G01*
G75*
%TA.AperFunction,Conductor*%
%ADD17C,0.35000*%
%ADD18C,0.50000*%
%ADD20C,1.50000*%
%ADD21C,0.80000*%
%ADD22C,0.70000*%
%ADD24C,1.00000*%
%ADD25C,0.40000*%
%ADD26C,0.20000*%
%TA.AperFunction,ComponentPad*%
%ADD27R,1.40000X1.40000*%
%ADD28C,1.40000*%
%ADD29C,1.65000*%
%ADD31C,0.80000*%
%ADD32R,1.40000X1.40000*%
%ADD33C,2.00000*%
%ADD34R,2.00000X2.00000*%
%ADD35R,2.10000X2.10000*%
%ADD36C,2.10000*%
%ADD37R,1.55000X1.55000*%
%ADD38C,1.55000*%
%ADD39C,1.20000*%
%ADD40R,1.20000X1.20000*%
%ADD42R,1.55000X1.55000*%
%ADD43C,1.53000*%
%ADD44R,1.53000X1.53000*%
%ADD45R,2.10000X2.10000*%
%TA.AperFunction,ViaPad*%
%ADD46C,5.00000*%
%ADD47C,0.70000*%
%TA.AperFunction,Conductor*%
%ADD48C,0.25000*%
D17*
X8730000Y4441997D02*
X8760000Y4471997D01*
X8730000Y4156152D02*
Y4441997D01*
X8760000Y4471997D02*
Y4480000D01*
X9350000Y4060001D02*
Y4220000D01*
X9190000Y3900000D02*
X9350000Y4060001D01*
X9460000Y4085148D02*
Y4217500D01*
X9214853Y3840000D02*
X9460000Y4085148D01*
X10800000Y7280000D02*
X11542500Y6537500D01*
X10800000Y7280000D02*
Y8203906D01*
X10682221Y8321685D02*
X10800000Y8203906D01*
X10668128Y6548128D02*
X10670000Y6550000D01*
X10489000Y6419000D02*
X10618128Y6548128D01*
X10489000Y5411000D02*
Y6419000D01*
X10618128Y6548128D02*
X10668128D01*
X11010000Y7355414D02*
Y8330000D01*
Y7355414D02*
X11698622Y6666793D01*
X5920000Y4890000D02*
Y5090000D01*
X9598000Y5540000D02*
X9599000Y5541000D01*
Y6819000D02*
X9600000Y6820000D01*
X9599000Y5541000D02*
Y6819000D01*
X9976697Y6788555D02*
Y6813303D01*
Y6788555D02*
X9977000Y6788251D01*
Y5415000D02*
Y6788251D01*
Y5415000D02*
X10106000Y5286000D01*
X11542500Y6537500D02*
X11550000D01*
X9455805Y4333796D02*
X9550000Y4239601D01*
X9416790Y4333796D02*
X9455805D01*
X9410094Y4340492D02*
X9416790Y4333796D01*
X9274853Y3815148D02*
X9550000Y4090295D01*
Y4239601D01*
X8550000Y4251300D02*
Y4520000D01*
X8553769Y4523769D01*
X10880000Y4370000D02*
X11207352D01*
X12084853Y3492500D01*
X10889509Y4264419D02*
X10893928Y4260000D01*
X11232500D01*
X12060000Y3432500D01*
X11230000Y4170000D02*
X12080000Y3320000D01*
X10900000Y4170000D02*
X11230000D01*
X11850000Y4400000D02*
X13910001D01*
X11735000Y4520594D02*
Y4530065D01*
X11750000Y4500000D02*
Y4505593D01*
X11735000Y4520594D02*
X11750000Y4505593D01*
Y4500000D02*
X11850000Y4400000D01*
X11683989Y4442666D02*
X11786655Y4340000D01*
X13310001D01*
X11605000Y4385000D02*
X11710000Y4280000D01*
X11605000Y4385000D02*
Y4389887D01*
X11710000Y4280000D02*
X13120000D01*
X11642443Y4220000D02*
X12930000D01*
X11527500Y4334943D02*
X11642443Y4220000D01*
X11450000Y4280000D02*
X11570000Y4160000D01*
X12850104D01*
X7000000Y8450000D02*
X7720000Y7730000D01*
X10500000D01*
X7680000Y7630000D02*
X10470000D01*
X6679501Y8630499D02*
X7680000Y7630000D01*
X12754999Y9375000D02*
Y10581776D01*
X12750000Y9370000D02*
X12754999Y9375000D01*
Y10581776D02*
X13098222Y10925000D01*
X12695000Y9444338D02*
Y10823999D01*
X12975999Y11105000D01*
X12634575Y9383913D02*
X12695000Y9444338D01*
X12634575Y9381019D02*
Y9383913D01*
X12598849Y11052848D02*
X12651000Y11105000D01*
X12598849Y9454895D02*
Y11052848D01*
X12540000Y9396046D02*
X12598849Y9454895D01*
X12540000Y9390000D02*
Y9396046D01*
X12525000Y9485000D02*
Y11312500D01*
X12691500Y11479000D01*
X12430000Y9390000D02*
X12525000Y9485000D01*
X12370000Y10771129D02*
Y11520000D01*
X12460000Y11610000D01*
X10631244Y10631244D02*
X11150000Y11150000D01*
X11450000D01*
X9907438Y9512093D02*
X10246191D01*
X10437500Y9703402D01*
X9868952Y9598949D02*
X9874053D01*
X9962500Y9687396D01*
Y11096599D01*
X8900000Y9580000D02*
Y10484099D01*
X7460000Y8300000D02*
X7890000D01*
X5560000Y8910000D02*
X6373112Y8096888D01*
X6599863D02*
X6600000Y8096751D01*
X6373112Y8096888D02*
X6599863D01*
X5520000Y8850000D02*
X6350612Y8019388D01*
X6440000D01*
X13098222Y10925000D02*
X13265105D01*
X13470000Y11129896D01*
X11247000Y5587777D02*
X11599223Y5940000D01*
X11122000Y5286000D02*
X11247000Y5411000D01*
Y5587777D01*
X5840000Y8810000D02*
Y9150000D01*
X6190000Y8460000D02*
X6420000D01*
X5840000Y8810000D02*
X6190000Y8460000D01*
X6420000D02*
X6600000Y8640000D01*
X6290000Y8550000D02*
X6293250Y8553250D01*
Y8835750D01*
X4970000Y8910000D02*
X5560000D01*
X5100000Y8850000D02*
X5520000D01*
X10900000Y7332000D02*
Y8330000D01*
Y7332000D02*
X11624000Y6608000D01*
X10660000Y5880000D02*
X11030000D01*
X10712500Y10592500D02*
X11160000Y11040000D01*
X10712500Y9728401D02*
Y10592500D01*
X11160000Y11040000D02*
X11488995D01*
X11600000Y11151005D01*
Y11199497D01*
X13406500Y8770000D02*
X14150000Y8026500D01*
Y7480000D02*
Y8026500D01*
X10371069Y7030000D02*
X10941069Y6460000D01*
X13320000D01*
X5860000Y5720000D02*
X7170000Y7030000D01*
X10371069D01*
X10489000Y5411000D02*
X10614000Y5286000D01*
X6679501Y8630499D02*
Y8890776D01*
X7128724Y9340000D02*
X7740000D01*
X7820500Y9259500D01*
X6933500Y9144776D02*
X7128724Y9340000D01*
X7820500Y9093000D02*
Y9259500D01*
X6679501Y8890776D02*
X6756725Y8968000D01*
X6856277D01*
X6933500Y9045223D01*
Y9144776D01*
X11620503Y11220000D02*
X11860000D01*
X11600000Y11199497D02*
X11620503Y11220000D01*
X11844588Y11890000D02*
X11850000D01*
X11220000Y11900000D02*
X11834588D01*
X11844588Y11890000D01*
X10415901Y11550000D02*
X10870000D01*
X11220000Y11900000D01*
X10325000Y11459099D02*
X10415901Y11550000D01*
X10437500Y10631244D02*
X10631244D01*
X11353706Y11420000D02*
X11990000D01*
X10521901Y11406000D02*
X11339706D01*
X10212500Y11096599D02*
X10521901Y11406000D01*
X10212500Y10771391D02*
Y11096599D01*
Y10771391D02*
X10325000Y10658891D01*
Y10400000D02*
Y10658891D01*
X11339706Y11406000D02*
X11353706Y11420000D01*
X10370000Y9480000D02*
X10464099D01*
X10712500Y9728401D01*
X6293250Y8835750D02*
X6296500Y8839000D01*
X13470000Y11129896D02*
Y11274000D01*
X13675000Y11479000D01*
X12975999Y11105000D02*
X13120103D01*
X13145000Y11129896D01*
Y11274000D01*
X13350000Y11479000D01*
X12651000Y11105000D02*
X12786604D01*
X12811501Y11129896D01*
Y11265500D01*
X13025000Y11479000D01*
X10325000Y11459099D02*
Y11700000D01*
X9962500Y11096599D02*
X10325000Y11459099D01*
Y10743744D02*
Y11050000D01*
Y10743744D02*
X10437500Y10631244D01*
Y9703402D02*
Y10631244D01*
X9980503Y8967002D02*
Y9230503D01*
X9852500Y8839000D02*
X9980503Y8967002D01*
X12440000Y10191129D02*
Y11461005D01*
X12691500Y11712505D01*
X11997470Y9748599D02*
X12440000Y10191129D01*
X11997470Y10398599D02*
X12370000Y10771129D01*
X12691500Y11712505D02*
Y11733000D01*
X11997470Y11698599D02*
X12218871Y11920000D01*
X13488000D02*
X13675000Y11733000D01*
X12218871Y11920000D02*
X13488000D01*
X13110001Y11860000D02*
X13237000Y11733000D01*
X12590000Y11860000D02*
X13110001D01*
X12000000Y11270000D02*
X12590000Y11860000D01*
X12000000Y11050000D02*
Y11270000D01*
X13237000Y11733000D02*
X13350000D01*
X8995660Y9345345D02*
X10154655D01*
X10231500Y8968000D02*
Y9268500D01*
X10154655Y9345345D02*
X10231500Y9268500D01*
X10360500Y9093000D02*
Y9269500D01*
X10195407Y9434593D02*
X10360500Y9269500D01*
X9340407Y9434593D02*
X10195407D01*
X9660000Y9560000D02*
Y11085104D01*
X9764896Y11190000D01*
X9890000D01*
X10053402Y11587500D02*
X10121599D01*
X9600000Y9650000D02*
Y11134099D01*
X10053402Y11587500D01*
X10187500Y11653401D02*
Y11721599D01*
X10121599Y11587500D02*
X10187500Y11653401D01*
X9510000Y9560000D02*
X9600000Y9650000D01*
X9520000Y9740000D02*
Y11190000D01*
X9350000Y9570000D02*
X9520000Y9740000D01*
Y11190000D02*
X10009909Y11679909D01*
X10187500Y11721599D02*
X10278401Y11812500D01*
X10462500D01*
X10575000Y11700000D01*
X10009909Y11679909D02*
X10054910D01*
X10075000Y11700000D01*
X10023827Y9603827D02*
X10087926D01*
X10020000Y9600000D02*
X10023827Y9603827D01*
X10087926D02*
X10187500Y9703401D01*
Y10446599D01*
X10075000Y10559099D02*
X10187500Y10446599D01*
X10075000Y10559099D02*
Y11050000D01*
X9025000Y9750000D02*
X9340407Y9434593D01*
X10231500Y8968000D02*
X10360500Y8839000D01*
X8775000Y9566005D02*
X8995660Y9345345D01*
X8775000Y9566005D02*
Y9750000D01*
X8900000Y10484099D02*
X9025000Y10609099D01*
Y11075000D01*
X8582500Y8839000D02*
X8707500Y8964000D01*
Y9658401D01*
X8662500Y9703401D02*
X8707500Y9658401D01*
X8662500Y9703401D02*
Y10496599D01*
X8775000Y10609099D01*
Y11075000D01*
X8412500Y9263000D02*
X8582500Y9093000D01*
X8412500Y9263000D02*
Y10537604D01*
X8525000Y10650104D01*
Y11075000D01*
X9025000Y9750000D02*
Y10450000D01*
X8775000Y9750000D02*
Y10450000D01*
X8525000Y11075000D02*
Y11700000D01*
X8775000Y11075000D02*
Y11700000D01*
X9025000Y11075000D02*
Y11700000D01*
X6550500Y9093000D02*
X6881392Y9423891D01*
X7398891D01*
X7725000Y9750000D01*
Y10450000D01*
X7475000Y9750000D02*
Y10450000D01*
X5908672Y9681328D02*
X5910000Y9680000D01*
X5870000Y10331128D02*
X5908672Y10292456D01*
X5870000Y10331128D02*
Y11514104D01*
X6075896Y11720000D01*
X5908672Y9681328D02*
Y10292456D01*
X6075896Y11720000D02*
X6305000D01*
X6425000Y11600000D01*
X6425000Y11346000D02*
X6679000Y11600000D01*
X6425000Y11150000D02*
Y11346000D01*
X4857500Y9047500D02*
X4970000Y9160000D01*
X4857500Y8863401D02*
Y9047500D01*
X5047500Y8797500D02*
X5100000Y8850000D01*
X4923401Y8797500D02*
X5047500D01*
X4857500Y8863401D02*
X4923401Y8797500D01*
X13650000Y3750000D02*
X14310001D01*
X13650000Y3500000D02*
X14310001D01*
X13650000Y3250000D02*
X14310001D01*
X13910001Y4400000D02*
X14310001Y4000000D01*
X13310001Y4340000D02*
X13650000Y4000000D01*
X13120000Y4280000D02*
X13650000Y3750000D01*
X12930000Y4220000D02*
X13650000Y3500000D01*
X12850104Y4160000D02*
X12942500Y4067604D01*
Y3957500D02*
Y4067604D01*
Y3957500D02*
X13650000Y3250000D01*
X8870000Y4422797D02*
Y4530000D01*
X8790000Y4342796D02*
X8870000Y4422797D01*
X8790000Y4181005D02*
Y4342796D01*
X8550000Y4251300D02*
X9021299Y3780001D01*
X12407500Y3492500D02*
X12580000Y3320000D01*
X12084853Y3492500D02*
X12407500D01*
X12575000Y3315000D02*
X12580000Y3320000D01*
X12575000Y2655000D02*
Y3315000D01*
X12570000Y2650000D02*
X12575000Y2655000D01*
X12217500Y3432500D02*
X12330000Y3320000D01*
X12060000Y3432500D02*
X12217500D01*
X12325000Y3315000D02*
X12330000Y3320000D01*
X12325000Y2655000D02*
Y3315000D01*
X12320000Y2650000D02*
X12325000Y2655000D01*
X12075000Y3315000D02*
X12080000Y3320000D01*
X12070000Y2650000D02*
X12075000Y2655000D01*
Y3315000D01*
X9021299Y3780001D02*
X9239705D01*
X9257279Y3797574D01*
X9257279D01*
X9274852Y3815148D01*
X9274853D01*
X8730000Y4156152D02*
X9046152Y3840000D01*
X9214853D01*
X8790000Y4181005D02*
X9071005Y3900000D01*
X9190000D01*
X10456868Y3348280D02*
Y4483132D01*
X10310000Y4630000D02*
X10456868Y4483132D01*
Y3348280D02*
X10680001Y3125147D01*
X10693400Y2537501D02*
X10877501D01*
X10627500Y2603401D02*
X10693400Y2537501D01*
X10627500Y2603401D02*
Y2696599D01*
X10680001Y2749100D01*
Y3125147D01*
X10516868Y3373132D02*
Y4553132D01*
X10430000Y4640000D02*
X10516868Y4553132D01*
X10877501Y2537501D02*
X10990000Y2650000D01*
X10740000D02*
Y3150000D01*
X10516868Y3373132D02*
X10740000Y3150000D01*
X5860000Y5150000D02*
Y5720000D01*
Y5150000D02*
X5920000Y5090000D01*
X7058000Y5540000D02*
X7187000Y5411000D01*
Y4654404D02*
Y5411000D01*
Y4654404D02*
X8028904Y3812500D01*
X8312500D01*
X8425000Y3925000D01*
X9200000Y3720000D02*
X9330000Y3590000D01*
X7460000Y3720000D02*
X9200000D01*
X6880000Y4300000D02*
X7460000Y3720000D01*
X9175000Y3275000D02*
X9330000Y3430000D01*
Y3590000D01*
X6880000Y4821836D02*
X6929000Y4870837D01*
X6880000Y4300000D02*
Y4821836D01*
X6804000Y5540000D02*
X6929000Y5415000D01*
Y4870837D02*
Y5415000D01*
X8729000Y3529000D02*
X9175000D01*
X8425000Y3225000D02*
X8729000Y3529000D01*
X6675000Y5075104D02*
Y5415000D01*
X6312500Y4712604D02*
X6675000Y5075104D01*
X6550000Y5540000D02*
X6675000Y5415000D01*
X6312500Y4603401D02*
Y4712604D01*
X6175000Y4465901D02*
X6312500Y4603401D01*
X6175000Y3925000D02*
Y4465901D01*
X6196447Y3703553D02*
X6956447D01*
X6050000Y3850000D02*
X6196447Y3703553D01*
X6050000Y3850000D02*
Y5110000D01*
X6167000Y5227000D01*
Y5411000D01*
X6296000Y5540000D01*
X6956447Y3703553D02*
X7070000Y3590000D01*
Y3370000D02*
Y3590000D01*
X6925000Y3225000D02*
X7070000Y3370000D01*
X6175000Y3225000D02*
X6429000Y3479000D01*
X6925000D01*
D18*
X9260000Y4280000D02*
X9263827Y4283827D01*
Y4316327D02*
X9416845Y4469344D01*
X9263827Y4283827D02*
Y4316327D01*
X11790000Y5940000D02*
X12870000D01*
X11700000D02*
X11790000D01*
X11610000D02*
X11700000D01*
X11599223D02*
X11610000D01*
X11115000Y6160000D02*
X11220000D01*
X11010000D02*
X11115000D01*
X10690000Y6390000D02*
X10780000D01*
X10600000D02*
X10690000D01*
X10650000Y7470000D02*
Y7739601D01*
X9416845Y4469344D02*
X9429344D01*
X9610000Y4650000D01*
X10780000Y6390000D02*
X11010000Y6160000D01*
X12870000Y5940000D02*
X12980000Y6050000D01*
X13125000D01*
X7250000Y8350000D02*
X7250957Y8349043D01*
Y8309442D02*
Y8349043D01*
Y8309442D02*
X7535398Y8025000D01*
X10364602D01*
X10650000Y7739601D01*
X5775000Y5315000D02*
Y6945000D01*
X7010000Y8180000D01*
X11660161Y9600000D02*
X12098871D01*
X11524161Y9736000D02*
X11660161Y9600000D01*
X11524161Y9736000D02*
X11856895Y10068734D01*
X12098871Y9600000D02*
X12247470Y9748599D01*
X11290000Y9736000D02*
X11524161D01*
X11917606Y10068734D02*
X12247470Y10398599D01*
X11856895Y10068734D02*
X11917606D01*
X11290000Y11526000D02*
X12074871D01*
X12247470Y11698599D01*
X9430000Y10340000D02*
Y10630470D01*
X9330957Y10240957D02*
X9430000Y10340000D01*
X9275000Y10785470D02*
X9430000Y10630470D01*
X9160957Y10240957D02*
X9330957D01*
X9160000Y10240000D02*
X9160957Y10240957D01*
X9275000Y10785470D02*
Y11075000D01*
X5110000Y11230000D02*
Y11660000D01*
X4740000Y10860000D02*
X5110000Y11230000D01*
X4650000Y11810000D02*
X5420711D01*
X5638333Y11592378D01*
Y11433020D02*
Y11592378D01*
Y11433020D02*
X5710000Y11361353D01*
Y11360000D02*
Y11361353D01*
X5110000Y4650000D02*
X5775000Y5315000D01*
D20*
X11090000Y10750000D02*
X11229044Y10889043D01*
X11289043D02*
X11290000Y10890000D01*
X11229044Y10889043D02*
X11289043D01*
X11090000Y10191353D02*
Y10750000D01*
Y10191353D02*
X11290000Y9991353D01*
Y9990000D02*
Y9991353D01*
X4875000Y10000000D02*
X5329898D01*
X5849898Y9480000D02*
X6405001D01*
X5329898Y10000000D02*
X5849898Y9480000D01*
X6405001D02*
X6675000Y9750000D01*
D21*
X12540000Y6650000D02*
X13125000D01*
X12430000D02*
X12540000D01*
X12330000D02*
X12430000D01*
X4500000Y8290000D02*
Y9300000D01*
Y8290000D02*
X4850000Y7940000D01*
X4300000Y9500000D02*
X4500000Y9300000D01*
X4850000Y4500000D02*
Y7940000D01*
X4300000Y9500000D02*
Y9950000D01*
X7694008Y10680992D02*
X7744008D01*
X7450000Y10925000D02*
X7694008Y10680992D01*
X7744008D02*
X7975000Y10450000D01*
Y9750000D02*
Y10450000D01*
X6675000D02*
Y11150000D01*
Y9750000D02*
Y10450000D01*
D22*
X12820000Y4500000D02*
X12958995D01*
X11980000D02*
X12820000D01*
X11290000Y10636000D02*
X11836000D01*
X12250000Y11050000D01*
X11830000Y4650000D02*
X11980000Y4500000D01*
D24*
X8210000Y10740000D02*
X8350000D01*
X7993993Y10956007D02*
X8210000Y10740000D01*
X7993993Y10956007D02*
Y11246073D01*
X11283000Y9743000D02*
X11290000Y9736000D01*
X10825000Y9750000D02*
X10832000Y9743000D01*
X11283000D01*
X7777985Y11462081D02*
X7993993Y11246073D01*
X7605853Y11462081D02*
X7777985D01*
X7450000Y11617934D02*
X7605853Y11462081D01*
X7450000Y11617934D02*
Y11625000D01*
X7282617Y11427500D02*
X7435117Y11275000D01*
X7177832Y11427500D02*
X7282617D01*
X7043500Y11561833D02*
X7177832Y11427500D01*
X7435117Y11275000D02*
X7450000D01*
X7043500Y11688168D02*
X7200333Y11845000D01*
X9119176D01*
X9264176Y11700000D01*
X7043500Y11561833D02*
Y11688168D01*
X9264176Y11700000D02*
X9275000D01*
Y11075000D02*
Y11700000D01*
X11820000Y2650000D02*
X11825000Y2655000D01*
Y3315000D01*
X11830000Y3320000D01*
X11820000Y2650000D02*
X12043565Y2426435D01*
X12213565D01*
X12440000Y2200000D01*
X10692000Y3450000D02*
X11942000Y2200000D01*
X12186000D01*
X10497654Y2577346D02*
Y2642347D01*
Y2577346D02*
X10875000Y2200000D01*
X10490000Y2650000D02*
X10497654Y2642347D01*
X10610477Y2210523D02*
X10621000Y2200000D01*
X9775000Y2883000D02*
X10447477Y2210523D01*
X10610477D01*
X9808294Y4361707D02*
X10088294D01*
X9610000Y4650000D02*
X9617653Y4642347D01*
Y4552347D02*
X9808294Y4361707D01*
X9617653Y4552347D02*
Y4642347D01*
X10088294Y4361707D02*
X10320000Y4130000D01*
X10250000Y3450000D02*
X10320000Y3520000D01*
Y4130000D01*
X10935476Y3460523D02*
X10946000Y3450000D01*
X10700000Y3780000D02*
X10935476Y3544524D01*
Y3460523D02*
Y3544524D01*
X10700000Y3780000D02*
Y4650000D01*
X9617653Y3828347D02*
Y3972346D01*
Y3828347D02*
X9996000Y3450000D01*
X9610000Y3980000D02*
X9617653Y3972346D01*
X8175000Y3925000D02*
Y4625000D01*
X5925000Y3925000D02*
Y4625000D01*
Y3225000D02*
Y3925000D01*
X4700000Y3120000D02*
X4805000Y3225000D01*
X4700000Y2942934D02*
Y3120000D01*
X4805000Y3225000D02*
X5925000D01*
X4700000Y2942934D02*
X4892934Y2750000D01*
X4900000D01*
X9760117Y2629000D02*
X9775000D01*
X9689117Y2700000D02*
X9760117Y2629000D01*
X8709558Y2700000D02*
X9689117D01*
X8184558Y3225000D02*
X8709558Y2700000D01*
X8175000Y3225000D02*
X8184558D01*
D25*
X6175000Y4625000D02*
Y4911000D01*
X6550000Y5286000D01*
D26*
X14000000Y10134801D02*
Y10160000D01*
Y10134801D02*
X14050800D01*
Y10089401D02*
Y10134801D01*
X13949200Y10089401D02*
X14050800D01*
X13949200Y10044001D02*
Y10089401D01*
Y10044001D02*
X14050800D01*
Y9998601D02*
Y10044001D01*
X13949200Y9998601D02*
X14050800D01*
X13949200Y9953201D02*
Y9998601D01*
Y9953201D02*
X14050800D01*
Y9907801D02*
Y9953201D01*
X13949200Y9907801D02*
X14050800D01*
X13949200Y9862401D02*
Y9907801D01*
Y9862401D02*
X14050800D01*
Y9817001D02*
Y9862401D01*
X13949200Y9817001D02*
X14050800D01*
X13949200Y9771601D02*
Y9817001D01*
Y9771601D02*
X14050800D01*
Y9726201D02*
Y9771601D01*
X13949200Y9726201D02*
X14050800D01*
X13949200Y9680801D02*
Y9726201D01*
Y9680801D02*
X14050800D01*
Y9635401D02*
Y9680801D01*
X13949200Y9635401D02*
X14050800D01*
X13949200Y9590001D02*
Y9635401D01*
Y9590001D02*
X14000000D01*
Y9580000D02*
Y9590001D01*
Y10160000D02*
Y10325000D01*
Y9350000D02*
Y9580000D01*
X13750000Y9350000D02*
Y10325000D01*
X13500000Y10130201D02*
Y10160000D01*
X13449200Y10130201D02*
X13500000D01*
X13449200Y10084801D02*
Y10130201D01*
Y10084801D02*
X13550800D01*
Y10039401D02*
Y10084801D01*
X13449200Y10039401D02*
X13550800D01*
X13449200Y9994001D02*
Y10039401D01*
Y9994001D02*
X13550800D01*
Y9948601D02*
Y9994001D01*
X13449200Y9948601D02*
X13550800D01*
X13449200Y9903201D02*
Y9948601D01*
Y9903201D02*
X13550800D01*
Y9857801D02*
Y9903201D01*
X13449200Y9857801D02*
X13550800D01*
X13449200Y9812401D02*
Y9857801D01*
Y9812401D02*
X13550800D01*
Y9767001D02*
Y9812401D01*
X13449200Y9767001D02*
X13550800D01*
X13449200Y9721601D02*
Y9767001D01*
Y9721601D02*
X13550800D01*
Y9676201D02*
Y9721601D01*
X13449200Y9676201D02*
X13550800D01*
X13449200Y9630801D02*
Y9676201D01*
Y9630801D02*
X13550800D01*
Y9585401D02*
Y9630801D01*
X13449200Y9585401D02*
X13550800D01*
X13449200Y9540001D02*
Y9585401D01*
Y9540001D02*
X13500000D01*
Y9530000D02*
Y9540001D01*
Y10160000D02*
Y10325000D01*
Y9350000D02*
Y9530000D01*
X13122256Y9306086D02*
Y10772256D01*
X12976170Y9160000D02*
X13122256Y9306086D01*
Y10772256D02*
X13150000Y10800000D01*
X12870000Y9160000D02*
X12976170D01*
X12620000Y8310000D02*
X13588000Y7342000D01*
X14025000D01*
X13250000Y10325000D02*
X13403999Y10479000D01*
Y10800000D01*
X12520000Y8840000D02*
X12985001D01*
X13213628Y9068628D01*
X12040000Y9320000D02*
X12520000Y8840000D01*
X12951717Y8890000D02*
X13175343Y9113627D01*
X12075000Y9365000D02*
X12550000Y8890000D01*
X12951717D01*
X12382929Y8797071D02*
X12390000Y8790000D01*
X12326633Y8853366D02*
X12382929Y8797071D01*
X12293046Y8819778D02*
X12326633Y8853366D01*
X12260943Y8851881D02*
X12293046Y8819778D01*
X12260943Y8851881D02*
X12330452Y8921390D01*
X12298349Y8953493D02*
X12330452Y8921390D01*
X12226507Y8881651D02*
X12298349Y8953493D01*
X12194404Y8913753D02*
X12226507Y8881651D01*
X12194404Y8913753D02*
X12266247Y8985595D01*
X12234144Y9017698D02*
X12266247Y8985595D01*
X12162302Y8945856D02*
X12234144Y9017698D01*
X12130199Y8977958D02*
X12162302Y8945856D01*
X12130199Y8977958D02*
X12202041Y9049801D01*
X12169939Y9081903D02*
X12202041Y9049801D01*
X12098096Y9010061D02*
X12169939Y9081903D01*
X12065994Y9042164D02*
X12098096Y9010061D01*
X12065994Y9042164D02*
X12137836Y9114006D01*
X12105734Y9146108D02*
X12137836Y9114006D01*
X12033891Y9074266D02*
X12105734Y9146108D01*
X12001789Y9106369D02*
X12033891Y9074266D01*
X12001789Y9106369D02*
X12073631Y9178211D01*
X12041528Y9210314D02*
X12073631Y9178211D01*
X12005607Y9174393D02*
X12041528Y9210314D01*
X12005606Y9174394D02*
X12005607Y9174393D01*
X11998535Y9181465D02*
X12005606Y9174394D01*
X12390000Y8790000D02*
X12450000Y8730000D01*
X11905000Y9275000D02*
X11998535Y9181465D01*
X13004800Y8730000D02*
X13030000D01*
X13004800Y8679200D02*
Y8730000D01*
X12959401Y8679200D02*
X13004800D01*
X12959401D02*
Y8778284D01*
X12914001D02*
X12959401D01*
X12914001Y8679200D02*
Y8778284D01*
X12868600Y8679200D02*
X12914001D01*
X12868600D02*
Y8778284D01*
X12823201D02*
X12868600D01*
X12823201Y8679200D02*
Y8778284D01*
X12777801Y8679200D02*
X12823201D01*
X12777801D02*
Y8778284D01*
X12732401D02*
X12777801D01*
X12732401Y8679200D02*
Y8778284D01*
X12687001Y8679200D02*
X12732401D01*
X12687001D02*
Y8778284D01*
X12641601D02*
X12687001D01*
X12641601Y8679200D02*
Y8778284D01*
X12596201Y8679200D02*
X12641601D01*
X12596201D02*
Y8778284D01*
X12550801D02*
X12596201D01*
X12550801Y8679200D02*
Y8778284D01*
X12505401Y8679200D02*
X12550801D01*
X12505401D02*
Y8780800D01*
X12460001D02*
X12505401D01*
X12460001Y8730000D02*
Y8780800D01*
X12450000Y8730000D02*
X12460001D01*
X13030000D02*
X13073264D01*
X13113263Y8770000D02*
X13152499D01*
X13073264Y8730000D02*
X13113263Y8770000D01*
X11015000Y9275000D02*
X11905000D01*
X10860000Y9320000D02*
X12040000D01*
X10720330Y9365000D02*
X12075000D01*
X7317500Y8580000D02*
X10960000D01*
X10990000Y8610000D01*
X7058500Y8839000D02*
X7317500Y8580000D01*
X7491716Y9251716D02*
X7638284D01*
X7312500Y9093000D02*
X7333000D01*
X7491716Y9251716D01*
X7638284D02*
X7695000Y9195000D01*
Y8735000D02*
Y9195000D01*
Y8735000D02*
X7760000Y8670000D01*
X10485285D01*
X7440000Y8700000D02*
X7515000Y8625000D01*
X7440000Y8700000D02*
Y8966500D01*
X7566500Y9093000D01*
X7515000Y8625000D02*
X10720000D01*
X10497000Y8681716D02*
Y9141670D01*
X10485285Y8670000D02*
X10497000Y8681716D01*
Y9141670D02*
X10720330Y9365000D01*
X13175343Y9113627D02*
X13400000D01*
X13500000Y9213627D01*
Y9350000D01*
X13658000Y10483000D02*
Y10800000D01*
X13500000Y10325000D02*
X13658000Y10483000D01*
X13213628Y9068628D02*
X13718626D01*
X14000000Y9350000D01*
X10740000Y9200000D02*
X10860000Y9320000D01*
X10740000Y8645000D02*
Y9200000D01*
X10720000Y8625000D02*
X10740000Y8645000D01*
X13912000Y10413000D02*
X14000000Y10325000D01*
X13912000Y10413000D02*
Y10800000D01*
X10990000Y9250000D02*
X11015000Y9275000D01*
X10990000Y8610000D02*
Y9250000D01*
X9220000Y6250201D02*
Y6279142D01*
X9174216Y6250201D02*
X9220000D01*
X9174216Y6204801D02*
Y6250201D01*
Y6204801D02*
X9270800D01*
Y6159401D02*
Y6204801D01*
X9169200Y6159401D02*
X9270800D01*
X9169200Y6114001D02*
Y6159401D01*
Y6114001D02*
X9270800D01*
Y6068601D02*
Y6114001D01*
X9169200Y6068601D02*
X9270800D01*
X9169200Y6023201D02*
Y6068601D01*
Y6023201D02*
X9270800D01*
Y5977801D02*
Y6023201D01*
X9169200Y5977801D02*
X9270800D01*
X9169200Y5932401D02*
Y5977801D01*
Y5932401D02*
X9270800D01*
Y5887001D02*
Y5932401D01*
X9169200Y5887001D02*
X9270800D01*
X9169200Y5841601D02*
Y5887001D01*
Y5841601D02*
X9270800D01*
Y5796201D02*
Y5841601D01*
X9169200Y5796201D02*
X9270800D01*
X9169200Y5750801D02*
Y5796201D01*
Y5750801D02*
X9270800D01*
Y5705401D02*
Y5750801D01*
X9169200Y5705401D02*
X9270800D01*
X9169200Y5660001D02*
Y5705401D01*
Y5660001D02*
X9220000D01*
Y5650000D02*
Y5660001D01*
Y6279142D02*
Y6318284D01*
Y5040000D02*
Y5650000D01*
X9344000Y5540000D02*
Y6318284D01*
X9332284Y6330000D02*
X9344000Y6318284D01*
X9220000D02*
X9231716Y6330000D01*
X9332284D01*
X13007175Y5140000D02*
X13298589Y5431413D01*
X12165000Y5140000D02*
X13007175D01*
X12120000Y5095000D02*
X12165000Y5140000D01*
X13277499Y5007500D02*
X13305876Y5035876D01*
X13269955Y5071797D02*
X13305876Y5035876D01*
X13269955Y5071797D02*
X13302057Y5103900D01*
X13373898Y5032057D01*
X13406001Y5064160D01*
X13347266Y5122897D02*
X13406001Y5064160D01*
X13347266Y5122897D02*
X13379367Y5155000D01*
X13438104Y5096263D01*
X13470207Y5128365D01*
X13420000Y5178573D02*
X13470207Y5128365D01*
X13420000Y5178573D02*
X13452103Y5210675D01*
X13502310Y5160468D01*
X13534412Y5192571D01*
X13462570Y5264413D02*
X13534412Y5192571D01*
X13462570Y5264413D02*
X13494673Y5296515D01*
X13566515Y5224673D01*
X13598618Y5256776D01*
X13526776Y5328618D02*
X13598618Y5256776D01*
X13526776Y5328618D02*
X13558878Y5360721D01*
X13630721Y5288878D01*
X13662823Y5320981D01*
X13590981Y5392823D02*
X13662823Y5320981D01*
X13590981Y5392823D02*
X13623083Y5424926D01*
X13694926Y5353084D01*
X13727028Y5385186D01*
X13655186Y5457028D02*
X13727028Y5385186D01*
X13655186Y5457028D02*
X13687289Y5489131D01*
X13759131Y5417289D01*
X13791232Y5449391D01*
X13719391Y5521234D02*
X13791232Y5449391D01*
X13719391Y5521234D02*
X13751494Y5553336D01*
X13823335Y5481494D01*
X13855440Y5513597D01*
X13783597Y5585439D02*
X13855440Y5513597D01*
X13783597Y5585439D02*
X13815698Y5617541D01*
X13881396Y5551843D01*
X13913499Y5583946D01*
X13847803Y5649644D02*
X13913499Y5583946D01*
X13847803Y5649644D02*
X13879904Y5681747D01*
X13932483Y5629168D01*
X13964586Y5661271D01*
X13947928Y5677928D02*
X13964586Y5661271D01*
X13947928Y5677928D02*
X13955000Y5685000D01*
X14001193Y5731193D01*
X9252500Y5007500D02*
X13277499D01*
X14001193Y5731193D02*
Y5794193D01*
X9220000Y5040000D02*
X9252500Y5007500D01*
X6930000Y8640000D02*
Y8964500D01*
X7110000Y8460000D02*
X11230000D01*
X6930000Y8640000D02*
X7110000Y8460000D01*
X6930000Y8964500D02*
X7058500Y9093000D01*
X12612929Y8317071D02*
X12620000Y8310000D01*
X12490714Y8439286D02*
X12612929Y8317071D01*
X12483742Y8432314D02*
X12490714Y8439286D01*
X12451640Y8464417D02*
X12483742Y8432314D01*
X12451640Y8464417D02*
X12494532Y8507310D01*
X12462430Y8539412D02*
X12494532Y8507310D01*
X12390587Y8467570D02*
X12462430Y8539412D01*
X12358485Y8499673D02*
X12390587Y8467570D01*
X12358485Y8499673D02*
X12430327Y8571515D01*
X12398224Y8603618D02*
X12430327Y8571515D01*
X12326382Y8531775D02*
X12398224Y8603618D01*
X12294279Y8563878D02*
X12326382Y8531775D01*
X12294279Y8563878D02*
X12366122Y8635720D01*
X12334019Y8667823D02*
X12366122Y8635720D01*
X12262177Y8595980D02*
X12334019Y8667823D01*
X12230074Y8628083D02*
X12262177Y8595980D01*
X12230074Y8628083D02*
X12301916Y8699925D01*
X12269814Y8732028D02*
X12301916Y8699925D01*
X12197972Y8660186D02*
X12269814Y8732028D01*
X12165869Y8692288D02*
X12197972Y8660186D01*
X12165869Y8692288D02*
X12237711Y8764131D01*
X12205609Y8796233D02*
X12237711Y8764131D01*
X12133766Y8724391D02*
X12205609Y8796233D01*
X12101664Y8756494D02*
X12133766Y8724391D01*
X12101664Y8756494D02*
X12173506Y8828336D01*
X12141403Y8860438D02*
X12173506Y8828336D01*
X12069561Y8788596D02*
X12141403Y8860438D01*
X12037459Y8820699D02*
X12069561Y8788596D01*
X12037459Y8820699D02*
X12109301Y8892541D01*
X12077198Y8924644D02*
X12109301Y8892541D01*
X12005356Y8852801D02*
X12077198Y8924644D01*
X11973253Y8884904D02*
X12005356Y8852801D01*
X11973253Y8884904D02*
X12045096Y8956746D01*
X12012993Y8988849D02*
X12045096Y8956746D01*
X11977072Y8952928D02*
X12012993Y8988849D01*
X11977071Y8952929D02*
X11977072Y8952928D01*
X11970000Y8960000D02*
X11977071Y8952929D01*
X11250000Y8480000D02*
Y9180000D01*
X11230000Y8460000D02*
X11250000Y8480000D01*
X11700000Y9230000D02*
X11970000Y8960000D01*
X7805000Y4755000D02*
X12914497D01*
X7440000Y5120000D02*
Y5412000D01*
Y5120000D02*
X7805000Y4755000D01*
X12914497D02*
X13139497Y4530000D01*
X14420000D01*
X14550000Y4660000D01*
Y7280000D01*
X14263741Y4583740D02*
X14302415Y4622415D01*
X14338336Y4586494D01*
X14370439Y4618597D01*
X14298596Y4690439D02*
X14370439Y4618597D01*
X14298596Y4690439D02*
X14330699Y4722541D01*
X14402541Y4650699D01*
X14434644Y4682802D01*
X14362802Y4754644D02*
X14434644Y4682802D01*
X14362802Y4754644D02*
X14394904Y4786747D01*
X14466747Y4714905D01*
X14498849Y4747007D01*
X14462927Y4782928D02*
X14498849Y4747007D01*
X14462927Y4782928D02*
X14470000Y4790000D01*
X14255000Y4575000D02*
X14263741Y4583740D01*
X14470000Y4790000D02*
X14505000Y4825000D01*
X13158138Y4575000D02*
X14255000D01*
X14505000Y4825000D02*
Y7076284D01*
X14403893Y4943893D02*
X14430000Y4970000D01*
X14403893Y4943893D02*
X14439815Y4907972D01*
X14407710Y4875869D02*
X14439815Y4907972D01*
X14335869Y4947711D02*
X14407710Y4875869D01*
X14303766Y4915609D02*
X14335869Y4947711D01*
X14303766Y4915609D02*
X14375609Y4843767D01*
X14343506Y4811664D02*
X14375609Y4843767D01*
X14271664Y4883506D02*
X14343506Y4811664D01*
X14239561Y4851403D02*
X14271664Y4883506D01*
X14239561Y4851403D02*
X14311403Y4779561D01*
X14279301Y4747459D02*
X14311403Y4779561D01*
X14207458Y4819301D02*
X14279301Y4747459D01*
X14175356Y4787198D02*
X14207458Y4819301D01*
X14175356Y4787198D02*
X14247198Y4715356D01*
X14215096Y4683253D02*
X14247198Y4715356D01*
X14143253Y4755095D02*
X14215096Y4683253D01*
X14111151Y4722993D02*
X14143253Y4755095D01*
X14111151Y4722993D02*
X14147072Y4687072D01*
X14139999Y4680000D02*
X14147072Y4687072D01*
X14430000Y4970000D02*
X14460001Y5000000D01*
X14080000Y4620000D02*
X14139999Y4680000D01*
X13176778Y4620000D02*
X14080000D01*
X14460001Y5000000D02*
Y6818284D01*
X14020000Y5000000D02*
X14034006Y5014005D01*
X14123807Y4924202D01*
X14155910Y4956305D01*
X13976305Y5135910D02*
X14155910Y4956305D01*
X13976305Y5135910D02*
X14008408Y5168013D01*
X14188013Y4988407D01*
X14220116Y5020510D01*
X14040511Y5200115D02*
X14220116Y5020510D01*
X14040511Y5200115D02*
X14072612Y5232218D01*
X14252219Y5052613D01*
X14284320Y5084715D01*
X14104715Y5264320D02*
X14284320Y5084715D01*
X14104715Y5264320D02*
X14136818Y5296423D01*
X14316423Y5116818D01*
X14348524Y5148920D01*
X14168919Y5328526D02*
X14348524Y5148920D01*
X14168919Y5328526D02*
X14201022Y5360628D01*
X14380627Y5181023D01*
X14412730Y5213126D01*
X14322928Y5302928D02*
X14412730Y5213126D01*
X14322928Y5302928D02*
X14330000Y5310000D01*
X14414999Y5395000D01*
X14020000Y4676716D02*
Y5000000D01*
X13195416Y4665000D02*
X14008284D01*
X14020000Y4676716D01*
X14414999Y5395000D02*
Y6444000D01*
X9535000Y5095000D02*
X11640000D01*
X12058601D02*
X12120000D01*
X12058601D02*
Y5181224D01*
X12013201D02*
X12058601D01*
X12013201Y5052500D02*
Y5181224D01*
X11967801Y5052500D02*
X12013201D01*
X11967801D02*
Y5222000D01*
X11922401D02*
X11967801D01*
X11922401Y5052500D02*
Y5222000D01*
X11877001Y5052500D02*
X11922401D01*
X11877001D02*
Y5222000D01*
X11831601D02*
X11877001D01*
X11831601Y5052500D02*
Y5222000D01*
X11786201Y5052500D02*
X11831601D01*
X11786201D02*
Y5222000D01*
X11740801D02*
X11786201D01*
X11740801Y5052500D02*
Y5222000D01*
X11695401Y5052500D02*
X11740801D01*
X11695401D02*
Y5222000D01*
X11650001D02*
X11695401D01*
X11650001Y5095000D02*
Y5222000D01*
X11640000Y5095000D02*
X11650001D01*
X13787199Y5920024D02*
X13818588Y5951413D01*
X13697395Y6009826D02*
X13787199Y5920024D01*
X13665292Y5977724D02*
X13697395Y6009826D01*
X13665292Y5977724D02*
X13844899Y5798119D01*
X13812796Y5766016D02*
X13844899Y5798119D01*
X13633191Y5945621D02*
X13812796Y5766016D01*
X13601088Y5913519D02*
X13633191Y5945621D01*
X13601088Y5913519D02*
X13780693Y5733913D01*
X13748592Y5701811D02*
X13780693Y5733913D01*
X13568987Y5881416D02*
X13748592Y5701811D01*
X13536884Y5849313D02*
X13568987Y5881416D01*
X13536884Y5849313D02*
X13716489Y5669708D01*
X13684386Y5637605D02*
X13716489Y5669708D01*
X13504781Y5817211D02*
X13684386Y5637605D01*
X13472678Y5785108D02*
X13504781Y5817211D01*
X13472678Y5785108D02*
X13652283Y5605503D01*
X13620180Y5573400D02*
X13652283Y5605503D01*
X13440575Y5753006D02*
X13620180Y5573400D01*
X13408473Y5720903D02*
X13440575Y5753006D01*
X13408473Y5720903D02*
X13588078Y5541298D01*
X13555975Y5509195D02*
X13588078Y5541298D01*
X13376370Y5688800D02*
X13555975Y5509195D01*
X13344267Y5656698D02*
X13376370Y5688800D01*
X13344267Y5656698D02*
X13523872Y5477092D01*
X13491769Y5444990D02*
X13523872Y5477092D01*
X13312164Y5624595D02*
X13491769Y5444990D01*
X13280061Y5592492D02*
X13312164Y5624595D01*
X13280061Y5592492D02*
X13459666Y5412887D01*
X13427563Y5380785D02*
X13459666Y5412887D01*
X13247958Y5560390D02*
X13427563Y5380785D01*
X13215857Y5528287D02*
X13247958Y5560390D01*
X13215857Y5528287D02*
X13305659Y5438484D01*
X13298589Y5431413D02*
X13305659Y5438484D01*
X13818588Y5951413D02*
X13930215Y6063041D01*
X9344000Y5286000D02*
X9535000Y5095000D01*
X14016042Y6063041D02*
X14025000Y6072000D01*
X13930215Y6063041D02*
X14016042D01*
X11790000Y5710000D02*
X11895000D01*
Y5681184D02*
Y5710000D01*
Y5681184D02*
X11940400D01*
Y5837000D01*
X11985800D01*
Y5583000D02*
Y5837000D01*
Y5583000D02*
X12031200D01*
Y5837000D01*
X12076600D01*
Y5583000D02*
Y5837000D01*
Y5583000D02*
X12122000D01*
Y5837000D01*
X12167400D01*
Y5583000D02*
Y5837000D01*
Y5583000D02*
X12212800D01*
Y5837000D01*
X12258200D01*
Y5583000D02*
Y5837000D01*
Y5583000D02*
X12303599D01*
Y5837000D01*
X12348999D01*
Y5583000D02*
Y5837000D01*
Y5583000D02*
X12394399D01*
Y5837000D01*
X12439799D01*
Y5583000D02*
Y5837000D01*
Y5583000D02*
X12485199D01*
Y5837000D01*
X12530599D01*
Y5583000D02*
Y5837000D01*
Y5583000D02*
X12575999D01*
Y5837000D01*
X12621399D01*
Y5583000D02*
Y5837000D01*
Y5583000D02*
X12666799D01*
Y5837000D01*
X12712199D01*
Y5583000D02*
Y5837000D01*
Y5583000D02*
X12757599D01*
Y5837000D01*
X12802998D01*
Y5583000D02*
Y5837000D01*
Y5583000D02*
X12848399D01*
Y5837000D01*
X12893799D01*
Y5583000D02*
Y5837000D01*
Y5583000D02*
X12939198D01*
Y5837000D01*
X12984599D01*
Y5583000D02*
Y5837000D01*
Y5583000D02*
X13029999D01*
Y5710000D01*
X13039999D01*
X11770000D02*
X11790000D01*
X13039999D02*
X13119772D01*
X11570000Y5510000D02*
X11770000Y5710000D01*
X11460000Y5140000D02*
X11570000Y5250000D01*
X10740000Y5200000D02*
X10800000Y5140000D01*
X11460000D01*
X11570000Y5250000D02*
Y5510000D01*
X10740000Y5200000D02*
Y5412000D01*
X13119772Y5710000D02*
X13735773Y6326000D01*
X14025000D01*
X12835800Y6180000D02*
X13400000D01*
X12835800D02*
Y6228231D01*
X12790400D02*
X12835800D01*
X12790400Y6053000D02*
Y6228231D01*
X12745000Y6053000D02*
X12790400D01*
X12745000D02*
Y6307000D01*
X12699600D02*
X12745000D01*
X12699600Y6053000D02*
Y6307000D01*
X12654200Y6053000D02*
X12699600D01*
X12654200D02*
Y6307000D01*
X12608800D02*
X12654200D01*
X12608800Y6053000D02*
Y6307000D01*
X12563400Y6053000D02*
X12608800D01*
X12563400D02*
Y6307000D01*
X12518000D02*
X12563400D01*
X12518000Y6053000D02*
Y6307000D01*
X12472600Y6053000D02*
X12518000D01*
X12472600D02*
Y6307000D01*
X12427200D02*
X12472600D01*
X12427200Y6053000D02*
Y6307000D01*
X12381800Y6053000D02*
X12427200D01*
X12381800D02*
Y6307000D01*
X12336401D02*
X12381800D01*
X12336401Y6053000D02*
Y6307000D01*
X12291001Y6053000D02*
X12336401D01*
X12291001D02*
Y6307000D01*
X12245601D02*
X12291001D01*
X12245601Y6053000D02*
Y6307000D01*
X12200201Y6053000D02*
X12245601D01*
X12200201D02*
Y6307000D01*
X12154801D02*
X12200201D01*
X12154801Y6053000D02*
Y6307000D01*
X12109401Y6053000D02*
X12154801D01*
X12109401D02*
Y6307000D01*
X12064001D02*
X12109401D01*
X12064001Y6053000D02*
Y6307000D01*
X12018601Y6053000D02*
X12064001D01*
X12018601D02*
Y6307000D01*
X11973201D02*
X12018601D01*
X11973201Y6053000D02*
Y6307000D01*
X11927801Y6053000D02*
X11973201D01*
X11927801D02*
Y6307000D01*
X11882401D02*
X11927801D01*
X11882401Y6053000D02*
Y6307000D01*
X11837001Y6053000D02*
X11882401D01*
X11837001D02*
Y6307000D01*
X11791601D02*
X11837001D01*
X11791601Y6053000D02*
Y6307000D01*
X11746201Y6053000D02*
X11791601D01*
X11746201D02*
Y6307000D01*
X11700801D02*
X11746201D01*
X11700801Y6053000D02*
Y6307000D01*
X11655401Y6053000D02*
X11700801D01*
X11655401D02*
Y6307000D01*
X11610001D02*
X11655401D01*
X11610001Y6180000D02*
Y6307000D01*
X11600000Y6180000D02*
X11610001D01*
X13400000D02*
X13439999D01*
X11580000D02*
X11600000D01*
X10868000Y5286000D02*
X11000000Y5418000D01*
Y5600000D01*
X11580000Y6180000D01*
X13439999D02*
X13839999Y6580000D01*
X10740000Y5412000D02*
X10868000Y5540000D01*
X13839999Y6580000D02*
X14025000D01*
X11420000Y7700000D02*
X11427071Y7692929D01*
X11460363Y7659637D01*
X11374179Y7573453D02*
X11460363Y7659637D01*
X11374179Y7573453D02*
X11406281Y7541350D01*
X11582268Y7717337D01*
X11614371Y7685235D01*
X11434766Y7505629D02*
X11614371Y7685235D01*
X11434766Y7505629D02*
X11466868Y7473527D01*
X11646473Y7653132D01*
X11678576Y7621029D01*
X11498971Y7441424D02*
X11678576Y7621029D01*
X11498971Y7441424D02*
X11531073Y7409321D01*
X11710679Y7588927D01*
X11742781Y7556824D01*
X11563176Y7377219D02*
X11742781Y7556824D01*
X11563176Y7377219D02*
X11595279Y7345116D01*
X11774884Y7524722D01*
X11806986Y7492619D01*
X11627381Y7313014D02*
X11806986Y7492619D01*
X11627381Y7313014D02*
X11659484Y7280911D01*
X11839089Y7460516D01*
X11871192Y7428414D01*
X11691586Y7248808D02*
X11871192Y7428414D01*
X11691586Y7248808D02*
X11723689Y7216706D01*
X11903294Y7396311D01*
X11935397Y7364208D01*
X11755792Y7184603D02*
X11935397Y7364208D01*
X11755792Y7184603D02*
X11787894Y7152501D01*
X11967500Y7332106D01*
X11999602Y7300003D01*
X11819997Y7120398D02*
X11999602Y7300003D01*
X11819997Y7120398D02*
X11852099Y7088295D01*
X12031705Y7267901D01*
X12063807Y7235798D01*
X11884202Y7056193D02*
X12063807Y7235798D01*
X11884202Y7056193D02*
X11916305Y7024090D01*
X12095910Y7203695D01*
X12128013Y7171593D01*
X11948408Y6991988D02*
X12128013Y7171593D01*
X11948408Y6991988D02*
X11980510Y6959885D01*
X12160115Y7139490D01*
X12192218Y7107387D01*
X12012613Y6927782D02*
X12192218Y7107387D01*
X12012613Y6927782D02*
X12044715Y6895680D01*
X12224320Y7075285D01*
X12256423Y7043183D01*
X12076818Y6863578D02*
X12256423Y7043183D01*
X12076818Y6863578D02*
X12108920Y6831475D01*
X12288526Y7011080D01*
X12320628Y6978977D01*
X12141023Y6799372D02*
X12320628Y6978977D01*
X12141023Y6799372D02*
X12173126Y6767270D01*
X12262928Y6857072D01*
X12262929Y6857071D01*
Y6857071D02*
X12270000Y6850000D01*
X11376500Y7743500D02*
X11420000Y7700000D01*
X12270000Y6850000D02*
X12340000Y6780000D01*
X13946783D01*
X14000784Y6834000D01*
X14025000D01*
X11376500Y7743500D02*
Y8839000D01*
X12512929Y7317071D02*
X12520000Y7310000D01*
X12483843Y7346157D02*
X12512929Y7317071D01*
X12483843Y7346157D02*
X12498850Y7361165D01*
X12466747Y7393267D02*
X12498850Y7361165D01*
X12361937Y7288457D02*
X12466747Y7393267D01*
X12329835Y7320560D02*
X12361937Y7288457D01*
X12329835Y7320560D02*
X12509440Y7500165D01*
X12477338Y7532268D02*
X12509440Y7500165D01*
X12297732Y7352662D02*
X12477338Y7532268D01*
X12265630Y7384765D02*
X12297732Y7352662D01*
X12265630Y7384765D02*
X12445235Y7564370D01*
X12413132Y7596473D02*
X12445235Y7564370D01*
X12233527Y7416868D02*
X12413132Y7596473D01*
X12201424Y7448970D02*
X12233527Y7416868D01*
X12201424Y7448970D02*
X12381030Y7628576D01*
X12348927Y7660678D02*
X12381030Y7628576D01*
X12169322Y7481073D02*
X12348927Y7660678D01*
X12137219Y7513175D02*
X12169322Y7481073D01*
X12137219Y7513175D02*
X12316824Y7692781D01*
X12284722Y7724883D02*
X12316824Y7692781D01*
X12105117Y7545278D02*
X12284722Y7724883D01*
X12073014Y7577381D02*
X12105117Y7545278D01*
X12073014Y7577381D02*
X12252619Y7756986D01*
X12220517Y7789089D02*
X12252619Y7756986D01*
X12040911Y7609483D02*
X12220517Y7789089D01*
X12008809Y7641586D02*
X12040911Y7609483D01*
X12008809Y7641586D02*
X12188414Y7821191D01*
X12156311Y7853294D02*
X12188414Y7821191D01*
X11976706Y7673688D02*
X12156311Y7853294D01*
X11944603Y7705791D02*
X11976706Y7673688D01*
X11944603Y7705791D02*
X12124209Y7885397D01*
X12092106Y7917499D02*
X12124209Y7885397D01*
X11912501Y7737894D02*
X12092106Y7917499D01*
X11880398Y7769996D02*
X11912501Y7737894D01*
X11880398Y7769996D02*
X12060004Y7949602D01*
X12027901Y7981704D02*
X12060004Y7949602D01*
X11848296Y7802099D02*
X12027901Y7981704D01*
X11816193Y7834202D02*
X11848296Y7802099D01*
X11816193Y7834202D02*
X11995798Y8013807D01*
X11963696Y8045910D02*
X11995798Y8013807D01*
X11784090Y7866304D02*
X11963696Y8045910D01*
X11751988Y7898407D02*
X11784090Y7866304D01*
X11751988Y7898407D02*
X11931593Y8078012D01*
X11899491Y8110115D02*
X11931593Y8078012D01*
X11719885Y7930509D02*
X11899491Y8110115D01*
X11687782Y7962612D02*
X11719885Y7930509D01*
X11687782Y7962612D02*
X11867388Y8142218D01*
X11835285Y8174320D02*
X11867388Y8142218D01*
X11655680Y7994715D02*
X11835285Y8174320D01*
X11623577Y8026817D02*
X11655680Y7994715D01*
X11623577Y8026817D02*
X11803183Y8206423D01*
X11771080Y8238525D02*
X11803183Y8206423D01*
X11591475Y8058920D02*
X11771080Y8238525D01*
X11559372Y8091023D02*
X11591475Y8058920D01*
X11559372Y8091023D02*
X11738977Y8270628D01*
X11706875Y8302731D02*
X11738977Y8270628D01*
X11617072Y8212928D02*
X11706875Y8302731D01*
X11617071Y8212929D02*
X11617072Y8212928D01*
X11610000Y8220000D02*
X11617071Y8212929D01*
X12520000Y7310000D02*
X12540000Y7290000D01*
X11580000Y8250000D02*
X11610000Y8220000D01*
X13823000Y7290000D02*
X14025000Y7088000D01*
X12540000Y7290000D02*
X13823000D01*
X11580000Y8250000D02*
Y8889500D01*
X11376500Y9093000D02*
X11580000Y8889500D01*
X11300000Y9230000D02*
X11700000D01*
X14001193Y5794193D02*
X14025000Y5818000D01*
X7566000Y5057639D02*
X7823639Y4800000D01*
X12933138D01*
X7842279Y4845000D02*
X12951776D01*
X7690000Y4997279D02*
X7842279Y4845000D01*
X8600000Y4890000D02*
X12970416D01*
X8582000Y4908000D02*
X8600000Y4890000D01*
X7690000Y4997279D02*
Y5416000D01*
X7566000Y5057639D02*
Y5286000D01*
X8582000Y4908000D02*
Y5286000D01*
X12970416Y4890000D02*
X13195416Y4665000D01*
X12951776Y4845000D02*
X13176778Y4620000D01*
X12933138Y4800000D02*
X13158138Y4575000D01*
X14278999Y6580000D02*
X14414999Y6444000D01*
X14448283Y6830000D02*
X14460001Y6818284D01*
X14283000Y6830000D02*
X14448283D01*
X14278999Y7088000D02*
X14493285D01*
X14505000Y7076284D01*
X14488000Y7342000D02*
X14550000Y7280000D01*
X11250000Y9180000D02*
X11300000Y9230000D01*
X7566000Y5540000D02*
X7690000Y5416000D01*
X14278999Y6834000D02*
X14283000Y6830000D01*
X14278999Y7342000D02*
X14488000D01*
X7312000Y5540000D02*
X7440000Y5412000D01*
D27*
X9825000Y9750000D02*
D03*
X10110000Y3980000D02*
D03*
X12830000Y4650000D02*
D03*
X6425000Y3225000D02*
D03*
X11747470Y9748599D02*
D03*
Y10398599D02*
D03*
X11750000Y11050000D02*
D03*
X11747470Y11698599D02*
D03*
X7225000Y10450000D02*
D03*
Y9750000D02*
D03*
X8275000Y11700000D02*
D03*
Y11075000D02*
D03*
X8525000Y10450000D02*
D03*
Y9750000D02*
D03*
X8675000Y3925000D02*
D03*
Y4625000D02*
D03*
Y3225000D02*
D03*
X12830000Y3980000D02*
D03*
X12820000Y2650000D02*
D03*
X12830000Y3320000D02*
D03*
X11240000Y2650000D02*
D03*
X9825000Y10400000D02*
D03*
Y11050000D02*
D03*
Y11700000D02*
D03*
X6425000Y3925000D02*
D03*
Y4625000D02*
D03*
X6175000Y11150000D02*
D03*
Y10450000D02*
D03*
Y9750000D02*
D03*
X11200000Y3980000D02*
D03*
Y4650000D02*
D03*
X10110000D02*
D03*
D28*
X10075000Y9750000D02*
D03*
X10325000D02*
D03*
X10575000D02*
D03*
X10825000D02*
D03*
X9860000Y3980000D02*
D03*
X9610000D02*
D03*
X4970000Y8660000D02*
D03*
Y8910000D02*
D03*
X11830000Y4650000D02*
D03*
X12080000D02*
D03*
X12330000D02*
D03*
X12580000D02*
D03*
X5925000Y3225000D02*
D03*
X6175000D02*
D03*
X11997470Y9748599D02*
D03*
X12247470D02*
D03*
X11997470Y10398599D02*
D03*
X12247470D02*
D03*
X12000000Y11050000D02*
D03*
X12250000D02*
D03*
X11997470Y11698599D02*
D03*
X12247470D02*
D03*
X7475000Y10450000D02*
D03*
X7725000D02*
D03*
X7975000D02*
D03*
Y9750000D02*
D03*
X9275000Y11700000D02*
D03*
Y11075000D02*
D03*
Y10450000D02*
D03*
Y9750000D02*
D03*
X9025000Y11075000D02*
D03*
X8775000D02*
D03*
X8525000D02*
D03*
X8775000Y9750000D02*
D03*
X9025000D02*
D03*
X8175000Y3925000D02*
D03*
X8425000D02*
D03*
X8175000Y4625000D02*
D03*
X8425000D02*
D03*
X8175000Y3225000D02*
D03*
X8425000D02*
D03*
X12580000Y3980000D02*
D03*
X12330000D02*
D03*
X12080000D02*
D03*
X11830000D02*
D03*
X12570000Y2650000D02*
D03*
X12320000D02*
D03*
X12070000D02*
D03*
X11820000D02*
D03*
X12580000Y3320000D02*
D03*
X12330000D02*
D03*
X12080000D02*
D03*
X11830000D02*
D03*
X10490000Y2650000D02*
D03*
X10740000D02*
D03*
X10990000D02*
D03*
X10075000Y10400000D02*
D03*
X10325000D02*
D03*
X10575000D02*
D03*
X10825000D02*
D03*
X10075000Y11050000D02*
D03*
X10325000D02*
D03*
X10575000D02*
D03*
X10825000D02*
D03*
X10075000Y11700000D02*
D03*
X10325000D02*
D03*
X10575000D02*
D03*
X10825000D02*
D03*
X6175000Y3925000D02*
D03*
X5925000D02*
D03*
X6175000Y4625000D02*
D03*
X5925000D02*
D03*
X6425000Y11150000D02*
D03*
X6675000D02*
D03*
X6425000Y10450000D02*
D03*
X6675000D02*
D03*
X6425000Y9750000D02*
D03*
X6675000D02*
D03*
X7725000Y9750000D02*
D03*
X7475000D02*
D03*
X8525000Y11700000D02*
D03*
X8775000D02*
D03*
X9025000D02*
D03*
Y10450000D02*
D03*
X8775000D02*
D03*
X10950000Y3980000D02*
D03*
X10700000D02*
D03*
X10950000Y4650000D02*
D03*
X10700000D02*
D03*
X9860000D02*
D03*
X9610000D02*
D03*
D29*
X11376500Y8839000D02*
D03*
X10868500D02*
D03*
X9598500D02*
D03*
X9852500D02*
D03*
X9344500D02*
D03*
X9090500D02*
D03*
X8836500D02*
D03*
X8582500D02*
D03*
X8328500D02*
D03*
X8074500D02*
D03*
X10106500D02*
D03*
X11122500D02*
D03*
X10614500D02*
D03*
X10614000Y5286000D02*
D03*
X9852000D02*
D03*
Y5540000D02*
D03*
X10106000Y5286000D02*
D03*
Y5540000D02*
D03*
X10360000Y5286000D02*
D03*
Y5540000D02*
D03*
X10614000D02*
D03*
X7566000Y5286000D02*
D03*
Y5540000D02*
D03*
X8074000Y5286000D02*
D03*
X7820000D02*
D03*
Y5540000D02*
D03*
X8074000D02*
D03*
X8328000Y5286000D02*
D03*
Y5540000D02*
D03*
X8582000Y5286000D02*
D03*
Y5540000D02*
D03*
X8836000Y5286000D02*
D03*
Y5540000D02*
D03*
X9090000D02*
D03*
Y5286000D02*
D03*
X6296500Y8839000D02*
D03*
X10360500D02*
D03*
X7058500D02*
D03*
X6550500D02*
D03*
X6042500D02*
D03*
X6804500D02*
D03*
X7566500D02*
D03*
X7820500D02*
D03*
X7312500D02*
D03*
X6042000Y5286000D02*
D03*
X7312000Y5540000D02*
D03*
X6042000D02*
D03*
X6296000Y5286000D02*
D03*
Y5540000D02*
D03*
X6550000Y5286000D02*
D03*
Y5540000D02*
D03*
X6804000Y5286000D02*
D03*
Y5540000D02*
D03*
X7058000Y5286000D02*
D03*
Y5540000D02*
D03*
X7312000Y5286000D02*
D03*
X11376000D02*
D03*
X11122000Y5540000D02*
D03*
X11376000D02*
D03*
X10868000Y5286000D02*
D03*
X11122000D02*
D03*
X10868000Y5540000D02*
D03*
X11376500Y9093000D02*
D03*
X9852500D02*
D03*
X9598500D02*
D03*
X9344500D02*
D03*
X9090500D02*
D03*
X8836500D02*
D03*
X11122500D02*
D03*
X10868500D02*
D03*
X10614500D02*
D03*
X10106500D02*
D03*
X10360500D02*
D03*
X6042500D02*
D03*
X8074500D02*
D03*
X8328500D02*
D03*
X8582500D02*
D03*
X7820500D02*
D03*
X6804500D02*
D03*
X6296500D02*
D03*
X7058500D02*
D03*
X7312500D02*
D03*
X6550500D02*
D03*
X7566500D02*
D03*
X9598000Y5286000D02*
D03*
X9344000Y5540000D02*
D03*
Y5286000D02*
D03*
X9598000Y5540000D02*
D03*
X13152499Y8770000D02*
D03*
X13406500D02*
D03*
X13660500D02*
D03*
X13914500D02*
D03*
X14168500D02*
D03*
X14422501D02*
D03*
X13150000Y10800000D02*
D03*
X13403999D02*
D03*
X13658000D02*
D03*
X13912000D02*
D03*
X14166000D02*
D03*
X14420000D02*
D03*
X13125000Y6050000D02*
D03*
Y6304000D02*
D03*
X12625000Y7800000D02*
D03*
Y8054000D02*
D03*
X3450000Y5950000D02*
D03*
X4500000Y6150000D02*
D03*
Y5750000D02*
D03*
X3200000Y6150000D02*
D03*
Y5750000D02*
D03*
X3850000Y5950000D02*
D03*
X4250000D02*
D03*
X3500000Y9950000D02*
D03*
X4550000Y10150000D02*
D03*
Y9750000D02*
D03*
X3250000Y10150000D02*
D03*
Y9750000D02*
D03*
X3900000Y9950000D02*
D03*
X4300000D02*
D03*
X14250000Y9350000D02*
D03*
X14000000D02*
D03*
X13750000D02*
D03*
X13500000D02*
D03*
X13250000D02*
D03*
X13000000D02*
D03*
X13650000Y4250000D02*
D03*
Y4000000D02*
D03*
Y3750000D02*
D03*
Y3500000D02*
D03*
Y3250000D02*
D03*
Y3000000D02*
D03*
X14310001Y4250000D02*
D03*
Y4000000D02*
D03*
Y3750000D02*
D03*
Y3500000D02*
D03*
Y3250000D02*
D03*
Y3000000D02*
D03*
X13000000Y10325000D02*
D03*
X13250000D02*
D03*
X13500000D02*
D03*
X13750000D02*
D03*
X14000000D02*
D03*
X14250000D02*
D03*
D31*
X3400000Y10990000D02*
D03*
Y11440000D02*
D03*
D32*
X4970000Y9160000D02*
D03*
D33*
X3500000Y3654000D02*
D03*
Y3150000D02*
D03*
Y2646000D02*
D03*
X4250000Y3654000D02*
D03*
Y3150000D02*
D03*
Y2646000D02*
D03*
Y5180000D02*
D03*
Y9176000D02*
D03*
Y6642000D02*
D03*
Y7146000D02*
D03*
Y7650000D02*
D03*
X3500000Y6642000D02*
D03*
Y7146000D02*
D03*
Y7650000D02*
D03*
D34*
Y5180000D02*
D03*
Y9176000D02*
D03*
D35*
X5930000Y2475000D02*
D03*
X4850000Y4500000D02*
D03*
X8180000Y2475000D02*
D03*
X5450000Y11500000D02*
D03*
X7050000Y4500000D02*
D03*
D36*
X6430000Y2475000D02*
D03*
X5350000Y4500000D02*
D03*
X8680000Y2475000D02*
D03*
X4950000Y11500000D02*
D03*
X2180000Y6205000D02*
D03*
X2180000Y4110000D02*
D03*
Y5165000D02*
D03*
Y3070000D02*
D03*
X7550000Y4500000D02*
D03*
X2049999Y10380000D02*
D03*
X2050000Y9330000D02*
D03*
Y8290000D02*
D03*
X2052500Y7240000D02*
D03*
D37*
X12839999Y5285000D02*
D03*
X10250000Y3450000D02*
D03*
X10692000D02*
D03*
X7704000Y10925000D02*
D03*
Y11625000D02*
D03*
X12694000Y2200000D02*
D03*
X11129000D02*
D03*
X13853999Y4830000D02*
D03*
X6171000Y11600000D02*
D03*
X7704000Y11275000D02*
D03*
D38*
X12586000Y5285000D02*
D03*
X12332000D02*
D03*
X13125000Y7158000D02*
D03*
Y6904000D02*
D03*
X9775000Y2375000D02*
D03*
Y2629000D02*
D03*
X9742000Y3450000D02*
D03*
X9996000D02*
D03*
X10946000D02*
D03*
X11200000D02*
D03*
X13675000Y11479000D02*
D03*
Y11733000D02*
D03*
X11290000Y11526000D02*
D03*
Y11780000D02*
D03*
Y9736000D02*
D03*
Y9990000D02*
D03*
Y10636000D02*
D03*
Y10890000D02*
D03*
X7450000Y10925000D02*
D03*
X7196000D02*
D03*
X7450000Y11625000D02*
D03*
X7196000D02*
D03*
X13350000Y11479000D02*
D03*
Y11733000D02*
D03*
X9175000Y3275000D02*
D03*
Y3529000D02*
D03*
X4900000Y2750000D02*
D03*
Y2496000D02*
D03*
X12186000Y2200000D02*
D03*
X12440000D02*
D03*
X10621000D02*
D03*
X10875000D02*
D03*
X13346001Y4830000D02*
D03*
X13600000D02*
D03*
X13025000Y11733000D02*
D03*
Y11479000D02*
D03*
X12691500Y11733000D02*
D03*
Y11479000D02*
D03*
X4875000Y9746000D02*
D03*
Y10000000D02*
D03*
X6925000Y3479000D02*
D03*
Y3225000D02*
D03*
X6679000Y11600000D02*
D03*
X6425000D02*
D03*
X7196000Y11275000D02*
D03*
X7450000D02*
D03*
D39*
X13831172Y5250000D02*
D03*
X5806172Y9750000D02*
D03*
Y10250000D02*
D03*
D40*
X13325000Y5250000D02*
D03*
X5300000Y9750000D02*
D03*
Y10250000D02*
D03*
D42*
X13125000Y6650000D02*
D03*
X9775000Y2883000D02*
D03*
X13675000Y11225000D02*
D03*
X11290000Y11272000D02*
D03*
Y9482000D02*
D03*
Y10382000D02*
D03*
X13350000Y11225000D02*
D03*
X9175000Y3021000D02*
D03*
X4900000Y3004000D02*
D03*
X13025000Y11225000D02*
D03*
X12691500D02*
D03*
X4875000Y10254000D02*
D03*
X6925000Y2971000D02*
D03*
D43*
X14025000Y7342000D02*
D03*
X14278999D02*
D03*
X14025000Y7088000D02*
D03*
X14278999D02*
D03*
X14025000Y6834000D02*
D03*
X14278999D02*
D03*
X14025000Y5564000D02*
D03*
Y5818000D02*
D03*
Y6072000D02*
D03*
Y6326000D02*
D03*
X14278999Y6580000D02*
D03*
X14025000D02*
D03*
X14278999Y6326000D02*
D03*
X14025000Y7850000D02*
D03*
X14278999Y7596000D02*
D03*
X14025000D02*
D03*
X14278999Y6072000D02*
D03*
Y5818000D02*
D03*
Y5564000D02*
D03*
D44*
Y7850000D02*
D03*
D45*
X2180000Y6705000D02*
D03*
X2180000Y4610000D02*
D03*
Y5665000D02*
D03*
Y3570000D02*
D03*
X2049999Y10880000D02*
D03*
X2050000Y9830000D02*
D03*
Y8790000D02*
D03*
X2052500Y7740000D02*
D03*
D46*
X2000000Y11600000D02*
D03*
Y2400000D02*
D03*
X14200000D02*
D03*
Y11600000D02*
D03*
D47*
X8760000Y4480000D02*
D03*
X9350000Y4220000D02*
D03*
X9460000Y4217500D02*
D03*
X9260000Y4280000D02*
D03*
X12650000Y7590000D02*
D03*
X13989999Y4125000D02*
D03*
X12540000Y6650000D02*
D03*
X12430000D02*
D03*
X12330000D02*
D03*
X11790000Y5940000D02*
D03*
X11700000D02*
D03*
X11610000D02*
D03*
X10600000Y6390000D02*
D03*
X11115000Y6160000D02*
D03*
X11220000D02*
D03*
X11010000D02*
D03*
X10690000Y6390000D02*
D03*
X10780000D02*
D03*
X13159589Y8095000D02*
D03*
X5920000Y4990000D02*
D03*
Y4890000D02*
D03*
X8250000Y10740000D02*
D03*
X8160000Y10790000D02*
D03*
X9600000Y6820000D02*
D03*
X9976697Y6813303D02*
D03*
X10650000Y7470000D02*
D03*
X12870000Y9160000D02*
D03*
X11550000Y6537500D02*
D03*
X11698622Y6666793D02*
D03*
X9410094Y4340492D02*
D03*
X8870000Y4220000D02*
D03*
X8553769Y4523769D02*
D03*
X10880000Y4370000D02*
D03*
X10889509Y4264419D02*
D03*
X10900000Y4170000D02*
D03*
X11735000Y4530065D02*
D03*
X11683989Y4442666D02*
D03*
X11605000Y4389887D02*
D03*
X11527500Y4334943D02*
D03*
X11450000Y4280000D02*
D03*
X12820000Y7760000D02*
D03*
X10500000Y7730000D02*
D03*
X10470000Y7630000D02*
D03*
X11010000Y8330000D02*
D03*
X12750000Y9370000D02*
D03*
X12634575Y9381019D02*
D03*
X12540000Y9390000D02*
D03*
X12430000D02*
D03*
X12460000Y11610000D02*
D03*
X11450000Y11150000D02*
D03*
X9907438Y9512093D02*
D03*
X9868952Y9598949D02*
D03*
X8900000Y9580000D02*
D03*
X7460000Y8300000D02*
D03*
X6600000Y8096751D02*
D03*
X6440000Y8019388D02*
D03*
X10297747Y2797973D02*
D03*
Y2707973D02*
D03*
X3606763Y3280571D02*
D03*
X4000000Y3280000D02*
D03*
X3900000D02*
D03*
X3900000Y3190000D02*
D03*
X4000000D02*
D03*
X3411728Y3284417D02*
D03*
X3424512Y2929712D02*
D03*
X3616763Y2930571D02*
D03*
X3516763D02*
D03*
X3806763Y3000571D02*
D03*
X3706763D02*
D03*
X3806763Y3100571D02*
D03*
X3706763D02*
D03*
Y3190571D02*
D03*
X3806763D02*
D03*
X3706763Y3280571D02*
D03*
X3806763D02*
D03*
X4425347Y2750308D02*
D03*
Y2660308D02*
D03*
X4528575Y2567644D02*
D03*
X4428575Y2477644D02*
D03*
X4528575D02*
D03*
X4428575Y2567644D02*
D03*
X4426763Y2380571D02*
D03*
X4526763Y2290571D02*
D03*
X4426763D02*
D03*
X4526763Y2380571D02*
D03*
X4626763Y2200571D02*
D03*
X4726763D02*
D03*
X4426763D02*
D03*
X4526763D02*
D03*
X4626763Y2100571D02*
D03*
X4726763D02*
D03*
X4426763D02*
D03*
X4526763D02*
D03*
X5476763Y7700571D02*
D03*
X5576763Y7610571D02*
D03*
X5476763D02*
D03*
X5776763Y7700571D02*
D03*
X5676763D02*
D03*
X5776763Y7610571D02*
D03*
X5576763Y7700571D02*
D03*
X5676763Y7610571D02*
D03*
Y7520571D02*
D03*
X5776763D02*
D03*
X5476763D02*
D03*
X5576763D02*
D03*
X5676763Y7420571D02*
D03*
X5776763D02*
D03*
X5476763D02*
D03*
X5576763D02*
D03*
X4896763Y8190571D02*
D03*
X4796763D02*
D03*
X5096763D02*
D03*
X4996763D02*
D03*
X4896763Y8290571D02*
D03*
X4796763D02*
D03*
X5096763D02*
D03*
X4996763D02*
D03*
Y8380571D02*
D03*
X4896763Y8470571D02*
D03*
X5096763Y8380571D02*
D03*
X4996763Y8470571D02*
D03*
X5096763D02*
D03*
X4796763Y8380571D02*
D03*
X4896763D02*
D03*
X4796763Y8470571D02*
D03*
X2806763Y7380571D02*
D03*
X3006763D02*
D03*
X2906763D02*
D03*
X2806763Y7480571D02*
D03*
X3006763D02*
D03*
X2906763D02*
D03*
Y7570571D02*
D03*
X2806763Y7660571D02*
D03*
X3006763Y7570571D02*
D03*
X2906763Y7660571D02*
D03*
X3006763D02*
D03*
X2706763Y7570571D02*
D03*
X2806763D02*
D03*
X2706763Y7660571D02*
D03*
X2776763Y8460571D02*
D03*
X2876763Y8370571D02*
D03*
X2776763D02*
D03*
X3076763Y8460571D02*
D03*
X2976763D02*
D03*
X3076763Y8370571D02*
D03*
X2876763Y8460571D02*
D03*
X2976763Y8370571D02*
D03*
Y8280571D02*
D03*
X3076763D02*
D03*
X2776763D02*
D03*
X2876763D02*
D03*
X2976763Y8180571D02*
D03*
X3076763D02*
D03*
X2776763D02*
D03*
X2876763D02*
D03*
X3357129Y8692556D02*
D03*
X3257129D02*
D03*
X3655000Y8697500D02*
D03*
X3557129Y8692556D02*
D03*
X3457129D02*
D03*
X3751184Y8693605D02*
D03*
X3357129Y8792556D02*
D03*
X3257129D02*
D03*
X3655000Y8797500D02*
D03*
X3557129Y8792556D02*
D03*
X3457129D02*
D03*
X3751184Y8793605D02*
D03*
Y8973605D02*
D03*
Y8883606D02*
D03*
X3457129Y8882556D02*
D03*
X3357129Y8972556D02*
D03*
X3557129Y8882556D02*
D03*
X3655000Y8887500D02*
D03*
X3457129Y8972556D02*
D03*
X3557129D02*
D03*
X3257129Y8882556D02*
D03*
X3357129D02*
D03*
X3655000Y8977500D02*
D03*
X3257129Y8972556D02*
D03*
X3849516Y8882476D02*
D03*
Y8972475D02*
D03*
Y8792475D02*
D03*
Y8692475D02*
D03*
X4599516Y10332475D02*
D03*
Y10432475D02*
D03*
Y10612475D02*
D03*
Y10522476D02*
D03*
X4007129Y10612556D02*
D03*
X4405000Y10617500D02*
D03*
X4107129Y10522556D02*
D03*
X4007129D02*
D03*
X4307129Y10612556D02*
D03*
X4207129D02*
D03*
X4405000Y10527500D02*
D03*
X4307129Y10522556D02*
D03*
X4107129Y10612556D02*
D03*
X4207129Y10522556D02*
D03*
X4501184Y10523606D02*
D03*
Y10613605D02*
D03*
Y10433605D02*
D03*
X4207129Y10432556D02*
D03*
X4307129D02*
D03*
X4405000Y10437500D02*
D03*
X4007129Y10432556D02*
D03*
X4107129D02*
D03*
X4501184Y10333605D02*
D03*
X4207129Y10332556D02*
D03*
X4307129D02*
D03*
X4405000Y10337500D02*
D03*
X4007129Y10332556D02*
D03*
X4107129D02*
D03*
X2797129Y11022556D02*
D03*
X2897129D02*
D03*
X2797129Y11122556D02*
D03*
X2897129D02*
D03*
X2797129Y11222556D02*
D03*
X2897129D02*
D03*
X2647129Y11322556D02*
D03*
X2447129D02*
D03*
X2547129D02*
D03*
X2647129Y11422556D02*
D03*
X2447129D02*
D03*
X2547129D02*
D03*
X2647129Y11522556D02*
D03*
X2447129D02*
D03*
X2547129D02*
D03*
Y11622556D02*
D03*
X2447129D02*
D03*
X2845000Y11627500D02*
D03*
X2747129Y11622556D02*
D03*
X2647129D02*
D03*
X2941184Y11623605D02*
D03*
X2547129Y11722556D02*
D03*
X2447129D02*
D03*
X2845000Y11727500D02*
D03*
X2747129Y11722556D02*
D03*
X2647129D02*
D03*
X2941184Y11723605D02*
D03*
Y11903605D02*
D03*
Y11813606D02*
D03*
X2647129Y11812556D02*
D03*
X2547129Y11902556D02*
D03*
X2747129Y11812556D02*
D03*
X2845000Y11817500D02*
D03*
X2647129Y11902556D02*
D03*
X2747129D02*
D03*
X2447129Y11812556D02*
D03*
X2547129D02*
D03*
X2845000Y11907500D02*
D03*
X2447129Y11902556D02*
D03*
X10670000Y6550000D02*
D03*
X6600000Y8640000D02*
D03*
X5840000Y9150000D02*
D03*
X6290000Y8550000D02*
D03*
X11624000Y6608000D02*
D03*
X10660000Y5880000D02*
D03*
X11030000D02*
D03*
X12820000Y4500000D02*
D03*
X12958995D02*
D03*
X13120000Y5410000D02*
D03*
X13000000Y3300000D02*
D03*
X14150000Y7480000D02*
D03*
X13320000Y6460000D02*
D03*
X7250000Y8350000D02*
D03*
X12780000Y8480000D02*
D03*
X7000000Y8450000D02*
D03*
X7010000Y8180000D02*
D03*
X13639999Y8260000D02*
D03*
X6240000Y5760000D02*
D03*
X11850000Y11890000D02*
D03*
X11990000Y11420000D02*
D03*
X10370000Y9480000D02*
D03*
X11860000Y11220000D02*
D03*
X10900000Y8330000D02*
D03*
X10682221Y8321685D02*
D03*
X7890000Y8300000D02*
D03*
X9980503Y9230503D02*
D03*
X2970000Y8600000D02*
D03*
X9660000Y9560000D02*
D03*
X9890000Y11190000D02*
D03*
X9510000Y9560000D02*
D03*
X9350000Y9570000D02*
D03*
X10020000Y9600000D02*
D03*
X9160000Y10240000D02*
D03*
X8350000Y10740000D02*
D03*
X5910000Y9680000D02*
D03*
X5110000Y11660000D02*
D03*
X4740000Y10860000D02*
D03*
X4650000Y11810000D02*
D03*
X5710000Y11360000D02*
D03*
X8870000Y4530000D02*
D03*
X10310000Y4630000D02*
D03*
X10430000Y4640000D02*
D03*
X5110000Y4650000D02*
D03*
X3050000Y4590000D02*
D03*
X6380000Y4930000D02*
D03*
X7960000Y4420000D02*
D03*
X5920000Y5090000D02*
D03*
X8960000Y2170000D02*
D03*
X3350000Y4060000D02*
D03*
X4620000Y5030000D02*
D03*
X4100000Y3975000D02*
D03*
X6560000Y2970000D02*
D03*
X6750000Y2130000D02*
D03*
D48*
X13700000Y4960000D02*
X14025000Y5285000D01*
X8750000Y4960000D02*
X13700000D01*
X14025000Y5285000D02*
Y5564000D01*
X8460000Y6191104D02*
Y6280000D01*
X8455547Y6191104D02*
X8460000D01*
X8455547Y6140704D02*
Y6191104D01*
Y6140704D02*
X8510800D01*
Y6090304D02*
Y6140704D01*
X8409200Y6090304D02*
X8510800D01*
X8409200Y6039904D02*
Y6090304D01*
Y6039904D02*
X8510800D01*
Y5989504D02*
Y6039904D01*
X8409200Y5989504D02*
X8510800D01*
X8409200Y5939104D02*
Y5989504D01*
Y5939104D02*
X8510800D01*
Y5888704D02*
Y5939104D01*
X8409200Y5888704D02*
X8510800D01*
X8409200Y5838304D02*
Y5888704D01*
Y5838304D02*
X8510800D01*
Y5787904D02*
Y5838304D01*
X8409200Y5787904D02*
X8510800D01*
X8409200Y5737504D02*
Y5787904D01*
Y5737504D02*
X8460000D01*
Y5725003D02*
Y5737504D01*
Y6280000D02*
Y6315355D01*
Y5418000D02*
Y5725003D01*
X8710000Y5580000D02*
Y5642299D01*
X8760800D01*
Y5692699D01*
X8659200D02*
X8760800D01*
X8659200D02*
Y5743099D01*
X8760800D01*
Y5793499D01*
X8659200D02*
X8760800D01*
X8659200D02*
Y5843899D01*
X8760800D01*
Y5894299D01*
X8659200D02*
X8760800D01*
X8659200D02*
Y5944699D01*
X8760800D01*
Y5995099D01*
X8659200D02*
X8760800D01*
X8659200D02*
Y6045499D01*
X8760800D01*
Y6095899D01*
X8659200D02*
X8760800D01*
X8659200D02*
Y6146299D01*
X8760800D01*
Y6196699D01*
X8659200D02*
X8760800D01*
X8659200D02*
Y6247099D01*
X8760800D01*
Y6297499D01*
X8710000D02*
X8760800D01*
X8710000D02*
Y6310000D01*
Y5430000D02*
Y5580000D01*
Y6310000D02*
Y6315355D01*
X8460000D02*
X8474645Y6330000D01*
X8695355D02*
X8710000Y6315355D01*
X8474645Y6330000D02*
X8695355D01*
X8710000Y5000000D02*
Y5430000D01*
X8328000Y5286000D02*
X8460000Y5418000D01*
X8710000Y5000000D02*
X8750000Y4960000D01*
%TF.MD5,78e16f14fffa8fbf2ab800dec6d2527f*%
M02*
