%TF.GenerationSoftware,Altium Limited,Altium Designer,24.5.2 (23)*%
G04 Layer_Color=8421504*
%FSLAX45Y45*%
%MOMM*%
%TF.SameCoordinates,5A5307CA-094C-43D5-B752-2CBB6B1D3501*%
%TF.FilePolarity,Positive*%
%TF.FileFunction,Paste,Top*%
%TF.Part,Single*%
G01*
G75*
%TA.AperFunction,SMDPad,CuDef*%
%ADD10R,2.00000X2.00000*%
%ADD11R,1.20000X1.20000*%
%ADD12R,0.95000X1.40000*%
%ADD13R,0.60000X0.96000*%
%ADD14R,1.25000X0.60000*%
%ADD15R,1.40000X0.95000*%
%ADD16R,1.20000X1.20000*%
D10*
X3950000Y11440000D02*
D03*
Y10820000D02*
D03*
X2850000D02*
D03*
Y11440000D02*
D03*
D11*
X13060001Y7700000D02*
D03*
X13270000D02*
D03*
X14020000Y8390000D02*
D03*
X13810001D02*
D03*
X9310000Y2170000D02*
D03*
X9100000D02*
D03*
X6940000Y2175000D02*
D03*
X7150000D02*
D03*
D12*
X13060001Y7500000D02*
D03*
X13250000D02*
D03*
X9070000Y4080000D02*
D03*
X9260000D02*
D03*
X14430000Y8390000D02*
D03*
X14239999D02*
D03*
X7520000Y2170000D02*
D03*
X7330000D02*
D03*
D13*
X13175000Y5527655D02*
D03*
X13270000D02*
D03*
X13080000D02*
D03*
Y5750000D02*
D03*
X13175000D02*
D03*
X13270000D02*
D03*
D14*
X13275000Y8195000D02*
D03*
Y8005000D02*
D03*
X13025000D02*
D03*
Y8100000D02*
D03*
Y8195000D02*
D03*
D15*
X9520000Y2350000D02*
D03*
Y2160000D02*
D03*
X3050000Y9110000D02*
D03*
Y9300000D02*
D03*
Y5150000D02*
D03*
Y5340000D02*
D03*
X4525000Y11375000D02*
D03*
Y11185000D02*
D03*
D16*
X3050000Y8700000D02*
D03*
Y8910000D02*
D03*
Y4750000D02*
D03*
Y4960000D02*
D03*
X9070000Y4490000D02*
D03*
Y4280000D02*
D03*
X4525000Y11810000D02*
D03*
Y11600000D02*
D03*
%TF.MD5,0a5fad0b177410ba7dff35715e5755f9*%
M02*
